<svg width="196" height="84" viewBox="0 0 196 84" fill="none" xmlns="http://www.w3.org/2000/svg">
<path d="M17.2105 38.52H12.4211" stroke="white" stroke-width="0.5" stroke-linecap="round" stroke-linejoin="round"/>
<path d="M17.2105 40.4568H12.4211" stroke="white" stroke-width="0.5" stroke-linecap="round" stroke-linejoin="round"/>
<path d="M17.2105 42.3552H12.4211" stroke="white" stroke-width="0.5" stroke-linecap="round" stroke-linejoin="round"/>
<path d="M32.4482 38.52H37.2506" stroke="white" stroke-width="0.5" stroke-linecap="round" stroke-linejoin="round"/>
<path d="M32.4482 40.4568H37.2506" stroke="white" stroke-width="0.5" stroke-linecap="round" stroke-linejoin="round"/>
<path d="M32.4482 42.3552H37.2506" stroke="white" stroke-width="0.5" stroke-linecap="round" stroke-linejoin="round"/>
<path d="M10.4094 36.9059V31.0433C10.4094 23.063 16.912 16.5935 24.9332 16.5935C32.9544 16.5935 39.457 23.063 39.457 31.0433V37.4095" stroke="white" stroke-linecap="round" stroke-linejoin="round"/>
<path d="M48.88 38.8943V26.5623C48.88 6.94723 34.8494 1.49788 27.568 0.903878C25.5692 0.74892 24.4919 0.697268 22.0129 0.916791C15.5752 1.5108 0.778809 7.03762 0.778809 26.5623V44.2791" stroke="white" stroke-width="1.2" stroke-linecap="round" stroke-linejoin="round"/>
<path d="M17.7686 7.39917C10.4872 10.8857 5.46423 18.2979 5.46423 26.8722V38.9072H10.1887V37.8484C10.1887 36.6862 11.1362 35.7564 12.2913 35.7564H15.7308C16.5485 35.7564 17.2105 36.415 17.2105 37.2285" stroke="white" stroke-linecap="round" stroke-linejoin="round"/>
<path d="M31.9031 7.39917C39.1844 10.8857 44.2074 18.2979 44.2074 26.8722V38.9072H39.483V37.8484C39.483 36.6862 38.5355 35.7564 37.3803 35.7564H33.9408C33.1231 35.7564 32.4612 36.415 32.4612 37.2285" stroke="white" stroke-linecap="round" stroke-linejoin="round"/>
<path d="M31.9031 7.39917C39.1844 10.8857 44.2074 18.2979 44.2074 26.8722V38.9072H39.483V37.8484C39.483 36.6862 38.5355 35.7564 37.3803 35.7564H33.9408C33.1231 35.7564 32.4612 36.415 32.4612 37.2285V42.7941" stroke="white" stroke-linecap="round" stroke-linejoin="round"/>
<path d="M17.7686 7.39917C10.4872 10.8857 5.46423 18.2979 5.46423 26.8722V38.9072H10.1887V37.8484C10.1887 36.6862 11.1362 35.7564 12.2913 35.7564H15.7308C16.5485 35.7564 17.2105 36.415 17.2105 37.2285V42.7941" stroke="white" stroke-linecap="round" stroke-linejoin="round"/>
<path d="M79.0178 32.3861V31.8308C80.3157 31.6758 80.4715 31.4692 80.1859 30.7203C79.9263 29.9455 79.524 28.9641 79.1087 27.7115H74.8125C74.488 28.6025 74.1895 29.3773 73.9169 30.1908C73.4756 31.4821 73.7612 31.6371 75.3836 31.8308V32.3861H70.7889V31.8308C72.0479 31.6758 72.3594 31.5338 73.0603 29.7518L77.1747 19.3567L77.8107 19.2405C79.0697 22.6237 80.4325 26.3685 81.6915 29.7905C82.3275 31.508 82.5092 31.6758 83.924 31.8308V32.3861H79.0048H79.0178ZM77.032 21.836C76.396 23.5406 75.7211 25.3355 75.124 26.9109H78.8491L77.032 21.836Z" fill="white"/>
<path d="M84.5729 32.3863V31.831C85.8449 31.7148 86.0007 31.6115 86.0007 30.3072V20.8161C86.0007 19.6023 85.8968 19.486 84.6248 19.3311V18.8145C85.7021 18.6983 86.9352 18.3755 87.5711 18.1431V30.3072C87.5711 31.6115 87.688 31.7148 88.9859 31.831V32.3863H84.5729Z" fill="white"/>
<path d="M97.2667 30.7074C95.9947 32.2957 94.6059 32.6315 93.9569 32.6315C91.5298 32.6315 90.0502 30.6558 90.0502 28.3701C90.0502 27.0272 90.5304 25.7746 91.3481 24.9094C92.1788 23.9797 93.282 23.4631 94.3204 23.4631C96.0466 23.4631 97.3705 24.9481 97.3705 26.5365C97.3445 26.9368 97.2926 27.1046 96.9681 27.195C96.5658 27.2725 94.0218 27.4533 91.6596 27.5308C91.5947 30.1909 93.2301 31.2756 94.6448 31.2756C95.4625 31.2756 96.2153 30.9398 96.9551 30.2684L97.2796 30.7203L97.2667 30.7074ZM93.8401 24.2121C92.9186 24.2121 92.023 25.0644 91.7505 26.6656C92.8667 26.6656 93.9829 26.6656 95.151 26.601C95.5144 26.601 95.6313 26.4977 95.6313 26.2007C95.6572 25.1548 94.9563 24.1992 93.8401 24.1992V24.2121Z" fill="white"/>
<path d="M103.185 32.3861V31.8309C104.042 31.7276 104.224 31.5984 103.886 31.0561L102.393 28.7446C101.952 29.4548 101.524 30.1522 101.122 30.8495C100.745 31.5209 100.784 31.7017 101.822 31.8438V32.399H98.0584V31.8438C99.3174 31.6888 99.577 31.5468 100.304 30.5783C100.862 29.8035 101.381 29.0287 101.978 28.1377L100.265 25.4647C99.6678 24.5091 99.4342 24.38 98.318 24.2379V23.7085H102.316V24.2379C101.485 24.3542 101.394 24.5091 101.758 25.0902L102.952 26.898C103.328 26.3299 103.73 25.6455 104.081 25.0515C104.418 24.4962 104.301 24.3412 103.445 24.2379V23.7085H107.066V24.2379C105.989 24.3542 105.573 24.4316 104.782 25.4647C104.509 25.8392 104.029 26.4977 103.367 27.4791L105.275 30.4104C106.028 31.4951 106.248 31.6759 107.468 31.8309V32.3861H103.185Z" fill="white"/>
<path d="M124.354 32.554C124.095 32.554 123.874 32.5282 123.615 32.5153C122.161 32.412 121.382 32.0375 120.513 30.8107C119.773 29.8035 119.059 28.5509 118.423 27.5437C118.021 26.911 117.761 26.7948 116.749 26.7948H116.048V29.9068C116.048 31.5855 116.268 31.6888 117.865 31.8438V32.3991H112.556V31.8438C114.205 31.663 114.347 31.5855 114.347 29.9068V22.004C114.347 20.3253 114.127 20.2607 112.556 20.0799V19.5247H117.631C119.085 19.5247 120.058 19.7054 120.811 20.1961C121.629 20.7127 122.161 21.6037 122.161 22.8046C122.161 24.5091 121.071 25.5809 119.591 26.2137C119.954 26.8335 120.811 28.1506 121.408 29.0416C122.148 30.0876 122.524 30.5912 122.979 31.0819C123.511 31.6501 123.978 31.8696 124.432 31.9988L124.354 32.554ZM117.008 26.1233C118.047 26.1233 118.695 25.9683 119.202 25.5551C119.98 24.9869 120.292 24.1863 120.292 23.1145C120.292 20.9968 118.877 20.222 117.346 20.222C116.775 20.222 116.424 20.2994 116.294 20.4157C116.113 20.5577 116.061 20.7514 116.061 21.2679V26.1233H117.021H117.008Z" fill="white"/>
<path d="M129.494 23.4631C131.986 23.4631 133.829 25.3485 133.829 27.9053C133.829 31.1077 131.441 32.6444 129.494 32.6444C126.743 32.6444 125.081 30.4491 125.081 28.2281C125.081 24.9998 127.612 23.476 129.494 23.476V23.4631ZM129.261 24.1346C128.041 24.1346 126.95 25.2968 126.95 27.5953C126.95 30.1134 128.066 31.9342 129.702 31.9342C130.935 31.9342 131.973 31.0432 131.973 28.3314C131.973 26.0199 131.013 24.1346 129.261 24.1346Z" fill="white"/>
<path d="M145.017 31.8953C144.602 31.9728 143.109 32.2182 141.928 32.6314V31.3401C141.565 31.5596 141.059 31.8308 140.695 32.0503C139.904 32.5023 139.358 32.6185 139.125 32.6185C137.528 32.6185 135.426 31.0302 135.426 28.2668C135.426 25.5033 137.853 23.4502 140.578 23.4502C140.851 23.4502 141.513 23.4889 141.928 23.6697V20.7642C141.928 19.4987 141.786 19.46 140.371 19.3438V18.8272C141.37 18.6852 142.759 18.414 143.499 18.1558V30.1004C143.499 31.1335 143.642 31.2626 144.368 31.3143L145.004 31.353V31.9083L145.017 31.8953ZM141.928 25.2451C141.474 24.5478 140.617 24.2379 139.839 24.2379C138.878 24.2379 137.191 24.8706 137.191 27.7244C137.191 30.1262 138.684 31.3917 139.955 31.4046C140.669 31.4046 141.448 31.0431 141.928 30.6944V25.2451Z" fill="white"/>
<path d="M150.547 32.3862H145.965V31.8309C147.224 31.7147 147.341 31.6114 147.341 30.3201V26.2008C147.341 24.8966 147.263 24.832 146.108 24.69V24.1993C147.081 24.0443 147.977 23.799 148.911 23.3857V25.5681C149.612 24.535 150.443 23.4503 151.442 23.4503C152.182 23.4503 152.597 23.9023 152.597 24.4059C152.597 24.8578 152.273 25.2969 151.922 25.4906C151.728 25.6068 151.559 25.5939 151.403 25.4518C151.105 25.1548 150.871 24.9611 150.508 24.9611C150.092 24.9611 149.353 25.581 148.911 26.5882V30.3072C148.911 31.6114 149.015 31.7147 150.547 31.8309V32.3862Z" fill="white"/>
<path d="M153.519 32.3863V31.831C154.778 31.7148 154.908 31.6115 154.908 30.2685V26.188C154.908 24.9612 154.843 24.8837 153.649 24.6771V24.1993C154.687 24.0186 155.621 23.7603 156.478 23.4116V30.2685C156.478 31.6115 156.621 31.7148 157.906 31.831V32.3863H153.506H153.519ZM155.583 21.4747C155.024 21.4747 154.531 20.984 154.531 20.4287C154.531 19.796 155.024 19.344 155.609 19.344C156.193 19.344 156.621 19.796 156.621 20.4287C156.621 20.984 156.167 21.4747 155.583 21.4747Z" fill="white"/>
<path d="M161.514 29.4937C161.034 29.8681 160.852 30.2426 160.852 30.488C160.852 30.8495 161.19 31.2369 162.085 31.2369C162.825 31.2369 163.656 31.2111 164.318 31.2111C165.59 31.2111 167.225 31.6243 167.225 33.5871C167.225 35.6403 164.772 37.5902 162.124 37.5902C159.879 37.5902 158.659 36.286 158.62 35.1109C158.62 34.6718 158.801 34.2973 159.113 33.9874C159.515 33.5742 160.281 32.9156 160.748 32.567C160.034 32.3733 159.515 31.9084 159.256 31.4952C159.074 31.1982 159.022 30.8366 159.022 30.6429C159.775 30.3718 160.45 29.8165 160.852 29.2741L161.514 29.4937ZM162.475 29.6874C160.618 29.6874 159.087 28.5639 159.087 26.6915C159.087 24.4317 161.112 23.3857 162.669 23.3857C163.331 23.3857 163.98 23.5665 164.577 23.8764C165.499 23.8764 166.693 23.7215 167.238 23.5794L167.355 23.7602C167.238 24.0831 166.913 24.6254 166.615 24.8062C166.316 24.8062 165.654 24.7287 165.382 24.7029C165.719 25.1548 165.953 25.7876 165.953 26.5107C165.953 28.6672 164.162 29.6744 162.449 29.6744L162.475 29.6874ZM162.929 32.6186C161.955 32.6186 161.514 32.7349 161.164 33.0319C160.606 33.4838 160.203 34.0778 160.203 34.6589C160.203 35.7436 161.332 36.5571 162.864 36.5571C164.759 36.5571 165.836 35.5887 165.836 34.3232C165.836 33.6517 165.512 33.1093 164.967 32.8769C164.473 32.6574 163.772 32.6186 162.942 32.6186H162.929ZM162.475 24.0185C161.579 24.0185 160.787 24.832 160.787 26.3945C160.787 27.957 161.579 29.0417 162.682 29.0417C163.552 29.003 164.331 28.2669 164.331 26.6657C164.331 25.0644 163.591 24.0185 162.475 24.0185Z" fill="white"/>
<path d="M177.595 31.9343C176.635 32.0764 175.571 32.3346 174.545 32.6316V31.1079C173.468 31.9989 172.598 32.6316 171.495 32.6316C170.158 32.6316 169.003 31.8181 169.003 29.6616V25.8135C169.003 24.7417 168.847 24.6255 168.341 24.5222L167.783 24.4189V23.9023C168.64 23.8636 169.951 23.6699 170.626 23.5408C170.561 24.1735 170.561 25.1291 170.561 26.4333V29.1322C170.561 30.8754 171.482 31.3661 172.378 31.3661C173.118 31.3661 173.844 31.0433 174.532 30.4106V25.8006C174.532 24.7288 174.299 24.5867 173.611 24.4963L172.975 24.4189V23.9023C174.247 23.8378 175.649 23.6312 176.103 23.5408V30.1781C176.103 31.1724 176.259 31.3016 177.024 31.3403L177.582 31.3661V31.9214L177.595 31.9343Z" fill="white"/>
<path d="M185.824 30.7074C184.552 32.2957 183.164 32.6315 182.515 32.6315C180.087 32.6315 178.608 30.6558 178.608 28.3701C178.608 27.0272 179.088 25.7746 179.906 24.9094C180.736 23.9797 181.84 23.4631 182.878 23.4631C184.604 23.4631 185.928 24.9481 185.928 26.5365C185.902 26.9368 185.85 27.1046 185.526 27.195C185.123 27.2725 182.579 27.4533 180.217 27.5308C180.152 30.1909 181.788 31.2756 183.202 31.2756C184.02 31.2756 184.773 30.9398 185.513 30.2684L185.837 30.7203L185.824 30.7074ZM182.398 24.2121C181.476 24.2121 180.581 25.0644 180.308 26.6656C181.424 26.6656 182.54 26.6656 183.709 26.601C184.072 26.601 184.189 26.4977 184.189 26.2007C184.215 25.1548 183.514 24.1992 182.398 24.1992V24.2121Z" fill="white"/>
<path d="M194.819 29.8552C194.559 30.63 194.157 31.7535 193.962 32.3862H187.278L187.161 32.0634C188.887 29.5711 190.588 26.9369 192.223 24.3801H190.289C188.874 24.3801 188.641 24.5996 187.862 26.3041L187.304 26.1233C187.525 25.3744 187.784 24.1476 187.927 23.2695H188.368C188.485 23.5665 188.745 23.6828 189.484 23.6828H194.183L194.3 23.9798C192.729 26.3558 190.977 29.0546 189.329 31.6889H191.457C192.976 31.6889 193.43 31.2886 194.326 29.6357L194.845 29.8552H194.819Z" fill="white"/>
<path d="M72.7099 55.2296C72.4244 55.2296 72.1778 55.1263 71.9831 54.9326C71.7884 54.7389 71.6846 54.4935 71.6846 54.2095V40.9606C71.6846 40.6636 71.7884 40.4182 71.9831 40.2245C72.1778 40.0308 72.4244 39.9404 72.7099 39.9404H76.6427C77.6291 39.9404 78.4987 40.16 79.2645 40.5861C80.0302 41.0122 80.6143 41.6191 81.0426 42.381C81.4709 43.1429 81.6786 44.021 81.6786 45.0153C81.6786 46.0096 81.4709 46.8102 81.0426 47.5592C80.6143 48.3081 80.0173 48.8892 79.2645 49.3025C78.4987 49.7157 77.6291 49.9223 76.6427 49.9223H73.7353V54.2095C73.7353 54.4935 73.6444 54.7389 73.4498 54.9326C73.2551 55.1263 73.0085 55.2296 72.7099 55.2296ZM73.7353 48.0499H76.6427C77.2397 48.0499 77.7718 47.9208 78.2391 47.6625C78.6934 47.4042 79.0568 47.0427 79.3164 46.5907C79.576 46.1387 79.7058 45.6093 79.7058 45.0282C79.7058 44.4084 79.576 43.8531 79.3164 43.3753C79.0568 42.8975 78.6934 42.5231 78.2391 42.2519C77.7848 41.9807 77.2527 41.8387 76.6427 41.8387H73.7353V48.0628V48.0499Z" fill="white"/>
<path d="M88.8172 55.4361C87.9735 55.4361 87.1818 55.307 86.416 55.0487C85.6502 54.7904 84.9883 54.4289 84.4302 53.9511C83.8721 53.4862 83.4567 52.9439 83.1971 52.324C83.0673 52.0529 83.0673 51.7946 83.1971 51.5622C83.3399 51.3297 83.5735 51.1748 83.898 51.1102C84.1316 51.0586 84.3653 51.0973 84.5989 51.2135C84.8325 51.3426 85.0013 51.5234 85.1181 51.7688C85.2738 52.0916 85.5334 52.3886 85.8968 52.6727C86.2602 52.9439 86.6886 53.1634 87.2077 53.3442C87.7139 53.512 88.2591 53.6024 88.8172 53.6024C89.4402 53.6024 90.0242 53.4991 90.5564 53.3054C91.0885 53.1117 91.5169 52.8276 91.8413 52.4532C92.1658 52.0787 92.3345 51.6267 92.3345 51.0715C92.3345 50.3742 92.062 49.7543 91.5169 49.212C90.9717 48.6696 90.0762 48.321 88.8301 48.1918C87.2077 48.0369 85.9228 47.5591 85.0013 46.7585C84.0667 45.9579 83.5995 44.9765 83.5995 43.8014C83.5995 42.9362 83.8461 42.213 84.3263 41.6061C84.8066 41.0121 85.4685 40.5473 86.2992 40.2373C87.1299 39.9274 88.0644 39.7725 89.0767 39.7725C89.8815 39.7725 90.5694 39.8887 91.1664 40.1082C91.7635 40.3277 92.2826 40.6376 92.7239 41.025C93.1652 41.4124 93.5546 41.8773 93.8791 42.4197C94.0608 42.7037 94.1387 42.9749 94.0997 43.2332C94.0608 43.4914 93.944 43.6851 93.7103 43.8272C93.4637 43.9821 93.1912 44.0209 92.9056 43.9305C92.6201 43.8401 92.3994 43.6722 92.2567 43.4269C92.049 43.0524 91.7894 42.7296 91.4909 42.4713C91.1924 42.213 90.8289 42.0064 90.4266 41.8515C90.0242 41.6965 89.544 41.632 88.9859 41.632C88.0124 41.632 87.2077 41.7998 86.5458 42.1743C85.8838 42.5488 85.5594 43.117 85.5594 43.8918C85.5594 44.2792 85.6632 44.6536 85.8579 45.0152C86.0656 45.3768 86.429 45.6867 86.9741 45.9449C87.5192 46.2032 88.298 46.384 89.3234 46.4873C90.8809 46.6423 92.1009 47.12 92.9705 47.9077C93.8401 48.6954 94.2814 49.7414 94.2814 51.0327C94.2814 51.7817 94.1257 52.4273 93.8142 52.9697C93.5027 53.512 93.0873 53.9769 92.5812 54.3514C92.062 54.7259 91.4779 54.9971 90.816 55.1778C90.154 55.3586 89.4661 55.449 88.7652 55.449L88.8172 55.4361Z" fill="white"/>
<path d="M98.4867 55.2296C98.2012 55.2296 97.9546 55.1263 97.7599 54.9326C97.5652 54.7389 97.4614 54.4935 97.4614 54.2095V40.9606C97.4614 40.6636 97.5652 40.4182 97.7599 40.2245C97.9546 40.0308 98.2012 39.9404 98.4867 39.9404C98.7723 39.9404 99.0319 40.0308 99.2265 40.2245C99.4212 40.4182 99.5121 40.6636 99.5121 40.9606V54.2095C99.5121 54.4935 99.4212 54.7389 99.2265 54.9326C99.0319 55.1263 98.7853 55.2296 98.4867 55.2296Z" fill="white"/>
<path d="M110.337 55.4361C109.272 55.4361 108.286 55.2424 107.352 54.8421C106.43 54.4418 105.625 53.8865 104.937 53.1763C104.249 52.4661 103.717 51.6396 103.328 50.6841C102.939 49.7285 102.744 48.6954 102.744 47.5978C102.744 46.5002 102.939 45.4801 103.328 44.5374C103.717 43.5948 104.249 42.7683 104.937 42.0581C105.625 41.3479 106.43 40.7926 107.352 40.3794C108.273 39.9791 109.259 39.7725 110.337 39.7725C111.349 39.7725 112.219 39.9016 112.946 40.1599C113.672 40.4181 114.399 40.8572 115.139 41.4512C115.243 41.5286 115.321 41.6061 115.386 41.6965C115.451 41.7869 115.49 41.8644 115.503 41.9548C115.528 42.0452 115.528 42.1356 115.528 42.2518C115.528 42.4971 115.438 42.7037 115.269 42.8716C115.087 43.0395 114.88 43.1299 114.633 43.1428C114.386 43.1686 114.14 43.0782 113.906 42.8974C113.426 42.4842 112.92 42.1614 112.4 41.9419C111.881 41.7223 111.193 41.6061 110.35 41.6061C109.571 41.6061 108.844 41.7611 108.169 42.071C107.481 42.3809 106.884 42.82 106.365 43.3623C105.846 43.9047 105.444 44.5503 105.158 45.2735C104.872 45.9966 104.73 46.7714 104.73 47.5978C104.73 48.4243 104.872 49.212 105.158 49.9351C105.444 50.6582 105.846 51.291 106.365 51.8463C106.884 52.3886 107.481 52.8276 108.169 53.1247C108.857 53.4346 109.584 53.5895 110.35 53.5895C111.025 53.5895 111.648 53.4733 112.245 53.2409C112.842 53.0084 113.413 52.6985 113.971 52.2982C114.205 52.1303 114.438 52.0529 114.672 52.0787C114.905 52.1045 115.1 52.1949 115.256 52.3499C115.412 52.5177 115.49 52.7373 115.49 53.0213C115.49 53.1505 115.464 53.2796 115.412 53.4087C115.36 53.5379 115.282 53.6412 115.178 53.7574C114.464 54.3127 113.711 54.7388 112.907 55.0229C112.102 55.307 111.245 55.449 110.363 55.449L110.337 55.4361Z" fill="white"/>
<path d="M125.834 55.4362C124.679 55.4362 123.628 55.2425 122.667 54.8551C121.707 54.4677 120.889 53.9253 120.201 53.228C119.513 52.5307 118.981 51.7043 118.605 50.7487C118.228 49.7931 118.034 48.7342 118.034 47.585C118.034 46.4357 118.228 45.3897 118.605 44.4342C118.981 43.4786 119.513 42.6522 120.201 41.9549C120.889 41.2575 121.707 40.7152 122.667 40.3278C123.628 39.9404 124.679 39.7467 125.834 39.7467C126.989 39.7467 128.041 39.9404 128.988 40.3278C129.935 40.7152 130.766 41.2575 131.454 41.9549C132.155 42.6522 132.687 43.4786 133.063 44.4342C133.44 45.3897 133.635 46.4357 133.635 47.585C133.635 48.7342 133.44 49.7802 133.063 50.7487C132.687 51.7043 132.142 52.5307 131.454 53.228C130.753 53.9253 129.935 54.4677 128.988 54.8551C128.041 55.2425 126.989 55.4362 125.834 55.4362ZM125.834 53.6025C126.691 53.6025 127.469 53.4475 128.183 53.1376C128.897 52.8277 129.52 52.4016 130.039 51.8721C130.559 51.3298 130.961 50.697 131.246 49.961C131.532 49.2249 131.675 48.4372 131.675 47.5979C131.675 46.7585 131.532 45.9579 131.246 45.2348C130.961 44.4987 130.559 43.866 130.039 43.3236C129.52 42.7813 128.897 42.3681 128.183 42.0582C127.469 41.7612 126.691 41.6062 125.834 41.6062C124.977 41.6062 124.199 41.7612 123.485 42.0582C122.771 42.3552 122.148 42.7813 121.642 43.3236C121.123 43.866 120.72 44.4987 120.435 45.2348C120.149 45.9708 120.006 46.7585 120.006 47.5979C120.006 48.4372 120.149 49.2379 120.435 49.961C120.72 50.697 121.123 51.3298 121.642 51.8721C122.161 52.4145 122.771 52.8406 123.485 53.1376C124.199 53.4475 124.977 53.6025 125.834 53.6025ZM125.912 38.2875C125.626 38.2875 125.38 38.1971 125.198 38.0034C125.003 37.8097 124.913 37.5773 124.913 37.2932C124.913 37.0091 124.99 36.8025 125.146 36.6217L127.067 34.7106C127.262 34.5169 127.495 34.4136 127.781 34.4136C128.079 34.4136 128.326 34.5169 128.508 34.7106C128.689 34.9043 128.78 35.1496 128.78 35.4337C128.78 35.5628 128.754 35.692 128.715 35.8082C128.677 35.9244 128.599 36.0277 128.495 36.1181L126.587 38.0163C126.405 38.1971 126.172 38.2875 125.899 38.2875H125.912Z" fill="white"/>
<path d="M137.84 55.2296C137.554 55.2296 137.308 55.1263 137.126 54.9326C136.931 54.7389 136.84 54.4935 136.84 54.2095V40.9606C136.84 40.6765 136.944 40.4311 137.139 40.2374C137.334 40.0437 137.567 39.9404 137.853 39.9404C138.138 39.9404 138.385 40.0437 138.58 40.2374C138.774 40.4311 138.878 40.6765 138.878 40.9606V53.1893H145.991C146.276 53.1893 146.523 53.2926 146.718 53.4863C146.912 53.68 147.016 53.9254 147.016 54.2095C147.016 54.4935 146.912 54.7389 146.718 54.9326C146.523 55.1263 146.276 55.2296 145.991 55.2296H137.853H137.84Z" fill="white"/>
<path d="M155.193 55.4361C154.038 55.4361 152.987 55.2424 152.026 54.855C151.066 54.4676 150.248 53.9252 149.56 53.2279C148.872 52.5306 148.34 51.7042 147.964 50.7486C147.587 49.793 147.393 48.7341 147.393 47.5849C147.393 46.4356 147.587 45.3896 147.964 44.4341C148.34 43.4785 148.872 42.652 149.56 41.9547C150.248 41.2574 151.066 40.7151 152.026 40.3277C152.987 39.9403 154.038 39.7466 155.193 39.7466C156.348 39.7466 157.4 39.9403 158.347 40.3277C159.295 40.7151 160.125 41.2574 160.813 41.9547C161.514 42.652 162.046 43.4785 162.423 44.4341C162.799 45.3896 162.994 46.4356 162.994 47.5849C162.994 48.7341 162.799 49.7801 162.423 50.7486C162.046 51.7042 161.501 52.5306 160.813 53.2279C160.112 53.9252 159.295 54.4676 158.347 54.855C157.4 55.2424 156.348 55.4361 155.193 55.4361ZM155.193 53.6024C156.05 53.6024 156.829 53.4474 157.542 53.1375C158.256 52.8276 158.879 52.4015 159.398 51.872C159.918 51.3297 160.32 50.6969 160.606 49.9609C160.891 49.2248 161.034 48.4371 161.034 47.5978C161.034 46.7584 160.891 45.9578 160.606 45.2347C160.32 44.4986 159.918 43.8659 159.398 43.3235C158.879 42.7812 158.256 42.3679 157.542 42.058C156.829 41.761 156.05 41.6061 155.193 41.6061C154.337 41.6061 153.558 41.761 152.844 42.058C152.13 42.355 151.507 42.7812 151.001 43.3235C150.482 43.8659 150.079 44.4986 149.794 45.2347C149.508 45.9707 149.365 46.7584 149.365 47.5978C149.365 48.4371 149.508 49.2377 149.794 49.9609C150.079 50.6969 150.482 51.3297 151.001 51.872C151.52 52.4144 152.13 52.8405 152.844 53.1375C153.558 53.4474 154.337 53.6024 155.193 53.6024Z" fill="white"/>
<path d="M172.689 55.4361C171.625 55.4361 170.639 55.2424 169.704 54.8421C168.782 54.4418 167.978 53.8865 167.29 53.1763C166.602 52.4661 166.07 51.6396 165.68 50.6841C165.291 49.7285 165.096 48.6954 165.096 47.5978C165.096 46.5002 165.291 45.4801 165.68 44.5374C166.07 43.5948 166.602 42.7683 167.29 42.0581C167.978 41.3479 168.782 40.7926 169.704 40.3794C170.626 39.9791 171.612 39.7725 172.689 39.7725C173.702 39.7725 174.571 39.9016 175.298 40.1599C176.025 40.4181 176.752 40.8572 177.492 41.4512C177.595 41.5286 177.673 41.6061 177.738 41.6965C177.803 41.7869 177.842 41.8644 177.855 41.9548C177.881 42.0452 177.881 42.1356 177.881 42.2518C177.881 42.4971 177.79 42.7037 177.621 42.8716C177.44 43.0395 177.232 43.1299 176.972 43.1428C176.713 43.1557 176.479 43.0653 176.259 42.8845C175.778 42.4713 175.272 42.1485 174.753 41.929C174.234 41.7094 173.546 41.5932 172.702 41.5932C171.923 41.5932 171.197 41.7482 170.522 42.0581C169.834 42.368 169.237 42.8071 168.718 43.3494C168.198 43.8918 167.796 44.5374 167.511 45.2605C167.225 45.9837 167.082 46.7585 167.082 47.5849C167.082 48.4114 167.225 49.1991 167.511 49.9222C167.796 50.6453 168.198 51.2781 168.718 51.8333C169.237 52.3757 169.834 52.8147 170.522 53.1117C171.21 53.4217 171.936 53.5766 172.702 53.5766C173.377 53.5766 174 53.4604 174.597 53.228C175.194 52.9955 175.765 52.6856 176.323 52.2853C176.557 52.1174 176.791 52.0399 177.024 52.0658C177.258 52.0916 177.453 52.182 177.608 52.3369C177.764 52.5048 177.842 52.7243 177.842 53.0084C177.842 53.1376 177.816 53.2667 177.777 53.3958C177.725 53.525 177.647 53.6283 177.531 53.7445C176.83 54.3127 176.077 54.7517 175.272 55.0229C174.454 55.307 173.611 55.449 172.715 55.449L172.689 55.4361ZM177.816 53.0084L175.843 52.621V49.1216H173.131C172.845 49.1216 172.598 49.0312 172.404 48.8633C172.209 48.6954 172.105 48.4759 172.105 48.2177C172.105 47.9594 172.209 47.7399 172.404 47.572C172.598 47.4041 172.845 47.3137 173.131 47.3137H176.804C177.102 47.3137 177.349 47.4041 177.531 47.5978C177.712 47.7915 177.803 48.0369 177.803 48.3339V53.0084H177.816Z" fill="white"/>
<path d="M188.186 55.4361C187.031 55.4361 185.98 55.2424 185.02 54.855C184.059 54.4676 183.241 53.9252 182.553 53.2279C181.866 52.5306 181.333 51.7042 180.957 50.7486C180.581 49.793 180.386 48.7341 180.386 47.5849C180.386 46.4356 180.581 45.3896 180.957 44.4341C181.333 43.4785 181.866 42.652 182.553 41.9547C183.241 41.2574 184.059 40.7151 185.02 40.3277C185.98 39.9403 187.031 39.7466 188.186 39.7466C189.342 39.7466 190.393 39.9403 191.34 40.3277C192.288 40.7151 193.119 41.2574 193.807 41.9547C194.507 42.652 195.04 43.4785 195.416 44.4341C195.792 45.3896 195.987 46.4356 195.987 47.5849C195.987 48.7341 195.792 49.7801 195.416 50.7486C195.04 51.7042 194.494 52.5306 193.807 53.2279C193.106 53.9252 192.288 54.4676 191.34 54.855C190.393 55.2424 189.342 55.4361 188.186 55.4361ZM188.186 53.6024C189.043 53.6024 189.822 53.4474 190.536 53.1375C191.25 52.8276 191.873 52.4015 192.392 51.872C192.911 51.3297 193.313 50.6969 193.599 49.9609C193.884 49.2248 194.027 48.4371 194.027 47.5978C194.027 46.7584 193.884 45.9578 193.599 45.2347C193.313 44.4986 192.911 43.8659 192.392 43.3235C191.873 42.7812 191.25 42.3679 190.536 42.058C189.822 41.761 189.043 41.6061 188.186 41.6061C187.33 41.6061 186.551 41.761 185.837 42.058C185.123 42.355 184.5 42.7812 183.994 43.3235C183.475 43.8659 183.073 44.4986 182.787 45.2347C182.502 45.9707 182.359 46.7584 182.359 47.5978C182.359 48.4371 182.502 49.2377 182.787 49.9609C183.073 50.6969 183.475 51.3297 183.994 51.872C184.513 52.4144 185.123 52.8405 185.837 53.1375C186.551 53.4474 187.33 53.6024 188.186 53.6024Z" fill="white"/>
<path d="M48.8929 83.3543V77.8146C48.8929 69.718 44.428 62.6674 37.8215 58.9355" stroke="white" stroke-linecap="round" stroke-linejoin="round"/>
<path d="M0.778809 83.3543V80.2294C0.778809 64.1783 13.8619 51.1619 29.9952 51.1619H48.893V56.1463H31.345C16.9769 56.1463 5.33453 67.7294 5.33453 82.0243V83.3543" stroke="white" stroke-linecap="round" stroke-linejoin="round"/>
<path d="M48.8929 58.9355V67.2516" stroke="white" stroke-width="0.8" stroke-linecap="round" stroke-linejoin="round"/>
<path d="M5.45135 44.2791H48.88V48.1401H30.5143C15.3675 48.1401 5.04899 56.2237 2.63484 63.4938C1.99886 65.405 0.778809 65.25 0.778809 65.25V50.7744H4.17938L0.778809 48.4758V46.9133" stroke="white" stroke-width="0.75" stroke-linecap="round" stroke-linejoin="round"/>
<path d="M71.8273 63.9717C71.8273 63.9717 71.7365 63.9588 71.6975 63.92C71.6716 63.8813 71.6456 63.8426 71.6456 63.7909V59.6071C71.6456 59.6071 71.6586 59.5167 71.6975 59.4779C71.7365 59.4521 71.7754 59.4263 71.8273 59.4263H74.6309C74.6309 59.4263 74.7217 59.4392 74.7477 59.4779C74.7866 59.5167 74.7996 59.5554 74.7996 59.6071C74.7996 59.6587 74.7866 59.6974 74.7477 59.7233C74.7087 59.7491 74.6698 59.7749 74.6309 59.7749H71.9961V61.5182H73.93C73.93 61.5182 74.0208 61.5311 74.0598 61.5699C74.0987 61.6086 74.1117 61.6473 74.1117 61.699C74.1117 61.7506 74.0987 61.7894 74.0598 61.8281C74.0208 61.8669 73.9819 61.8798 73.93 61.8798H71.9961V63.623H74.6309C74.6309 63.623 74.7217 63.636 74.7477 63.6747C74.7866 63.7134 74.7996 63.7522 74.7996 63.7909C74.7996 63.8426 74.7866 63.8813 74.7477 63.92C74.7087 63.9588 74.6698 63.9717 74.6309 63.9717H71.8273Z" fill="white"/>
<path d="M77.0969 64.0362C76.8503 64.0362 76.6296 63.9974 76.422 63.9329C76.2143 63.8683 76.0456 63.765 75.8898 63.6488C75.747 63.5197 75.6302 63.3776 75.5394 63.2097C75.5134 63.1581 75.5134 63.1193 75.5394 63.0806C75.5653 63.0419 75.5913 63.0031 75.6432 62.9902C75.6821 62.9773 75.7341 62.9773 75.773 62.9902C75.8119 63.0031 75.8509 63.0419 75.8768 63.0806C75.9417 63.2097 76.0326 63.313 76.1494 63.4034C76.2662 63.4938 76.396 63.5713 76.5517 63.61C76.7075 63.6617 76.8892 63.6875 77.0839 63.6875C77.3045 63.6875 77.4992 63.6488 77.655 63.5713C77.8107 63.4938 77.9405 63.3905 78.0314 63.2485C78.1222 63.1064 78.1612 62.9257 78.1612 62.732C78.1612 62.4737 78.0703 62.2542 77.8886 62.0863C77.7069 61.9184 77.4214 61.8022 77.045 61.7506C76.6037 61.686 76.2662 61.5439 76.0196 61.3244C75.773 61.1049 75.6562 60.8337 75.6562 60.5238C75.6562 60.2914 75.7081 60.0977 75.8249 59.9298C75.9417 59.7619 76.0975 59.6199 76.3051 59.5295C76.5128 59.4391 76.7594 59.3875 77.032 59.3875C77.2396 59.3875 77.4214 59.4133 77.5901 59.4908C77.7588 59.5553 77.9146 59.6457 78.0444 59.749C78.1742 59.8523 78.278 59.9685 78.3429 60.0848C78.3688 60.1235 78.3818 60.1751 78.3688 60.2268C78.3559 60.2785 78.3169 60.3043 78.278 60.3301C78.2391 60.343 78.1871 60.343 78.1482 60.3301C78.1093 60.3172 78.0703 60.2914 78.0444 60.2526C77.9924 60.1752 77.9146 60.0977 77.8367 60.0202C77.7588 59.9427 77.642 59.8782 77.5122 59.8265C77.3824 59.7748 77.2267 59.749 77.045 59.749C76.7205 59.749 76.4739 59.8265 76.2922 59.9685C76.1105 60.1106 76.0196 60.3172 76.0196 60.5755C76.0196 60.7175 76.0585 60.8466 76.1364 60.9499C76.2143 61.0662 76.3311 61.1566 76.4998 61.2469C76.6686 61.3244 76.8762 61.389 77.1228 61.4277C77.629 61.5181 77.9795 61.6731 78.2131 61.8926C78.4337 62.1121 78.5376 62.3962 78.5376 62.7449C78.5376 62.9515 78.4986 63.1323 78.4337 63.2872C78.3688 63.4422 78.265 63.5842 78.1352 63.7004C78.0054 63.8167 77.8627 63.8941 77.6809 63.9587C77.4992 64.0233 77.3175 64.0491 77.0969 64.0491V64.0362Z" fill="white"/>
<path d="M79.7317 63.9717C79.7317 63.9717 79.6408 63.9588 79.6019 63.92C79.563 63.8813 79.55 63.8426 79.55 63.7909V59.6071C79.55 59.6071 79.563 59.5037 79.6019 59.4779C79.6279 59.4521 79.6798 59.4263 79.7317 59.4263H80.8998C81.1854 59.4263 81.432 59.4908 81.6526 59.6071C81.8733 59.7362 82.042 59.9041 82.1718 60.1236C82.3016 60.3431 82.3535 60.5885 82.3535 60.8725C82.3535 61.1566 82.2886 61.402 82.1718 61.6344C82.055 61.8669 81.8733 62.0218 81.6526 62.1509C81.432 62.2801 81.1854 62.3317 80.8998 62.3317H79.9134V63.778C79.9134 63.778 79.9004 63.8684 79.8615 63.9071C79.8355 63.9459 79.7836 63.9588 79.7317 63.9588V63.9717ZM79.9134 61.996H80.8998C81.1205 61.996 81.3152 61.9443 81.4709 61.8539C81.6397 61.7635 81.7694 61.6344 81.8603 61.4665C81.9512 61.2987 82.0031 61.105 82.0031 60.8855C82.0031 60.6659 81.9512 60.4722 81.8603 60.3173C81.7694 60.1494 81.6397 60.0203 81.4709 59.9299C81.3022 59.8395 81.1075 59.7878 80.8998 59.7878H79.9134V61.996Z" fill="white"/>
<path d="M83.3399 63.9717C83.3399 63.9717 83.2491 63.9588 83.2101 63.92C83.1712 63.8813 83.1582 63.8426 83.1582 63.7909V59.6071C83.1582 59.6071 83.1712 59.5167 83.2101 59.4779C83.2491 59.4392 83.288 59.4263 83.3399 59.4263H86.1434C86.1434 59.4263 86.2343 59.4392 86.2602 59.4779C86.2992 59.5167 86.3122 59.5554 86.3122 59.6071C86.3122 59.6587 86.2992 59.6974 86.2602 59.7233C86.2213 59.762 86.1824 59.7749 86.1434 59.7749H83.5086V61.5182H85.4426C85.4426 61.5182 85.5334 61.5311 85.5723 61.5699C85.6113 61.5957 85.6243 61.6473 85.6243 61.699C85.6243 61.7506 85.6113 61.7894 85.5723 61.8281C85.5334 61.8669 85.4945 61.8798 85.4426 61.8798H83.5086V63.623H86.1434C86.1434 63.623 86.2343 63.636 86.2602 63.6747C86.2862 63.7134 86.3122 63.7522 86.3122 63.7909C86.3122 63.8426 86.2992 63.8813 86.2602 63.92C86.2213 63.9588 86.1824 63.9717 86.1434 63.9717H83.3399Z" fill="white"/>
<path d="M89.2844 64.0362C88.9729 64.0362 88.6874 63.9716 88.4018 63.8554C88.1293 63.7392 87.8827 63.5713 87.675 63.3518C87.4673 63.1322 87.2986 62.8869 87.1818 62.6028C87.065 62.3187 87.0001 62.0217 87.0001 61.6989C87.0001 61.376 87.065 61.092 87.1818 60.8079C87.2986 60.5238 87.4673 60.2784 87.675 60.0589C87.8827 59.8394 88.1293 59.6715 88.4018 59.5553C88.6744 59.4391 88.9729 59.3745 89.2974 59.3745C89.57 59.3745 89.8166 59.4133 90.0632 59.5036C90.3098 59.594 90.5304 59.7232 90.7381 59.891C90.777 59.9169 90.79 59.9556 90.79 60.0073C90.79 60.0589 90.777 60.0976 90.7381 60.1364C90.7121 60.1751 90.6602 60.188 90.6083 60.188C90.5953 60.188 90.5823 60.188 90.5564 60.188C90.5304 60.188 90.5304 60.1751 90.5045 60.1622C90.4915 60.1622 90.4655 60.1364 90.4526 60.1235C90.2968 59.9814 90.1151 59.8781 89.9204 59.8265C89.7257 59.7619 89.5051 59.7361 89.2714 59.7361C89.0118 59.7361 88.7652 59.7877 88.5316 59.891C88.298 59.9943 88.0903 60.1493 87.9086 60.3301C87.7269 60.5109 87.5841 60.7304 87.4933 60.9628C87.3894 61.1953 87.3375 61.4535 87.3375 61.7118C87.3375 61.9701 87.3894 62.2412 87.4933 62.4737C87.5971 62.719 87.7399 62.9256 87.9086 63.1064C88.0903 63.2872 88.285 63.4292 88.5316 63.5325C88.7652 63.6359 89.0119 63.6875 89.2844 63.6875C89.518 63.6875 89.7257 63.6488 89.9334 63.5842C90.1281 63.5196 90.3228 63.4034 90.4915 63.2614C90.5174 63.2355 90.5564 63.2226 90.6083 63.2355C90.6472 63.2355 90.6862 63.2614 90.7251 63.3001C90.7511 63.3259 90.777 63.3776 90.777 63.4163C90.777 63.4422 90.777 63.4551 90.777 63.4809C90.777 63.4938 90.7641 63.5196 90.7381 63.5325C90.5434 63.7262 90.3228 63.8554 90.0762 63.9199C89.8295 63.9974 89.57 64.0232 89.2974 64.0232L89.2844 64.0362Z" fill="white"/>
<path d="M91.9581 63.9717C91.9581 63.9717 91.8673 63.9588 91.8283 63.92C91.7894 63.8813 91.7764 63.8426 91.7764 63.7909V59.6071C91.7764 59.6071 91.7894 59.5167 91.8283 59.4779C91.8673 59.4392 91.9062 59.4263 91.9581 59.4263C92.0101 59.4263 92.049 59.4392 92.0879 59.4779C92.1269 59.5167 92.1398 59.5554 92.1398 59.6071V63.7909C92.1398 63.7909 92.1269 63.8813 92.0879 63.92C92.049 63.9588 92.0101 63.9717 91.9581 63.9717Z" fill="white"/>
<path d="M93.0744 63.9717C92.9965 63.9717 92.9446 63.9459 92.9186 63.8813C92.8927 63.8167 92.8927 63.7651 92.9186 63.7134L94.6838 59.5425C94.7098 59.465 94.7747 59.4263 94.8526 59.4263C94.9304 59.4263 94.9823 59.465 95.0213 59.5425L96.7994 63.7134C96.7994 63.7134 96.8254 63.8297 96.7994 63.8813C96.7735 63.933 96.7086 63.9588 96.6437 63.9588C96.6048 63.9588 96.5788 63.9588 96.5528 63.933C96.5269 63.9071 96.5009 63.8813 96.4879 63.8555L94.7747 59.7878H94.9564L93.2431 63.8555C93.2431 63.8555 93.2042 63.92 93.1782 63.933C93.1523 63.9459 93.1133 63.9588 93.0744 63.9588V63.9717ZM93.5027 62.8353L93.6455 62.5254H96.0726L96.2024 62.8353H93.5027Z" fill="white"/>
<path d="M97.721 63.9717C97.721 63.9717 97.6301 63.9588 97.6042 63.92C97.5782 63.8813 97.5522 63.8426 97.5522 63.7909V59.6071C97.5522 59.6071 97.5652 59.5167 97.6042 59.4779C97.6431 59.4521 97.682 59.4263 97.721 59.4263C97.7729 59.4263 97.8118 59.4392 97.8508 59.4779C97.8897 59.5167 97.9027 59.5554 97.9027 59.6071V63.6618H100.304C100.304 63.6618 100.408 63.6747 100.434 63.7005C100.46 63.7263 100.486 63.7651 100.486 63.8167C100.486 63.8684 100.473 63.8942 100.434 63.933C100.395 63.9717 100.356 63.9717 100.304 63.9717H97.734H97.721Z" fill="white"/>
<path d="M101.446 63.9717C101.446 63.9717 101.355 63.9588 101.316 63.92C101.277 63.8813 101.264 63.8426 101.264 63.7909V59.6071C101.264 59.6071 101.277 59.5167 101.316 59.4779C101.355 59.4392 101.394 59.4263 101.446 59.4263C101.498 59.4263 101.537 59.4392 101.576 59.4779C101.615 59.5167 101.628 59.5554 101.628 59.6071V63.7909C101.628 63.7909 101.615 63.8813 101.576 63.92C101.537 63.9588 101.498 63.9717 101.446 63.9717Z" fill="white"/>
<path d="M104.237 64.0362C103.99 64.0362 103.769 63.9974 103.562 63.9329C103.354 63.8683 103.185 63.765 103.029 63.6488C102.887 63.5197 102.77 63.3776 102.679 63.2097C102.653 63.1581 102.653 63.1193 102.679 63.0806C102.705 63.0419 102.731 63.0031 102.783 62.9902C102.822 62.9773 102.874 62.9773 102.913 62.9902C102.952 63.0031 102.991 63.0419 103.016 63.0806C103.081 63.2097 103.172 63.313 103.289 63.4034C103.406 63.4938 103.536 63.5713 103.691 63.61C103.847 63.6617 104.029 63.6875 104.224 63.6875C104.444 63.6875 104.639 63.6488 104.795 63.5713C104.95 63.4938 105.08 63.3905 105.171 63.2485C105.262 63.1064 105.301 62.9257 105.301 62.732C105.301 62.4737 105.21 62.2542 105.028 62.0863C104.847 61.9184 104.561 61.8022 104.185 61.7506C103.743 61.686 103.406 61.5439 103.159 61.3244C102.913 61.1049 102.796 60.8337 102.796 60.5238C102.796 60.2914 102.848 60.0977 102.965 59.9298C103.081 59.7619 103.237 59.6199 103.445 59.5295C103.652 59.4391 103.899 59.3875 104.172 59.3875C104.379 59.3875 104.561 59.4133 104.73 59.4908C104.898 59.5553 105.054 59.6457 105.184 59.749C105.314 59.8523 105.418 59.9685 105.483 60.0848C105.508 60.1235 105.521 60.1751 105.508 60.2268C105.496 60.2785 105.457 60.3043 105.418 60.3301C105.379 60.343 105.327 60.343 105.288 60.3301C105.249 60.3172 105.21 60.2914 105.184 60.2526C105.132 60.1752 105.054 60.0977 104.976 60.0202C104.898 59.9427 104.782 59.8782 104.652 59.8265C104.522 59.7748 104.366 59.749 104.185 59.749C103.86 59.749 103.614 59.8265 103.432 59.9685C103.25 60.1106 103.159 60.3172 103.159 60.5755C103.159 60.7175 103.198 60.8466 103.276 60.9499C103.354 61.0662 103.471 61.1566 103.639 61.2469C103.808 61.3244 104.016 61.389 104.262 61.4277C104.769 61.5181 105.119 61.6731 105.353 61.8926C105.573 62.1121 105.677 62.3962 105.677 62.7449C105.677 62.9515 105.638 63.1323 105.573 63.2872C105.508 63.4422 105.405 63.5842 105.275 63.7004C105.145 63.8167 105.002 63.8941 104.821 63.9587C104.639 64.0233 104.457 64.0491 104.237 64.0491V64.0362Z" fill="white"/>
<path d="M106.119 59.7491C106.119 59.7491 106.041 59.7362 106.002 59.7104C105.963 59.6845 105.963 59.6458 105.963 59.5941C105.963 59.5425 105.976 59.5167 106.002 59.4779C106.028 59.4392 106.067 59.4392 106.119 59.4392H109.428C109.428 59.4392 109.506 59.4521 109.545 59.4779C109.584 59.5037 109.584 59.5425 109.584 59.5941C109.584 59.6458 109.571 59.6716 109.545 59.7104C109.519 59.7491 109.48 59.7491 109.428 59.7491H106.119ZM107.767 63.9717C107.767 63.9717 107.676 63.9588 107.637 63.92C107.598 63.8813 107.585 63.8426 107.585 63.7909V59.4263H107.936V63.7909C107.936 63.7909 107.923 63.8813 107.884 63.92C107.858 63.9588 107.806 63.9717 107.754 63.9717H107.767Z" fill="white"/>
<path d="M109.558 63.9717C109.48 63.9717 109.428 63.9459 109.402 63.8813C109.376 63.8167 109.376 63.7651 109.402 63.7134L111.167 59.5425C111.193 59.465 111.258 59.4263 111.336 59.4263C111.414 59.4263 111.466 59.465 111.505 59.5425L113.283 63.7134C113.283 63.7134 113.309 63.8297 113.283 63.8813C113.257 63.933 113.192 63.9588 113.127 63.9588C113.088 63.9588 113.062 63.9588 113.036 63.933C113.011 63.9071 112.985 63.8813 112.972 63.8555L111.258 59.7878H111.44L109.727 63.8555C109.727 63.8555 109.688 63.92 109.662 63.933C109.636 63.9459 109.597 63.9588 109.558 63.9588V63.9717ZM109.986 62.8353L110.129 62.5254H112.556L112.686 62.8353H109.986Z" fill="white"/>
<path d="M115.996 63.9717C115.996 63.9717 115.905 63.9588 115.866 63.92C115.827 63.8813 115.814 63.8426 115.814 63.7909V59.6071C115.814 59.6071 115.827 59.5167 115.866 59.4779C115.905 59.4392 115.944 59.4263 115.996 59.4263H118.799C118.799 59.4263 118.89 59.4392 118.916 59.4779C118.955 59.5167 118.968 59.5554 118.968 59.6071C118.968 59.6587 118.955 59.6974 118.916 59.7233C118.877 59.762 118.838 59.7749 118.799 59.7749H116.165V61.5182H118.098C118.098 61.5182 118.189 61.5311 118.228 61.5699C118.267 61.5957 118.28 61.6473 118.28 61.699C118.28 61.7506 118.267 61.7894 118.228 61.8281C118.189 61.8669 118.15 61.8798 118.098 61.8798H116.165V63.623H118.799C118.799 63.623 118.89 63.636 118.916 63.6747C118.942 63.7134 118.968 63.7522 118.968 63.7909C118.968 63.8426 118.955 63.8813 118.916 63.92C118.877 63.9588 118.838 63.9717 118.799 63.9717H115.996Z" fill="white"/>
<path d="M120.071 63.9717C120.071 63.9717 119.98 63.9588 119.941 63.92C119.903 63.8813 119.89 63.8426 119.89 63.7909V59.6071C119.89 59.6071 119.903 59.5167 119.941 59.4779C119.98 59.4392 120.019 59.4263 120.071 59.4263C120.123 59.4263 120.175 59.4521 120.201 59.4908L123.173 63.326V59.6071C123.173 59.6071 123.186 59.5167 123.225 59.4779C123.264 59.4521 123.303 59.4263 123.355 59.4263C123.407 59.4263 123.446 59.4392 123.472 59.4779C123.511 59.5167 123.524 59.5554 123.524 59.6071V63.7909C123.524 63.7909 123.511 63.8813 123.472 63.92C123.433 63.9588 123.394 63.9717 123.355 63.9717C123.329 63.9717 123.303 63.9717 123.277 63.9588C123.251 63.9459 123.238 63.933 123.225 63.92L120.253 60.0719V63.7909C120.253 63.7909 120.24 63.8813 120.201 63.92C120.162 63.9588 120.123 63.9717 120.071 63.9717Z" fill="white"/>
<path d="M127.911 64.0362C127.664 64.0362 127.443 63.9974 127.236 63.9329C127.028 63.8683 126.859 63.765 126.704 63.6488C126.561 63.5197 126.444 63.3776 126.353 63.2097C126.327 63.1581 126.327 63.1193 126.353 63.0806C126.379 63.0419 126.405 63.0031 126.457 62.9902C126.496 62.9773 126.548 62.9773 126.587 62.9902C126.626 63.0031 126.665 63.0419 126.691 63.0806C126.756 63.2097 126.846 63.313 126.963 63.4034C127.08 63.4938 127.21 63.5713 127.366 63.61C127.521 63.6617 127.703 63.6875 127.898 63.6875C128.118 63.6875 128.313 63.6488 128.469 63.5713C128.625 63.4938 128.754 63.3905 128.845 63.2485C128.936 63.1064 128.975 62.9257 128.975 62.732C128.975 62.4737 128.884 62.2542 128.702 62.0863C128.521 61.9184 128.235 61.8022 127.859 61.7506C127.418 61.686 127.08 61.5439 126.833 61.3244C126.587 61.1049 126.47 60.8337 126.47 60.5238C126.47 60.2914 126.522 60.0977 126.639 59.9298C126.756 59.7619 126.911 59.6199 127.119 59.5295C127.327 59.4391 127.573 59.3875 127.846 59.3875C128.053 59.3875 128.235 59.4133 128.404 59.4908C128.573 59.5553 128.728 59.6457 128.858 59.749C128.988 59.8523 129.092 59.9685 129.157 60.0848C129.183 60.1235 129.196 60.1751 129.183 60.2268C129.17 60.2785 129.131 60.3043 129.092 60.3301C129.053 60.343 129.001 60.343 128.962 60.3301C128.923 60.3172 128.884 60.2914 128.858 60.2526C128.806 60.1752 128.728 60.0977 128.651 60.0202C128.573 59.9427 128.456 59.8782 128.326 59.8265C128.196 59.7748 128.041 59.749 127.859 59.749C127.534 59.749 127.288 59.8265 127.106 59.9685C126.924 60.1106 126.833 60.3172 126.833 60.5755C126.833 60.7175 126.872 60.8466 126.95 60.9499C127.028 61.0662 127.145 61.1566 127.314 61.2469C127.482 61.3244 127.69 61.389 127.937 61.4277C128.443 61.5181 128.793 61.6731 129.027 61.8926C129.248 62.1121 129.351 62.3962 129.351 62.7449C129.351 62.9515 129.312 63.1323 129.248 63.2872C129.183 63.4422 129.079 63.5842 128.949 63.7004C128.819 63.8167 128.677 63.8941 128.495 63.9587C128.313 64.0233 128.131 64.0491 127.911 64.0491V64.0362Z" fill="white"/>
<path d="M130.078 63.9717C130 63.9717 129.949 63.9459 129.923 63.8813C129.897 63.8167 129.897 63.7651 129.923 63.7134L131.688 59.5425C131.714 59.465 131.779 59.4263 131.856 59.4263C131.934 59.4263 131.986 59.465 132.025 59.5425L133.803 63.7134C133.803 63.7134 133.829 63.8297 133.803 63.8813C133.777 63.933 133.712 63.9588 133.648 63.9588C133.609 63.9588 133.583 63.9588 133.557 63.933C133.531 63.9071 133.505 63.8813 133.492 63.8555L131.779 59.7878H131.96L130.247 63.8555C130.247 63.8555 130.208 63.92 130.182 63.933C130.156 63.9459 130.117 63.9588 130.078 63.9588V63.9717ZM130.507 62.8353L130.649 62.5254H133.077L133.206 62.8353H130.507Z" fill="white"/>
<path d="M134.725 63.9717C134.725 63.9717 134.634 63.9588 134.608 63.92C134.582 63.8813 134.556 63.8426 134.556 63.7909V59.6071C134.556 59.6071 134.569 59.5167 134.608 59.4779C134.647 59.4521 134.686 59.4263 134.725 59.4263C134.777 59.4263 134.816 59.4392 134.855 59.4779C134.894 59.5167 134.907 59.5554 134.907 59.6071V63.6618H137.308C137.308 63.6618 137.412 63.6747 137.438 63.7005C137.464 63.7263 137.489 63.7651 137.489 63.8167C137.489 63.8684 137.476 63.8942 137.438 63.933C137.399 63.9717 137.36 63.9717 137.308 63.9717H134.738H134.725Z" fill="white"/>
<path d="M140.02 64.0621C139.683 64.0621 139.371 63.9975 139.112 63.8555C138.852 63.7263 138.645 63.5326 138.489 63.3002C138.333 63.0678 138.268 62.7966 138.268 62.4867V59.6071C138.268 59.6071 138.281 59.5037 138.32 59.4779C138.346 59.4521 138.398 59.4263 138.45 59.4263C138.502 59.4263 138.554 59.4392 138.58 59.4779C138.606 59.5037 138.632 59.5554 138.632 59.6071V62.4867C138.632 62.732 138.697 62.9386 138.813 63.1194C138.93 63.3002 139.099 63.4423 139.307 63.5585C139.514 63.6618 139.761 63.7134 140.033 63.7134C140.306 63.7134 140.553 63.6618 140.76 63.5585C140.968 63.4552 141.137 63.3131 141.253 63.1194C141.37 62.9386 141.435 62.7191 141.435 62.4867V59.6071C141.435 59.6071 141.448 59.5037 141.487 59.4779C141.526 59.4521 141.565 59.4263 141.617 59.4263C141.669 59.4263 141.708 59.4392 141.747 59.4779C141.773 59.5037 141.799 59.5554 141.799 59.6071V62.4867C141.799 62.7966 141.721 63.0678 141.578 63.3002C141.435 63.5326 141.214 63.7263 140.955 63.8555C140.695 63.9846 140.384 64.0621 140.046 64.0621H140.02Z" fill="white"/>
<path d="M143.2 63.9717C143.2 63.9717 143.109 63.9588 143.071 63.92C143.032 63.8813 143.019 63.8426 143.019 63.7909V59.6071C143.019 59.6071 143.032 59.5037 143.071 59.4779C143.096 59.4521 143.148 59.4263 143.2 59.4263H144.252C144.589 59.4263 144.888 59.4779 145.173 59.5941C145.459 59.7104 145.692 59.8653 145.9 60.059C146.108 60.2656 146.263 60.4981 146.367 60.7821C146.484 61.0533 146.536 61.3632 146.536 61.699C146.536 62.0347 146.484 62.3317 146.367 62.6158C146.25 62.8999 146.095 63.1323 145.9 63.339C145.692 63.5456 145.459 63.7005 145.173 63.8038C144.888 63.9071 144.589 63.9717 144.252 63.9717H143.2ZM143.382 63.6618H144.265C144.641 63.6618 144.978 63.5714 145.264 63.4035C145.55 63.2356 145.783 63.0032 145.952 62.7062C146.121 62.4092 146.199 62.0735 146.199 61.699C146.199 61.3245 146.121 60.9888 145.952 60.6918C145.783 60.3948 145.563 60.1623 145.264 59.9944C144.978 59.8266 144.641 59.7362 144.265 59.7362H143.382V63.6489V63.6618Z" fill="white"/>
<path d="M151.429 64.0362C151.092 64.0362 150.78 63.9716 150.495 63.8554C150.209 63.7392 149.963 63.5713 149.755 63.3647C149.547 63.1581 149.378 62.9127 149.262 62.6286C149.145 62.3445 149.08 62.0346 149.08 61.6989C149.08 61.3631 149.145 61.0661 149.262 60.782C149.378 60.498 149.547 60.2526 149.755 60.046C149.963 59.8394 150.209 59.6715 150.495 59.5553C150.78 59.4391 151.092 59.3745 151.429 59.3745C151.767 59.3745 152.078 59.4262 152.351 59.5553C152.636 59.6715 152.883 59.8394 153.091 60.046C153.298 60.2526 153.467 60.498 153.584 60.782C153.701 61.0661 153.765 61.3631 153.765 61.6989C153.765 62.0346 153.701 62.3445 153.584 62.6286C153.467 62.9127 153.298 63.1581 153.091 63.3647C152.883 63.5713 152.636 63.7392 152.351 63.8554C152.065 63.9716 151.754 64.0362 151.429 64.0362ZM151.429 63.6875C151.715 63.6875 151.974 63.6359 152.208 63.5325C152.455 63.4292 152.662 63.3001 152.844 63.1193C153.026 62.9385 153.168 62.7319 153.259 62.4866C153.363 62.2412 153.402 61.983 153.402 61.6989C153.402 61.4148 153.35 61.1565 153.259 60.9241C153.155 60.6787 153.026 60.4721 152.844 60.2913C152.662 60.1106 152.455 59.9685 152.208 59.8781C151.961 59.7748 151.702 59.7232 151.429 59.7232C151.157 59.7232 150.884 59.7748 150.637 59.8781C150.391 59.9814 150.183 60.1106 150.001 60.2913C149.82 60.4721 149.677 60.6787 149.586 60.9241C149.482 61.1694 149.443 61.4277 149.443 61.6989C149.443 61.9701 149.495 62.2412 149.586 62.4866C149.69 62.7319 149.82 62.9385 150.001 63.1193C150.183 63.3001 150.391 63.4422 150.637 63.5325C150.884 63.6359 151.144 63.6875 151.429 63.6875Z" fill="white"/>
<path d="M156.699 64.0362C156.387 64.0362 156.102 63.9716 155.816 63.8554C155.544 63.7392 155.297 63.5713 155.089 63.3518C154.882 63.1322 154.713 62.8869 154.596 62.6028C154.479 62.3187 154.414 62.0217 154.414 61.6989C154.414 61.376 154.479 61.092 154.596 60.8079C154.713 60.5238 154.882 60.2784 155.089 60.0589C155.297 59.8394 155.544 59.6715 155.816 59.5553C156.089 59.4391 156.387 59.3745 156.712 59.3745C156.984 59.3745 157.231 59.4133 157.478 59.5036C157.724 59.594 157.945 59.7232 158.152 59.891C158.191 59.9169 158.204 59.9556 158.204 60.0073C158.204 60.0589 158.191 60.0976 158.152 60.1364C158.126 60.1751 158.075 60.188 158.023 60.188C158.01 60.188 157.997 60.188 157.971 60.188C157.945 60.188 157.945 60.1751 157.919 60.1622C157.906 60.1622 157.88 60.1364 157.867 60.1235C157.711 59.9814 157.529 59.8781 157.335 59.8265C157.14 59.7619 156.919 59.7361 156.686 59.7361C156.426 59.7361 156.18 59.7877 155.946 59.891C155.712 59.9943 155.505 60.1493 155.323 60.3301C155.141 60.5109 154.998 60.7304 154.908 60.9628C154.804 61.1953 154.752 61.4535 154.752 61.7118C154.752 61.9701 154.804 62.2412 154.908 62.4737C155.011 62.719 155.154 62.9256 155.323 63.1064C155.505 63.2872 155.699 63.4292 155.946 63.5325C156.18 63.6359 156.426 63.6875 156.699 63.6875C156.932 63.6875 157.14 63.6488 157.348 63.5842C157.542 63.5196 157.737 63.4034 157.906 63.2614C157.932 63.2355 157.971 63.2226 158.023 63.2355C158.062 63.2355 158.101 63.2614 158.139 63.3001C158.165 63.3259 158.191 63.3776 158.191 63.4163C158.191 63.4422 158.191 63.4551 158.191 63.4809C158.191 63.4938 158.178 63.5196 158.152 63.5325C157.958 63.7262 157.737 63.8554 157.491 63.9199C157.244 63.9974 156.984 64.0232 156.712 64.0232L156.699 64.0362Z" fill="white"/>
<path d="M160.943 64.0621C160.606 64.0621 160.294 63.9975 160.034 63.8555C159.775 63.7263 159.567 63.5326 159.411 63.3002C159.256 63.0678 159.191 62.7966 159.191 62.4867V59.6071C159.191 59.6071 159.204 59.5037 159.243 59.4779C159.269 59.4521 159.321 59.4263 159.373 59.4263C159.424 59.4263 159.476 59.4392 159.502 59.4779C159.528 59.5037 159.554 59.5554 159.554 59.6071V62.4867C159.554 62.732 159.619 62.9386 159.736 63.1194C159.853 63.3002 160.021 63.4423 160.229 63.5585C160.437 63.6618 160.683 63.7134 160.956 63.7134C161.229 63.7134 161.475 63.6618 161.683 63.5585C161.89 63.4552 162.059 63.3131 162.176 63.1194C162.293 62.9386 162.358 62.7191 162.358 62.4867V59.6071C162.358 59.6071 162.371 59.5037 162.41 59.4779C162.449 59.4521 162.488 59.4263 162.539 59.4263C162.591 59.4263 162.63 59.4392 162.669 59.4779C162.695 59.5037 162.721 59.5554 162.721 59.6071V62.4867C162.721 62.7966 162.643 63.0678 162.501 63.3002C162.358 63.5326 162.137 63.7263 161.878 63.8555C161.618 63.9846 161.306 64.0621 160.969 64.0621H160.943Z" fill="white"/>
<path d="M164.123 63.9717C164.123 63.9717 164.032 63.9588 163.993 63.92C163.954 63.8813 163.941 63.8426 163.941 63.7909V59.6071C163.941 59.6071 163.954 59.5037 163.993 59.4779C164.019 59.4521 164.071 59.4263 164.123 59.4263H165.291C165.577 59.4263 165.823 59.4908 166.044 59.6071C166.265 59.7362 166.433 59.9041 166.563 60.1236C166.693 60.3431 166.745 60.5885 166.745 60.8725C166.745 61.1566 166.68 61.402 166.563 61.6344C166.446 61.8669 166.265 62.0218 166.044 62.1509C165.823 62.2801 165.577 62.3317 165.291 62.3317H164.305V63.778C164.305 63.778 164.292 63.8684 164.253 63.9071C164.227 63.9459 164.175 63.9588 164.123 63.9588V63.9717ZM164.305 61.996H165.291C165.512 61.996 165.706 61.9443 165.862 61.8539C166.031 61.7635 166.161 61.6344 166.252 61.4665C166.342 61.2987 166.394 61.105 166.394 60.8855C166.394 60.6659 166.342 60.4722 166.252 60.3173C166.161 60.1494 166.031 60.0203 165.862 59.9299C165.693 59.8395 165.499 59.7878 165.291 59.7878H164.305V61.996Z" fill="white"/>
<path d="M167.082 63.9717C167.004 63.9717 166.952 63.9459 166.926 63.8813C166.9 63.8167 166.9 63.7651 166.926 63.7134L168.692 59.5425C168.718 59.465 168.782 59.4263 168.86 59.4263C168.938 59.4263 168.99 59.465 169.029 59.5425L170.807 63.7134C170.807 63.7134 170.833 63.8297 170.807 63.8813C170.781 63.933 170.716 63.9588 170.651 63.9588C170.613 63.9588 170.587 63.9588 170.561 63.933C170.535 63.9071 170.509 63.8813 170.496 63.8555L168.782 59.7878H168.964L167.251 63.8555C167.251 63.8555 167.212 63.92 167.186 63.933C167.16 63.9459 167.121 63.9588 167.082 63.9588V63.9717ZM167.511 62.8353L167.653 62.5254H170.08L170.21 62.8353H167.511Z" fill="white"/>
<path d="M173.481 64.0362C173.169 64.0362 172.884 63.9716 172.598 63.8554C172.326 63.7392 172.079 63.5713 171.872 63.3518C171.664 63.1322 171.495 62.8869 171.378 62.6028C171.261 62.3187 171.197 62.0217 171.197 61.6989C171.197 61.376 171.261 61.092 171.378 60.8079C171.495 60.5238 171.664 60.2784 171.872 60.0589C172.079 59.8394 172.326 59.6715 172.598 59.5553C172.871 59.4391 173.169 59.3745 173.494 59.3745C173.766 59.3745 174.013 59.4133 174.26 59.5036C174.506 59.594 174.727 59.7232 174.935 59.891C174.974 59.9169 174.987 59.9556 174.987 60.0073C174.987 60.0589 174.974 60.0976 174.935 60.1364C174.909 60.1751 174.857 60.188 174.805 60.188C174.792 60.188 174.779 60.188 174.753 60.188C174.727 60.188 174.727 60.1751 174.701 60.1622C174.688 60.1622 174.662 60.1364 174.649 60.1235C174.493 59.9814 174.312 59.8781 174.117 59.8265C173.922 59.7619 173.702 59.7361 173.468 59.7361C173.208 59.7361 172.962 59.7877 172.728 59.891C172.495 59.9943 172.287 60.1493 172.105 60.3301C171.923 60.5109 171.781 60.7304 171.69 60.9628C171.586 61.1953 171.534 61.4535 171.534 61.7118C171.534 61.9701 171.586 62.2412 171.69 62.4737C171.794 62.719 171.936 62.9256 172.105 63.1064C172.287 63.2872 172.482 63.4292 172.728 63.5325C172.962 63.6359 173.208 63.6875 173.481 63.6875C173.715 63.6875 173.922 63.6488 174.13 63.5842C174.325 63.5196 174.519 63.4034 174.688 63.2614C174.714 63.2355 174.753 63.2226 174.805 63.2355C174.844 63.2355 174.883 63.2614 174.922 63.3001C174.948 63.3259 174.974 63.3776 174.974 63.4163C174.974 63.4422 174.974 63.4551 174.974 63.4809C174.974 63.4938 174.961 63.5196 174.935 63.5325C174.74 63.7262 174.519 63.8554 174.273 63.9199C174.026 63.9974 173.766 64.0232 173.494 64.0232L173.481 64.0362Z" fill="white"/>
<path d="M176.155 63.9717C176.155 63.9717 176.064 63.9588 176.025 63.92C175.986 63.8813 175.973 63.8426 175.973 63.7909V59.6071C175.973 59.6071 175.986 59.5167 176.025 59.4779C176.064 59.4392 176.103 59.4263 176.155 59.4263C176.207 59.4263 176.246 59.4392 176.285 59.4779C176.323 59.5167 176.336 59.5554 176.336 59.6071V63.7909C176.336 63.7909 176.323 63.8813 176.285 63.92C176.246 63.9588 176.207 63.9717 176.155 63.9717Z" fill="white"/>
<path d="M179.672 64.0362C179.335 64.0362 179.023 63.9716 178.738 63.8554C178.452 63.7392 178.205 63.5713 177.998 63.3647C177.79 63.1581 177.621 62.9127 177.505 62.6286C177.388 62.3445 177.323 62.0346 177.323 61.6989C177.323 61.3631 177.388 61.0661 177.505 60.782C177.621 60.498 177.79 60.2526 177.998 60.046C178.205 59.8394 178.452 59.6715 178.738 59.5553C179.023 59.4391 179.335 59.3745 179.672 59.3745C180.01 59.3745 180.321 59.4262 180.594 59.5553C180.879 59.6715 181.126 59.8394 181.333 60.046C181.541 60.2526 181.71 60.498 181.827 60.782C181.943 61.0661 182.008 61.3631 182.008 61.6989C182.008 62.0346 181.943 62.3445 181.827 62.6286C181.71 62.9127 181.541 63.1581 181.333 63.3647C181.126 63.5713 180.879 63.7392 180.594 63.8554C180.308 63.9716 179.997 64.0362 179.672 64.0362ZM179.672 63.6875C179.958 63.6875 180.217 63.6359 180.451 63.5325C180.697 63.4292 180.905 63.3001 181.087 63.1193C181.269 62.9385 181.411 62.7319 181.502 62.4866C181.606 62.2412 181.645 61.983 181.645 61.6989C181.645 61.4148 181.593 61.1565 181.502 60.9241C181.398 60.6787 181.269 60.4721 181.087 60.2913C180.905 60.1106 180.697 59.9685 180.451 59.8781C180.204 59.7748 179.945 59.7232 179.672 59.7232C179.399 59.7232 179.127 59.7748 178.88 59.8781C178.634 59.9814 178.426 60.1106 178.244 60.2913C178.063 60.4721 177.92 60.6787 177.829 60.9241C177.725 61.1694 177.686 61.4277 177.686 61.6989C177.686 61.9701 177.738 62.2412 177.829 62.4866C177.933 62.7319 178.063 62.9385 178.244 63.1193C178.426 63.3001 178.634 63.4422 178.88 63.5325C179.127 63.6359 179.387 63.6875 179.672 63.6875Z" fill="white"/>
<path d="M183.189 63.9717C183.189 63.9717 183.099 63.9588 183.06 63.92C183.021 63.8813 183.008 63.8426 183.008 63.7909V59.6071C183.008 59.6071 183.021 59.5167 183.06 59.4779C183.099 59.4392 183.138 59.4263 183.189 59.4263C183.241 59.4263 183.293 59.4521 183.319 59.4908L186.292 63.326V59.6071C186.292 59.6071 186.304 59.5167 186.343 59.4779C186.382 59.4521 186.421 59.4263 186.473 59.4263C186.525 59.4263 186.564 59.4392 186.59 59.4779C186.629 59.5167 186.642 59.5554 186.642 59.6071V63.7909C186.642 63.7909 186.629 63.8813 186.59 63.92C186.551 63.9588 186.512 63.9717 186.473 63.9717C186.447 63.9717 186.421 63.9717 186.395 63.9588C186.369 63.9459 186.356 63.933 186.343 63.92L183.371 60.0719V63.7909C183.371 63.7909 183.358 63.8813 183.319 63.92C183.28 63.9588 183.241 63.9717 183.189 63.9717Z" fill="white"/>
<path d="M187.589 63.9717C187.512 63.9717 187.46 63.9459 187.434 63.8813C187.408 63.8167 187.408 63.7651 187.434 63.7134L189.199 59.5425C189.225 59.465 189.29 59.4263 189.368 59.4263C189.445 59.4263 189.497 59.465 189.536 59.5425L191.315 63.7134C191.315 63.7134 191.34 63.8297 191.315 63.8813C191.289 63.933 191.224 63.9588 191.159 63.9588C191.12 63.9588 191.094 63.9588 191.068 63.933C191.042 63.9071 191.016 63.8813 191.003 63.8555L189.29 59.7878H189.471L187.758 63.8555C187.758 63.8555 187.719 63.92 187.693 63.933C187.667 63.9459 187.628 63.9588 187.589 63.9588V63.9717ZM188.018 62.8353L188.161 62.5254H190.588L190.717 62.8353H188.018Z" fill="white"/>
<path d="M192.236 63.9717C192.236 63.9717 192.145 63.9588 192.119 63.92C192.093 63.8813 192.067 63.8426 192.067 63.7909V59.6071C192.067 59.6071 192.08 59.5167 192.119 59.4779C192.158 59.4521 192.197 59.4263 192.236 59.4263C192.288 59.4263 192.327 59.4392 192.366 59.4779C192.405 59.5167 192.418 59.5554 192.418 59.6071V63.6618H194.819C194.819 63.6618 194.923 63.6747 194.949 63.7005C194.975 63.7263 195.001 63.7651 195.001 63.8167C195.001 63.8684 194.988 63.8942 194.949 63.933C194.91 63.9717 194.871 63.9717 194.819 63.9717H192.249H192.236Z" fill="white"/>
</svg>
