<svg width="136" height="139" viewBox="0 0 136 139" fill="none" xmlns="http://www.w3.org/2000/svg">
<g id="Capa_1" clip-path="url(#clip0_163_334)">
<path id="Vector" d="M35.9731 52.6548C35.9731 52.6548 30.1354 54.0935 30.1417 61.1622C30.1481 68.2308 34.5963 68.8644 34.5963 68.8644" stroke="#1D2025" stroke-linecap="round" stroke-linejoin="round"/>
<path id="Vector_2" d="M39.5739 61.1304C39.5739 61.1304 41.0567 71.513 17.1212 74.2676" stroke="#1D2025" stroke-linecap="round" stroke-linejoin="round"/>
<path id="Vector_3" d="M83.6322 59.4352C83.6322 59.4352 78.9722 64.7324 81.3022 76.5983C83.6322 88.4641 80.6667 100.542 60.544 95.2446C40.4212 89.9474 29.932 79.9907 16.0622 80.2004C2.08216 80.4123 10.8705 85.2413 10.8705 85.2413" stroke="#1D2025" stroke-linecap="round" stroke-linejoin="round"/>
<path id="Vector_4" d="M41.6922 88.676C41.6922 88.676 23.7872 92.0663 11.3471 88.676C-1.09294 85.2858 -2.78961 79.5647 4.20039 75.5388C11.1904 71.5129 40.6331 77.022 51.8595 84.2263" stroke="#1D2025" stroke-linecap="round" stroke-linejoin="round"/>
<path id="Vector_5" d="M77.2776 64.3087C77.2776 64.3087 81.514 56.8925 92.1049 57.7401" stroke="#1D2025" stroke-linecap="round" stroke-linejoin="round"/>
<path id="Vector_6" d="M81.5479 77.9819C81.5479 77.9819 99.3004 71.6189 99.0377 60.7065C98.7751 49.7942 89.0314 44.7088 80.3469 53.1844C71.6623 61.66 65.2358 61.1049 61.7069 56.9985C56.5173 50.9596 51.8573 57.7401 51.6455 57.952" stroke="#1D2025" stroke-linecap="round" stroke-linejoin="round"/>
<path id="Vector_7" d="M55.5662 44.497C55.5662 44.497 47.9408 43.0137 35.4435 44.0732C35.4435 44.0732 32.9017 58.4817 44.7635 59.9649C56.6253 61.4482 55.5662 44.497 55.5662 44.497Z" stroke="#1D2025" stroke-linecap="round" stroke-linejoin="round"/>
<path id="Vector_8" d="M46.1869 58.3609C45.7993 58.3609 45.3905 58.3355 44.9732 58.2825C42.3212 57.9519 40.3768 56.901 39.0254 55.0702C36.8097 52.0677 36.8034 47.7727 36.9665 45.6538C39.4363 45.4758 41.8785 45.3868 44.2467 45.3868C48.8304 45.3868 52.1602 45.7259 53.8908 45.9547C53.8505 48.419 53.4353 53.6484 50.7685 56.4835C49.5781 57.7485 48.0806 58.363 46.189 58.363L46.1869 58.3609Z" fill="#1D2025"/>
<path id="Vector_9" d="M78.2308 44.2999C78.2308 44.2999 70.6053 42.8167 58.108 43.8761C58.108 43.8761 55.5662 58.2847 67.428 59.7679C79.2899 61.2511 78.2308 44.2999 78.2308 44.2999Z" stroke="#1D2025" stroke-linecap="round" stroke-linejoin="round"/>
<path id="Vector_10" d="M68.8515 58.1639C68.4638 58.1639 68.055 58.1384 67.6378 58.0855C64.9858 57.7549 63.0413 56.7039 61.6899 54.8732C59.4743 51.8707 59.4679 47.5757 59.631 45.4568C62.1008 45.2788 64.5431 45.1898 66.9112 45.1898C71.495 45.1898 74.8248 45.5288 76.5553 45.7577C76.5151 48.222 76.0999 53.4514 73.4331 56.2865C72.2427 57.5515 70.7451 58.166 68.8536 58.166L68.8515 58.1639Z" fill="#1D2025"/>
<path id="Vector_11" d="M55.5663 44.4969L57.155 44.8148C57.155 44.8148 57.3689 52.2267 55.3566 54.8774L53.2787 55.9221C53.2787 55.9221 56.3077 50.9596 55.5663 44.4969Z" fill="#1D2025" stroke="#1D2025" stroke-linecap="round" stroke-linejoin="round"/>
<path id="Vector_12" d="M78.2309 44.2999L80.025 45.1899C80.025 45.1899 80.0483 51.1906 77.6039 55.6318L74.4457 57.6744C74.4457 57.6744 78.7604 52.6844 78.2309 44.2999Z" fill="#1D2025" stroke="#1D2025" stroke-linecap="round" stroke-linejoin="round"/>
<path id="Vector_13" d="M46.7758 30.1943C46.7758 30.1943 44.6385 40.5833 42.3721 43.4947" stroke="#1D2025" stroke-linecap="round" stroke-linejoin="round"/>
<path id="Vector_14" d="M87.6567 30.8301C87.6567 30.8301 91.0458 43.5435 95.7058 46.51" stroke="#1D2025" stroke-linecap="round" stroke-linejoin="round"/>
<path id="Vector_15" d="M93.3759 43.7553C93.3759 43.7553 110.122 42.6768 116.682 48.936C116.682 48.936 113.505 53.676 105.03 54.5426" stroke="#1D2025" stroke-linecap="round" stroke-linejoin="round"/>
<path id="Vector_16" d="M101.425 52.019C101.425 52.019 108.415 54.5617 110.957 66.4276C110.957 66.4276 106.297 68.1227 99.5186 64.9443" stroke="#1D2025" stroke-linecap="round" stroke-linejoin="round"/>
<path id="Vector_17" d="M111.169 66.4276C111.169 66.4276 116.676 70.4535 117.311 81.8956C117.311 81.8956 109.05 83.5907 103.331 77.0221" stroke="#1D2025" stroke-linecap="round" stroke-linejoin="round"/>
<path id="Vector_18" d="M102.696 71.301C102.696 71.301 103.755 77.3802 103.331 82.1816C103.331 82.1816 97.1886 83.3788 90.4104 77.234" stroke="#1D2025" stroke-linecap="round" stroke-linejoin="round"/>
<path id="Vector_19" d="M93.164 79.5648C93.164 79.5648 91.6813 82.1075 87.4449 83.5907" stroke="#1D2025" stroke-linecap="round" stroke-linejoin="round"/>
<path id="Vector_20" d="M91.0458 81.8956V91.0387C91.0458 91.0387 92.3167 91.2188 92.5285 92.0664C92.7403 92.9139 92.5285 93.8229 92.5285 93.8229C92.5285 93.8229 87.8685 99.4825 67.3221 99.4825C46.7758 99.4825 39.593 94.5158 39.593 94.5158C39.593 94.5158 39.1503 91.4307 41.6921 91.4307V88.3583" stroke="#1D2025" stroke-linecap="round" stroke-linejoin="round"/>
<path id="Vector_21" d="M42.3276 91.8544C42.3276 91.8544 49.3939 97.0203 69.1608 96.5266C86.5976 96.0922 90.6222 91.4307 90.6222 91.4307" stroke="#1D2025" stroke-linecap="round" stroke-linejoin="round"/>
<path id="Vector_22" d="M35.2635 48.6945C35.2635 48.6945 31.7368 47.3575 28.9831 51.3834C26.2295 55.4093 22.205 57.3164 19.2395 57.3164C19.2395 57.3164 20.2986 64.5206 29.6186 67.0633C29.6186 67.0633 26.865 67.4871 22.6286 69.8179C22.6286 69.8179 23.1793 71.8075 26.5049 72.5068" stroke="#1D2025" stroke-linecap="round" stroke-linejoin="round"/>
<path id="Vector_23" d="M45.9285 15.6799V27.2364C44.7635 27.7216 45.1617 29.7177 45.1617 29.7177C45.1617 29.7177 45.5049 31.2539 66.2631 31.2539C87.0212 31.2539 88.4235 29.6647 88.4235 29.6647C88.4235 29.6647 88.8217 27.6708 87.6567 27.1834V15.627" stroke="#1D2025" stroke-linecap="round" stroke-linejoin="round"/>
<path id="Vector_24" d="M27.2504 12.1011L64.1258 20.2292L118.849 9.63466L73.0412 0.105957L27.2504 12.1011Z" stroke="#1D2025" stroke-linecap="round" stroke-linejoin="round"/>
<path id="Vector_25" d="M29.1949 12.6074V51.0655" stroke="#1D2025" stroke-linecap="round" stroke-linejoin="round"/>
<path id="Vector_26" d="M30.0422 12.6074V50.0061" stroke="#1D2025" stroke-linecap="round" stroke-linejoin="round"/>
<path id="Vector_27" d="M40.1035 92.115L21.5694 98.0882C21.131 98.2301 21.1733 98.8637 21.6288 98.9442L95.7058 112.016L134.329 94.6979C135.064 94.3674 135.896 94.9056 135.896 95.7129V106.456C135.896 106.894 135.638 107.293 135.235 107.473L96.3413 125.757L21.5864 109.88C21.1373 109.793 21.1013 109.162 21.5377 109.024L27.7122 106.687" stroke="#1D2025" stroke-linecap="round" stroke-linejoin="round"/>
<path id="Vector_28" d="M28.1359 101.389V108.382L96.1295 121.943L133.003 104.744C133.583 104.472 134.03 103.979 134.231 103.373C134.708 101.934 135.252 99.1201 133.623 96.3041" stroke="#1D2025" stroke-linecap="round" stroke-linejoin="round"/>
<path id="Vector_29" d="M134.86 94.6026L91.0458 88.2332" stroke="#1D2025" stroke-linecap="round" stroke-linejoin="round"/>
<path id="Vector_30" d="M134.045 96.0923L95.7058 113.467L21.9401 100.326C21.5292 100.254 21.2347 99.8915 21.2432 99.4741L21.2644 98.5036" stroke="#1D2025" stroke-linecap="round" stroke-linejoin="round"/>
<path id="Vector_31" d="M28.1358 103.589L4.96716 113.467L63.5095 126.181V137.144L4.96716 123.905L13.5204 119.4" stroke="#1D2025" stroke-linecap="round" stroke-linejoin="round"/>
<path id="Vector_32" d="M4.83582 124.062V125.333L64.3567 138.894L92.1049 124.856" stroke="#1D2025" stroke-linecap="round" stroke-linejoin="round"/>
<path id="Vector_33" d="M66.4749 125.227L75.511 121.333" stroke="#1D2025" stroke-linecap="round" stroke-linejoin="round"/>
<path id="Vector_34" d="M13.5161 115.323L12.673 116.858H13.5161L12.673 118.097H13.5161L12.673 119.445H13.5881L12.673 120.428H13.5203L12.673 121.307H13.5881L12.2494 122.367L63.5094 133.603" stroke="#1D2025" stroke-linecap="round" stroke-linejoin="round"/>
<path id="Vector_35" d="M132.418 96.8296V104.78" stroke="#1D2025" stroke-linecap="round" stroke-linejoin="round"/>
<path id="Vector_36" d="M131.715 101.178L97.1886 117.069L33.2195 104.992" stroke="#1D2025" stroke-linecap="round" stroke-linejoin="round"/>
<path id="Vector_37" d="M40.4213 108.382L88.9276 117.705" stroke="#1D2025" stroke-linecap="round" stroke-linejoin="round"/>
<path id="Vector_38" d="M14.0986 117.069L59.4849 127.24" stroke="#1D2025" stroke-linecap="round" stroke-linejoin="round"/>
<path id="Vector_39" d="M16.9094 119.188L50.8003 126.816" stroke="#1D2025" stroke-linecap="round" stroke-linejoin="round"/>
<path id="Vector_40" d="M16.3799 121.333L49.5294 128.723" stroke="#1D2025" stroke-linecap="round" stroke-linejoin="round"/>
</g>
<defs>
<clipPath id="clip0_163_334">
<rect width="136" height="139" fill="white"/>
</clipPath>
</defs>
</svg>
