<svg width="324" height="174" viewBox="0 0 324 174" fill="none" xmlns="http://www.w3.org/2000/svg">
<g clip-path="url(#clip0_1141_1398)">
<path d="M241.169 56.2332C241.169 56.2332 242.787 57.9997 246.378 60.1985C247.403 60.828 248.695 61.9149 249.89 63.3907" stroke="white" stroke-linecap="round" stroke-linejoin="round"/>
<path d="M221.497 69.6061C222.982 64.6966 223.845 63.1183 227.768 61.6059C227.768 61.6059 235.375 59.7255 237.812 66.0157" stroke="white" stroke-linecap="round" stroke-linejoin="round"/>
<path d="M225.005 63.0433C224.723 60.5129 227.105 59.1191 227.105 59.1191C227.105 59.1191 226.704 59.2004 226.178 58.6803C225.652 58.1601 226.173 57.6331 226.173 57.6331C226.173 57.6331 226.456 57.9952 227.42 57.5867" stroke="white" stroke-linecap="round" stroke-linejoin="round"/>
<path d="M226.131 57.4292C226.131 57.4292 221.382 56.7257 220.948 50.5221C220.514 44.3185 224.09 43.3758 225.852 41.7552C227.615 40.1345 227.325 38.7255 227.927 38.6024C228.53 38.4793 229.281 40.1019 228.534 41.5683C228.534 41.5683 229.19 41.6995 230.667 39.7191C232.145 37.7386 232.753 38.6627 232.878 39.2662C233.101 40.3503 232.687 41.4023 232.687 41.4023" stroke="white" stroke-linecap="round" stroke-linejoin="round"/>
<path d="M234.593 40.9917C234.593 40.9917 235.664 41.2116 236.398 41.9417C237.132 42.6719 237.029 44.3083 237.653 45.2076" stroke="white" stroke-linecap="round" stroke-linejoin="round"/>
<path d="M239.78 47.0306C239.78 47.0306 241.297 47.0912 241.652 48.84C242.008 50.5888 240.942 50.9728 240.942 50.9728" stroke="white" stroke-linecap="round" stroke-linejoin="round"/>
<path d="M239.32 49.3102C239.32 49.3102 239.48 51.9553 245.535 51.4246" stroke="white" stroke-linecap="round" stroke-linejoin="round"/>
<path d="M228.344 51.1239C228.344 51.1239 229.765 52.1988 229.79 55.2542C229.815 58.3096 231.161 61.1479 235.864 58.8172C240.568 56.4865 242.656 53.4894 246.095 52.8392C249.561 52.1834 247.634 53.8247 247.634 53.8247" stroke="white" stroke-linecap="round" stroke-linejoin="round"/>
<path d="M240.193 56.2352C240.193 56.2352 244.79 56.1668 247.694 54.6973C250.595 53.2281 250.726 51.725 248.793 51.0828C246.861 50.4406 239.865 53.2966 237.456 55.6484" stroke="white" stroke-linecap="round" stroke-linejoin="round"/>
<path d="M230.162 52.0082C230.162 52.0082 228.74 50.3869 226.165 51.1339" stroke="white" stroke-linecap="round" stroke-linejoin="round"/>
<path d="M229.801 55.609C229.801 55.609 225.091 54.9338 224.602 52.2201C224.114 49.5065 226.265 47.7523 228.839 49.4116C231.413 51.0709 232.976 50.606 233.638 49.411C234.615 47.6528 236.11 49.0952 236.173 49.137" stroke="white" stroke-linecap="round" stroke-linejoin="round"/>
<path d="M239.308 45.1059L239.336 45.1023C239.478 45.5381 239.827 46.8445 239.349 47.8777C239.086 48.449 238.601 48.8555 237.911 49.089C237.741 49.1476 237.574 49.1871 237.416 49.207C235.519 49.4445 234.886 46.8173 234.755 46.1338C235.239 45.9551 236.85 45.4138 239.308 45.1059ZM239.282 44.902C236.26 45.2805 234.524 46.0033 234.524 46.0033C234.524 46.0033 235.044 49.7111 237.441 49.4109C237.61 49.3897 237.789 49.3487 237.977 49.2837C240.834 48.3149 239.476 44.8778 239.476 44.8778C239.41 44.886 239.345 44.8941 239.282 44.902Z" fill="white"/>
<path d="M237.544 48.9611C237.641 48.9407 237.739 48.9139 237.84 48.8805C238.478 48.6639 238.907 48.3058 239.147 47.7849C239.543 46.9299 239.327 45.8656 239.179 45.3498C238.559 45.4316 237.952 45.5325 237.367 45.6534C236.235 45.8863 235.43 46.1384 235.014 46.2837C235.148 46.8922 235.516 48.1652 236.319 48.7315C236.677 48.9848 237.079 49.0607 237.547 48.9649L237.544 48.9611Z" fill="white"/>
<path d="M233.696 46.2065L233.724 46.2029C233.866 46.6387 234.215 47.9451 233.737 48.9782C233.474 49.5496 232.989 49.9561 232.299 50.1896C232.129 50.2482 231.962 50.2877 231.804 50.3076C229.907 50.5451 229.274 47.9179 229.143 47.2344C229.627 47.0557 231.237 46.5144 233.696 46.2065ZM233.67 46.0026C230.648 46.3811 228.912 47.1039 228.912 47.1039C228.912 47.1039 229.432 50.8117 231.829 50.5115C231.998 50.4903 232.177 50.4493 232.365 50.3843C235.222 49.4155 233.863 45.9784 233.863 45.9784C233.798 45.9866 233.733 45.9947 233.67 46.0026Z" fill="white"/>
<path d="M231.934 50.0593C232.03 50.0389 232.128 50.0122 232.229 49.9788C232.868 49.7622 233.296 49.4041 233.537 48.8832C233.932 48.0281 233.716 46.9639 233.569 46.4481C232.949 46.5299 232.341 46.6308 231.757 46.7516C230.625 46.9846 229.819 47.2366 229.403 47.3819C229.537 47.9905 229.906 49.2635 230.708 49.8297C231.066 50.083 231.469 50.159 231.936 50.0631L231.934 50.0593Z" fill="white"/>
<path d="M234.524 46.0034L234.147 46.1624C234.147 46.1624 234.469 48.0085 235.103 48.5628L235.67 48.7155C235.67 48.7155 234.669 47.6398 234.526 46.0031L234.524 46.0034Z" fill="white"/>
<path d="M228.768 47.4781C228.95 48.3871 229.312 49.077 229.649 49.5566C229.098 48.8076 228.826 47.8354 228.744 47.4977L228.768 47.4781ZM228.914 47.1037L228.514 47.4146C228.514 47.4146 228.812 48.9014 229.641 49.8764L230.526 50.2212C230.526 50.2212 229.206 49.2041 228.912 47.1039L228.914 47.1037Z" fill="white"/>
<path d="M233.021 40.675C233.021 40.675 233.852 39.931 234.167 38.9101C234.481 37.8892 236.078 38.7783 234.971 40.9132" stroke="white" stroke-linecap="round" stroke-linejoin="round"/>
<path d="M250.622 63.2556C250.622 63.2556 249.863 56.4901 252.142 53.2953C252.142 53.2953 265.128 52.3106 270.4 60.6665" stroke="white" stroke-linecap="round" stroke-linejoin="round"/>
<path d="M216.268 70.3004C216.268 70.3004 212.238 56.26 221.094 51.7049" stroke="white" stroke-linecap="round" stroke-linejoin="round"/>
<path d="M218.708 69.8C218.708 69.8 216.819 59.6993 217.616 58.4875C218.413 57.2757 220.984 57.374 222.707 63.8385" stroke="white" stroke-linecap="round" stroke-linejoin="round"/>
<path d="M218.379 57.9116C218.379 57.9116 219.301 57.3032 220.306 57.0965C221.312 56.8898 223.78 56.3839 223.78 56.3839" stroke="white" stroke-linecap="round" stroke-linejoin="round"/>
<path d="M220.895 51.8107C220.895 51.8107 211.574 55.051 207.742 59.6725C202.09 66.4955 203.693 73.2982 203.693 73.2982" stroke="white" stroke-linecap="round" stroke-linejoin="round"/>
<path d="M197.73 121.553C169.201 123.103 162.892 113.983 163.719 98.9073C164.755 80.0328 203.085 72.3761 203.085 72.3761" stroke="white" stroke-linecap="round" stroke-linejoin="round"/>
<path d="M202.662 73.4686L221.497 69.606L251.025 63.1741C251.025 63.1741 290.118 54.0053 297.19 71.533C304.694 90.1288 299.16 102.955 238.721 115.352L234.701 116.177C226.899 117.777 219.908 119.013 213.654 119.906" stroke="white" stroke-linecap="round" stroke-linejoin="round"/>
<path d="M169.186 87.9203C169.186 87.9203 163.93 75.9677 164.586 73.763C165.24 71.5585 172.608 72.5801 183.632 78.7161" stroke="white" stroke-linecap="round" stroke-linejoin="round"/>
<path d="M171.815 100.163L169.822 110.864C169.705 111.497 170.228 112.059 170.869 111.994C172.017 111.875 173.982 111.326 176.851 109.408C181.822 106.08 186.222 98.2567 186.222 98.2567C186.222 98.2567 182.45 94.8362 171.817 100.162L171.815 100.163Z" stroke="white" stroke-linecap="round" stroke-linejoin="round"/>
<path d="M296.136 68.8115C296.136 68.8115 301.919 66.9482 303.761 72.2817C306.332 79.725 304.216 82.1892 299.797 83.3392" stroke="white" stroke-linecap="round" stroke-linejoin="round"/>
<path d="M208.503 78.5352C207.011 79.6064 205.746 81.0155 204.707 82.763C203.667 84.5105 202.94 86.3804 202.526 88.3725C202.456 88.7043 202.406 88.9984 202.37 89.2535C202.335 89.5084 202.309 89.8058 202.292 90.1476C202.274 90.4873 202.277 90.7893 202.299 91.0515C202.322 91.3138 202.375 91.5722 202.459 91.8288C202.543 92.0854 202.658 92.2987 202.808 92.4725C203.156 92.5284 203.558 92.3683 204.013 91.9944C204.466 91.6208 204.904 91.1353 205.325 90.54C205.747 89.9446 206.153 89.2973 206.548 88.5998C206.942 87.9022 207.27 87.271 207.536 86.7075C207.801 86.1443 207.992 85.6917 208.11 85.3496C208.135 85.3466 208.16 85.3372 208.19 85.3231C208.219 85.3112 208.281 85.291 208.375 85.2668C208.469 85.2406 208.561 85.2186 208.652 85.2011C208.742 85.1814 208.849 85.1598 208.976 85.1335C209.101 85.1075 209.215 85.0912 209.313 85.083C209.411 85.0749 209.51 85.0749 209.612 85.0787C209.714 85.0825 209.796 85.0971 209.865 85.1215C210.162 85.2252 210.379 85.4444 210.516 85.7793C210.653 86.1141 210.721 86.4391 210.717 86.7584C210.714 87.0777 210.678 87.37 210.609 87.6397C210.443 88.234 210.204 88.852 209.894 89.4935C209.584 90.137 209.186 90.7874 208.702 91.4464C208.219 92.1055 207.673 92.6853 207.064 93.186C206.455 93.6868 205.777 94.101 205.033 94.4262C204.288 94.7514 203.492 94.9007 202.65 94.8717C202.576 94.8748 202.497 94.8722 202.413 94.8641C202.329 94.8559 202.25 94.8472 202.174 94.8381C201.5 94.7216 200.907 94.4232 200.395 93.9365C199.882 93.452 199.491 92.8674 199.219 92.1869C198.948 91.5065 198.769 90.773 198.681 89.9889C198.596 89.2044 198.605 88.4412 198.714 87.6924C198.891 86.5499 199.171 85.467 199.554 84.4479C199.937 83.4267 200.426 82.4646 201.022 81.5596C201.617 80.6547 202.343 79.8348 203.203 79.0955C204.064 78.3582 205.036 77.7373 206.12 77.235L206.139 77.2327L206.157 77.2284C206.466 77.0882 206.848 76.9906 207.304 76.9335C207.762 76.8761 208.154 76.8912 208.485 76.976C208.539 76.99 208.59 77.0148 208.641 77.0497C208.691 77.0848 208.741 77.1221 208.786 77.1621C208.952 77.369 208.99 77.6231 208.895 77.9207C208.8 78.2205 208.671 78.4251 208.505 78.5349L208.503 78.5352Z" fill="white"/>
<path d="M212.096 75.0452C212.231 75.5771 212.335 76.1273 212.409 76.6979C212.482 77.2685 212.531 77.7594 212.554 78.1748C212.578 78.5902 212.568 79.1091 212.529 79.7352C212.489 80.3614 212.456 80.8212 212.429 81.1186C212.402 81.416 212.347 81.9157 212.259 82.6122C212.171 83.3108 212.112 83.7716 212.084 83.9925C212.035 84.4232 211.997 84.751 211.97 84.9801C211.943 85.2092 211.913 85.4159 211.883 85.5999C211.852 85.7839 211.824 85.9261 211.802 86.0262C211.779 86.1264 211.737 86.3055 211.679 86.5655C211.621 86.8254 211.558 87.1025 211.494 87.3963C213.857 82.4328 216.117 78.2711 218.276 74.9131C218.295 74.8838 218.333 74.8252 218.391 74.7373C218.448 74.6493 218.494 74.5856 218.53 74.5459C218.566 74.5061 218.612 74.461 218.67 74.4123C218.728 74.3616 218.794 74.3305 218.865 74.3155C219.382 74.1575 219.713 74.2423 219.856 74.5683C220 74.6019 220.095 74.6812 220.14 74.806C220.184 74.9309 220.194 75.056 220.17 75.1812C220.146 75.3063 220.112 75.4577 220.065 75.6312C220.019 75.8068 219.997 75.9256 219.998 75.9875C220.043 77.7835 219.916 80.0007 219.616 82.6391C219.316 85.2756 219.016 87.1416 218.717 88.2331C218.691 88.2902 218.653 88.3633 218.604 88.4563C218.554 88.5496 218.519 88.6202 218.499 88.6684C218.478 88.7166 218.436 88.7777 218.376 88.8473C218.317 88.9169 218.263 88.9525 218.22 88.9559C218.177 88.9592 218.118 88.9604 218.044 88.9635C217.932 89.0252 217.831 89.0647 217.74 89.0843C217.65 89.1039 217.573 89.1032 217.507 89.0846C217.441 89.066 217.384 89.0441 217.333 89.0153C217.284 88.9862 217.233 88.9408 217.183 88.8746C217.131 88.8086 217.091 88.7495 217.062 88.6992C217.033 88.647 216.997 88.5769 216.952 88.4831C216.908 88.3914 216.867 88.3157 216.831 88.2601C216.722 87.6712 216.638 87.1268 216.579 86.6248C216.52 86.1227 216.485 85.7565 216.475 85.5299C216.465 85.3034 216.458 84.9647 216.453 84.5139C216.448 84.063 216.443 83.7758 216.444 83.6474C215.64 84.9076 214.892 85.9767 214.2 86.8585C213.507 87.7406 212.728 88.536 211.862 89.2491C211.602 89.379 211.385 89.4787 211.211 89.546C211.038 89.6133 210.838 89.6382 210.617 89.6204C210.396 89.6026 210.21 89.5078 210.06 89.334C209.727 88.9326 209.527 88.2929 209.458 87.4172C209.422 86.3306 209.446 85.2528 209.53 84.1778C209.615 83.1049 209.769 82.0088 209.994 80.8872C210.22 79.7656 210.429 78.8137 210.624 78.0293C210.82 77.2449 211.086 76.2527 211.425 75.0506C211.422 75.0261 211.474 75.0114 211.585 75.0078C211.696 75.0042 211.81 75.0065 211.925 75.0129C212.04 75.0213 212.097 75.0307 212.1 75.0427L212.096 75.0452Z" fill="white"/>
<path d="M237.997 72.443C236.504 73.5141 235.24 74.9232 234.2 76.6708C233.161 78.4183 232.434 80.2881 232.02 82.2803C231.95 82.6121 231.898 82.9065 231.863 83.1613C231.829 83.4162 231.802 83.7136 231.785 84.0553C231.768 84.3951 231.771 84.6971 231.793 84.9593C231.816 85.2215 231.869 85.4799 231.952 85.7366C232.036 85.9932 232.152 86.2065 232.302 86.3803C232.652 86.4359 233.051 86.2761 233.507 85.9022C233.96 85.5286 234.4 85.0449 234.819 84.4477C235.24 83.8524 235.647 83.2051 236.041 82.5075C236.436 81.81 236.764 81.1788 237.03 80.6153C237.294 80.052 237.486 79.5994 237.604 79.2574C237.628 79.2544 237.654 79.2449 237.683 79.2309C237.713 79.2189 237.774 79.1988 237.868 79.1725C237.962 79.1463 238.054 79.1244 238.145 79.1068C238.236 79.0872 238.343 79.0655 238.47 79.0392C238.594 79.0133 238.708 78.9969 238.806 78.9888C238.905 78.9806 239.004 78.9806 239.106 78.9844C239.207 78.9883 239.29 79.0028 239.359 79.0273C239.655 79.131 239.873 79.3501 240.01 79.685C240.147 80.0199 240.214 80.3448 240.211 80.6641C240.207 80.9835 240.172 81.2758 240.102 81.5454C239.937 82.1397 239.698 82.7577 239.388 83.4012C239.078 84.0448 238.68 84.6951 238.196 85.3542C237.712 86.0132 237.167 86.593 236.558 87.0938C235.949 87.5946 235.271 88.0088 234.527 88.334C233.782 88.6592 232.986 88.8085 232.143 88.7795C232.069 88.7825 231.991 88.78 231.907 88.7718C231.823 88.7637 231.744 88.755 231.668 88.7459C230.994 88.6314 230.401 88.331 229.889 87.8442C229.376 87.3598 228.984 86.7752 228.713 86.0947C228.442 85.4143 228.263 84.6808 228.175 83.8966C228.09 83.1142 228.099 82.3489 228.208 81.6002C228.385 80.4577 228.665 79.3748 229.048 78.3557C229.431 77.3365 229.92 76.3724 230.515 75.4674C231.111 74.5624 231.837 73.7426 232.697 73.0032C233.558 72.2659 234.53 71.6451 235.614 71.1428L235.632 71.1405L235.65 71.1361C235.959 70.996 236.342 70.8984 236.8 70.841C237.258 70.7837 237.65 70.7987 237.981 70.8836C238.035 70.8976 238.085 70.9223 238.137 70.9572C238.189 70.9921 238.237 71.0296 238.284 71.0693C238.45 71.2763 238.488 71.5303 238.393 71.828C238.298 72.1277 238.169 72.3324 238.005 72.442L237.997 72.443Z" fill="white"/>
<path d="M244.015 77.7233C243.938 77.7144 243.827 77.7075 243.683 77.707C243.538 77.7045 243.4 77.7279 243.265 77.7738C243.13 77.8197 243.067 77.8938 243.076 77.9943C243.065 78.3021 243.048 78.6128 243.026 78.9303C243.003 79.2458 242.977 79.5307 242.949 79.7848C242.921 80.0389 242.876 80.3427 242.819 80.6977C242.76 81.053 242.714 81.3279 242.678 81.5188C242.642 81.7097 242.582 82.0031 242.495 82.3971C242.408 82.7911 242.346 83.0576 242.312 83.1986C242.278 83.3395 242.211 83.6275 242.106 84.061C242.001 84.4965 241.941 84.7588 241.922 84.8523C241.835 85.2132 241.632 85.5554 241.316 85.8745C241.001 86.1936 240.707 86.3567 240.433 86.362C239.986 86.3786 239.765 86.0295 239.766 85.3169C239.768 84.6561 239.763 83.1596 239.75 80.8275C239.739 78.4951 239.738 76.7226 239.749 75.5057C239.759 74.2888 239.806 72.7796 239.884 70.9765C239.962 69.1734 240.078 67.639 240.23 66.3754C240.291 66.1856 240.43 66.0604 240.65 66.0018C240.87 65.9432 241.145 65.975 241.476 66.0992C241.808 66.2212 242.066 66.4042 242.256 66.6435C242.649 67.8222 242.965 69.6319 243.207 72.0741C243.211 72.1625 243.252 72.2237 243.329 72.2576C243.404 72.2938 243.468 72.2795 243.518 72.2193C243.569 72.1592 243.805 71.8707 244.231 71.3577C244.656 70.8447 244.924 70.5253 245.037 70.3994C245.149 70.2756 245.396 69.9983 245.776 69.5696C246.156 69.141 246.459 68.8339 246.682 68.6486C246.907 68.463 247.2 68.2171 247.561 67.9131C247.924 67.6088 248.283 67.3547 248.641 67.1462C248.997 66.938 249.37 66.7443 249.759 66.5631C249.935 66.5659 250.074 66.5733 250.178 66.5914C250.281 66.6074 250.383 66.6484 250.484 66.7104C250.585 66.7723 250.644 66.8809 250.663 67.0358C250.683 67.1908 250.659 67.3842 250.595 67.6118C250.414 68.2474 250.163 68.8876 249.847 69.5298C249.529 70.1743 249.151 70.8242 248.713 71.4817C248.272 72.1395 247.885 72.6953 247.548 73.1538C247.211 73.6123 246.783 74.1607 246.266 74.8012C246.226 74.8476 246.213 74.9072 246.229 74.9798C246.244 75.0525 246.274 75.1108 246.32 75.1526C247.3 75.7775 248.573 76.6865 250.145 77.8812C251.717 79.0759 253.029 80.1955 254.081 81.2357C254.507 81.669 254.755 82.0314 254.821 82.3234C254.886 82.6155 254.801 82.945 254.564 83.3102C254.358 83.5824 253.95 83.6397 253.344 83.4858C253.001 83.4045 252.005 82.8439 250.353 81.8041C248.702 80.7664 247.371 79.9122 246.365 79.2409C245.358 78.5719 244.616 78.0768 244.137 77.7557L244.017 77.7231L244.015 77.7233Z" fill="white"/>
<path d="M247.985 86.9236C247.661 86.7924 247.572 86.6751 247.714 86.5745C248.261 85.7459 249.113 84.9745 250.272 84.2578C250.32 84.2311 250.384 84.1941 250.461 84.1472C250.861 83.8982 251.149 83.7379 251.323 83.6706C251.532 83.5886 251.751 83.4948 251.98 83.3916C252.006 83.3697 252.106 83.438 252.28 83.5921C252.452 83.7466 252.615 83.9084 252.767 84.0758C252.918 84.2433 252.985 84.3363 252.965 84.3574C252.782 84.4984 252.607 84.6342 252.439 84.7649C252.293 84.8827 252.032 85.0438 251.661 85.2477C251.561 85.2912 251.487 85.3315 251.44 85.3644C250.822 85.6985 250.319 85.9562 249.934 86.1348C249.55 86.3135 248.901 86.577 247.987 86.9234L247.985 86.9236Z" fill="white"/>
<path d="M221.6 87.2755L221.683 89.7211C221.683 89.7211 220.54 90.6801 220.47 90.8483C220.401 91.0165 220.506 91.0157 220.849 91.0017C221.193 90.9877 221.663 90.966 221.887 91.085C221.887 91.085 222.578 90.9405 223.132 90.8567C223.209 90.8449 223.359 90.8572 223.426 90.8467C223.866 90.7792 222.138 89.7221 222.138 89.7221L222.105 87.2786C222.105 87.2786 222.45 87.5459 223.82 87.5089C225.188 87.4722 225.657 87.1547 225.657 87.1547L225.77 89.5964L224.546 90.6464C224.546 90.6464 224.461 90.8103 224.554 90.7944C224.702 90.7718 225.333 90.6431 226.051 90.9114C226.051 90.9114 226.649 90.6874 227.172 90.7689C227.694 90.8505 227.521 90.6838 227.475 90.6336C227.43 90.5834 226.69 89.945 226.234 89.6025L226.163 87.1223C226.163 87.1223 227.671 86.8651 227.424 84.7134C227.424 84.7134 228.579 83.5747 227.67 82.1106C226.762 80.6465 225.628 80.0285 225.48 79.6743C225.333 79.3201 225.305 79.104 224.933 78.7571C224.561 78.4103 224.147 77.4495 224.33 76.6666C224.514 75.8837 225.21 75.8814 225.106 74.6436C225.003 73.4037 224.314 73.024 224.231 72.7218C224.148 72.4195 223.95 71.8499 223.443 71.8887C222.935 71.9274 222.738 72.1861 222.629 72.7858C222.52 73.3854 222.035 73.0465 221.933 74.4902C221.831 75.9339 222.602 75.9056 222.775 76.6047C222.947 77.3037 222.841 78.1537 222.414 78.7454C221.988 79.3372 221.916 79.4167 221.848 79.8663C221.782 80.3156 220.031 81.2805 219.585 82.9039C219.139 84.5273 220.21 85.0889 220.21 85.0889C220.21 85.0889 220.263 87.0661 221.6 87.2755Z" fill="white"/>
<mask id="mask0_1141_1398" style="mask-type:luminance" maskUnits="userSpaceOnUse" x="199" y="95" width="11" height="13">
<path d="M203.901 107.896L205.264 105.035L209.497 96.4906L208.189 95.7641L202.565 96.9179L199.629 102.307L200.684 107.162L203.901 107.896Z" fill="white"/>
</mask>
<g mask="url(#mask0_1141_1398)">
<path d="M208.866 97.8184C207.933 98.4882 207.142 99.3679 206.493 100.46C205.843 101.552 205.39 102.721 205.13 103.966C205.086 104.175 205.055 104.357 205.032 104.517C205.01 104.677 204.995 104.864 204.982 105.076C204.971 105.289 204.972 105.477 204.987 105.641C205.001 105.805 205.033 105.967 205.087 106.128C205.14 106.289 205.213 106.422 205.304 106.529C205.522 106.564 205.774 106.464 206.056 106.23C206.339 105.998 206.614 105.694 206.877 105.321C207.14 104.949 207.395 104.544 207.641 104.11C207.886 103.673 208.093 103.279 208.257 102.927C208.422 102.575 208.542 102.293 208.616 102.078C208.632 102.076 208.648 102.07 208.666 102.062C208.684 102.055 208.721 102.042 208.781 102.027C208.841 102.011 208.897 101.997 208.954 101.984C209.01 101.973 209.076 101.958 209.155 101.942C209.234 101.926 209.305 101.915 209.366 101.912C209.428 101.908 209.49 101.907 209.554 101.909C209.616 101.912 209.669 101.921 209.712 101.937C209.898 102.003 210.033 102.139 210.119 102.348C210.205 102.556 210.248 102.76 210.246 102.959C210.244 103.158 210.221 103.341 210.178 103.51C210.076 103.881 209.926 104.269 209.732 104.67C209.537 105.071 209.29 105.479 208.988 105.892C208.687 106.304 208.345 106.666 207.965 106.979C207.585 107.291 207.16 107.549 206.696 107.753C206.229 107.956 205.733 108.049 205.205 108.03C205.158 108.032 205.11 108.03 205.058 108.026C205.005 108.02 204.955 108.016 204.907 108.01C204.487 107.938 204.116 107.751 203.795 107.447C203.474 107.143 203.23 106.779 203.06 106.352C202.891 105.926 202.778 105.468 202.725 104.98C202.672 104.49 202.678 104.013 202.746 103.545C202.857 102.831 203.031 102.155 203.271 101.516C203.51 100.879 203.816 100.275 204.188 99.711C204.559 99.1447 205.014 98.6322 205.551 98.1715C206.089 97.7107 206.696 97.3241 207.373 97.0073L207.385 97.0057L207.398 97.0042C207.591 96.9158 207.83 96.8549 208.115 96.8212C208.4 96.7855 208.647 96.7939 208.852 96.8469C208.884 96.8553 208.917 96.8719 208.948 96.8928C208.98 96.9137 209.01 96.9369 209.04 96.9642C209.145 97.0939 209.167 97.2526 209.108 97.4382C209.048 97.6257 208.967 97.7539 208.864 97.8228L208.866 97.8184Z" fill="white"/>
</g>
<mask id="mask1_1141_1398" style="mask-type:luminance" maskUnits="userSpaceOnUse" x="254" y="95" width="5" height="4">
<path d="M256.895 95.3559L254.894 96.8822L255.907 98.7722L257.308 97.3791L258.029 96.8684L256.895 95.3559Z" fill="white"/>
</mask>
<g mask="url(#mask1_1141_1398)">
<path d="M256.516 92.4939C257.423 92.196 258.149 92.0617 258.694 92.0907C258.715 92.0777 258.767 92.1271 258.846 92.2372C258.928 92.3471 259.003 92.462 259.069 92.578C259.135 92.696 259.161 92.7548 259.147 92.7587C259.067 92.8619 258.982 92.9574 258.89 93.0436C258.797 93.1297 258.688 93.2199 258.56 93.3147C258.431 93.4096 258.327 93.4847 258.249 93.54C258.171 93.5953 258.04 93.6738 257.859 93.7753C257.677 93.8767 257.56 93.9432 257.507 93.9725C257.456 94.0039 257.32 94.0768 257.101 94.1932C256.882 94.3097 256.76 94.3747 256.731 94.3887C256.748 94.7738 256.761 95.0434 256.768 95.1979C256.777 95.3521 256.78 95.5878 256.78 95.9046C256.778 96.2216 256.757 96.4976 256.716 96.7285C256.672 96.9596 256.611 97.1745 256.526 97.3756C256.474 97.5063 256.347 97.5657 256.148 97.5555C255.946 97.5456 255.813 97.4918 255.745 97.3947C255.605 97.0499 255.489 96.6834 255.4 96.2907C255.312 95.9 255.239 95.5116 255.184 95.125C254.358 95.479 253.523 95.8052 252.68 96.1075C252.649 96.186 252.584 96.3453 252.486 96.5894C252.388 96.8315 252.315 97.0084 252.267 97.118C252.219 97.2276 252.155 97.3785 252.074 97.5688C251.992 97.7612 251.912 97.9328 251.834 98.0834C251.756 98.234 251.678 98.3867 251.6 98.5373C251.436 98.6178 251.316 98.668 251.238 98.6841C251.159 98.7001 251.094 98.6917 251.044 98.6586C250.995 98.6255 250.93 98.5528 250.854 98.4422C250.829 98.3604 250.813 98.2776 250.802 98.196C250.792 98.1145 250.787 98.024 250.781 97.9254C250.777 97.8265 250.774 97.7544 250.77 97.7072C250.768 97.6598 250.772 97.5765 250.785 97.459C250.795 97.3418 250.8 97.2707 250.799 97.248C250.799 97.2253 250.809 97.1412 250.83 96.9977C250.851 96.8543 250.86 96.7786 250.859 96.7704C250.392 96.9305 250.078 97.0339 249.917 97.0852C250.064 97.0378 250.065 97.0418 249.919 97.0974C249.861 97.117 249.74 97.1591 249.558 97.2192C249.078 97.3974 248.782 97.507 248.665 97.5465C248.652 97.5646 248.638 97.5809 248.623 97.5972C248.607 97.6117 248.591 97.6219 248.575 97.6239C248.561 97.6257 248.542 97.628 248.521 97.6224C248.5 97.6189 248.483 97.6148 248.466 97.6107C248.449 97.6066 248.429 97.5946 248.406 97.5748C248.382 97.5549 248.362 97.5409 248.344 97.5286C248.326 97.5164 248.301 97.4988 248.269 97.4779C248.238 97.457 248.212 97.4354 248.192 97.4173C248.313 97.2488 248.453 97.0821 248.617 96.9188C248.778 96.7536 248.92 96.6178 249.043 96.5092C249.166 96.4007 249.347 96.26 249.59 96.0867C249.832 95.9134 249.999 95.7951 250.097 95.7311C250.194 95.6672 250.395 95.5385 250.702 95.3448C251.01 95.1508 251.197 95.03 251.266 94.9842C251.454 94.3414 251.676 93.651 251.935 92.9145C252.194 92.178 252.431 91.5312 252.649 90.9738C252.866 90.4164 253.131 89.7413 253.445 88.9503C253.757 88.1574 254.007 87.5091 254.191 87.0014C254.351 86.9441 254.482 86.9298 254.58 86.9568C254.607 86.9742 254.621 86.9994 254.619 87.0328C254.687 87.018 254.739 87.0323 254.779 87.0707C254.819 87.1092 254.852 87.165 254.882 87.2338C254.911 87.3027 254.942 87.3506 254.97 87.376C255.653 88.6095 256.169 90.3155 256.518 92.4937L256.516 92.4939ZM253.548 93.7272C253.98 93.5177 254.42 93.3176 254.865 93.1211C254.727 92.1879 254.601 91.2159 254.487 90.2072C254.221 91.4955 253.909 92.6673 253.55 93.7269L253.548 93.7272Z" fill="white"/>
</g>
<path d="M213.926 93.0243C212.124 93.3205 210.568 94.4452 209.719 96.0653C205.984 103.195 196.873 122.499 196.868 124.305C196.852 129.343 249.703 104.683 262.806 89.9874C263.862 88.801 263.45 86.9144 261.999 86.2719C261.975 86.2604 261.949 86.2492 261.923 86.2401C260.165 85.5036 224.393 91.3054 213.926 93.0243Z" stroke="white" stroke-linecap="round" stroke-linejoin="round"/>
<path d="M303.783 60.1281C303.67 59.5722 303.128 59.2138 302.573 59.3276C302.018 59.4413 301.66 59.9842 301.774 60.54L307.544 88.7213C307.658 89.2771 308.2 89.6355 308.755 89.5218C309.31 89.408 309.667 88.8652 309.553 88.3093L303.783 60.1281Z" stroke="white" stroke-linecap="round" stroke-linejoin="round"/>
<path d="M182.917 131.072C182.917 131.072 138.482 142.643 92.5845 129.341C46.6873 116.039 13.574 125.939 13.574 125.939" stroke="white" stroke-linecap="round" stroke-linejoin="round"/>
<path d="M22.6733 115.733C22.6733 115.733 57.0091 107.705 102.906 121.008C137.277 130.969 169.616 126.324 183.691 123.363" stroke="white" stroke-linecap="round" stroke-linejoin="round"/>
<path d="M31.5024 94.3422C31.5024 94.3422 64.6139 84.4442 110.511 97.7444C125.577 102.112 140.485 103.798 153.716 104.093" stroke="white" stroke-linecap="round" stroke-linejoin="round"/>
<path d="M37.114 83.8279C37.114 83.8279 71.4518 75.7995 117.351 89.0995C126.874 91.8604 136.242 93.4991 145.109 94.3629" stroke="white" stroke-linecap="round" stroke-linejoin="round"/>
</g>
<defs>
<clipPath id="clip0_1141_1398">
<rect width="308.118" height="136.262" fill="white" transform="translate(0.667969 38.5447) rotate(-7.13948)"/>
</clipPath>
</defs>
</svg>
