<svg width="195" height="56" viewBox="0 0 195 56" fill="none" xmlns="http://www.w3.org/2000/svg">
<g id="Capa_1" clip-path="url(#clip0_175_48)">
<path id="Vector" d="M17 48.8599C17 48.8599 4.75996 41.3299 8.59996 14.3999C8.74996 13.3399 10.04 12.8799 10.82 13.6199C14.87 17.4399 24.76 26.3099 31 27.8699L43.13 7.33994C43.57 6.59994 44.59 6.46994 45.2 7.07994L62 23.8799L71.13 4.70994C71.54 3.84994 72.7 3.68994 73.32 4.41994L84 16.8799L91.14 0.789941C91.55 -0.130059 92.78 -0.28006 93.39 0.51994C97.03 5.26994 105.94 20.0999 96.99 42.8699C96.99 42.8699 67.99 40.8699 55.99 50.8699C55.99 50.8699 40.99 46.8699 16.99 48.8699L17 48.8599Z" fill="white"/>
<path id="Vector_2" d="M20 23.86L25.91 12.89C26.48 11.84 27.86 11.56 28.79 12.32L38.01 19.86" stroke="white" stroke-linecap="round" stroke-linejoin="round"/>
<path id="Vector_3" d="M53 17.86L58.9 6.90996C59.47 5.84996 60.87 5.56996 61.81 6.32996L71.01 13.85" stroke="white" stroke-linecap="round" stroke-linejoin="round"/>
<path id="Vector_4" d="M77 15.86L83.01 4.69001C83.52 3.74001 84.77 3.49001 85.61 4.18001L95 11.86" stroke="white" stroke-linecap="round" stroke-linejoin="round"/>
<path id="Vector_5" d="M0.5 53.36C0.5 53.36 17 44.86 56 50.86" stroke="white" stroke-linecap="round" stroke-linejoin="round"/>
<path id="Vector_6" d="M48.5 55.36C48.5 55.36 74.5 36.36 106.5 45.36" stroke="white" stroke-linecap="round" stroke-linejoin="round"/>
<path id="Vector_7" d="M111.5 36.36C111.5 36.36 110.17 6.48003 145.1 4.86003C180.03 3.24003 185 35.31 185 35.31" stroke="white" stroke-linecap="round" stroke-linejoin="round"/>
<path id="Vector_8" d="M100.86 38.1C100.86 38.1 125.5 34.36 144.5 44.36" stroke="white" stroke-linecap="round" stroke-linejoin="round"/>
<path id="Vector_9" d="M142.5 47.36C142.5 47.36 160.38 30.46 193.94 37.41" stroke="white" stroke-linecap="round" stroke-linejoin="round"/>
</g>
<defs>
<clipPath id="clip0_175_48">
<rect width="194.44" height="55.86" fill="white"/>
</clipPath>
</defs>
</svg>
