<svg width="123" height="138" viewBox="0 0 123 138" fill="none" xmlns="http://www.w3.org/2000/svg">
<g id="Capa_1" clip-path="url(#clip0_140_1291)">
<path id="Vector" d="M89.1858 59.0631H33.9976V66.2773H89.1858V59.0631Z" stroke="#1D2025" stroke-linecap="round" stroke-linejoin="round"/>
<path id="Vector_2" d="M89.3661 128.86H34.1779V136.074H89.3661V128.86Z" stroke="#1D2025" stroke-linecap="round" stroke-linejoin="round"/>
<path id="Vector_3" d="M35.6207 66.4576L39.2278 128.499" stroke="#1D2025" stroke-linecap="round" stroke-linejoin="round"/>
<path id="Vector_4" d="M87.5626 66.4576L83.9556 128.499" stroke="#1D2025" stroke-linecap="round" stroke-linejoin="round"/>
<path id="Vector_5" d="M2.93702 75.8865C2.93702 75.8865 9.6534 64.6541 19.3925 61.047C29.1316 57.4399 31.7828 63.994 34.2969 68.4667C37.4279 74.0325 33.8208 79.0824 30.5744 81.968C27.3281 84.8537 20.4746 87.3786 16.5068 87.0179C12.5391 86.6572 8.21057 81.2466 6.04632 80.8859C3.88208 80.5252 2.79996 82.6894 1.71783 81.968C0.63571 81.2466 1.27056 78.4583 2.93702 75.8865Z" stroke="#1D2025" stroke-linecap="round" stroke-linejoin="round"/>
<path id="Vector_6" d="M4.71166 80.9725C4.71166 80.9725 3.98664 83.2414 7.4855 85.5752C11.814 88.4608 13.5995 86.0152 13.5995 86.0152" stroke="#1D2025" stroke-linecap="round" stroke-linejoin="round"/>
<path id="Vector_7" d="M19.0282 61.047L16.8784 58.2839C16.6691 58.017 16.2868 57.9701 16.0199 58.1793L11.915 61.4041C11.6553 61.6061 11.6048 61.9776 11.7996 62.2445L13.3651 64.3871" stroke="#1D2025" stroke-linecap="round" stroke-linejoin="round"/>
<path id="Vector_8" d="M12.5715 64.8886L11.1648 63.1933C10.97 62.9588 10.6201 62.9336 10.3928 63.1356L7.32322 65.8625C7.1104 66.0537 7.08155 66.3783 7.2619 66.5984L8.66145 68.3478" stroke="#1D2025" stroke-linecap="round" stroke-linejoin="round"/>
<path id="Vector_9" d="M19.7893 60.9027C19.7893 60.9027 16.6728 58.6699 15.5077 52.5198C15.4031 51.9752 15.6015 51.4124 16.0199 51.0481C17.4952 49.764 21.1059 46.7377 23.3603 45.8936C24.5326 45.4536 25.4632 45.4319 26.1594 45.5582" stroke="#1D2025" stroke-linecap="round" stroke-linejoin="round"/>
<path id="Vector_10" d="M24.4388 46.6187C24.4388 46.6187 23.5406 47.6214 25.1602 51.6686C25.4199 52.3214 25.6941 52.9238 25.9646 53.4793" stroke="#1D2025" stroke-linecap="round" stroke-linejoin="round"/>
<path id="Vector_11" d="M29.6077 61.772L31.6529 60.3256L33.9975 63.7306" stroke="#1D2025" stroke-linecap="round" stroke-linejoin="round"/>
<path id="Vector_12" d="M33.9976 61.1444L33.0958 59.6078C33.0958 59.6078 35.9815 57.4436 41.0314 56.0007C46.0813 54.5579 48.2455 54.9186 48.2455 54.9186C48.2455 54.9186 50.7705 56.3614 50.0491 58.8864" stroke="#1D2025" stroke-linecap="round" stroke-linejoin="round"/>
<path id="Vector_13" d="M29.2253 83.0105C29.3444 83.768 29.4706 84.5363 29.6041 85.3118C29.6041 85.3118 30.9279 85.8637 36.775 86.347" stroke="#1D2025" stroke-linecap="round" stroke-linejoin="round"/>
<path id="Vector_14" d="M27.7501 58.4247C27.7212 59.0848 27.6959 59.817 27.6815 60.6142" stroke="#1D2025" stroke-linecap="round" stroke-linejoin="round"/>
<path id="Vector_15" d="M33.2256 59.514C26.4768 58.7204 26.2387 57.7898 26.2387 57.7898C25.8708 55.9755 25.8852 44.4544 26.2387 44.1695C26.5922 43.8845 28.1649 42.8529 28.1649 42.8529C28.1649 42.8529 25.1638 46.6187 54.9222 46.6187H68.308C98.0664 46.6187 95.0653 42.8529 95.0653 42.8529C95.0653 42.8529 96.638 43.8809 96.9915 44.1695C97.345 44.4581 97.3594 55.9791 96.9915 57.7898C96.9915 57.7898 96.7534 58.7204 90.0046 59.514" stroke="#1D2025" stroke-linecap="round" stroke-linejoin="round"/>
<path id="Vector_16" d="M36.7569 57.4039C36.7569 57.4039 34.5386 54.5543 39.5885 52.3901C44.6384 50.2258 51.4918 49.8651 57.2632 54.5543" stroke="#1D2025" stroke-linecap="round" stroke-linejoin="round"/>
<path id="Vector_17" d="M36.7786 90.8054H28.0459C28.0459 90.8054 15.7818 102.889 18.3392 106.763C19.5981 108.668 31.2922 107.939 31.2922 107.939L37.4243 98.5282" stroke="#1D2025" stroke-linecap="round" stroke-linejoin="round"/>
<path id="Vector_18" d="M30.5708 106.857C30.5708 106.857 29.8494 105.775 29.8494 104.332C29.8494 102.889 36.7786 94.499 36.7786 94.499" stroke="#1D2025" stroke-linecap="round" stroke-linejoin="round"/>
<path id="Vector_19" d="M19.3889 107.578L27.7068 112.744L36.7029 112.989L38.1782 110.446L32.8541 105.547" stroke="#1D2025" stroke-linecap="round" stroke-linejoin="round"/>
<path id="Vector_20" d="M31.653 108.3L36.7786 112.744" stroke="#1D2025" stroke-linecap="round" stroke-linejoin="round"/>
<path id="Vector_21" d="M27.6852 112.628C27.6852 112.628 24.7562 122.007 19.9083 128.499" stroke="#1D2025" stroke-linecap="round" stroke-linejoin="round"/>
<path id="Vector_22" d="M36.7785 113.891C36.7785 113.891 36.407 121.646 38.1781 128.499" stroke="#1D2025" stroke-linecap="round" stroke-linejoin="round"/>
<path id="Vector_23" d="M24.7995 130.469L23.9555 128.781L20.0165 128.499L17.203 129.906V130.469C17.203 130.469 17.7657 130.187 18.3284 130.187C18.8911 130.187 21.986 130.469 21.986 130.469L22.83 131.875L24.7995 130.469Z" stroke="#1D2025" stroke-width="0.75" stroke-linecap="round" stroke-linejoin="round"/>
<path id="Vector_24" d="M22.408 132.193L21.5784 130.714L17.7116 130.469L14.9485 131.699V132.193C14.9485 132.193 15.5004 131.948 16.0523 131.948C16.6042 131.948 19.6414 132.193 19.6414 132.193L20.471 133.423L22.4044 132.193H22.408Z" stroke="#1D2025" stroke-width="0.75" stroke-linecap="round" stroke-linejoin="round"/>
<path id="Vector_25" d="M20.0165 133.845C20.0165 133.845 19.7352 133.001 19.1725 132.72C18.6097 132.438 15.7962 132.438 15.2335 132.438C14.6708 132.438 12.9827 133.845 12.842 134.126C12.7014 134.408 12.7014 135.533 12.7014 135.533C12.7014 135.533 15.2335 136.096 16.6403 135.814C18.047 135.533 20.0165 133.845 20.0165 133.845Z" stroke="#1D2025" stroke-width="0.75" stroke-linecap="round" stroke-linejoin="round"/>
<path id="Vector_26" d="M26.9962 130.916C26.9962 130.916 27.4651 129.542 27.7789 129.542H32.1291C32.4934 129.542 32.9551 130.916 32.9551 130.916L33.0453 132.016C33.0453 132.016 32.497 131.19 32.2192 131.19H27.2703L26.722 132.016L26.9962 130.916Z" stroke="#1D2025" stroke-width="0.75" stroke-linecap="round" stroke-linejoin="round"/>
<path id="Vector_27" d="M26.3541 133.116C26.3541 133.116 26.906 131.742 27.2739 131.742H32.3815C32.8072 131.742 33.3482 133.116 33.3482 133.116L33.4528 134.217C33.4528 134.217 32.8072 133.391 32.4861 133.391H26.6787L26.0331 134.217L26.3541 133.116Z" stroke="#1D2025" stroke-width="0.75" stroke-linecap="round" stroke-linejoin="round"/>
<path id="Vector_28" d="M25.878 135.144C25.878 135.144 25.2612 137.207 29.7447 137.207C34.2283 137.207 33.6115 135.144 33.6115 135.144C33.6115 135.144 33.2653 133.726 32.5114 133.816C31.8549 133.895 28.0494 133.903 27.0503 133.906C26.8988 133.906 26.7581 133.978 26.6643 134.101L25.8816 135.144H25.878Z" stroke="#1D2025" stroke-width="0.75" stroke-linecap="round" stroke-linejoin="round"/>
<path id="Vector_29" d="M24.8752 130.469C24.8752 130.469 26.1882 130.148 27.1188 130.588" stroke="#1D2025" stroke-linecap="round" stroke-linejoin="round"/>
<path id="Vector_30" d="M32.9515 130.916C32.9515 130.916 33.8172 130.509 34.1779 130.588" stroke="#1D2025" stroke-linecap="round" stroke-linejoin="round"/>
<path id="Vector_31" d="M49.5801 56.1703C49.5801 56.1703 51.8525 56.3579 55.4596 58.5221L55.1242 59.0632" stroke="#1D2025" stroke-linecap="round" stroke-linejoin="round"/>
<path id="Vector_32" d="M28.1649 42.8529C28.1649 42.8529 20.8317 1.1803 61.0506 1.1803H62.1724C102.391 1.1803 95.0617 42.8529 95.0617 42.8529" stroke="#1D2025" stroke-linecap="round" stroke-linejoin="round"/>
<path id="Vector_33" d="M120.29 75.8865C120.29 75.8865 113.573 64.6541 103.834 61.047C94.0951 57.4399 91.4439 63.994 88.9297 68.4667C85.7988 74.0325 89.4059 79.0824 92.6522 81.968C95.8986 84.8537 102.752 87.3786 106.72 87.0179C110.688 86.6572 115.016 81.2466 117.18 80.8859C119.345 80.5252 120.427 82.6894 121.509 81.968C122.591 81.2466 121.956 78.4583 120.29 75.8865Z" stroke="#1D2025" stroke-linecap="round" stroke-linejoin="round"/>
<path id="Vector_34" d="M118.511 80.9725C118.511 80.9725 119.236 83.2414 115.738 85.5752C111.409 88.4608 109.624 86.0152 109.624 86.0152" stroke="#1D2025" stroke-linecap="round" stroke-linejoin="round"/>
<path id="Vector_35" d="M104.195 61.047L106.345 58.2839C106.554 58.017 106.936 57.9701 107.203 58.1793L111.308 61.4041C111.568 61.6061 111.618 61.9776 111.423 62.2445L109.858 64.3871" stroke="#1D2025" stroke-linecap="round" stroke-linejoin="round"/>
<path id="Vector_36" d="M110.651 64.8886L112.058 63.1933C112.253 62.9588 112.603 62.9336 112.83 63.1356L115.9 65.8625C116.113 66.0537 116.141 66.3783 115.961 66.5984L114.562 68.3478" stroke="#1D2025" stroke-linecap="round" stroke-linejoin="round"/>
<path id="Vector_37" d="M103.434 60.9028C103.434 60.9028 106.55 58.67 107.715 52.5199C107.82 51.9753 107.622 51.4126 107.203 51.0483C105.728 49.7641 102.117 46.7378 99.8628 45.8937C98.8059 45.497 97.9402 45.4392 97.2693 45.5258" stroke="#1D2025" stroke-linecap="round" stroke-linejoin="round"/>
<path id="Vector_38" d="M98.7843 46.6187C98.7843 46.6187 99.6825 47.6214 98.0629 51.6686C97.8248 52.2673 97.5759 52.8264 97.327 53.3386" stroke="#1D2025" stroke-linecap="round" stroke-linejoin="round"/>
<path id="Vector_39" d="M93.6153 61.772L91.5701 60.3256L89.2255 63.7306" stroke="#1D2025" stroke-linecap="round" stroke-linejoin="round"/>
<path id="Vector_40" d="M89.2254 61.1444L90.1272 59.6078C90.1272 59.6078 87.2415 57.4436 82.1916 56.0007C77.1417 54.5579 74.9775 54.9186 74.9775 54.9186C74.9775 54.9186 72.4525 56.3614 73.1739 58.8864" stroke="#1D2025" stroke-linecap="round" stroke-linejoin="round"/>
<path id="Vector_41" d="M93.9976 83.0105C93.8786 83.768 93.7523 84.5363 93.6189 85.3118C93.6189 85.3118 92.2951 85.8637 86.448 86.347" stroke="#1D2025" stroke-linecap="round" stroke-linejoin="round"/>
<path id="Vector_42" d="M95.4766 58.4716C95.5054 59.1208 95.5271 59.835 95.5451 60.6178" stroke="#1D2025" stroke-linecap="round" stroke-linejoin="round"/>
<path id="Vector_43" d="M86.4661 57.4039C86.4661 57.4039 88.6844 54.5543 83.6345 52.3901C78.5846 50.2258 71.7312 49.8651 65.9598 54.5543" stroke="#1D2025" stroke-linecap="round" stroke-linejoin="round"/>
<path id="Vector_44" d="M77.1418 50.5864C77.1418 50.5864 75.6232 46.6187 61.9669 46.6187C48.3105 46.6187 45.9045 50.5864 45.9045 50.5864" stroke="#1D2025" stroke-linecap="round" stroke-linejoin="round"/>
<path id="Vector_45" d="M86.4444 90.8054H95.1771C95.1771 90.8054 107.441 102.889 104.884 106.763C103.625 108.668 91.9307 107.939 91.9307 107.939L85.7987 98.5282" stroke="#1D2025" stroke-linecap="round" stroke-linejoin="round"/>
<path id="Vector_46" d="M92.6522 106.857C92.6522 106.857 93.3736 105.775 93.3736 104.332C93.3736 102.889 86.4445 94.499 86.4445 94.499" stroke="#1D2025" stroke-linecap="round" stroke-linejoin="round"/>
<path id="Vector_47" d="M103.834 107.578L95.5163 112.744L86.5202 112.989L85.0449 110.446L90.369 105.547" stroke="#1D2025" stroke-linecap="round" stroke-linejoin="round"/>
<path id="Vector_48" d="M91.5701 108.3L86.4445 112.744" stroke="#1D2025" stroke-linecap="round" stroke-linejoin="round"/>
<path id="Vector_49" d="M95.5378 112.628C95.5378 112.628 98.4668 122.007 103.315 128.499" stroke="#1D2025" stroke-linecap="round" stroke-linejoin="round"/>
<path id="Vector_50" d="M86.4445 113.891C86.4445 113.891 86.816 121.646 85.0449 128.499" stroke="#1D2025" stroke-linecap="round" stroke-linejoin="round"/>
<path id="Vector_51" d="M98.4236 130.469L99.2676 128.781L103.207 128.499L106.02 129.906V130.469C106.02 130.469 105.457 130.187 104.895 130.187C104.332 130.187 101.237 130.469 101.237 130.469L100.393 131.875L98.4236 130.469Z" stroke="#1D2025" stroke-width="0.75" stroke-linecap="round" stroke-linejoin="round"/>
<path id="Vector_52" d="M100.815 132.193L101.645 130.714L105.511 130.469L108.274 131.699V132.193C108.274 132.193 107.723 131.948 107.171 131.948C106.619 131.948 103.582 132.193 103.582 132.193L102.752 133.423L100.819 132.193H100.815Z" stroke="#1D2025" stroke-width="0.75" stroke-linecap="round" stroke-linejoin="round"/>
<path id="Vector_53" d="M103.207 133.845C103.207 133.845 103.488 133.001 104.051 132.72C104.613 132.438 107.427 132.438 107.99 132.438C108.552 132.438 110.24 133.845 110.381 134.126C110.522 134.408 110.522 135.533 110.522 135.533C110.522 135.533 107.99 136.096 106.583 135.814C105.176 135.533 103.207 133.845 103.207 133.845Z" stroke="#1D2025" stroke-width="0.75" stroke-linecap="round" stroke-linejoin="round"/>
<path id="Vector_54" d="M96.2305 130.916C96.2305 130.916 95.7615 129.542 95.4477 129.542C95.1339 129.542 91.4619 129.542 91.0976 129.542C90.7333 129.542 90.2716 130.916 90.2716 130.916L90.1814 132.016C90.1814 132.016 90.7297 131.19 91.0074 131.19C91.2852 131.19 95.9563 131.19 95.9563 131.19L96.5046 132.016L96.2305 130.916Z" stroke="#1D2025" stroke-width="0.75" stroke-linecap="round" stroke-linejoin="round"/>
<path id="Vector_55" d="M96.8689 133.116C96.8689 133.116 96.317 131.742 95.9491 131.742C95.5811 131.742 91.2707 131.742 90.8414 131.742C90.4122 131.742 89.8747 133.116 89.8747 133.116L89.7701 134.217C89.7701 134.217 90.4158 133.391 90.7368 133.391H96.5442L97.1899 134.217L96.8689 133.116Z" stroke="#1D2025" stroke-width="0.75" stroke-linecap="round" stroke-linejoin="round"/>
<path id="Vector_56" d="M97.3451 135.144C97.3451 135.144 97.9619 137.207 93.4783 137.207C88.9947 137.207 89.6115 135.144 89.6115 135.144C89.6115 135.144 89.9578 133.726 90.7116 133.816C91.3681 133.895 95.1736 133.903 96.1728 133.906C96.3243 133.906 96.4649 133.978 96.5587 134.101L97.3414 135.144H97.3451Z" stroke="#1D2025" stroke-width="0.75" stroke-linecap="round" stroke-linejoin="round"/>
<path id="Vector_57" d="M98.3479 130.469C98.3479 130.469 97.0349 130.148 96.1042 130.588" stroke="#1D2025" stroke-linecap="round" stroke-linejoin="round"/>
<path id="Vector_58" d="M90.2716 130.916C90.2716 130.916 89.4059 130.509 89.0452 130.588" stroke="#1D2025" stroke-linecap="round" stroke-linejoin="round"/>
<path id="Vector_59" d="M73.643 56.1703C73.643 56.1703 71.3705 56.3579 67.7634 58.5221L68.0989 59.0632" stroke="#1D2025" stroke-linecap="round" stroke-linejoin="round"/>
<path id="Vector_60" opacity="0.4" d="M58.165 1.34993C58.165 1.34993 40.7356 19.6306 40.851 46.4384C40.851 46.4384 45.295 46.7991 54.5579 46.7991C54.5579 46.7991 55.64 15.7782 75.0028 2.93344C75.0028 2.93344 66.1114 0.639336 58.165 1.34993Z" fill="white"/>
<path id="Vector_61" opacity="0.4" d="M84.6121 7.96167C84.6121 7.96167 71.1613 25.8311 72.2362 46.5935C72.2362 46.5935 80.1682 46.5249 83.9556 46.1209C83.9556 46.1209 84.0638 30.6718 92.5765 18.8947C92.5765 18.8947 90.4988 12.7699 84.6121 7.96167Z" fill="white"/>
</g>
<defs>
<clipPath id="clip0_140_1291">
<rect width="123" height="138" fill="white"/>
</clipPath>
</defs>
</svg>
