<svg width="150" height="137" viewBox="0 0 150 137" fill="none" xmlns="http://www.w3.org/2000/svg">
<g clip-path="url(#clip0_136_1115)">
<path d="M12.7011 69.6091C12.7011 69.6091 11.6815 67.57 8.62286 68.5896" stroke="#1D2025" stroke-width="0.75" stroke-linecap="round" stroke-linejoin="round"/>
<path d="M9.47246 71.1383C9.47246 71.1383 8.45291 70.1188 8.11306 68.7594C7.77321 67.4 8.45291 66.2411 8.11306 64.9497C7.77321 63.6582 4.71455 62.3022 3.35515 62.9819C1.99574 63.6616 -2.08247 72.4977 6.07395 75.5564C14.2304 78.6151 15.9296 74.5369 16.9492 71.4782C17.9687 68.4195 17.6289 65.7007 15.5898 64.0015C13.5507 62.3022 12.1913 64.0015 9.81231 62.3022C7.43336 60.603 6.4138 62.6421 6.4138 62.9819" stroke="#1D2025" stroke-width="0.75" stroke-linecap="round" stroke-linejoin="round"/>
<path d="M16.1573 64.0016C16.1573 64.0016 27.4812 63.6617 34.618 66.7204C40.9324 69.4256 42.1933 78.2549 42.3972 80.2499C42.421 80.4877 42.2749 80.7053 42.0438 80.7732C39.8415 81.3985 28.4939 83.9916 13.8837 75.9915" stroke="#1D2025" stroke-width="0.75" stroke-linecap="round" stroke-linejoin="round"/>
<path d="M23.0903 64.2428C23.0903 64.2428 25.2076 73.6363 21.928 79.5225" stroke="#1D2025" stroke-width="0.75" stroke-linecap="round" stroke-linejoin="round"/>
<path d="M26.4072 64.6167C26.4072 64.6167 29.9859 71.7468 27.3758 80.9567" stroke="#1D2025" stroke-width="0.75" stroke-linecap="round" stroke-linejoin="round"/>
<path d="M30.7913 65.4595C30.7913 65.4595 35.1006 69.7688 34.1796 81.667" stroke="#1D2025" stroke-width="0.75" stroke-linecap="round" stroke-linejoin="round"/>
<path d="M33.5 50C33.5 50 30.3733 56.032 29.2688 65.1128" stroke="#1D2025" stroke-linecap="round" stroke-linejoin="round"/>
<path d="M48.1441 68.3007C48.1441 68.3007 45.4287 74.6933 42.404 79.8828" stroke="#1D2025" stroke-width="0.75" stroke-linecap="round" stroke-linejoin="round"/>
<path d="M45.8365 56.5214C45.8365 56.5214 47.1959 69.7755 52.2937 77.2523C52.2937 77.2523 57.1705 81.6703 76.4808 81.6703" stroke="#1D2025" stroke-linecap="round" stroke-linejoin="round"/>
<path d="M38.6996 38.5127C38.6996 38.5127 34.8967 42.2918 32.5517 48.8985C32.5517 48.8985 32.2935 49.721 33.2892 50.7439" stroke="#1D2025" stroke-width="0.75" stroke-linecap="round" stroke-linejoin="round"/>
<path d="M57.5613 18.6315C57.5613 18.6315 53.823 18.2917 52.1237 19.9909C50.4245 21.6902 49.0651 22.7097 49.0651 22.7097C49.0651 22.7097 49.7448 23.7293 50.4245 23.7293" stroke="#1D2025" stroke-width="0.75" stroke-linecap="round" stroke-linejoin="round"/>
<path d="M51.614 22.8796C50.2954 23.6341 49.235 25.5984 47.1959 26.2781C47.1959 26.2781 48.3786 30.771 54.6896 31.6716" stroke="#1D2025" stroke-width="0.75" stroke-linecap="round" stroke-linejoin="round"/>
<path d="M54.2614 31.8245C54.2614 31.8245 55.3523 33.7548 60.4501 34.4345C65.5479 35.1142 64.1885 39.8721 64.1885 39.8721C64.1885 39.8721 64.8682 41.4015 76.2532 41.4015" stroke="#1D2025" stroke-width="0.75" stroke-linecap="round" stroke-linejoin="round"/>
<path d="M92.5864 18.6281C92.5864 18.6281 95.8863 18.2882 97.3885 19.9875C98.8906 21.6867 100.09 22.7063 100.09 22.7063C100.09 22.7063 99.4887 23.7258 98.8906 23.7258" stroke="#1D2025" stroke-width="0.75" stroke-linecap="round" stroke-linejoin="round"/>
<path d="M97.8405 22.8762C99.0062 23.6307 99.9407 25.595 101.742 26.2747C101.742 26.2747 100.712 30.7064 95.2406 31.6478" stroke="#1D2025" stroke-width="0.75" stroke-linecap="round" stroke-linejoin="round"/>
<path d="M95.4989 31.8245C95.4989 31.8245 94.5371 33.7548 90.0341 34.4345C85.5311 35.1142 86.7342 39.8721 86.7342 39.8721C86.7342 39.8721 86.1326 41.4015 76.0798 41.4015" stroke="#1D2025" stroke-width="0.75" stroke-linecap="round" stroke-linejoin="round"/>
<path d="M60.79 18.8014C60.79 18.8014 58.7985 20.3919 57.3201 21.1668C55.3524 22.1999 53.993 26.2169 59.0907 26.9272" stroke="#1D2025" stroke-width="0.75" stroke-linecap="round" stroke-linejoin="round"/>
<path d="M88.8582 18.798C88.8582 18.798 90.8497 20.3885 92.3281 21.1633C94.2958 22.1965 95.6552 26.2135 90.5575 26.9238" stroke="#1D2025" stroke-width="0.75" stroke-linecap="round" stroke-linejoin="round"/>
<path d="M61.8775 22.0299C61.8775 22.0299 60.4467 26.9781 59.0873 27.6477C57.7279 28.3172 58.8188 31.0971 60.4807 31.0665C62.1426 31.036 71.3219 29.3367 80.4979 30.0164C89.6739 30.6961 89.334 31.3758 90.6934 30.0164C92.0528 28.657 91.3731 27.9773 91.0333 27.2976C90.6934 26.6179 87.6348 25.5984 86.6152 21.5201" stroke="#1D2025" stroke-width="0.75" stroke-linecap="round" stroke-linejoin="round"/>
<path d="M57.7313 19.8176C57.7313 19.8176 57.0516 17.4386 58.411 15.7394" stroke="#1D2025" stroke-width="0.75" stroke-linecap="round" stroke-linejoin="round"/>
<path d="M92.566 19.8209C92.566 19.8209 93.2457 17.4419 91.8863 15.7427" stroke="#1D2025" stroke-width="0.75" stroke-linecap="round" stroke-linejoin="round"/>
<g clip-path="url(#clip1_136_1115)">
<path d="M72.6028 15.865C72.6028 15.865 73.9097 13.1351 75.1055 13.1351C76.3014 13.1351 77.3999 15.8685 77.3999 15.8685" stroke="#1D2025" stroke-width="0.75" stroke-linecap="round" stroke-linejoin="round"/>
</g>
<path d="M57.6939 10.2337C57.6939 10.2337 64.5283 9.48264 73.3644 10.2337C73.3644 10.2337 74.0441 19.1412 65.5479 19.481C56.0151 19.8617 57.6939 10.2337 57.6939 10.2337Z" stroke="#1D2025" stroke-width="0.75" stroke-linecap="round" stroke-linejoin="round"/>
<path d="M65.0041 18.1319C62.8767 18.1319 61.2929 17.5372 60.304 16.3647C59.0499 14.8795 58.9038 12.7419 58.9446 11.4878C60.2088 11.3927 62.479 11.2601 65.3746 11.2601C67.5972 11.2601 69.8164 11.3383 71.9847 11.4912C71.8861 12.7317 71.5123 14.7164 70.2106 16.1744C69.1265 17.3842 67.5394 18.0402 65.4969 18.1217C65.3304 18.1285 65.1672 18.1319 65.0075 18.1319H65.0041Z" fill="#1D2025" stroke="#1D2025" stroke-width="0.75" stroke-linecap="round" stroke-linejoin="round"/>
<path d="M59.7704 11.6646C59.7704 11.6646 59.0907 16.4225 64.2938 18.1319" stroke="#1D2025" stroke-width="0.75" stroke-linecap="round" stroke-linejoin="round"/>
<path d="M92.2941 10.2337C92.2941 10.2337 85.4597 9.48264 76.6236 10.2337C76.6236 10.2337 75.4035 19.481 84.4401 19.481C93.9798 19.481 92.2941 10.2337 92.2941 10.2337Z" stroke="#1D2025" stroke-width="0.75" stroke-linecap="round" stroke-linejoin="round"/>
<path d="M84.984 18.1319C87.1114 18.1319 88.6951 17.5372 89.6841 16.3647C90.9381 14.8795 91.0843 12.7419 91.0435 11.4878C89.7793 11.3927 87.509 11.2601 84.6135 11.2601C82.3909 11.2601 80.1717 11.3383 78.0034 11.4912C78.102 12.7317 78.4758 14.7164 79.7774 16.1744C80.8616 17.3842 82.4487 18.0402 84.4912 18.1217C84.6577 18.1285 84.8208 18.1319 84.9806 18.1319H84.984Z" fill="#1D2025" stroke="#1D2025" stroke-width="0.75" stroke-linecap="round" stroke-linejoin="round"/>
<path d="M90.2176 11.6646C90.2176 11.6646 90.8973 16.4225 85.6942 18.1319" stroke="#1D2025" stroke-width="0.75" stroke-linecap="round" stroke-linejoin="round"/>
<path d="M58.8256 10.1318C58.8256 10.1318 59.0873 8.60251 60.1069 6.90326C61.1264 5.20401 62.4858 5.54386 62.4858 5.54386" stroke="#1D2025" stroke-width="0.75" stroke-linecap="round" stroke-linejoin="round"/>
<path d="M89.6773 10.1351C89.6773 10.1351 89.4156 8.60581 88.396 6.90655C87.3765 5.2073 86.0171 5.54715 86.0171 5.54715" stroke="#1D2025" stroke-width="0.75" stroke-linecap="round" stroke-linejoin="round"/>
<path d="M61.8095 6.90661C61.8095 6.90661 63.8486 1.12915 74.0441 1.12915C84.2397 1.12915 86.7885 6.90661 86.7885 6.90661" stroke="#1D2025" stroke-width="0.75" stroke-linecap="round" stroke-linejoin="round"/>
<path d="M63.7501 4.31354C63.7501 4.31354 63.7739 2.69246 65.5445 1.80545C67.5836 0.785894 69.2828 1.4656 69.2828 1.4656" stroke="#1D2025" stroke-width="0.75" stroke-linecap="round" stroke-linejoin="round"/>
<path d="M84.5795 4.31354C84.5795 4.31354 84.5557 2.69246 82.7851 1.80545C80.746 0.785894 79.0468 1.4656 79.0468 1.4656" stroke="#1D2025" stroke-width="0.75" stroke-linecap="round" stroke-linejoin="round"/>
<path d="M33.4319 49.2181C33.4319 49.2181 41.9282 57.0346 68.0967 57.0346C68.0967 57.0346 69.2862 51.0872 67.9268 48.3684C66.5674 45.6496 63.1689 42.591 62.1493 35.7939" stroke="#1D2025" stroke-width="0.75" stroke-linecap="round" stroke-linejoin="round"/>
<path d="M65.8163 50.744C65.8163 50.744 61.9862 50.744 50.3429 44.6266C38.6996 38.5093 33.9417 35.7905 33.9417 35.7905C33.9417 35.7905 37.6121 28.3138 49.8807 23.7258" stroke="#1D2025" stroke-width="0.75" stroke-linecap="round" stroke-linejoin="round"/>
<path d="M137.297 69.6091C137.297 69.6091 138.317 67.57 141.375 68.5896" stroke="#1D2025" stroke-width="0.75" stroke-linecap="round" stroke-linejoin="round"/>
<path d="M140.526 71.1383C140.526 71.1383 141.545 70.1188 141.885 68.7594C142.225 67.4 141.545 66.2411 141.885 64.9497C142.225 63.6582 145.284 62.3022 146.643 62.9819C148.002 63.6616 152.081 72.4977 143.924 75.5564C135.768 78.6151 134.069 74.5369 133.049 71.4782C132.029 68.4195 132.369 65.7007 134.408 64.0015C136.448 62.3022 137.807 64.0015 140.186 62.3022C142.565 60.603 143.584 62.6421 143.584 62.9819" stroke="#1D2025" stroke-width="0.75" stroke-linecap="round" stroke-linejoin="round"/>
<path d="M133.837 64.0016C133.837 64.0016 122.514 63.6617 115.377 66.7204C109.062 69.4256 107.802 78.2549 107.598 80.2499C107.574 80.4877 107.72 80.7053 107.951 80.7732C110.153 81.3985 121.501 83.9916 136.111 75.9915" stroke="#1D2025" stroke-width="0.75" stroke-linecap="round" stroke-linejoin="round"/>
<path d="M126.908 64.2428C126.908 64.2428 124.791 73.6363 128.07 79.5225" stroke="#1D2025" stroke-width="0.75" stroke-linecap="round" stroke-linejoin="round"/>
<path d="M123.591 64.6167C123.591 64.6167 120.012 71.7468 122.622 80.9567" stroke="#1D2025" stroke-width="0.75" stroke-linecap="round" stroke-linejoin="round"/>
<path d="M119.207 65.4595C119.207 65.4595 114.898 69.7688 115.819 81.667" stroke="#1D2025" stroke-width="0.75" stroke-linecap="round" stroke-linejoin="round"/>
<path d="M116.5 50C116.5 50 119.625 56.032 120.729 65.1128" stroke="#1D2025" stroke-linecap="round" stroke-linejoin="round"/>
<path d="M101.854 68.3007C101.854 68.3007 104.57 74.6933 107.594 79.8828" stroke="#1D2025" stroke-width="0.75" stroke-linecap="round" stroke-linejoin="round"/>
<path d="M104.162 56.5214C104.162 56.5214 102.802 69.7755 97.7045 77.2523C97.7045 77.2523 92.8277 81.6703 73.5173 81.6703" stroke="#1D2025" stroke-linecap="round" stroke-linejoin="round"/>
<path d="M111.299 38.5127C111.299 38.5127 115.102 42.2918 117.446 48.8985C117.446 48.8985 117.705 49.721 116.709 50.7439" stroke="#1D2025" stroke-width="0.75" stroke-linecap="round" stroke-linejoin="round"/>
<path d="M116.566 49.2181C116.566 49.2181 108.07 57.0346 81.9015 57.0346C81.9015 57.0346 80.712 51.0872 82.0714 48.3684C83.4308 45.6496 86.8293 42.591 87.8489 35.7939" stroke="#1D2025" stroke-width="0.75" stroke-linecap="round" stroke-linejoin="round"/>
<path d="M84.1785 50.744C84.1785 50.744 88.0086 50.744 99.6519 44.6266C111.295 38.5093 116.053 35.7905 116.053 35.7905C116.053 35.7905 112.383 28.3138 100.114 23.7258" stroke="#1D2025" stroke-width="0.75" stroke-linecap="round" stroke-linejoin="round"/>
<path d="M66.6286 46.2648C66.6286 46.2648 69.6261 46.6692 72.3449 46.6692L74.8836 49.388" stroke="#1D2025" stroke-width="0.75" stroke-linecap="round" stroke-linejoin="round"/>
<path d="M76.2531 78.649C75.9405 79.621 75.5429 80.6202 75.0433 81.6601" stroke="#1D2025" stroke-width="0.75" stroke-linecap="round" stroke-linejoin="round"/>
<path d="M83.6891 45.7924C83.6891 45.7924 80.3211 46.4958 77.6941 46.4109L75.0467 49.7448C75.0467 49.7448 74.282 52.4059 74.7272 55.8417C75.1044 58.7679 75.638 61.3507 76.1138 63.7535" stroke="#1D2025" stroke-width="0.75" stroke-linecap="round" stroke-linejoin="round"/>
<path d="M89.3374 71.4783C89.3374 75.6075 83.3288 78.955 75.9133 78.955C68.4978 78.955 62.4892 75.6075 62.4892 71.4783C62.4892 67.3491 68.4978 64.0016 75.9133 64.0016C83.3288 64.0016 89.3374 67.3491 89.3374 71.4783ZM87.6382 71.4783C87.6382 68.7459 82.8225 65.7008 75.9133 65.7008C69.0041 65.7008 64.1885 68.7459 64.1885 71.4783C64.1885 74.2107 69.0041 77.2558 75.9133 77.2558C82.8225 77.2558 87.6382 74.2107 87.6382 71.4783Z" fill="white" stroke="white" stroke-width="0.75" stroke-linecap="round" stroke-linejoin="round"/>
<path d="M74.0849 77.1809C75.4851 72.0118 69.9659 66.7169 69.9659 66.7169C69.9659 66.7169 71.254 65.9998 72.1376 66.0202C72.1376 66.0202 77.48 70.3125 76.1002 77.1809H74.0815H74.0849Z" fill="white"/>
<path d="M86.9686 73.2863C86.9686 73.2863 75.0637 69.7756 67.2743 75.288L67.5054 75.9643H68.6949C68.6949 75.9643 76.056 71.9982 85.5855 74.6253L86.955 74.5335L86.9652 73.2863H86.9686Z" fill="white"/>
<path d="M80.1614 66.3805C77.1028 72.158 65.5173 73.7383 65.5173 73.7383C64.4671 72.9396 64.4977 71.9506 64.4977 71.9506C64.4977 71.9506 75.2438 71.101 77.8708 66.0202L80.1614 65.6974V66.3771V66.3805Z" fill="white"/>
<path d="M81.5888 66.7203C82 71.1384 83.2677 72.5352 83.2677 72.5352L85.0009 72.8309C83.0467 69.7654 83.4036 67.1078 83.4036 67.1078L81.5854 66.3805V66.7203H81.5888Z" fill="white"/>
<path d="M62.9684 31.0632C62.9684 31.0632 64.8681 33.7514 67.9268 33.7514C70.9855 33.7514 76.4231 33.0717 81.181 33.7514C85.9389 34.4311 87.978 31.0326 87.978 31.0326" stroke="#1D2025" stroke-width="0.75" stroke-linecap="round" stroke-linejoin="round"/>
<path d="M52.0761 76.9294C52.0761 76.9294 49.8773 77.9728 49.8773 82.8802C49.8773 87.7877 52.0761 88.6373 52.0761 88.6373C52.0761 88.6373 56.0286 93.5651 75.9099 93.5651" stroke="#1D2025" stroke-linecap="round" stroke-linejoin="round"/>
<path d="M83.2201 93.1505C80.6134 93.4088 77.5684 93.5685 74.0101 93.5685" stroke="#1D2025" stroke-width="0.75" stroke-linecap="round" stroke-linejoin="round"/>
<path d="M97.8439 76.9294C97.8439 76.9294 100.043 77.9728 100.043 82.8802C100.043 87.7877 97.8439 88.6373 97.8439 88.6373C97.8439 88.6373 97.1098 89.5515 94.6833 90.5948" stroke="#1D2025" stroke-linecap="round" stroke-linejoin="round"/>
<path d="M89.3374 99.6858C92.7159 99.6858 95.4547 96.947 95.4547 93.5685C95.4547 90.19 92.7159 87.4512 89.3374 87.4512C85.9589 87.4512 83.2201 90.19 83.2201 93.5685C83.2201 96.947 85.9589 99.6858 89.3374 99.6858Z" stroke="#1D2025" stroke-width="0.75" stroke-linecap="round" stroke-linejoin="round"/>
<path d="M89.3374 97.3069C91.4021 97.3069 93.0758 95.6332 93.0758 93.5686C93.0758 91.5039 91.4021 89.8302 89.3374 89.8302C87.2728 89.8302 85.5991 91.5039 85.5991 93.5686C85.5991 95.6332 87.2728 97.3069 89.3374 97.3069Z" stroke="#1D2025" stroke-width="0.75" stroke-linecap="round" stroke-linejoin="round"/>
<path d="M49.9147 85.752C49.9147 85.752 25.4455 93.5685 25.7853 107.502C26.0164 117.005 33.4319 118.629 33.4319 118.629C33.4319 118.629 32.9222 110.561 36.3207 107.842C39.7192 105.123 67.5869 104.104 75.9133 93.5685" stroke="#1D2025" stroke-linecap="round" stroke-linejoin="round"/>
<path d="M100.039 85.752C100.039 85.752 124.509 93.5685 124.169 107.502C123.938 117.005 116.522 118.629 116.522 118.629C116.522 118.629 117.032 110.561 113.633 107.842C110.235 105.123 84.4232 104.182 75.0569 94.7138" stroke="#1D2025" stroke-linecap="round" stroke-linejoin="round"/>
<path d="M23.0665 79.9745C23.0665 79.9745 18.4276 91.1488 12.7011 96.3179C3.69502 104.444 7.60331 115.489 7.60331 115.489C7.60331 115.489 6.58375 121.266 19.4981 121.266C19.4981 121.266 16.3205 110.592 20.7997 102.673C25.2789 94.7546 30.5908 90.3365 32.5212 81.6703" stroke="#1D2025" stroke-width="0.75" stroke-linecap="round" stroke-linejoin="round"/>
<path d="M19.4165 120.971C19.4165 120.971 25.7853 121.776 32.0658 118.133" stroke="#1D2025" stroke-width="0.75" stroke-linecap="round" stroke-linejoin="round"/>
<path d="M127.343 79.9711C127.343 79.9711 131.982 91.1454 137.708 96.3145C146.714 104.44 142.806 115.485 142.806 115.485C142.806 115.485 143.826 121.263 130.911 121.263C130.911 121.263 134.089 110.588 129.61 102.67C125.131 94.7512 119.819 90.3331 117.888 81.6669" stroke="#1D2025" stroke-width="0.75" stroke-linecap="round" stroke-linejoin="round"/>
<path d="M130.993 120.971C130.993 120.971 124.624 121.776 118.344 118.133" stroke="#1D2025" stroke-width="0.75" stroke-linecap="round" stroke-linejoin="round"/>
<path d="M33.4319 118.626C33.4319 118.626 33.8772 116.916 42.404 116.288" stroke="#1D2025" stroke-width="0.75" stroke-linecap="round" stroke-linejoin="round"/>
<path d="M34.3088 112.689C34.3088 112.689 35.3011 115.659 39.3793 114.979C39.3793 114.979 38.0199 113.28 42.0982 109.881C46.1764 106.483 59.4305 106.483 59.4305 106.483" stroke="#1D2025" stroke-width="0.75" stroke-linecap="round" stroke-linejoin="round"/>
<path d="M116.356 112.689C116.356 112.689 115.846 115.999 111.768 115.319C111.768 115.319 112.644 113.28 108.566 109.881C104.488 106.483 91.2338 106.483 91.2338 106.483C91.2338 106.483 76.0832 100.026 59.7704 106.483" stroke="#1D2025" stroke-width="0.75" stroke-linecap="round" stroke-linejoin="round"/>
<path d="M59.4305 106.483C59.4305 106.483 69.6261 111.241 71.6652 111.241C73.7043 111.241 71.3253 110.561 75.7434 110.561V135.2C75.7434 135.2 72.005 137.409 67.9268 132.991C63.8486 128.573 67.9676 123.475 68.7968 121.266C69.6261 119.057 69.8878 117.599 69.7552 116.288" stroke="#1D2025" stroke-width="0.75" stroke-linecap="round" stroke-linejoin="round"/>
<path d="M67.7943 116.288C67.7943 116.288 67.9234 119.397 67.2437 120.757C66.564 122.116 68.2633 122.456 68.2633 122.456" stroke="#1D2025" stroke-width="0.75" stroke-linecap="round" stroke-linejoin="round"/>
<path d="M39.3793 114.979C39.3793 114.979 42.438 117.358 54.3328 117.698C66.2275 118.038 67.6753 118.629 67.6753 118.629" stroke="#1D2025" stroke-width="0.75" stroke-linecap="round" stroke-linejoin="round"/>
<path d="M92.0562 106.479C92.0562 106.479 81.8607 111.237 79.8216 111.237C77.7825 111.237 80.1615 110.558 75.7434 110.558V135.197C75.7434 135.197 79.4818 137.406 83.56 132.988C87.6382 128.57 83.5192 123.472 82.69 121.263C81.8607 119.054 81.599 117.596 81.7316 116.284" stroke="#1D2025" stroke-width="0.75" stroke-linecap="round" stroke-linejoin="round"/>
<path d="M83.6891 116.288C83.6891 116.288 83.5599 119.397 84.2396 120.757C84.9193 122.116 83.2201 122.456 83.2201 122.456" stroke="#1D2025" stroke-width="0.75" stroke-linecap="round" stroke-linejoin="round"/>
<path d="M112.107 114.979C112.107 114.979 109.049 117.358 97.1539 117.698C85.2592 118.038 83.8114 118.629 83.8114 118.629" stroke="#1D2025" stroke-width="0.75" stroke-linecap="round" stroke-linejoin="round"/>
<path d="M48.1441 76.9294C48.1441 76.9294 46.2783 84.6509 42.404 88.8548" stroke="#1D2025" stroke-width="0.75" stroke-linecap="round" stroke-linejoin="round"/>
<path d="M104.291 79.2948C104.291 79.2948 105.12 85.8403 107.594 88.8548" stroke="#1D2025" stroke-width="0.75" stroke-linecap="round" stroke-linejoin="round"/>
<path d="M64.1885 57.0312C64.1885 57.0312 65.8877 62.9786 72.1376 64.2973" stroke="white" stroke-width="0.75" stroke-linecap="round" stroke-linejoin="round"/>
<path d="M87.7707 57.0312C87.7707 57.0312 86.0714 62.9786 79.8216 64.2973" stroke="white" stroke-width="0.75" stroke-linecap="round" stroke-linejoin="round"/>
<path d="M65.8163 52.1339L57.8978 51.2537C57.8978 51.2537 56.7389 55.8926 65.8163 56.2903V52.1305V52.1339Z" stroke="#1D2025" stroke-width="0.75" stroke-linecap="round" stroke-linejoin="round"/>
<path d="M83.5599 52.1339L91.4785 51.2537C91.4785 51.2537 92.6373 55.8926 83.5599 56.2903V52.1305V52.1339Z" stroke="#1D2025" stroke-width="0.75" stroke-linecap="round" stroke-linejoin="round"/>
<path d="M73.3644 10.2338H76.5692" stroke="#1D2025" stroke-width="0.75" stroke-linecap="round" stroke-linejoin="round"/>
<path d="M73.3644 11.5931H76.5692" stroke="#1D2025" stroke-width="0.75" stroke-linecap="round" stroke-linejoin="round"/>
<path d="M30.7913 82.4418C30.7913 82.4418 25.8465 81.9457 23.6069 80.9601C23.6069 80.9601 20.5176 90.34 12.7011 97.4768C6.97799 102.704 7.43339 109.813 8.28302 114.809C8.28302 114.809 7.43339 119.397 18.3086 120.417C18.3086 120.417 15.9297 113.28 18.6485 105.123C21.3673 96.9671 29.3402 91.3697 30.7913 82.4418Z" fill="#1D2025"/>
<path d="M119.588 82.4418C119.588 82.4418 124.532 81.9457 126.772 80.9601C126.772 80.9601 129.861 90.34 137.678 97.4768C143.401 102.704 142.945 109.813 142.096 114.809C142.096 114.809 142.945 119.397 132.07 120.417C132.07 120.417 134.449 113.28 131.73 105.123C129.012 96.9671 121.039 91.3697 119.588 82.4418Z" fill="#1D2025"/>
<path d="M39.0871 39.5968C39.0871 39.5968 34.9851 43.5968 33.7684 48.5349C33.7684 48.5349 41.6054 54.4313 60.1171 56.0728C60.1171 56.0728 56.3583 54.3055 56.9599 50.7405C56.9599 50.7405 55.801 49.9351 62.9684 50.9342C62.9684 50.9342 56.9599 48.8271 50.8052 45.7923C44.6505 42.7574 39.0905 39.5968 39.0905 39.5968H39.0871Z" fill="#1D2025"/>
<path d="M110.666 39.5968C110.666 39.5968 114.768 43.5968 115.985 48.5349C115.985 48.5349 108.148 54.4313 89.6365 56.0728C89.6365 56.0728 93.3953 54.3055 92.7937 50.7405C92.7937 50.7405 93.9526 49.9351 86.7852 50.9342C86.7852 50.9342 92.7937 48.8271 98.9484 45.7923C105.107 42.7574 110.663 39.5968 110.663 39.5968H110.666Z" fill="#1D2025"/>
<path d="M46.1458 26.9578C46.1458 26.9578 39.9231 29.9043 36.3207 35.4744C36.3207 35.4744 56.6268 47.9198 66.1256 49.5578C66.1256 49.5578 66.8767 48.4533 64.5351 45.8942C62.1935 43.3352 61.2691 39.0768 60.586 35.8007C60.586 35.8007 56.3005 35.8007 53.0243 32.8542C53.0243 32.8542 51.3863 32.8542 48.766 30.8898C46.1458 28.9255 46.1458 26.9578 46.1458 26.9578Z" fill="#1D2025"/>
<path d="M103.652 26.9578C103.652 26.9578 109.875 29.9043 113.477 35.4744C113.477 35.4744 93.1709 47.9198 83.6721 49.5578C83.6721 49.5578 82.921 48.4533 85.2626 45.8942C87.6042 43.3352 88.5286 39.0768 89.2116 35.8007C89.2116 35.8007 93.4972 35.8007 96.7733 32.8542C96.7733 32.8542 98.4114 32.8542 101.032 30.8898C103.652 28.9255 103.652 26.9578 103.652 26.9578Z" fill="#1D2025"/>
</g>
<defs>
<clipPath id="clip0_136_1115">
<rect width="150" height="137" fill="white"/>
</clipPath>
<clipPath id="clip1_136_1115">
<rect width="6" height="5" fill="white" transform="translate(72 12)"/>
</clipPath>
</defs>
</svg>
