<svg width="275" height="383" viewBox="0 0 275 383" fill="none" xmlns="http://www.w3.org/2000/svg">
<mask id="path-1-outside-1_78_715" maskUnits="userSpaceOnUse" x="0" y="0" width="275" height="383" fill="black">
<rect fill="white" width="275" height="383"/>
<path d="M46.2987 198.227C45.4547 197.925 43.3932 195.765 42.9471 196.658C42.501 197.551 40.2707 201.583 38.7034 200.907C37.1361 200.231 35.3518 194.872 35.3518 193.979C35.3518 193.085 32.8924 193.979 32.8924 193.979V190.177C32.8924 190.177 40.2707 186.145 39.5955 185.035C38.9204 183.912 38.0282 166.471 36.69 165.795C35.3518 165.119 32.8924 164.009 32.8924 162.886C32.8924 161.764 31.7712 158.855 32.8924 159.084C34.0136 159.314 36.244 161.317 36.69 160.653C37.1361 159.978 36.7744 157.479 37.8112 157.974C39.258 158.662 40.7167 158.771 41.1749 158.433C41.6209 158.095 34.0618 148.028 33.9533 147.123C33.8448 146.218 34.0618 143.056 34.8575 143.502C35.6532 143.949 36.895 145.88 37.3411 145.192C37.7871 144.516 39.5714 141.462 39.3544 140.786C39.1495 140.11 37.4496 135.922 36.7744 136.152C36.0993 136.381 33.4952 136.357 33.0491 136.152C32.6031 135.934 31.5783 134.015 31.5783 133.448C31.5783 132.881 32.1449 129.827 31.5783 129.151C31.0117 128.475 27.1779 120.678 26.8403 119.99C26.5027 119.314 27.9736 117.274 28.7572 117.045C29.5408 116.815 30.1075 113.086 31.0117 113.315C31.9159 113.545 32.591 113.315 32.591 113.883C32.591 114.45 32.2534 115.922 32.6995 116.031C33.1456 116.14 36.5333 113.303 36.5333 113.303C36.5333 113.303 35.4 108.342 36.5333 108.222C37.6666 108.113 40.5962 106.532 40.4877 105.735C40.3792 104.939 33.7122 95.1138 34.0498 94.2085C34.3873 93.3033 36.8709 91.3842 37.329 91.6135C37.7751 91.8428 48.0588 101.33 48.3964 102.126C48.734 102.923 49.0715 106.194 49.5297 106.315C49.9757 106.423 51.2175 106.315 51.5671 105.868C51.9047 105.421 52.2422 95.6931 51.5671 95.3552C50.892 95.0172 48.9751 93.2067 49.0836 92.7601C49.1921 92.3136 60.38 86.5441 60.7176 85.9768C61.0552 85.4096 61.1637 83.0318 61.8509 82.8145C62.526 82.5852 63.6593 81.8006 63.8883 81.4627C64.1174 81.1247 63.3217 78.6383 63.8883 78.1797C64.455 77.721 69.0845 73.3155 69.6511 73.4362C70.2177 73.5448 74.7267 72.193 75.4138 72.4223C76.089 72.6516 77.7889 73.1586 78.1264 72.3982C78.464 71.6378 79.0306 68.922 78.6931 68.5841C78.3555 68.2461 76.4386 67.2322 76.5471 66.665C76.6556 66.0977 77.5598 59.8817 76.9932 59.4351C76.4266 58.9885 74.8472 56.49 74.8472 55.8141C74.8472 55.1382 78.9101 49.8274 79.4767 49.1394C80.0433 48.4635 79.4767 46.1944 79.4767 45.8564C79.4767 45.5184 84.9019 42.5734 88.0606 40.2077C91.2192 37.8299 93.5943 35.4642 94.1609 35.8022C94.7275 36.1401 102.07 37.0454 101.949 37.842C101.841 38.6386 101.382 41.5716 101.949 41.8009C102.516 42.0302 105.108 42.1389 105.445 41.8009C105.783 41.4629 104.999 39.4231 105.445 38.9765C105.891 38.53 107.929 35.2469 107.929 34.6796C107.929 34.1124 107.82 30.0448 107.929 30.0448C108.037 30.0448 113.909 28.8016 114.596 29.3689C115.271 29.9362 116.404 31.288 116.971 31.288C117.537 31.288 128.038 31.626 128.605 31.288C129.171 30.95 135.272 25.8565 135.718 25.7479C136.164 25.6393 143.844 19.6405 144.868 19.5319C145.881 19.4233 149.606 20.0992 150.294 19.5319C150.969 18.9646 155.49 10.2622 156.056 9.6949C156.623 9.12761 157.973 10.8295 158.311 9.6949C158.648 8.56032 158.986 7.88441 159.782 8.11374C160.577 8.34307 162.832 8.11374 163.061 7.20849C163.29 6.30325 164.074 4.38413 164.64 3.81684C165.207 3.24956 167.461 2.9116 167.919 3.02023C168.365 3.12886 168.824 4.26343 169.607 4.1548C170.391 4.04617 171.862 3.02023 172.199 3.81684C172.537 4.61346 175.141 7.31712 175.695 7.43782C176.25 7.55852 178.288 6.99123 178.517 7.66715C178.746 8.34306 180.663 10.4915 180.096 10.9502C179.529 11.3968 176.142 14.0039 175.804 13.7745C175.466 13.5452 174.116 12.8693 173.767 13.2072C173.417 13.5452 171.283 17.9507 170.716 18.2887C170.15 18.6266 163.832 19.3026 162.024 19.8698C160.216 20.4371 157.286 21.5596 157.165 23.1529C157.057 24.734 153.886 34.4624 152.874 34.571C151.861 34.6796 148.136 33.2192 147.798 34.3417C147.46 35.4763 139.672 47.7997 139.672 48.6928C139.672 49.586 140.01 52.3138 139.564 52.8811C139.118 53.4484 138.093 54.4623 137.984 55.3675C137.876 56.2727 137.08 58.1919 136.634 58.6505C136.188 59.0971 136.405 61.1369 136.972 61.3663C137.538 61.5956 138.213 62.9474 137.984 63.4061C137.755 63.8527 128.388 78.4452 128.954 78.6625C129.521 78.8918 131.209 79.109 131.546 78.8918C131.884 78.6625 134.368 76.7433 134.934 76.852C135.501 76.9606 136.285 80.6902 136.972 80.5816C137.647 80.4729 138.78 79.5677 139.226 79.6763C139.672 79.785 141.481 80.473 141.481 81.1489C141.481 81.8248 143.735 93.0136 144.531 94.4861C145.326 95.9587 147.81 97.0812 148.485 97.5398C149.16 97.9864 150.969 102.404 150.523 103.864C150.077 105.337 145.556 105.554 145.893 106.242C146.231 106.918 147.472 107.932 147.581 108.62C147.689 109.296 146.785 116.984 147.472 117.322C148.148 117.66 150.631 117.322 151.198 117.769C151.764 118.216 154.019 118.674 154.356 119.35C154.694 120.026 155.369 124.89 155.936 125.458C156.502 126.025 161.011 128.62 161.699 128.511C162.374 128.403 163.615 126.133 164.411 125.916C165.207 125.699 170.62 128.861 172.199 128.511C173.779 128.173 175.02 126.93 175.816 127.606C176.612 128.282 180.446 130.43 181.796 129.646C183.146 128.849 186.654 124.673 187.438 125.011C188.234 125.349 193.201 126.484 193.647 127.051C194.093 127.618 195.335 129.537 196.239 129.767C197.143 129.996 202.002 129.875 202.556 130.442C203.123 131.01 208.09 138.131 209.669 140.509C211.249 142.887 215.094 146.387 216.216 146.278C217.337 146.17 219.157 145.035 219.495 146.049C219.832 147.063 220.399 148.994 221.303 148.644C222.207 148.306 225.137 145.82 225.704 145.82C226.27 145.82 234.517 145.144 234.963 146.049C235.409 146.954 235.975 147.739 236.771 147.521C237.567 147.292 240.955 145.144 241.63 145.602C242.305 146.049 255.627 143.912 256.531 145.035C257.435 146.17 260.485 146.17 260.714 147.859C260.943 149.549 256.314 155.657 256.651 156.9C256.989 158.143 257.785 161.981 256.651 163.007C255.518 164.033 252.818 165.264 252.697 165.952C252.589 166.628 253.601 173.641 252.926 174.546C252.251 175.451 251.455 175.113 251.684 176.924C251.913 178.734 251.009 185.18 251.684 185.747C252.359 186.314 253.722 188.004 253.722 188.909C253.722 189.814 255.41 196.827 256.663 201.064C257.905 205.3 261.401 208.921 261.631 210.502C261.86 212.083 259.714 214.003 257.797 216.042C255.88 218.082 252.155 220.001 252.83 220.907C253.505 221.812 256.555 221.474 257.351 222.041C258.146 222.608 266.501 229.959 267.405 231.311C268.31 232.663 268.08 235.946 268.985 237.298C269.889 238.649 271.697 244.527 271.926 247.581C272.155 250.635 271.818 259.337 271.36 260.351C270.914 261.365 267.176 261.703 267.634 260.351C268.08 258.999 267.068 249.042 267.068 247.014C267.068 244.986 263.451 242.946 263.572 241.582C263.68 240.23 263.801 238.191 262.559 237.515C261.317 236.839 259.4 235.596 258.725 236.61C258.05 237.623 256.012 240.568 255.108 241.582C254.204 242.596 251.829 244.745 250.479 245.541C249.128 246.338 249.237 245.879 247.887 244.865C246.536 243.851 244.27 241.027 243.366 241.474C242.462 241.92 243.932 245.662 243.366 246.784C242.799 247.907 242.015 247.798 238.507 247.46C235.011 247.122 222.81 248.366 221.339 248.474C219.869 248.583 216.939 246.217 215.468 245.759C213.997 245.312 212.647 245.65 212.08 247.448C211.514 249.259 208.355 249.488 207.342 249.705C206.33 249.923 206.667 261.691 208.138 261.799C209.609 261.908 218.072 260.218 218.976 260.786C219.881 261.353 222.81 264.286 223.16 265.65C223.51 267.014 221.81 270.731 220.785 271.528C219.772 272.324 214.914 269.717 213.901 269.488C212.888 269.259 208.596 272.542 207.801 272.65C207.005 272.759 202.375 272.312 201.254 271.745C200.133 271.178 200.35 288.752 201.363 290.14C202.375 291.528 206.788 295.149 208.03 295.933C209.271 296.73 212.888 296.163 213.226 297.623C213.563 299.096 211.309 301.461 211.755 302.366C212.201 303.272 216.83 311.745 216.83 312.988C216.83 314.231 213.334 337.406 212.768 341.026C212.201 344.647 206.221 378.902 205.317 379.916C204.413 380.93 197.746 372.457 196.058 372.227C194.37 371.998 187.366 373.241 187.474 372.227C187.583 371.213 192.212 360.809 193.575 358.093C194.925 355.378 199.675 348.027 199.217 347.472C198.771 346.905 184.653 336.392 183.978 336.512C183.303 336.621 182.507 337.985 180.819 337.418C179.131 336.85 178.107 339.457 177.202 339.904C176.298 340.351 169.86 339.457 169.294 338.552C168.727 337.647 165.002 334.026 163.989 334.714C162.976 335.39 163.193 337.2 162.41 338.214C161.614 339.228 158.226 338.89 157.443 340.025C156.647 341.159 152.476 341.714 151.234 341.606C149.992 341.497 146.158 338.89 145.471 339.457C144.796 340.025 140.396 337.985 139.033 339.011C137.683 340.025 135.308 340.254 134.633 339.687C133.958 339.119 129.437 335.498 130.232 334.485C131.028 333.471 133.174 331.89 132.945 331.202C132.716 330.526 128.991 322.728 128.882 324.189C128.774 325.661 128.207 326.567 127.303 326.784C126.399 327.013 121.661 322.946 122.565 322.596C123.469 322.246 125.506 320.001 125.157 319.433C124.819 318.866 120.527 312.203 119.623 312.203C118.719 312.203 115.331 312.65 114.765 311.636C114.198 310.622 113.414 308.136 112.39 308.245C111.377 308.353 106.964 306.663 106.289 305.867C105.614 305.07 105.494 301.799 105.156 301.123C104.818 300.447 101.997 295.475 100.973 295.583C99.9598 295.692 98.1514 296.718 97.5848 295.813C97.0182 294.907 97.5848 291.624 97.1387 290.948C96.6926 290.272 95.2218 290.2 94.6552 290.128C94.0886 290.043 93.8595 291.745 93.3049 291.854C92.7383 291.962 91.9547 289.138 91.159 288.571C90.3633 288.003 86.3004 285.626 85.9628 286.422C85.6253 287.219 84.492 287.774 83.5878 287.557C82.6836 287.339 77.7165 285.408 76.2457 284.732C74.7749 284.056 71.3871 284.056 70.9411 282.922C70.495 281.787 67.1073 276.477 66.2031 276.247C65.2989 276.018 60.7779 276.585 60.6694 277.49C60.5609 278.396 61.1155 280.991 60.5609 281.111C59.9943 281.22 55.7023 281.22 55.0272 280.882C54.3521 280.544 52.0855 277.72 51.3019 278.058C50.5062 278.396 50.9643 279.409 50.6268 280.315C50.2892 281.22 47.8056 280.206 45.3221 279.639C42.8386 279.072 35.9546 276.247 36.1716 275.571C36.4007 274.895 37.3049 272.518 36.5092 271.95C35.7135 271.383 33.459 271.274 33.1215 270.478C32.7839 269.681 33.013 266.519 32.2173 266.289C31.4216 266.06 28.8295 266.06 28.2629 266.857C27.6963 267.653 25.4418 269.452 24.8752 269.343C24.3085 269.235 23.0668 266.627 21.825 266.748C20.5832 266.857 19.1124 266.072 17.9912 265.167C16.8579 264.262 3.99421 252.276 3.19852 251.262C2.40282 250.249 4.21122 244.479 4.88636 244.708C5.56149 244.938 7.03232 243.574 7.59895 244.262C8.16558 244.938 10.0825 246.519 10.5406 245.614C10.9867 244.708 9.19034 243.803 9.40735 242.898C9.63641 241.993 9.74492 240.074 9.17829 239.277C8.61166 238.48 6.46569 236.899 6.69475 236.332C6.92382 235.765 11.2157 229.549 12.2284 229.211C13.2412 228.873 16.9664 226.833 17.8706 227.062C18.7748 227.292 18.3167 228.752 19.3415 228.752C20.3662 228.752 21.1499 226.942 21.825 227.617C22.5001 228.293 22.9583 230.104 23.8625 229.995C24.7667 229.887 28.8295 225.252 28.1544 224.914C27.4793 224.576 26.8041 223.562 28.492 221.631C30.1798 219.7 30.6379 219.144 29.7337 218.13C28.8295 217.117 29.1671 216.211 30.9755 214.509C32.7839 212.808 38.3176 208.185 41.7053 204.793C45.0931 201.402 46.9497 198.456 46.383 198.251L46.2987 198.227Z"/>
</mask>
<path d="M46.2987 198.227C45.4547 197.925 43.3932 195.765 42.9471 196.658C42.501 197.551 40.2707 201.583 38.7034 200.907C37.1361 200.231 35.3518 194.872 35.3518 193.979C35.3518 193.085 32.8924 193.979 32.8924 193.979V190.177C32.8924 190.177 40.2707 186.145 39.5955 185.035C38.9204 183.912 38.0282 166.471 36.69 165.795C35.3518 165.119 32.8924 164.009 32.8924 162.886C32.8924 161.764 31.7712 158.855 32.8924 159.084C34.0136 159.314 36.244 161.317 36.69 160.653C37.1361 159.978 36.7744 157.479 37.8112 157.974C39.258 158.662 40.7167 158.771 41.1749 158.433C41.6209 158.095 34.0618 148.028 33.9533 147.123C33.8448 146.218 34.0618 143.056 34.8575 143.502C35.6532 143.949 36.895 145.88 37.3411 145.192C37.7871 144.516 39.5714 141.462 39.3544 140.786C39.1495 140.11 37.4496 135.922 36.7744 136.152C36.0993 136.381 33.4952 136.357 33.0491 136.152C32.6031 135.934 31.5783 134.015 31.5783 133.448C31.5783 132.881 32.1449 129.827 31.5783 129.151C31.0117 128.475 27.1779 120.678 26.8403 119.99C26.5027 119.314 27.9736 117.274 28.7572 117.045C29.5408 116.815 30.1075 113.086 31.0117 113.315C31.9159 113.545 32.591 113.315 32.591 113.883C32.591 114.45 32.2534 115.922 32.6995 116.031C33.1456 116.14 36.5333 113.303 36.5333 113.303C36.5333 113.303 35.4 108.342 36.5333 108.222C37.6666 108.113 40.5962 106.532 40.4877 105.735C40.3792 104.939 33.7122 95.1138 34.0498 94.2085C34.3873 93.3033 36.8709 91.3842 37.329 91.6135C37.7751 91.8428 48.0588 101.33 48.3964 102.126C48.734 102.923 49.0715 106.194 49.5297 106.315C49.9757 106.423 51.2175 106.315 51.5671 105.868C51.9047 105.421 52.2422 95.6931 51.5671 95.3552C50.892 95.0172 48.9751 93.2067 49.0836 92.7601C49.1921 92.3136 60.38 86.5441 60.7176 85.9768C61.0552 85.4096 61.1637 83.0318 61.8509 82.8145C62.526 82.5852 63.6593 81.8006 63.8883 81.4627C64.1174 81.1247 63.3217 78.6383 63.8883 78.1797C64.455 77.721 69.0845 73.3155 69.6511 73.4362C70.2177 73.5448 74.7267 72.193 75.4138 72.4223C76.089 72.6516 77.7889 73.1586 78.1264 72.3982C78.464 71.6378 79.0306 68.922 78.6931 68.5841C78.3555 68.2461 76.4386 67.2322 76.5471 66.665C76.6556 66.0977 77.5598 59.8817 76.9932 59.4351C76.4266 58.9885 74.8472 56.49 74.8472 55.8141C74.8472 55.1382 78.9101 49.8274 79.4767 49.1394C80.0433 48.4635 79.4767 46.1944 79.4767 45.8564C79.4767 45.5184 84.9019 42.5734 88.0606 40.2077C91.2192 37.8299 93.5943 35.4642 94.1609 35.8022C94.7275 36.1401 102.07 37.0454 101.949 37.842C101.841 38.6386 101.382 41.5716 101.949 41.8009C102.516 42.0302 105.108 42.1389 105.445 41.8009C105.783 41.4629 104.999 39.4231 105.445 38.9765C105.891 38.53 107.929 35.2469 107.929 34.6796C107.929 34.1124 107.82 30.0448 107.929 30.0448C108.037 30.0448 113.909 28.8016 114.596 29.3689C115.271 29.9362 116.404 31.288 116.971 31.288C117.537 31.288 128.038 31.626 128.605 31.288C129.171 30.95 135.272 25.8565 135.718 25.7479C136.164 25.6393 143.844 19.6405 144.868 19.5319C145.881 19.4233 149.606 20.0992 150.294 19.5319C150.969 18.9646 155.49 10.2622 156.056 9.6949C156.623 9.12761 157.973 10.8295 158.311 9.6949C158.648 8.56032 158.986 7.88441 159.782 8.11374C160.577 8.34307 162.832 8.11374 163.061 7.20849C163.29 6.30325 164.074 4.38413 164.64 3.81684C165.207 3.24956 167.461 2.9116 167.919 3.02023C168.365 3.12886 168.824 4.26343 169.607 4.1548C170.391 4.04617 171.862 3.02023 172.199 3.81684C172.537 4.61346 175.141 7.31712 175.695 7.43782C176.25 7.55852 178.288 6.99123 178.517 7.66715C178.746 8.34306 180.663 10.4915 180.096 10.9502C179.529 11.3968 176.142 14.0039 175.804 13.7745C175.466 13.5452 174.116 12.8693 173.767 13.2072C173.417 13.5452 171.283 17.9507 170.716 18.2887C170.15 18.6266 163.832 19.3026 162.024 19.8698C160.216 20.4371 157.286 21.5596 157.165 23.1529C157.057 24.734 153.886 34.4624 152.874 34.571C151.861 34.6796 148.136 33.2192 147.798 34.3417C147.46 35.4763 139.672 47.7997 139.672 48.6928C139.672 49.586 140.01 52.3138 139.564 52.8811C139.118 53.4484 138.093 54.4623 137.984 55.3675C137.876 56.2727 137.08 58.1919 136.634 58.6505C136.188 59.0971 136.405 61.1369 136.972 61.3663C137.538 61.5956 138.213 62.9474 137.984 63.4061C137.755 63.8527 128.388 78.4452 128.954 78.6625C129.521 78.8918 131.209 79.109 131.546 78.8918C131.884 78.6625 134.368 76.7433 134.934 76.852C135.501 76.9606 136.285 80.6902 136.972 80.5816C137.647 80.4729 138.78 79.5677 139.226 79.6763C139.672 79.785 141.481 80.473 141.481 81.1489C141.481 81.8248 143.735 93.0136 144.531 94.4861C145.326 95.9587 147.81 97.0812 148.485 97.5398C149.16 97.9864 150.969 102.404 150.523 103.864C150.077 105.337 145.556 105.554 145.893 106.242C146.231 106.918 147.472 107.932 147.581 108.62C147.689 109.296 146.785 116.984 147.472 117.322C148.148 117.66 150.631 117.322 151.198 117.769C151.764 118.216 154.019 118.674 154.356 119.35C154.694 120.026 155.369 124.89 155.936 125.458C156.502 126.025 161.011 128.62 161.699 128.511C162.374 128.403 163.615 126.133 164.411 125.916C165.207 125.699 170.62 128.861 172.199 128.511C173.779 128.173 175.02 126.93 175.816 127.606C176.612 128.282 180.446 130.43 181.796 129.646C183.146 128.849 186.654 124.673 187.438 125.011C188.234 125.349 193.201 126.484 193.647 127.051C194.093 127.618 195.335 129.537 196.239 129.767C197.143 129.996 202.002 129.875 202.556 130.442C203.123 131.01 208.09 138.131 209.669 140.509C211.249 142.887 215.094 146.387 216.216 146.278C217.337 146.17 219.157 145.035 219.495 146.049C219.832 147.063 220.399 148.994 221.303 148.644C222.207 148.306 225.137 145.82 225.704 145.82C226.27 145.82 234.517 145.144 234.963 146.049C235.409 146.954 235.975 147.739 236.771 147.521C237.567 147.292 240.955 145.144 241.63 145.602C242.305 146.049 255.627 143.912 256.531 145.035C257.435 146.17 260.485 146.17 260.714 147.859C260.943 149.549 256.314 155.657 256.651 156.9C256.989 158.143 257.785 161.981 256.651 163.007C255.518 164.033 252.818 165.264 252.697 165.952C252.589 166.628 253.601 173.641 252.926 174.546C252.251 175.451 251.455 175.113 251.684 176.924C251.913 178.734 251.009 185.18 251.684 185.747C252.359 186.314 253.722 188.004 253.722 188.909C253.722 189.814 255.41 196.827 256.663 201.064C257.905 205.3 261.401 208.921 261.631 210.502C261.86 212.083 259.714 214.003 257.797 216.042C255.88 218.082 252.155 220.001 252.83 220.907C253.505 221.812 256.555 221.474 257.351 222.041C258.146 222.608 266.501 229.959 267.405 231.311C268.31 232.663 268.08 235.946 268.985 237.298C269.889 238.649 271.697 244.527 271.926 247.581C272.155 250.635 271.818 259.337 271.36 260.351C270.914 261.365 267.176 261.703 267.634 260.351C268.08 258.999 267.068 249.042 267.068 247.014C267.068 244.986 263.451 242.946 263.572 241.582C263.68 240.23 263.801 238.191 262.559 237.515C261.317 236.839 259.4 235.596 258.725 236.61C258.05 237.623 256.012 240.568 255.108 241.582C254.204 242.596 251.829 244.745 250.479 245.541C249.128 246.338 249.237 245.879 247.887 244.865C246.536 243.851 244.27 241.027 243.366 241.474C242.462 241.92 243.932 245.662 243.366 246.784C242.799 247.907 242.015 247.798 238.507 247.46C235.011 247.122 222.81 248.366 221.339 248.474C219.869 248.583 216.939 246.217 215.468 245.759C213.997 245.312 212.647 245.65 212.08 247.448C211.514 249.259 208.355 249.488 207.342 249.705C206.33 249.923 206.667 261.691 208.138 261.799C209.609 261.908 218.072 260.218 218.976 260.786C219.881 261.353 222.81 264.286 223.16 265.65C223.51 267.014 221.81 270.731 220.785 271.528C219.772 272.324 214.914 269.717 213.901 269.488C212.888 269.259 208.596 272.542 207.801 272.65C207.005 272.759 202.375 272.312 201.254 271.745C200.133 271.178 200.35 288.752 201.363 290.14C202.375 291.528 206.788 295.149 208.03 295.933C209.271 296.73 212.888 296.163 213.226 297.623C213.563 299.096 211.309 301.461 211.755 302.366C212.201 303.272 216.83 311.745 216.83 312.988C216.83 314.231 213.334 337.406 212.768 341.026C212.201 344.647 206.221 378.902 205.317 379.916C204.413 380.93 197.746 372.457 196.058 372.227C194.37 371.998 187.366 373.241 187.474 372.227C187.583 371.213 192.212 360.809 193.575 358.093C194.925 355.378 199.675 348.027 199.217 347.472C198.771 346.905 184.653 336.392 183.978 336.512C183.303 336.621 182.507 337.985 180.819 337.418C179.131 336.85 178.107 339.457 177.202 339.904C176.298 340.351 169.86 339.457 169.294 338.552C168.727 337.647 165.002 334.026 163.989 334.714C162.976 335.39 163.193 337.2 162.41 338.214C161.614 339.228 158.226 338.89 157.443 340.025C156.647 341.159 152.476 341.714 151.234 341.606C149.992 341.497 146.158 338.89 145.471 339.457C144.796 340.025 140.396 337.985 139.033 339.011C137.683 340.025 135.308 340.254 134.633 339.687C133.958 339.119 129.437 335.498 130.232 334.485C131.028 333.471 133.174 331.89 132.945 331.202C132.716 330.526 128.991 322.728 128.882 324.189C128.774 325.661 128.207 326.567 127.303 326.784C126.399 327.013 121.661 322.946 122.565 322.596C123.469 322.246 125.506 320.001 125.157 319.433C124.819 318.866 120.527 312.203 119.623 312.203C118.719 312.203 115.331 312.65 114.765 311.636C114.198 310.622 113.414 308.136 112.39 308.245C111.377 308.353 106.964 306.663 106.289 305.867C105.614 305.07 105.494 301.799 105.156 301.123C104.818 300.447 101.997 295.475 100.973 295.583C99.9598 295.692 98.1514 296.718 97.5848 295.813C97.0182 294.907 97.5848 291.624 97.1387 290.948C96.6926 290.272 95.2218 290.2 94.6552 290.128C94.0886 290.043 93.8595 291.745 93.3049 291.854C92.7383 291.962 91.9547 289.138 91.159 288.571C90.3633 288.003 86.3004 285.626 85.9628 286.422C85.6253 287.219 84.492 287.774 83.5878 287.557C82.6836 287.339 77.7165 285.408 76.2457 284.732C74.7749 284.056 71.3871 284.056 70.9411 282.922C70.495 281.787 67.1073 276.477 66.2031 276.247C65.2989 276.018 60.7779 276.585 60.6694 277.49C60.5609 278.396 61.1155 280.991 60.5609 281.111C59.9943 281.22 55.7023 281.22 55.0272 280.882C54.3521 280.544 52.0855 277.72 51.3019 278.058C50.5062 278.396 50.9643 279.409 50.6268 280.315C50.2892 281.22 47.8056 280.206 45.3221 279.639C42.8386 279.072 35.9546 276.247 36.1716 275.571C36.4007 274.895 37.3049 272.518 36.5092 271.95C35.7135 271.383 33.459 271.274 33.1215 270.478C32.7839 269.681 33.013 266.519 32.2173 266.289C31.4216 266.06 28.8295 266.06 28.2629 266.857C27.6963 267.653 25.4418 269.452 24.8752 269.343C24.3085 269.235 23.0668 266.627 21.825 266.748C20.5832 266.857 19.1124 266.072 17.9912 265.167C16.8579 264.262 3.99421 252.276 3.19852 251.262C2.40282 250.249 4.21122 244.479 4.88636 244.708C5.56149 244.938 7.03232 243.574 7.59895 244.262C8.16558 244.938 10.0825 246.519 10.5406 245.614C10.9867 244.708 9.19034 243.803 9.40735 242.898C9.63641 241.993 9.74492 240.074 9.17829 239.277C8.61166 238.48 6.46569 236.899 6.69475 236.332C6.92382 235.765 11.2157 229.549 12.2284 229.211C13.2412 228.873 16.9664 226.833 17.8706 227.062C18.7748 227.292 18.3167 228.752 19.3415 228.752C20.3662 228.752 21.1499 226.942 21.825 227.617C22.5001 228.293 22.9583 230.104 23.8625 229.995C24.7667 229.887 28.8295 225.252 28.1544 224.914C27.4793 224.576 26.8041 223.562 28.492 221.631C30.1798 219.7 30.6379 219.144 29.7337 218.13C28.8295 217.117 29.1671 216.211 30.9755 214.509C32.7839 212.808 38.3176 208.185 41.7053 204.793C45.0931 201.402 46.9497 198.456 46.383 198.251L46.2987 198.227Z" stroke="#F27E00" stroke-width="6" mask="url(#path-1-outside-1_78_715)"/>
<path d="M58.3748 166.44C58.3748 164.36 58.8248 162.51 59.7248 160.89C60.6248 159.25 61.8748 157.98 63.4748 157.08C65.0948 156.16 66.9248 155.7 68.9648 155.7C71.4648 155.7 73.6048 156.36 75.3848 157.68C77.1648 159 78.3548 160.8 78.9548 163.08H73.3148C72.8948 162.2 72.2948 161.53 71.5148 161.07C70.7548 160.61 69.8848 160.38 68.9048 160.38C67.3248 160.38 66.0448 160.93 65.0648 162.03C64.0848 163.13 63.5948 164.6 63.5948 166.44C63.5948 168.28 64.0848 169.75 65.0648 170.85C66.0448 171.95 67.3248 172.5 68.9048 172.5C69.8848 172.5 70.7548 172.27 71.5148 171.81C72.2948 171.35 72.8948 170.68 73.3148 169.8H78.9548C78.3548 172.08 77.1648 173.88 75.3848 175.2C73.6048 176.5 71.4648 177.15 68.9648 177.15C66.9248 177.15 65.0948 176.7 63.4748 175.8C61.8748 174.88 60.6248 173.61 59.7248 171.99C58.8248 170.37 58.3748 168.52 58.3748 166.44ZM89.7163 177.24C88.0763 177.24 86.5963 176.89 85.2763 176.19C83.9763 175.49 82.9463 174.49 82.1863 173.19C81.4463 171.89 81.0763 170.37 81.0763 168.63C81.0763 166.91 81.4563 165.4 82.2163 164.1C82.9763 162.78 84.0163 161.77 85.3363 161.07C86.6563 160.37 88.1363 160.02 89.7763 160.02C91.4163 160.02 92.8963 160.37 94.2163 161.07C95.5363 161.77 96.5763 162.78 97.3363 164.1C98.0963 165.4 98.4763 166.91 98.4763 168.63C98.4763 170.35 98.0863 171.87 97.3063 173.19C96.5463 174.49 95.4963 175.49 94.1563 176.19C92.8363 176.89 91.3563 177.24 89.7163 177.24ZM89.7163 172.8C90.6963 172.8 91.5263 172.44 92.2063 171.72C92.9063 171 93.2563 169.97 93.2563 168.63C93.2563 167.29 92.9163 166.26 92.2363 165.54C91.5763 164.82 90.7563 164.46 89.7763 164.46C88.7763 164.46 87.9463 164.82 87.2863 165.54C86.6263 166.24 86.2963 167.27 86.2963 168.63C86.2963 169.97 86.6163 171 87.2563 171.72C87.9163 172.44 88.7363 172.8 89.7163 172.8ZM106.328 154.8V177H101.198V154.8H106.328ZM117.666 177.24C116.026 177.24 114.546 176.89 113.226 176.19C111.926 175.49 110.896 174.49 110.136 173.19C109.396 171.89 109.026 170.37 109.026 168.63C109.026 166.91 109.406 165.4 110.166 164.1C110.926 162.78 111.966 161.77 113.286 161.07C114.606 160.37 116.086 160.02 117.726 160.02C119.366 160.02 120.846 160.37 122.166 161.07C123.486 161.77 124.526 162.78 125.286 164.1C126.046 165.4 126.426 166.91 126.426 168.63C126.426 170.35 126.036 171.87 125.256 173.19C124.496 174.49 123.446 175.49 122.106 176.19C120.786 176.89 119.306 177.24 117.666 177.24ZM117.666 172.8C118.646 172.8 119.476 172.44 120.156 171.72C120.856 171 121.206 169.97 121.206 168.63C121.206 167.29 120.866 166.26 120.186 165.54C119.526 164.82 118.706 164.46 117.726 164.46C116.726 164.46 115.896 164.82 115.236 165.54C114.576 166.24 114.246 167.27 114.246 168.63C114.246 169.97 114.566 171 115.206 171.72C115.866 172.44 116.686 172.8 117.666 172.8ZM150.507 160.08C152.587 160.08 154.237 160.71 155.457 161.97C156.697 163.23 157.317 164.98 157.317 167.22V177H152.217V167.91C152.217 166.83 151.927 166 151.347 165.42C150.787 164.82 150.007 164.52 149.007 164.52C148.007 164.52 147.217 164.82 146.637 165.42C146.077 166 145.797 166.83 145.797 167.91V177H140.697V167.91C140.697 166.83 140.407 166 139.827 165.42C139.267 164.82 138.487 164.52 137.487 164.52C136.487 164.52 135.697 164.82 135.117 165.42C134.557 166 134.277 166.83 134.277 167.91V177H129.147V160.26H134.277V162.36C134.797 161.66 135.477 161.11 136.317 160.71C137.157 160.29 138.107 160.08 139.167 160.08C140.427 160.08 141.547 160.35 142.527 160.89C143.527 161.43 144.307 162.2 144.867 163.2C145.447 162.28 146.237 161.53 147.237 160.95C148.237 160.37 149.327 160.08 150.507 160.08ZM166.035 162.63C166.515 161.85 167.205 161.22 168.105 160.74C169.005 160.26 170.035 160.02 171.195 160.02C172.575 160.02 173.825 160.37 174.945 161.07C176.065 161.77 176.945 162.77 177.585 164.07C178.245 165.37 178.575 166.88 178.575 168.6C178.575 170.32 178.245 171.84 177.585 173.16C176.945 174.46 176.065 175.47 174.945 176.19C173.825 176.89 172.575 177.24 171.195 177.24C170.015 177.24 168.985 177.01 168.105 176.55C167.225 176.07 166.535 175.44 166.035 174.66V177H160.905V154.8H166.035V162.63ZM173.355 168.6C173.355 167.32 172.995 166.32 172.275 165.6C171.575 164.86 170.705 164.49 169.665 164.49C168.645 164.49 167.775 164.86 167.055 165.6C166.355 166.34 166.005 167.35 166.005 168.63C166.005 169.91 166.355 170.92 167.055 171.66C167.775 172.4 168.645 172.77 169.665 172.77C170.685 172.77 171.555 172.4 172.275 171.66C172.995 170.9 173.355 169.88 173.355 168.6ZM183.846 158.52C182.946 158.52 182.206 158.26 181.626 157.74C181.066 157.2 180.786 156.54 180.786 155.76C180.786 154.96 181.066 154.3 181.626 153.78C182.206 153.24 182.946 152.97 183.846 152.97C184.726 152.97 185.446 153.24 186.006 153.78C186.586 154.3 186.876 154.96 186.876 155.76C186.876 156.54 186.586 157.2 186.006 157.74C185.446 158.26 184.726 158.52 183.846 158.52ZM186.396 160.26V177H181.266V160.26H186.396ZM189.094 168.6C189.094 166.88 189.414 165.37 190.054 164.07C190.714 162.77 191.604 161.77 192.724 161.07C193.844 160.37 195.094 160.02 196.474 160.02C197.654 160.02 198.684 160.26 199.564 160.74C200.464 161.22 201.154 161.85 201.634 162.63V160.26H206.764V177H201.634V174.63C201.134 175.41 200.434 176.04 199.534 176.52C198.654 177 197.624 177.24 196.444 177.24C195.084 177.24 193.844 176.89 192.724 176.19C191.604 175.47 190.714 174.46 190.054 173.16C189.414 171.84 189.094 170.32 189.094 168.6ZM201.634 168.63C201.634 167.35 201.274 166.34 200.554 165.6C199.854 164.86 198.994 164.49 197.974 164.49C196.954 164.49 196.084 164.86 195.364 165.6C194.664 166.32 194.314 167.32 194.314 168.6C194.314 169.88 194.664 170.9 195.364 171.66C196.084 172.4 196.954 172.77 197.974 172.77C198.994 172.77 199.854 172.4 200.554 171.66C201.274 170.92 201.634 169.91 201.634 168.63Z" fill="white"/>
<path d="M116.032 186.63C116.532 185.85 117.222 185.22 118.102 184.74C118.982 184.26 120.012 184.02 121.192 184.02C122.572 184.02 123.822 184.37 124.942 185.07C126.062 185.77 126.942 186.77 127.582 188.07C128.242 189.37 128.572 190.88 128.572 192.6C128.572 194.32 128.242 195.84 127.582 197.16C126.942 198.46 126.062 199.47 124.942 200.19C123.822 200.89 122.572 201.24 121.192 201.24C120.032 201.24 119.002 201 118.102 200.52C117.222 200.04 116.532 199.42 116.032 198.66V208.98H110.902V184.26H116.032V186.63ZM123.352 192.6C123.352 191.32 122.992 190.32 122.272 189.6C121.572 188.86 120.702 188.49 119.662 188.49C118.642 188.49 117.772 188.86 117.052 189.6C116.352 190.34 116.002 191.35 116.002 192.63C116.002 193.91 116.352 194.92 117.052 195.66C117.772 196.4 118.642 196.77 119.662 196.77C120.682 196.77 121.552 196.4 122.272 195.66C122.992 194.9 123.352 193.88 123.352 192.6ZM130.243 192.6C130.243 190.88 130.563 189.37 131.203 188.07C131.863 186.77 132.753 185.77 133.873 185.07C134.993 184.37 136.243 184.02 137.623 184.02C138.803 184.02 139.833 184.26 140.713 184.74C141.613 185.22 142.303 185.85 142.783 186.63V184.26H147.913V201H142.783V198.63C142.283 199.41 141.583 200.04 140.683 200.52C139.803 201 138.773 201.24 137.593 201.24C136.233 201.24 134.993 200.89 133.873 200.19C132.753 199.47 131.863 198.46 131.203 197.16C130.563 195.84 130.243 194.32 130.243 192.6ZM142.783 192.63C142.783 191.35 142.423 190.34 141.703 189.6C141.003 188.86 140.143 188.49 139.123 188.49C138.103 188.49 137.233 188.86 136.513 189.6C135.813 190.32 135.463 191.32 135.463 192.6C135.463 193.88 135.813 194.9 136.513 195.66C137.233 196.4 138.103 196.77 139.123 196.77C140.143 196.77 141.003 196.4 141.703 195.66C142.423 194.92 142.783 193.91 142.783 192.63ZM156.755 187.05C157.355 186.13 158.105 185.41 159.005 184.89C159.905 184.35 160.905 184.08 162.005 184.08V189.51H160.595C159.315 189.51 158.355 189.79 157.715 190.35C157.075 190.89 156.755 191.85 156.755 193.23V201H151.625V184.26H156.755V187.05ZM163.437 192.6C163.437 190.88 163.757 189.37 164.397 188.07C165.057 186.77 165.947 185.77 167.067 185.07C168.187 184.37 169.437 184.02 170.817 184.02C171.997 184.02 173.027 184.26 173.907 184.74C174.807 185.22 175.497 185.85 175.977 186.63V184.26H181.107V201H175.977V198.63C175.477 199.41 174.777 200.04 173.877 200.52C172.997 201 171.967 201.24 170.787 201.24C169.427 201.24 168.187 200.89 167.067 200.19C165.947 199.47 165.057 198.46 164.397 197.16C163.757 195.84 163.437 194.32 163.437 192.6ZM175.977 192.63C175.977 191.35 175.617 190.34 174.897 189.6C174.197 188.86 173.337 188.49 172.317 188.49C171.297 188.49 170.427 188.86 169.707 189.6C169.007 190.32 168.657 191.32 168.657 192.6C168.657 193.88 169.007 194.9 169.707 195.66C170.427 196.4 171.297 196.77 172.317 196.77C173.337 196.77 174.197 196.4 174.897 195.66C175.617 194.92 175.977 193.91 175.977 192.63Z" fill="white"/>
<path d="M75.0785 224.36C75.0785 224.84 75.0485 225.34 74.9885 225.86H63.3785C63.4585 226.9 63.7885 227.7 64.3685 228.26C64.9685 228.8 65.6985 229.07 66.5585 229.07C67.8385 229.07 68.7285 228.53 69.2285 227.45H74.6885C74.4085 228.55 73.8985 229.54 73.1585 230.42C72.4385 231.3 71.5285 231.99 70.4285 232.49C69.3285 232.99 68.0985 233.24 66.7385 233.24C65.0985 233.24 63.6385 232.89 62.3585 232.19C61.0785 231.49 60.0785 230.49 59.3585 229.19C58.6385 227.89 58.2785 226.37 58.2785 224.63C58.2785 222.89 58.6285 221.37 59.3285 220.07C60.0485 218.77 61.0485 217.77 62.3285 217.07C63.6085 216.37 65.0785 216.02 66.7385 216.02C68.3585 216.02 69.7985 216.36 71.0585 217.04C72.3185 217.72 73.2985 218.69 73.9985 219.95C74.7185 221.21 75.0785 222.68 75.0785 224.36ZM69.8285 223.01C69.8285 222.13 69.5285 221.43 68.9285 220.91C68.3285 220.39 67.5785 220.13 66.6785 220.13C65.8185 220.13 65.0885 220.38 64.4885 220.88C63.9085 221.38 63.5485 222.09 63.4085 223.01H69.8285ZM82.9148 210.8V233H77.7848V210.8H82.9148ZM116.84 211.94V233H111.71V220.37L107 233H102.86L98.1199 220.34V233H92.9899V211.94H99.0499L104.96 226.52L110.81 211.94H116.84ZM137.059 216.26V233H131.929V230.72C131.409 231.46 130.699 232.06 129.799 232.52C128.919 232.96 127.939 233.18 126.859 233.18C125.579 233.18 124.449 232.9 123.469 232.34C122.489 231.76 121.729 230.93 121.189 229.85C120.649 228.77 120.379 227.5 120.379 226.04V216.26H125.479V225.35C125.479 226.47 125.769 227.34 126.349 227.96C126.929 228.58 127.709 228.89 128.689 228.89C129.689 228.89 130.479 228.58 131.059 227.96C131.639 227.34 131.929 226.47 131.929 225.35V216.26H137.059ZM150.944 216.08C152.904 216.08 154.464 216.72 155.624 218C156.804 219.26 157.394 221 157.394 223.22V233H152.294V223.91C152.294 222.79 152.004 221.92 151.424 221.3C150.844 220.68 150.064 220.37 149.084 220.37C148.104 220.37 147.324 220.68 146.744 221.3C146.164 221.92 145.874 222.79 145.874 223.91V233H140.744V216.26H145.874V218.48C146.394 217.74 147.094 217.16 147.974 216.74C148.854 216.3 149.844 216.08 150.944 216.08ZM159.939 224.6C159.939 222.88 160.259 221.37 160.899 220.07C161.559 218.77 162.449 217.77 163.569 217.07C164.689 216.37 165.939 216.02 167.319 216.02C168.419 216.02 169.419 216.25 170.319 216.71C171.239 217.17 171.959 217.79 172.479 218.57V210.8H177.609V233H172.479V230.6C171.999 231.4 171.309 232.04 170.409 232.52C169.529 233 168.499 233.24 167.319 233.24C165.939 233.24 164.689 232.89 163.569 232.19C162.449 231.47 161.559 230.46 160.899 229.16C160.259 227.84 159.939 226.32 159.939 224.6ZM172.479 224.63C172.479 223.35 172.119 222.34 171.399 221.6C170.699 220.86 169.839 220.49 168.819 220.49C167.799 220.49 166.929 220.86 166.209 221.6C165.509 222.32 165.159 223.32 165.159 224.6C165.159 225.88 165.509 226.9 166.209 227.66C166.929 228.4 167.799 228.77 168.819 228.77C169.839 228.77 170.699 228.4 171.399 227.66C172.119 226.92 172.479 225.91 172.479 224.63ZM188.94 233.24C187.3 233.24 185.82 232.89 184.5 232.19C183.2 231.49 182.17 230.49 181.41 229.19C180.67 227.89 180.3 226.37 180.3 224.63C180.3 222.91 180.68 221.4 181.44 220.1C182.2 218.78 183.24 217.77 184.56 217.07C185.88 216.37 187.36 216.02 189 216.02C190.64 216.02 192.12 216.37 193.44 217.07C194.76 217.77 195.8 218.78 196.56 220.1C197.32 221.4 197.7 222.91 197.7 224.63C197.7 226.35 197.31 227.87 196.53 229.19C195.77 230.49 194.72 231.49 193.38 232.19C192.06 232.89 190.58 233.24 188.94 233.24ZM188.94 228.8C189.92 228.8 190.75 228.44 191.43 227.72C192.13 227 192.48 225.97 192.48 224.63C192.48 223.29 192.14 222.26 191.46 221.54C190.8 220.82 189.98 220.46 189 220.46C188 220.46 187.17 220.82 186.51 221.54C185.85 222.24 185.52 223.27 185.52 224.63C185.52 225.97 185.84 227 186.48 227.72C187.14 228.44 187.96 228.8 188.94 228.8Z" fill="#F27E00"/>
<path d="M78.1084 127.94C80.3284 127.94 82.2684 128.38 83.9284 129.26C85.5884 130.14 86.8684 131.38 87.7684 132.98C88.6884 134.56 89.1484 136.39 89.1484 138.47C89.1484 140.53 88.6884 142.36 87.7684 143.96C86.8684 145.56 85.5784 146.8 83.8984 147.68C82.2384 148.56 80.3084 149 78.1084 149H70.2184V127.94H78.1084ZM77.7784 144.56C79.7184 144.56 81.2284 144.03 82.3084 142.97C83.3884 141.91 83.9284 140.41 83.9284 138.47C83.9284 136.53 83.3884 135.02 82.3084 133.94C81.2284 132.86 79.7184 132.32 77.7784 132.32H75.3484V144.56H77.7784ZM107.795 140.36C107.795 140.84 107.765 141.34 107.705 141.86H96.0953C96.1753 142.9 96.5053 143.7 97.0853 144.26C97.6853 144.8 98.4153 145.07 99.2753 145.07C100.555 145.07 101.445 144.53 101.945 143.45H107.405C107.125 144.55 106.615 145.54 105.875 146.42C105.155 147.3 104.245 147.99 103.145 148.49C102.045 148.99 100.815 149.24 99.4553 149.24C97.8153 149.24 96.3553 148.89 95.0753 148.19C93.7953 147.49 92.7953 146.49 92.0753 145.19C91.3553 143.89 90.9953 142.37 90.9953 140.63C90.9953 138.89 91.3453 137.37 92.0453 136.07C92.7653 134.77 93.7653 133.77 95.0453 133.07C96.3253 132.37 97.7953 132.02 99.4553 132.02C101.075 132.02 102.515 132.36 103.775 133.04C105.035 133.72 106.015 134.69 106.715 135.95C107.435 137.21 107.795 138.68 107.795 140.36ZM102.545 139.01C102.545 138.13 102.245 137.43 101.645 136.91C101.045 136.39 100.295 136.13 99.3953 136.13C98.5353 136.13 97.8053 136.38 97.2053 136.88C96.6253 137.38 96.2653 138.09 96.1253 139.01H102.545Z" fill="white"/>
<g clip-path="url(#clip0_78_715)">
<path d="M180.47 247C175.826 247 173.496 245.158 171.241 243.378C169.152 241.727 167.179 240.166 163.177 240.166C159.175 240.166 157.201 241.725 155.111 243.378C152.858 245.158 150.526 247 145.88 247C141.234 247 138.906 245.158 136.651 243.378C134.562 241.727 132.589 240.166 128.587 240.166C124.585 240.166 122.611 241.725 120.52 243.378C118.267 245.158 115.935 247 111.289 247C106.643 247 104.314 245.158 102.061 243.378C99.9731 241.725 98.0009 240.166 93.9985 240.166C93.4506 240.166 93 239.682 93 239.084C93 238.486 93.4374 238 93.9853 238H93.987C98.6445 238 100.975 239.842 103.228 241.622C105.317 243.273 107.29 244.834 111.292 244.834C115.294 244.834 117.268 243.275 119.358 241.622C121.611 239.842 123.943 238 128.589 238C133.235 238 135.563 239.842 137.818 241.622C139.907 243.273 141.88 244.834 145.882 244.834C149.884 244.834 151.858 243.275 153.948 241.622C156.201 239.842 158.533 238 163.179 238C167.825 238 170.155 239.842 172.408 241.622C174.497 243.273 176.47 244.834 180.472 244.834C184.474 244.834 186.448 243.275 188.538 241.622C190.792 239.842 193.123 238 197.767 238L197.973 238.007C198.521 238.016 199.008 238.51 199 239.107C198.992 239.705 198.584 240.171 198.041 240.177L197.765 240.166C193.763 240.166 191.791 241.725 189.701 243.378C187.447 245.158 185.116 247 180.47 247Z" fill="white"/>
</g>
<defs>
<clipPath id="clip0_78_715">
<rect width="106" height="9" fill="white" transform="translate(98 238)"/>
</clipPath>
</defs>
</svg>
