<svg width="151" height="95" viewBox="0 0 151 95" fill="none" xmlns="http://www.w3.org/2000/svg">
<g id="Capa_1" clip-path="url(#clip0_163_268)">
<path id="Vector" d="M84.9264 48.9615C84.9264 48.9615 84.442 49.9229 91.3591 51.9384C98.2763 53.9539 105.683 55.9303 105.741 64.7291" stroke="#1D2025" stroke-linecap="round" stroke-linejoin="round"/>
<path id="Vector_2" d="M114.421 32.3986C114.421 32.3986 118.65 9.33038 138.176 16.2406C157.702 23.1508 149.976 42.2515 138.936 60.9179C127.897 79.5843 107.46 93.2876 100.669 93.6145C90.4969 94.1025 68.4569 75.3142 68.4569 75.3142" stroke="#1D2025" stroke-linecap="round" stroke-linejoin="round"/>
<path id="Vector_3" d="M98.9932 53.6611C98.9932 53.6611 107.741 53.5147 110.42 61.7035" stroke="#1D2025" stroke-linecap="round" stroke-linejoin="round"/>
<path id="Vector_4" d="M97.9954 53.2316C97.9954 53.2316 95.4426 46.8826 102.849 38.7133C110.255 30.544 121.024 33.2086 126.037 35.8243" stroke="#1D2025" stroke-linecap="round" stroke-linejoin="round"/>
<path id="Vector_5" d="M70.2636 28.5676C70.2636 28.5676 65.9331 37.0053 71.0435 41.1583" stroke="#1D2025" stroke-width="0.75" stroke-linecap="round" stroke-linejoin="round"/>
<path id="Vector_6" d="M68.9607 38.9183C68.9607 38.9183 67.5995 40.4702 69.1399 41.8415" stroke="#1D2025" stroke-width="0.75" stroke-linecap="round" stroke-linejoin="round"/>
<path id="Vector_7" d="M68.6991 41.3975C68.6991 41.3975 64.3396 50.1816 52.2442 59.0341C46.3637 63.3384 44.4794 64.8219 41.573 76.5342" stroke="#1D2025" stroke-width="0.75" stroke-linecap="round" stroke-linejoin="round"/>
<path id="Vector_8" d="M33.3383 54.0857C33.3383 54.0857 40.6042 62.3819 44.9637 66.7739" stroke="#1D2025" stroke-width="0.75" stroke-linecap="round" stroke-linejoin="round"/>
<path id="Vector_9" d="M18.0168 73.6109C18.0168 73.6109 14.7519 73.9574 12.4414 72.5031C10.1308 71.0488 15.3477 63.0601 23.5389 58.5021C31.7348 53.9441 39.1364 51.4357 40.7543 53.2463C42.3722 55.0568 38.1143 59.1756 38.1143 59.1756" stroke="#1D2025" stroke-width="0.75" stroke-linecap="round" stroke-linejoin="round"/>
<path id="Vector_10" d="M41.0886 53.5977C41.0886 53.5977 23.941 24.8149 9.4091 31.0858C-10.3978 39.6308 11.7778 71.6296 11.7778 71.6296" stroke="#1D2025" stroke-width="0.75" stroke-linecap="round" stroke-linejoin="round"/>
<path id="Vector_11" d="M68.6991 41.3975C68.6991 41.3975 57.2625 51.7286 54.0607 52.0019C50.8588 52.2752 55.4218 47.5854 55.4218 47.5854" stroke="#1D2025" stroke-width="0.75" stroke-linecap="round" stroke-linejoin="round"/>
<path id="Vector_12" d="M53.2759 52.1239C53.2759 52.1239 54.8453 53.9832 56.066 55.0422" stroke="#1D2025" stroke-linecap="round" stroke-linejoin="round"/>
<path id="Vector_13" d="M57.9891 49.8742L54.8793 46.6484C54.8793 46.6484 62.3147 43.9009 68.4617 36.0977" stroke="#1D2025" stroke-width="0.75" stroke-linecap="round" stroke-linejoin="round"/>
<path id="Vector_14" d="M54.8648 46.4044C54.8648 46.4044 53.8524 45.7358 58.4445 41.5341" stroke="#1D2025" stroke-width="0.75" stroke-linecap="round" stroke-linejoin="round"/>
<path id="Vector_15" d="M60.2076 43.7447C60.2076 43.7447 56.3034 38.2449 54.6128 34.4384C52.9223 30.6319 53.8281 21.7745 60.6629 14.5032C67.4977 7.23185 70.7287 4.58195 75.1706 5.7727C79.6125 6.96344 86.2632 11.2042 87.3337 13.454C88.4042 15.7037 87.4064 23.097 90.6373 28.2748C90.6373 28.2748 87.4355 31.4078 83.2067 25.8055" stroke="#1D2025" stroke-width="0.75" stroke-linecap="round" stroke-linejoin="round"/>
<path id="Vector_16" d="M72.8939 13.4344C72.8939 13.4344 82.7756 18.9831 83.3811 20.901C83.9866 22.8189 81.8262 28.2992 85.6141 33.4721C85.6141 33.4721 83.289 35.0826 80.2034 32.3448" stroke="#1D2025" stroke-width="0.75" stroke-linecap="round" stroke-linejoin="round"/>
<path id="Vector_17" d="M69.6776 19.1002C69.6776 19.1002 78.6922 23.6387 79.3268 26.0446C79.9613 28.4505 79.8402 34.3261 80.9834 37.1859C80.9834 37.1859 76.4398 38.5572 73.7804 34.8093C71.1211 31.0613 72.3273 27.0011 72.3273 27.0011" stroke="#1D2025" stroke-width="0.75" stroke-linecap="round" stroke-linejoin="round"/>
<path id="Vector_18" d="M75.1416 5.36276C75.1416 5.36276 76.6868 4.1525 78.0431 3.84993C79.3994 3.54736 89.4555 9.2766 90.0319 10.7065C90.5454 11.9899 92.7978 20.4911 94.2849 22.7701C94.4399 23.0092 94.2655 23.3215 93.9846 23.3166C92.6622 23.3069 89.9835 23.0775 88.3801 21.4622" stroke="#1D2025" stroke-width="0.75" stroke-linecap="round" stroke-linejoin="round"/>
<path id="Vector_19" d="M95.8107 15.0889C95.3117 13.6688 95.8252 11.6289 95.2681 10.1502C94.7111 8.67157 84.1997 2.35673 80.8089 1.38071C77.4182 0.404687 74.5118 3.33274 74.5118 3.33274C73.0586 4.79677 66.8632 7.92004 62.4019 10.1649C61.4331 10.6529 59.9315 12.3219 61.9175 13.0929" stroke="#1D2025" stroke-width="0.75" stroke-linecap="round" stroke-linejoin="round"/>
<path id="Vector_20" d="M95.8107 13.049C95.8107 13.049 97.7628 15.0449 98.2472 16.5089C98.7316 17.973 97.7628 18.949 97.7628 20.901" stroke="#1D2025" stroke-width="0.75" stroke-linecap="round" stroke-linejoin="round"/>
<path id="Vector_21" d="M98.4894 18.217C98.4894 18.217 99.7003 19.9251 100.185 20.9011C100.669 21.8771 90.555 37.9912 89.3149 41.1584C88.0749 44.3256 87.7842 44.7843 86.4764 45.7749C85.1685 46.7656 67.8029 82.6343 51.2608 92.1505C34.7187 101.667 14.4468 67.262 14.4468 67.262" stroke="#1D2025" stroke-width="0.75" stroke-linecap="round" stroke-linejoin="round"/>
<path id="Vector_22" d="M61.6705 10.6919C61.6705 10.6919 60.9391 10.1649 61.6705 8.94484C62.402 7.72482 63.4386 8.33971 68.9752 6.56824" stroke="#1D2025" stroke-width="0.75" stroke-linecap="round" stroke-linejoin="round"/>
<path id="Vector_23" d="M65.7927 25.7811C65.7927 25.7811 70.5931 29.1728 72.0705 29.1826" stroke="#1D2025" stroke-width="0.75" stroke-linecap="round" stroke-linejoin="round"/>
<path id="Vector_24" d="M36.9711 50.5769C36.9711 50.5769 32.4081 48.8444 21.5964 55.4618C10.7847 62.0792 11.2498 66.7739 11.2498 66.7739C11.2498 66.7739 -2.69599 43.2811 7.98977 35.3266C18.7046 27.3476 29.6132 43.2957 36.9711 50.5769Z" fill="#1D2025"/>
</g>
<defs>
<clipPath id="clip0_163_268">
<rect width="151" height="95" fill="white"/>
</clipPath>
</defs>
</svg>
