<svg width="136" height="117" viewBox="0 0 136 117" fill="none" xmlns="http://www.w3.org/2000/svg">
<g id="Capa_1" clip-path="url(#clip0_164_377)">
<g id="Group 13">
<path id="Vector" d="M31.3571 40.5338C31.3571 40.5338 45.659 38.9653 64.1485 40.5338C64.1485 40.5338 65.5702 59.1641 47.7923 59.8738C27.8451 60.671 31.3571 40.5338 31.3571 40.5338Z" stroke="#1D2025" stroke-linecap="round" stroke-linejoin="round"/>
<path id="Vector_2" d="M46.6569 57.0541C42.2035 57.0541 38.8955 55.8095 36.8205 53.3565C34.1951 50.252 33.8916 45.7795 33.979 43.1584C36.6233 42.9579 41.3786 42.6802 47.4303 42.6802C52.0827 42.6802 56.7231 42.8413 61.2606 43.1619C61.0531 45.7538 60.2763 49.9108 57.5463 52.957C55.2775 55.4907 51.9558 56.8621 47.679 57.0335C47.3309 57.0472 46.9896 57.0541 46.6569 57.0541Z" stroke="#1D2025" stroke-linecap="round" stroke-linejoin="round"/>
<path id="Vector_3" d="M35.7025 43.5236C35.7025 43.5236 34.2808 53.4764 45.1667 57.054" stroke="#1D2025" stroke-linecap="round" stroke-linejoin="round"/>
<path id="Vector_4" d="M103.763 40.5338C103.763 40.5338 89.4614 38.9653 70.9718 40.5338C70.9718 40.5338 68.4167 59.8738 87.3281 59.8738C107.291 59.8738 103.763 40.5338 103.763 40.5338Z" stroke="#1D2025" stroke-linecap="round" stroke-linejoin="round"/>
<path id="Vector_5" d="M88.4633 57.0541C92.9168 57.0541 96.2248 55.8095 98.2997 53.3565C100.925 50.252 101.229 45.7795 101.141 43.1584C98.4969 42.9579 93.7416 42.6802 87.6899 42.6802C83.0375 42.6802 78.3971 42.8413 73.8596 43.1619C74.0671 45.7538 74.8439 49.9108 77.574 52.957C79.8427 55.4907 83.1644 56.8621 87.4413 57.0335C87.7894 57.0472 88.1306 57.0541 88.4633 57.0541Z" stroke="#1D2025" stroke-linecap="round" stroke-linejoin="round"/>
<path id="Vector_6" d="M99.4163 43.5236C99.4163 43.5236 100.838 53.4764 89.952 57.054" stroke="#1D2025" stroke-linecap="round" stroke-linejoin="round"/>
<path id="Vector_7" d="M100.743 74.2255L107.092 111.224C107.658 114.525 104.192 117.042 101.225 115.484L67.988 98.0157L34.7506 115.484C31.7839 117.042 28.3182 114.525 28.8841 111.224L35.2325 74.2255" stroke="#1D2025" stroke-miterlimit="10"/>
<path id="Vector_8" d="M23.3245 35.7529L42.5257 35.7323L61.8761 4.56746C64.7365 -0.040414 71.4056 -0.148411 74.4151 4.36346L95.3432 35.7323H112.874" stroke="#1D2025" stroke-miterlimit="10"/>
<path id="Vector_9" d="M35.1521 74.1741C13.5449 54.6318 3.6622 47.9514 1.8839 44.1749C0.512013 41.2607 0.796679 36.6614 2.91281 35.6037C4.18523 34.9678 15.7845 34.4055 16.9077 37.6214C19.3754 44.6892 14.7453 49.3177 14.7453 49.3177C14.7453 49.3177 13.5449 50.3462 11.0789 49.2611" stroke="#1D2025" stroke-miterlimit="10"/>
<path id="Vector_10" d="M100.848 74.1741C122.455 54.6318 132.338 47.9514 134.116 44.1749C135.488 41.2607 135.203 36.6614 133.087 35.6037C131.815 34.9678 120.216 34.4055 119.092 37.6214C116.625 44.6892 121.255 49.3177 121.255 49.3177C121.255 49.3177 122.455 50.3462 124.921 49.2611" stroke="#1D2025" stroke-miterlimit="10"/>
<path id="Vector_11" d="M23.148 35.7752C23.148 35.7752 18.1749 35.9466 15.7741 32.3467C13.6666 29.1874 11.487 32.861 12.6874 35.6038" stroke="#1D2025" stroke-miterlimit="10"/>
<path id="Vector_12" d="M112.873 35.7752C112.873 35.7752 117.846 35.9466 120.247 32.3467C122.354 29.1874 124.534 32.861 123.333 35.6038" stroke="#1D2025" stroke-miterlimit="10"/>
<path id="Vector_13" d="M64.1484 40.5339C64.1484 40.5339 67.3466 38.95 70.9701 40.5339" stroke="#1D2025" stroke-miterlimit="10"/>
<path id="Vector_14" d="M64.1484 42.4196C64.1484 42.4196 67.3466 40.8356 70.9701 42.4196" stroke="#1D2025" stroke-miterlimit="10"/>
<path id="Vector 4" d="M35.9155 43.1557C39.7465 42.3885 54.4319 42.836 61.2958 43.1557C61.2958 47.9507 56.9859 58.5 45.9718 57.0615C37.1606 55.9106 35.5962 47.3114 35.9155 43.1557Z" fill="#1D2025"/>
<path id="Vector 5" d="M99.5673 43.5771C95.6698 42.814 80.7295 43.2591 73.7466 43.5771C73.7466 48.3464 78.1312 58.8389 89.3364 57.4081C98.3006 56.2635 99.892 47.7105 99.5673 43.5771Z" fill="#1D2025"/>
</g>
</g>
<defs>
<clipPath id="clip0_164_377">
<rect width="136" height="117" fill="white"/>
</clipPath>
</defs>
</svg>
