<svg width="22" height="22" viewBox="0 0 22 22" fill="none" xmlns="http://www.w3.org/2000/svg">
<g clip-path="url(#clip0_73_586)">
<path d="M10.9382 1.97099C13.8587 1.97099 14.2035 1.98129 15.3563 2.03532C16.4215 2.08421 17.0005 2.26175 17.3864 2.41099C17.8959 2.60912 18.2613 2.84585 18.6447 3.22924C19.0281 3.61263 19.2648 3.97544 19.4629 4.48748C19.6122 4.87345 19.7897 5.4524 19.8386 6.51766C19.8901 7.67041 19.9029 8.01778 19.9029 10.9357C19.9029 13.8536 19.8926 14.2009 19.8386 15.3537C19.7897 16.4189 19.6122 16.9979 19.4629 17.3839C19.2648 17.8933 19.0281 18.2587 18.6447 18.6421C18.2613 19.0255 17.8985 19.2622 17.3864 19.4604C17.0005 19.6096 16.4215 19.7871 15.3563 19.836C14.2035 19.8875 13.8587 19.9004 10.9382 19.9004C8.01778 19.9004 7.67298 19.8901 6.52023 19.836C5.45497 19.7871 4.87602 19.6096 4.49006 19.4604C3.98058 19.2622 3.6152 19.0255 3.23181 18.6421C2.84842 18.2587 2.6117 17.8959 2.41357 17.3839C2.26433 16.9979 2.08678 16.4189 2.03789 15.3537C1.98643 14.2009 1.97357 13.8536 1.97357 10.9357C1.97357 8.01778 1.98386 7.67041 2.03789 6.51766C2.08678 5.4524 2.26433 4.87345 2.41357 4.48748C2.6117 3.97801 2.84842 3.61263 3.23181 3.22924C3.6152 2.84585 3.97801 2.60912 4.49006 2.41099C4.87602 2.26175 5.45497 2.08421 6.52023 2.03532C7.67298 1.98386 8.02035 1.97099 10.9382 1.97099ZM10.9382 0C7.96889 0 7.59579 0.0128656 6.43018 0.0669006C5.26713 0.120936 4.47205 0.303626 3.77474 0.576374C3.05684 0.856842 2.44702 1.22994 1.83719 1.83719C1.22994 2.44444 0.854269 3.05427 0.576374 3.77474C0.306199 4.46947 0.120936 5.26456 0.0669006 6.43018C0.0128656 7.59579 0 7.96889 0 10.9382C0 13.9076 0.0128656 14.2807 0.0669006 15.4463C0.120936 16.6094 0.303626 17.4044 0.576374 18.1018C0.856842 18.8196 1.22994 19.4295 1.83719 20.0393C2.44444 20.6465 3.05427 21.0222 3.77474 21.3001C4.46947 21.5703 5.26456 21.7556 6.43018 21.8096C7.59579 21.8636 7.96889 21.8765 10.9382 21.8765C13.9076 21.8765 14.2807 21.8636 15.4463 21.8096C16.6094 21.7556 17.4044 21.5729 18.1018 21.3001C18.8196 21.0196 19.4295 20.6465 20.0393 20.0393C20.6466 19.432 21.0222 18.8222 21.3001 18.1018C21.5703 17.407 21.7556 16.6119 21.8096 15.4463C21.8636 14.2807 21.8765 13.9076 21.8765 10.9382C21.8765 7.96889 21.8636 7.59579 21.8096 6.43018C21.7556 5.26714 21.5729 4.47205 21.3001 3.77474C21.0196 3.05684 20.6466 2.44702 20.0393 1.83719C19.432 1.22994 18.8222 0.854269 18.1018 0.576374C17.407 0.306199 16.6119 0.120936 15.4463 0.0669006C14.2807 0.0128656 13.9076 0 10.9382 0Z" fill="#F27E00"/>
<path d="M10.9382 5.3208C7.83765 5.3208 5.32373 7.83472 5.32373 10.9353C5.32373 14.0359 7.83765 16.5498 10.9382 16.5498C14.0388 16.5498 16.5527 14.0359 16.5527 10.9353C16.5527 7.83472 14.0388 5.3208 10.9382 5.3208ZM10.9382 14.5814C8.92607 14.5814 7.29215 12.95 7.29215 10.9353C7.29215 8.92057 8.9235 7.28922 10.9382 7.28922C12.953 7.28922 14.5843 8.92057 14.5843 10.9353C14.5843 12.95 12.953 14.5814 10.9382 14.5814Z" fill="#F27E00"/>
<path d="M16.7766 6.40923C17.5014 6.40923 18.0889 5.8217 18.0889 5.09695C18.0889 4.3722 17.5014 3.78467 16.7766 3.78467C16.0519 3.78467 15.4644 4.3722 15.4644 5.09695C15.4644 5.8217 16.0519 6.40923 16.7766 6.40923Z" fill="#F27E00"/>
</g>
<defs>
<clipPath id="clip0_73_586">
<rect width="22" height="22" fill="white"/>
</clipPath>
</defs>
</svg>
