<svg width="181" height="147" viewBox="0 0 181 147" fill="none" xmlns="http://www.w3.org/2000/svg">
<g id="Capa_1" clip-path="url(#clip0_171_395)">
<path id="Vector" d="M75.7301 51.3966C75.7301 51.3966 58.6646 50.9892 50.5382 45.2862C42.4118 39.5831 46.2718 34.0838 43.0212 32.8617" stroke="white" stroke-width="0.75" stroke-miterlimit="10"/>
<path id="Vector_2" d="M33.2695 41.0089C33.2695 41.0089 45.4592 41.4163 47.0845 46.3046C48.7098 51.1929 47.8971 55.6739 43.0213 58.118C38.1454 60.5622 33.2695 60.5622 31.2379 58.9328C29.2063 57.3033 26.3621 41.4163 33.2695 41.0089Z" stroke="white" stroke-width="0.75" stroke-miterlimit="10"/>
<path id="Vector_3" d="M41.8022 64.2285C41.8022 64.2285 44.2402 72.7831 66.1815 75.2272" stroke="white" stroke-width="0.75" stroke-miterlimit="10"/>
<path id="Vector_4" d="M83.6536 43.8605C83.6536 43.8605 81.2156 47.9341 75.1208 53.6371C69.026 59.3402 58.8679 77.264 73.4955 95.1879C88.1231 113.112 120.223 120.037 139.32 106.187C158.417 92.3363 154.76 80.9303 152.322 81.3376" stroke="white" stroke-width="0.75" stroke-miterlimit="10"/>
<path id="Vector_5" d="M148.259 90.7069C148.259 90.7069 152.728 85.0038 151.916 80.1155C150.859 73.7607 146.227 80.1155 137.897 80.1155" stroke="white" stroke-width="0.75" stroke-miterlimit="10"/>
<path id="Vector_6" d="M105.761 73.8585C105.761 73.8585 112.234 88.7109 134.891 93.0778C134.891 93.0778 142.733 94.8253 144.041 90.0185C144.041 90.0185 126.175 85.6516 115.72 68.6117" stroke="white" stroke-width="0.75" stroke-miterlimit="10"/>
<path id="Vector_7" d="M144.48 90.0225C144.48 90.0225 146.658 89.1507 146.223 86.5273C145.788 83.9039 140.559 86.9632 131.843 70.7992C123.128 54.6351 122.258 50.7041 111.799 48.9565C111.799 48.9565 90.0124 48.0847 94.3722 70.3633C98.728 92.6418 128.796 97.0087 132.717 92.6418" stroke="white" stroke-width="0.75" stroke-miterlimit="10"/>
<path id="Vector_8" d="M117.732 50.6471C117.272 45.6202 112.096 43.8604 112.096 43.8604C112.096 43.8604 112.909 43.8604 113.721 42.6384C114.534 41.4163 113.315 40.6016 113.315 40.6016C113.315 40.6016 112.909 41.4163 110.877 41.0089" stroke="white" stroke-width="0.75" stroke-miterlimit="10"/>
<path id="Vector_9" d="M113.315 40.1943C113.315 40.1943 122.254 36.9354 120.629 24.7146C119.003 12.4938 111.69 12.0864 107.626 9.64224C103.563 7.19808 103.563 4.34656 102.344 4.34656C101.125 4.34656 100.313 7.7969 102.344 10.351C102.344 10.351 101.125 10.8643 97.4683 7.60544C93.8114 4.34656 92.9988 6.38336 92.9988 7.60544C92.9988 9.80111 94.2177 11.679 94.2177 11.679" stroke="white" stroke-width="0.75" stroke-miterlimit="10"/>
<path id="Vector_10" d="M90.3577 11.6383C90.3577 11.6383 88.3667 12.4938 87.229 14.2047C86.0913 15.9156 86.8533 18.5039 86 20.5" stroke="white" stroke-width="0.75" stroke-miterlimit="10"/>
<path id="Vector_11" d="M82 25.5C82 25.5 79.773 26.1566 79.7771 29.6965C79.7812 33.2365 82.0038 33.5542 82.0038 33.5542" stroke="white" stroke-width="0.75" stroke-linecap="round" stroke-linejoin="round"/>
<path id="Vector_12" d="M84.4904 29.6803C84.4904 29.6803 85.2299 34.8823 73.2678 36.2592" stroke="white" stroke-width="0.75" stroke-linecap="round" stroke-linejoin="round"/>
<path id="Vector_13" d="M106.509 28.833C106.509 28.833 104.181 31.4849 105.343 37.4324C106.509 43.3758 105.026 49.4251 94.9695 46.7732C84.9131 44.1212 79.6715 39.1311 72.7356 39.237C65.7469 39.3429 70.1392 41.7626 70.1392 41.7626" stroke="white" stroke-width="0.75" stroke-linecap="round" stroke-linejoin="round"/>
<path id="Vector_14" d="M85.5469 43.4776C85.5469 43.4776 76.5997 45.1763 70.3789 43.4776C64.1622 41.7789 63.3129 38.9151 66.8073 36.8987C70.3017 34.8823 85.0186 37.6401 90.6299 41.2493" stroke="white" stroke-width="0.75" stroke-linecap="round" stroke-linejoin="round"/>
<path id="Vector_15" d="M103.336 31.273C103.336 31.273 105.453 27.5579 110.747 27.9815" stroke="white" stroke-width="0.75" stroke-linecap="round" stroke-linejoin="round"/>
<path id="Vector_16" d="M105.469 38.1207C105.469 38.1207 114.343 34.9352 114.213 29.4684C114.083 24.0016 109.211 21.4556 104.872 25.7003C100.532 29.945 97.3181 29.668 95.5547 27.6108C92.9623 24.5841 90.6301 27.9815 90.5244 28.0874" stroke="white" stroke-width="0.75" stroke-linecap="round" stroke-linejoin="round"/>
<path id="Vector_17" d="M92.4829 21.3498L92.8571 21.3265C92.8465 21.1561 92.7221 21.0143 92.5545 20.9817L92.4829 21.3498ZM92.4829 21.3498C92.8571 21.3265 92.8572 21.3267 92.8572 21.3269L92.8572 21.3274L92.8573 21.3291L92.8576 21.3347L92.8587 21.355C92.8596 21.3725 92.8608 21.3978 92.8621 21.4303C92.8646 21.4954 92.8675 21.5896 92.869 21.7085C92.8719 21.9462 92.8693 22.2834 92.8472 22.6853C92.8032 23.4864 92.6811 24.5563 92.3651 25.6096C92.0502 26.6592 91.5329 27.7251 90.6756 28.4812C89.8046 29.2495 88.6165 29.6675 87.0363 29.4699C85.4714 29.2742 84.3559 28.6452 83.5776 27.7944C82.8053 26.9502 82.3862 25.911 82.1655 24.9215C81.9447 23.9312 81.9182 22.9713 81.9456 22.263C81.9593 21.9077 81.9867 21.6131 82.0109 21.4061C82.0229 21.3026 82.0342 21.2208 82.0426 21.1642C82.0468 21.1359 82.0503 21.1138 82.0528 21.0985L82.0558 21.0805L82.0567 21.0754L82.0569 21.0738L82.057 21.0733C82.0571 21.0731 82.0571 21.0729 82.4264 21.138L82.0571 21.0729C82.0866 20.9054 82.2252 20.7787 82.3947 20.7643C85.5383 20.4977 88.0717 20.5509 89.8223 20.6712C90.6976 20.7313 91.3773 20.8083 91.8398 20.8706C92.0711 20.9017 92.248 20.9292 92.368 20.949C92.4281 20.9589 92.4738 20.9669 92.505 20.9725L92.5408 20.9791L92.5504 20.9809L92.5531 20.9814L92.554 20.9816L92.5543 20.9817C92.5544 20.9817 92.5545 20.9817 92.4829 21.3498Z" stroke="white" stroke-width="0.75" stroke-linecap="round" stroke-linejoin="round"/>
<path id="Vector_18" d="M87.7939 28.2953C87.5989 28.2953 87.3957 28.2831 87.1885 28.2546C85.8639 28.0875 84.8887 27.562 84.2142 26.6455C83.1049 25.1423 83.1049 22.9915 83.1862 21.9283C84.4214 21.8386 85.6404 21.7938 86.8268 21.7938C89.1185 21.7938 90.7804 21.9649 91.6458 22.079C91.6255 23.3133 91.4183 25.9326 90.0856 27.3543C89.4923 27.9857 88.7406 28.2953 87.798 28.2953H87.7939Z" fill="#D9D9D9"/>
<path id="Vector_19" d="M103.811 21.2479L104.185 21.2246C104.175 21.0541 104.05 20.9124 103.883 20.8798L103.811 21.2479ZM103.811 21.2479C104.185 21.2246 104.185 21.2247 104.185 21.2249L104.185 21.2255L104.185 21.2271L104.186 21.2328L104.187 21.2531C104.188 21.2706 104.189 21.2958 104.19 21.3284C104.193 21.3935 104.196 21.4876 104.197 21.6065C104.2 21.8442 104.197 22.1815 104.175 22.5833C104.131 23.3844 104.009 24.4544 103.693 25.5077C103.378 26.5572 102.861 27.6232 102.004 28.3792C101.133 29.1475 99.9446 29.5656 98.3644 29.368C96.7996 29.1723 95.684 28.5433 94.9057 27.6925C94.1335 26.8482 93.7143 25.8091 93.4937 24.8195C93.2728 23.8293 93.2464 22.8693 93.2737 22.161C93.2875 21.8058 93.3149 21.5111 93.339 21.3042C93.3511 21.2007 93.3624 21.1189 93.3708 21.0623C93.375 21.034 93.3784 21.0119 93.3809 20.9966L93.3839 20.9786L93.3848 20.9735L93.3851 20.9719L93.3852 20.9713C93.3852 20.9711 93.3852 20.971 93.7545 21.036L93.3852 20.971C93.4147 20.8034 93.5533 20.6768 93.7229 20.6624C96.8665 20.3958 99.3999 20.4489 101.15 20.5692C102.026 20.6294 102.705 20.7064 103.168 20.7687C103.399 20.7998 103.576 20.8272 103.696 20.8471C103.756 20.857 103.802 20.865 103.833 20.8706L103.869 20.8772L103.879 20.879L103.881 20.8795L103.882 20.8797L103.882 20.8797C103.883 20.8797 103.883 20.8798 103.811 21.2479Z" stroke="white" stroke-width="0.75" stroke-linecap="round" stroke-linejoin="round"/>
<path id="Vector_20" d="M99.1223 28.1934C98.9272 28.1934 98.7241 28.1811 98.5168 28.1526C97.1922 27.9856 96.2171 27.4601 95.5426 26.5436C94.4333 25.0404 94.4333 22.8895 94.5146 21.8263C95.7498 21.7367 96.9688 21.6919 98.1552 21.6919C100.447 21.6919 102.109 21.863 102.974 21.977C102.954 23.2113 102.747 25.8307 101.414 27.2524C100.821 27.8838 100.069 28.1934 99.1263 28.1934H99.1223Z" fill="#D9D9D9"/>
<path id="Vector_21" d="M92.4827 21.3498L93.2751 21.5086C93.2751 21.5086 93.3807 25.2197 92.3771 26.5477L91.3369 27.0691C91.3369 27.0691 92.8525 24.5842 92.4787 21.3457L92.4827 21.3498Z" fill="white" stroke="white" stroke-width="0.75" stroke-linecap="round" stroke-linejoin="round"/>
<path id="Vector_22" d="M103.889 21L104.787 21.444C104.787 21.444 104.8 24.4503 103.577 26.6745L102 27.697C102 27.697 104.158 25.1958 103.893 21H103.889Z" fill="white" stroke="white" stroke-width="0.75" stroke-linecap="round" stroke-linejoin="round"/>
<path id="Vector_23" d="M93.2793 10.4C93.2793 10.4 91.3696 9.2838 90.3538 7.43031C89.338 5.57682 86.5913 7.93544 89.5899 11.6424" stroke="white" stroke-width="0.75" stroke-miterlimit="10"/>
<path id="Vector_24" d="M42.4119 42.6262C42.4119 42.6262 44.6467 14.2454 42.4119 7.66655C40.1772 1.08768 34.895 -0.134399 33.676 0.272961C32.4571 0.680321 33.2697 6.45669 40.5835 8.04947" stroke="white" stroke-width="0.75" stroke-miterlimit="10"/>
<path id="Vector_25" d="M33.2087 3.45032C33.2087 3.45032 33.6719 10.461 34.0783 13.3125C34.4846 16.164 37.2598 22.9629 35.7036 41.013" stroke="white" stroke-width="0.75" stroke-miterlimit="10"/>
<path id="Vector_26" d="M35.0248 60.5745C35.0248 60.5745 35.297 77.264 33.6717 82.9671C32.0465 88.6701 31.6401 91.929 31.6401 91.929C31.6401 91.929 34.7851 97.5831 35.041 108.403C35.297 119.222 35.041 132.172 35.041 132.172C35.041 132.172 37.3286 134.702 45.4551 132.665C45.4551 132.665 45.0487 126.555 44.6424 122.481C44.2361 118.407 42.6108 109.853 43.0171 103.742C43.4235 97.632 46.9747 98.182 47.8402 95.4649C48.7056 92.7478 44.2605 89.7985 42.2167 85.9774C40.1729 82.1564 42.4077 58.9491 42.4077 58.9491" stroke="white" stroke-width="0.75" stroke-miterlimit="10"/>
<path id="Vector_27" d="M40.4982 85.9734C40.4982 85.9734 37.9749 87.0407 40.4982 90.7069C43.0214 94.3732 45.565 96.2022 45.565 96.2022" stroke="white" stroke-width="0.75" stroke-miterlimit="10"/>
<path id="Vector_28" d="M88.1229 107.001C88.1229 107.001 88.5983 112.643 87.3103 117.185C86.7618 119.116 65.3689 123.296 64.9626 124.518C64.5563 125.74 64.5563 126.555 67.8069 126.962C71.0574 127.369 68.6195 131.036 69.4322 132.665C70.2448 134.294 73.4954 133.072 75.1207 133.887C76.7459 134.702 75.9333 136.739 78.7776 136.739C82.1297 136.739 91.1825 122.917 92.6981 121.475C94.2137 120.033 93.4051 118 92.1862 116.778C90.9672 115.556 91.3735 108.631 91.3735 108.631" stroke="white" stroke-width="0.75" stroke-miterlimit="10"/>
<path id="Vector_29" d="M72.6829 126.962C72.6829 126.962 76.3398 126.147 80.8093 124.11" stroke="white" stroke-width="0.75" stroke-miterlimit="10"/>
<path id="Vector_30" d="M78.3713 131.443C78.3713 131.443 80.8093 129.406 83.6535 126.147" stroke="white" stroke-width="0.75" stroke-miterlimit="10"/>
<path id="Vector_31" d="M107.22 113.112C107.22 113.112 107.175 119.405 106.814 124.11C106.659 126.111 87.0544 136.193 86.9 137.472C86.7456 138.751 86.9041 139.549 90.1709 139.301C93.4377 139.052 91.7759 143.13 92.8933 144.568C94.0106 146.006 96.9565 144.157 98.7118 144.633C100.467 145.11 100.073 147.265 102.86 146.699C106.143 146.03 112.283 130.681 113.482 128.97C114.68 127.259 113.482 125.422 112.047 124.469C110.613 123.516 111.283 113.519 111.283 113.519" stroke="white" stroke-width="0.75" stroke-miterlimit="10"/>
<path id="Vector_32" d="M94.9451 138.331C94.9451 138.331 98.3663 136.804 102.344 133.92" stroke="white" stroke-width="0.75" stroke-miterlimit="10"/>
<path id="Vector_33" d="M101.41 141.594C101.41 141.594 103.397 139.113 105.538 135.354" stroke="white" stroke-width="0.75" stroke-miterlimit="10"/>
<path id="Vector_34" d="M35.1467 123.499C35.1467 123.499 25.5494 124.518 17.8293 127.777C10.1092 131.036 9.29653 139.113 0.154297 141.59" stroke="white" stroke-width="0.75" stroke-linecap="round" stroke-linejoin="round"/>
<path id="Vector_35" d="M44.2891 119.621C44.2891 119.621 50.3311 114.741 57.2385 113.926C64.146 113.112 68.1361 114.753 76.2991 113.523" stroke="white" stroke-width="0.75" stroke-linecap="round" stroke-linejoin="round"/>
<path id="Vector_36" d="M80.7199 102.15C80.7199 102.15 72.3131 110.818 64.7759 113.796" stroke="white" stroke-width="0.75" stroke-linecap="round" stroke-linejoin="round"/>
<path id="Vector_37" d="M132.412 67.08C132.412 67.08 140.539 55.6739 150.29 52.8224C160.042 49.9709 162.11 47.4086 162.11 47.4086" stroke="white" stroke-width="0.75" stroke-linecap="round" stroke-linejoin="round"/>
<path id="Vector_38" d="M157.328 57.2463C157.328 57.2463 163.292 53.2297 165.934 40.1942C168.575 27.1587 170.366 9.21038 180.85 6.77844" stroke="white" stroke-width="0.75" stroke-linecap="round" stroke-linejoin="round"/>
</g>
<defs>
<clipPath id="clip0_171_395">
<rect width="181" height="147" fill="white"/>
</clipPath>
</defs>
</svg>
