<svg width="209" height="46" viewBox="0 0 209 46" fill="none" xmlns="http://www.w3.org/2000/svg">
<g clip-path="url(#clip0_1421_2115)">
<path d="M1.41976 17.1179C1.41976 17.1179 1.85533 14.7877 6.98437 13.399C12.1103 12.0137 14.9478 12.1751 15.86 12.9014C16.7722 13.6277 15.8 14.8348 14.973 15.1643C14.973 15.1643 17.315 15.3426 17.2488 16.6842C17.1951 17.7467 15.5696 18.6075 15.5696 18.6075C15.5696 18.6075 18.5397 18.5806 17.6906 20.4132C16.627 22.7097 6.17004 22.091 3.7365 21.2908C0.00572099 20.0702 1.41976 17.1179 1.41976 17.1179Z" stroke="white" stroke-linecap="round" stroke-linejoin="round"/>
</g>
<g clip-path="url(#clip1_1421_2115)">
<path d="M39.5211 29.9084C39.5211 29.9084 40.3007 27.6697 45.5799 27.0648C50.8554 26.4628 53.6368 27.0474 54.4299 27.9021C55.223 28.7568 54.081 29.8048 53.2141 30.0067C53.2141 30.0067 55.503 30.5337 55.2365 31.8502C55.0243 32.8928 53.2882 33.5004 53.2882 33.5004C53.2882 33.5004 56.2288 33.9186 55.1149 35.6033C53.7192 37.7147 43.4729 35.5368 41.1867 34.3811C37.6808 32.6156 39.5211 29.9084 39.5211 29.9084Z" stroke="white" stroke-linecap="round" stroke-linejoin="round"/>
</g>
<path d="M74.0988 13.8228C74.0988 13.8228 74.3266 11.3388 79.5638 9.3807C84.7981 7.42645 87.7867 7.31715 88.8136 7.98857C89.8405 8.65999 88.9404 10.02 88.1064 10.4464C88.1064 10.4464 90.5775 10.4033 90.6397 11.8154C90.6877 12.9338 89.0692 13.9951 89.0692 13.9951C89.0692 13.9951 92.1782 13.6756 91.4685 15.6787C90.5794 18.1891 79.5634 18.5668 76.9354 17.9672C72.907 17.0544 74.0988 13.8228 74.0988 13.8228Z" stroke="white" stroke-linecap="round" stroke-linejoin="round"/>
<g clip-path="url(#clip2_1421_2115)">
<path d="M109.098 30.4036C109.098 30.4036 110.06 28.1025 115.644 27.8066C121.223 27.5135 124.107 28.3062 124.885 29.2549C125.663 30.2036 124.396 31.2308 123.473 31.3872C123.473 31.3872 125.843 32.0878 125.478 33.4534C125.188 34.5347 123.326 35.0613 123.326 35.0613C123.326 35.0613 126.387 35.6896 125.109 37.3874C123.508 39.5152 112.886 36.5691 110.559 35.2083C106.991 33.1285 109.098 30.4036 109.098 30.4036Z" stroke="white" stroke-linecap="round" stroke-linejoin="round"/>
</g>
<path d="M155.794 9.09661C155.794 9.09661 156.618 5.64379 164.392 3.94656C172.161 2.25412 176.393 2.70559 177.703 3.85938C179.014 5.01317 177.47 6.74659 176.209 7.17821C176.209 7.17821 179.699 7.61813 179.5 9.61978C179.341 11.205 176.847 12.372 176.847 12.372C176.847 12.372 181.291 12.5517 179.885 15.2296C178.124 18.5856 162.53 16.8861 158.95 15.5091C153.461 13.4074 155.794 9.09661 155.794 9.09661Z" stroke="white" stroke-linecap="round" stroke-linejoin="round"/>
<path d="M181.538 32.5688C181.538 32.5688 182.513 29.1555 190.354 27.8019C198.19 26.4528 202.398 27.0899 203.656 28.3003C204.915 29.5106 203.296 31.1744 202.017 31.5502C202.017 31.5502 205.484 32.1431 205.198 34.1341C204.97 35.7108 202.426 36.767 202.426 36.767C202.426 36.767 206.858 37.1419 205.336 39.7554C203.429 43.0308 187.925 40.647 184.409 39.1138C179.017 36.7727 181.538 32.5688 181.538 32.5688Z" stroke="white" stroke-linecap="round" stroke-linejoin="round"/>
<defs>
<clipPath id="clip0_1421_2115">
<rect width="19" height="12" fill="white" transform="translate(0 11.1852)"/>
</clipPath>
<clipPath id="clip1_1421_2115">
<rect width="19.4445" height="13.5718" fill="white" transform="translate(38.4038 23.5197) rotate(8.61365)"/>
</clipPath>
<clipPath id="clip2_1421_2115">
<rect width="22.0733" height="15.9307" fill="white" transform="translate(107.881 23.0807) rotate(12.1165)"/>
</clipPath>
</defs>
</svg>
