<svg width="561" height="59" viewBox="0 0 561 59" fill="none" xmlns="http://www.w3.org/2000/svg">
<g clip-path="url(#clip0_1219_4839)">
<path d="M483.667 14.399C483.667 14.399 484.359 10.9037 492.505 8.82061C500.646 6.7426 505.153 6.9847 506.601 8.07414C508.05 9.16358 506.506 10.9743 505.193 11.4686C505.193 11.4686 508.912 11.7359 508.807 13.7483C508.722 15.3421 506.14 16.6333 506.14 16.6333C506.14 16.6333 510.857 16.593 509.509 19.3418C507.819 22.7866 491.211 21.8586 487.346 20.6582C481.421 18.8273 483.667 14.399 483.667 14.399Z" stroke="white" stroke-linecap="round" stroke-linejoin="round"/>
</g>
<g clip-path="url(#clip1_1219_4839)">
<path d="M326.667 33.399C326.667 33.399 327.358 29.9037 335.505 27.8206C343.646 25.7426 348.152 25.9847 349.601 27.0741C351.05 28.1636 349.506 29.9743 348.192 30.4686C348.192 30.4686 351.912 30.7359 351.807 32.7483C351.722 34.3421 349.14 35.6333 349.14 35.6333C349.14 35.6333 353.857 35.593 352.509 38.3418C350.819 41.7866 334.211 40.8586 330.346 39.6582C324.421 37.8273 326.667 33.399 326.667 33.399Z" stroke="white" stroke-linecap="round" stroke-linejoin="round"/>
</g>
<g clip-path="url(#clip2_1219_4839)">
<path d="M265.642 13.399C265.642 13.399 266.308 9.90366 274.153 7.82061C281.992 5.7426 286.332 5.9847 287.727 7.07414C289.122 8.16358 287.635 9.97427 286.371 10.4686C286.371 10.4686 289.953 10.7359 289.851 12.7483C289.769 14.3421 287.283 15.6333 287.283 15.6333C287.283 15.6333 291.826 15.593 290.527 18.3418C288.9 21.7866 272.907 20.8586 269.185 19.6582C263.479 17.8273 265.642 13.399 265.642 13.399Z" stroke="white" stroke-linecap="round" stroke-linejoin="round"/>
</g>
<g clip-path="url(#clip3_1219_4839)">
<path d="M390.743 13.4275C390.743 13.4275 390.994 9.95401 398.589 6.97213C406.179 3.99573 410.547 3.69931 412.071 4.58571C413.595 5.4721 412.324 7.41127 411.118 8.04578C411.118 8.04578 414.731 7.86663 414.869 9.83195C414.976 11.3887 412.644 12.946 412.644 12.946C412.644 12.946 417.181 12.3507 416.209 15.1772C414.992 18.7193 398.893 19.7769 395.03 19.0677C389.108 17.9896 390.743 13.4275 390.743 13.4275Z" stroke="white" stroke-linecap="round" stroke-linejoin="round"/>
</g>
<g clip-path="url(#clip4_1219_4839)">
<path d="M437.959 33.4443C437.959 33.4443 439.065 30.1421 447.163 29.1415C455.255 28.1452 459.559 28.9437 460.815 30.1811C462.071 31.4185 460.358 32.9809 459.032 33.2958C459.032 33.2958 462.576 34.0202 462.221 35.9581C461.938 37.4927 459.292 38.4215 459.292 38.4215C459.292 38.4215 463.835 38.9725 462.191 41.4688C460.132 44.5973 444.275 41.6201 440.709 39.9729C435.241 37.4567 437.959 33.4443 437.959 33.4443Z" stroke="white" stroke-linecap="round" stroke-linejoin="round"/>
</g>
<g clip-path="url(#clip5_1219_4839)">
<path d="M61.6667 30.399C61.6667 30.399 62.3585 26.9037 70.5046 24.8206C78.6457 22.7426 83.1524 22.9847 84.6011 24.0741C86.0499 25.1636 84.5059 26.9743 83.1925 27.4686C83.1925 27.4686 86.9121 27.7359 86.8069 29.7483C86.7216 31.3421 84.14 32.6333 84.14 32.6333C84.14 32.6333 88.8572 32.593 87.5087 35.3418C85.8193 38.7866 69.2112 37.8586 65.3462 36.6582C59.4209 34.8273 61.6667 30.399 61.6667 30.399Z" stroke="white" stroke-linecap="round" stroke-linejoin="round"/>
</g>
<g clip-path="url(#clip6_1219_4839)">
<path d="M0.642068 10.399C0.642068 10.399 1.30824 6.90366 9.15265 4.82061C16.9922 2.7426 21.332 2.9847 22.7271 4.07414C24.1222 5.16358 22.6354 6.97427 21.3706 7.46856C21.3706 7.46856 24.9525 7.73587 24.8511 9.74831C24.7691 11.3421 22.283 12.6333 22.283 12.6333C22.283 12.6333 26.8255 12.593 25.527 15.3418C23.9001 18.7866 7.9072 17.8586 4.18533 16.6582C-1.52058 14.8273 0.642068 10.399 0.642068 10.399Z" stroke="white" stroke-linecap="round" stroke-linejoin="round"/>
</g>
<g clip-path="url(#clip7_1219_4839)">
<path d="M125.727 10.285C125.727 10.285 125.977 6.81155 133.572 3.82967C141.163 0.853276 145.53 0.556857 147.054 1.44325C148.578 2.32965 147.307 4.26881 146.101 4.90333C146.101 4.90333 149.714 4.72418 149.852 6.68949C149.959 8.2462 147.627 9.80358 147.627 9.80358C147.627 9.80358 152.164 9.20824 151.192 12.0347C149.975 15.5769 133.876 16.6344 130.013 15.9252C124.091 14.8472 125.727 10.285 125.727 10.285Z" stroke="white" stroke-linecap="round" stroke-linejoin="round"/>
</g>
<path d="M172.942 47.838C172.942 47.838 174.048 44.493 182.146 43.4794C190.238 42.4702 194.542 43.279 195.798 44.5325C197.054 45.786 195.341 47.3686 194.015 47.6876C194.015 47.6876 197.559 48.4215 197.204 50.3845C196.921 51.939 194.276 52.8799 194.276 52.8799C194.276 52.8799 198.818 53.438 197.174 55.9668C195.115 59.1359 179.258 56.12 175.692 54.4514C170.224 51.9025 172.942 47.838 172.942 47.838Z" stroke="white" stroke-width="0.75" stroke-linecap="round" stroke-linejoin="round"/>
<path d="M534.564 28.9243C534.564 28.9243 535.905 25.7106 544.054 25.2967C552.197 24.8867 556.432 25.9935 557.595 27.3184C558.759 28.6432 556.937 30.0778 555.593 30.2963C555.593 30.2963 559.075 31.2745 558.581 33.1817C558.188 34.6919 555.482 35.4275 555.482 35.4275C555.482 35.4275 559.973 36.3046 558.153 38.6759C555.874 41.6477 540.273 37.5345 536.835 35.6343C531.563 32.7302 534.564 28.9243 534.564 28.9243Z" stroke="white" stroke-width="0.75" stroke-linecap="round" stroke-linejoin="round"/>
<defs>
<clipPath id="clip0_1219_4839">
<rect width="27" height="15" fill="white" transform="translate(483 6.99988)"/>
</clipPath>
<clipPath id="clip1_1219_4839">
<rect width="27" height="15" fill="white" transform="translate(326 25.9999)"/>
</clipPath>
<clipPath id="clip2_1219_4839">
<rect width="26" height="15" fill="white" transform="translate(265 5.99988)"/>
</clipPath>
<clipPath id="clip3_1219_4839">
<rect width="26.1874" height="14.665" fill="white" transform="translate(389.222 6.32581) rotate(-6.98227)"/>
</clipPath>
<clipPath id="clip4_1219_4839">
<rect width="26.1874" height="14.665" fill="white" transform="translate(438.251 26.1874) rotate(7.40986)"/>
</clipPath>
<clipPath id="clip5_1219_4839">
<rect width="27" height="15" fill="white" transform="translate(61 22.9999)"/>
</clipPath>
<clipPath id="clip6_1219_4839">
<rect width="26" height="15" fill="white" transform="translate(0 2.99988)"/>
</clipPath>
<clipPath id="clip7_1219_4839">
<rect width="26.1874" height="14.665" fill="white" transform="translate(124.205 3.18335) rotate(-6.98227)"/>
</clipPath>
</defs>
</svg>
