<svg width="311" height="113" viewBox="0 0 311 113" fill="none" xmlns="http://www.w3.org/2000/svg">
<g clip-path="url(#clip0_1219_4838)">
<path d="M139.42 93.9328C139.42 93.9328 139.855 91.6026 144.984 90.2139C150.11 88.8285 152.948 88.9899 153.86 89.7162C154.772 90.4425 153.8 91.6496 152.973 91.9792C152.973 91.9792 155.315 92.1574 155.249 93.499C155.195 94.5615 153.57 95.4223 153.57 95.4223C153.57 95.4223 156.54 95.3954 155.691 97.228C154.627 99.5246 144.17 98.9059 141.737 98.1056C138.006 96.885 139.42 93.9328 139.42 93.9328Z" stroke="white" stroke-linecap="round" stroke-linejoin="round"/>
</g>
<g clip-path="url(#clip1_1219_4838)">
<path d="M39.4198 105.933C39.4198 105.933 39.8554 103.603 44.9844 102.214C50.1103 100.829 52.9478 100.99 53.86 101.716C54.7722 102.443 53.8 103.65 52.9731 103.979C52.9731 103.979 55.3151 104.157 55.2488 105.499C55.1951 106.562 53.5696 107.422 53.5696 107.422C53.5696 107.422 56.5397 107.395 55.6907 109.228C54.627 111.525 44.1701 110.906 41.7365 110.106C38.0058 108.885 39.4198 105.933 39.4198 105.933Z" stroke="white" stroke-linecap="round" stroke-linejoin="round"/>
</g>
<g clip-path="url(#clip2_1219_4838)">
<path d="M0.419788 92.9328C0.419788 92.9328 0.855361 90.6026 5.9844 89.2139C11.1103 87.8285 13.9478 87.9899 14.86 88.7162C15.7722 89.4425 14.8 90.6496 13.9731 90.9792C13.9731 90.9792 16.3151 91.1574 16.2488 92.499C16.1951 93.5615 14.5696 94.4223 14.5696 94.4223C14.5696 94.4223 17.5397 94.3954 16.6907 96.228C15.627 98.5246 5.17007 97.9059 2.73653 97.1056C-0.994248 95.885 0.419788 92.9328 0.419788 92.9328Z" stroke="white" stroke-linecap="round" stroke-linejoin="round"/>
</g>
<g clip-path="url(#clip3_1219_4838)">
<path d="M79.9718 93.1267C79.9718 93.1267 80.1311 90.9176 84.9614 89.0212C89.7889 87.1282 92.5666 86.9397 93.5359 87.5034C94.5053 88.0672 93.6968 89.3005 92.93 89.704C92.93 89.704 95.2277 89.5901 95.3153 90.84C95.3836 91.8301 93.9005 92.8205 93.9005 92.8205C93.9005 92.8205 96.7857 92.4419 96.1678 94.2395C95.3938 96.4923 85.155 97.1649 82.6978 96.7139C78.9314 96.0282 79.9718 93.1267 79.9718 93.1267Z" stroke="white" stroke-linecap="round" stroke-linejoin="round"/>
</g>
<g clip-path="url(#clip4_1219_4838)">
<path d="M110.001 105.857C110.001 105.857 110.704 103.757 115.854 103.121C121.001 102.487 123.738 102.995 124.537 103.782C125.336 104.569 124.246 105.562 123.403 105.763C123.403 105.763 125.657 106.223 125.431 107.456C125.251 108.432 123.568 109.023 123.568 109.023C123.568 109.023 126.457 109.373 125.412 110.961C124.102 112.95 114.017 111.057 111.75 110.009C108.272 108.409 110.001 105.857 110.001 105.857Z" stroke="white" stroke-linecap="round" stroke-linejoin="round"/>
</g>
<path d="M171.44 102.983C171.44 102.983 172.293 100.939 177.476 100.675C182.655 100.415 185.348 101.119 186.088 101.961C186.828 102.804 185.67 103.716 184.814 103.855C184.814 103.855 187.029 104.477 186.715 105.69C186.465 106.651 184.744 107.119 184.744 107.119C184.744 107.119 187.6 107.676 186.443 109.184C184.993 111.074 175.072 108.459 172.885 107.25C169.532 105.403 171.44 102.983 171.44 102.983Z" stroke="white" stroke-width="0.75" stroke-linecap="round" stroke-linejoin="round"/>
<g clip-path="url(#clip5_1219_4838)">
<path d="M244.116 32.5162C244.116 32.5162 233.273 32.2585 228.11 28.6504C222.947 25.0424 225.399 21.5632 223.334 20.79" stroke="white" stroke-width="0.75" stroke-miterlimit="10"/>
<path d="M217.138 25.9445C217.138 25.9445 224.883 26.2022 225.916 29.2948C226.948 32.3874 226.432 35.2223 223.334 36.7686C220.236 38.3149 217.138 38.3149 215.847 37.284C214.557 36.2532 212.749 26.2022 217.138 25.9445Z" stroke="white" stroke-width="0.75" stroke-miterlimit="10"/>
<path d="M222.56 40.6344C222.56 40.6344 224.108 46.0465 238.049 47.5928" stroke="white" stroke-width="0.75" stroke-miterlimit="10"/>
<path d="M249.15 27.7484C249.15 27.7484 247.601 30.3256 243.729 33.9336C239.856 37.5417 233.402 48.8813 242.696 60.2208C251.99 71.5604 272.384 75.9416 284.518 67.1792C296.651 58.4168 294.328 51.2007 292.779 51.4584" stroke="white" stroke-width="0.75" stroke-miterlimit="10"/>
<path d="M290.197 57.3859C290.197 57.3859 293.037 53.7779 292.521 50.6853C291.85 46.6649 288.907 50.6853 283.614 50.6853" stroke="white" stroke-width="0.75" stroke-miterlimit="10"/>
<path d="M263.197 46.7268C263.197 46.7268 267.309 56.1231 281.704 58.8859C281.704 58.8859 286.686 59.9915 287.518 56.9504C287.518 56.9504 276.166 54.1877 269.524 43.4073" stroke="white" stroke-width="0.75" stroke-miterlimit="10"/>
<path d="M287.797 56.953C287.797 56.953 289.18 56.4015 288.904 54.7418C288.628 53.0821 285.305 55.0176 279.768 44.7913C274.23 34.5651 273.678 32.0781 267.033 30.9725C267.033 30.9725 253.19 30.421 255.96 44.5156C258.728 58.6102 277.832 61.3729 280.323 58.6102" stroke="white" stroke-width="0.75" stroke-miterlimit="10"/>
<path d="M270.802 32.0421C270.51 28.8619 267.221 27.7485 267.221 27.7485C267.221 27.7485 267.738 27.7485 268.254 26.9754C268.77 26.2022 267.996 25.6868 267.996 25.6868C267.996 25.6868 267.738 26.2022 266.447 25.9445" stroke="white" stroke-width="0.75" stroke-miterlimit="10"/>
<path d="M267.996 25.429C267.996 25.429 273.675 23.3673 272.643 15.6358C271.61 7.90423 266.963 7.64651 264.381 6.10021C261.8 4.5539 261.8 2.74988 261.025 2.74988C260.251 2.74988 259.735 4.93275 261.025 6.54864C261.025 6.54864 260.251 6.87336 257.927 4.81162C255.604 2.74988 255.088 4.03847 255.088 4.81162C255.088 6.20072 255.862 7.3888 255.862 7.3888" stroke="white" stroke-width="0.75" stroke-miterlimit="10"/>
<path d="M253.41 7.36304C253.41 7.36304 252.145 7.90424 251.422 8.98666C250.699 10.0691 251.183 11.7066 250.641 12.9694" stroke="white" stroke-width="0.75" stroke-miterlimit="10"/>
<path d="M248.1 16.1327C248.1 16.1327 246.685 16.5481 246.687 18.7876C246.69 21.0272 248.102 21.2282 248.102 21.2282" stroke="white" stroke-width="0.75" stroke-linecap="round" stroke-linejoin="round"/>
<path d="M249.682 18.7773C249.682 18.7773 250.152 22.0684 242.551 22.9395" stroke="white" stroke-width="0.75" stroke-linecap="round" stroke-linejoin="round"/>
<path d="M263.672 18.2412C263.672 18.2412 262.192 19.919 262.931 23.6816C263.672 27.4417 262.729 31.2688 256.34 29.5911C249.95 27.9134 246.62 24.7563 242.213 24.8233C237.773 24.8903 240.564 26.4212 240.564 26.4212" stroke="white" stroke-width="0.75" stroke-linecap="round" stroke-linejoin="round"/>
<path d="M250.353 27.5062C250.353 27.5062 244.668 28.5808 240.716 27.5062C236.766 26.4315 236.227 24.6197 238.447 23.344C240.667 22.0683 250.017 23.8131 253.583 26.0964" stroke="white" stroke-width="0.75" stroke-linecap="round" stroke-linejoin="round"/>
<path d="M261.655 19.7849C261.655 19.7849 263 17.4345 266.364 17.7026" stroke="white" stroke-width="0.75" stroke-linecap="round" stroke-linejoin="round"/>
<path d="M263.011 24.1172C263.011 24.1172 268.649 22.1018 268.566 18.6433C268.484 15.1847 265.388 13.574 262.631 16.2594C259.874 18.9448 257.832 18.7696 256.712 17.4681C255.064 15.5532 253.583 17.7026 253.516 17.7696" stroke="white" stroke-width="0.75" stroke-linecap="round" stroke-linejoin="round"/>
<path d="M254.76 13.507L255.134 13.4836C255.123 13.3131 254.999 13.1713 254.831 13.1388L254.76 13.507ZM254.76 13.507C255.134 13.4836 255.134 13.4837 255.134 13.4839L255.134 13.4843L255.134 13.4856L255.134 13.4895L255.135 13.5032C255.136 13.5148 255.137 13.5313 255.137 13.5525C255.139 13.5948 255.141 13.6556 255.142 13.7322C255.144 13.8851 255.142 14.1017 255.128 14.3595C255.1 14.8726 255.021 15.5614 254.816 16.242C254.612 16.9189 254.273 17.6206 253.701 18.1225C253.116 18.6364 252.322 18.9103 251.283 18.7809C250.258 18.6534 249.519 18.2415 249.001 17.6777C248.489 17.1204 248.215 16.4382 248.071 15.7969C247.927 15.155 247.911 14.5349 247.928 14.0793C247.937 13.8504 247.955 13.6604 247.971 13.5265C247.978 13.4594 247.986 13.4063 247.991 13.3691C247.994 13.3505 247.996 13.336 247.998 13.3256L248 13.3133L248.001 13.3097L248.001 13.3084L248.001 13.308C248.001 13.3078 248.001 13.3076 248.37 13.373L248.001 13.3076C248.031 13.1402 248.169 13.0136 248.339 12.9993C250.344 12.83 251.96 12.8637 253.079 12.9402C253.638 12.9785 254.073 13.0275 254.369 13.0673C254.518 13.0871 254.631 13.1047 254.709 13.1175C254.748 13.1238 254.777 13.129 254.798 13.1327L254.822 13.137L254.828 13.1382L254.83 13.1386L254.831 13.1387L254.831 13.1388C254.831 13.1388 254.831 13.1388 254.76 13.507Z" stroke="white" stroke-width="0.75" stroke-linecap="round" stroke-linejoin="round"/>
<path d="M251.781 17.901C251.657 17.901 251.528 17.8933 251.396 17.8752C250.554 17.7696 249.935 17.4371 249.506 16.8573C248.801 15.9063 248.801 14.5455 248.853 13.8729C249.638 13.8162 250.412 13.7878 251.166 13.7878C252.622 13.7878 253.678 13.8961 254.228 13.9682C254.215 14.7491 254.083 16.4063 253.237 17.3057C252.86 17.7052 252.382 17.901 251.783 17.901H251.781Z" fill="#D9D9D9"/>
<path d="M261.957 13.4425L262.332 13.4191C262.321 13.2486 262.196 13.1069 262.029 13.0744L261.957 13.4425ZM261.957 13.4425C262.332 13.4191 262.332 13.4193 262.332 13.4195L262.332 13.4199L262.332 13.4211L262.332 13.4251L262.333 13.4387C262.333 13.4503 262.334 13.4669 262.335 13.488C262.337 13.5303 262.338 13.5912 262.339 13.6677C262.341 13.8207 262.34 14.0372 262.325 14.2951C262.297 14.8081 262.218 15.4969 262.013 16.1775C261.809 16.8545 261.47 17.5561 260.899 18.0581C260.314 18.572 259.519 18.8459 258.48 18.7164C257.456 18.5889 256.717 18.177 256.199 17.6133C255.687 17.056 255.412 16.3738 255.269 15.7325C255.125 15.0906 255.108 14.4704 255.126 14.0149C255.135 13.786 255.152 13.596 255.168 13.462C255.176 13.395 255.183 13.3418 255.189 13.3047C255.192 13.2861 255.194 13.2715 255.196 13.2612L255.198 13.2489L255.198 13.2452L255.198 13.244L255.199 13.2435C255.199 13.2433 255.199 13.2432 255.568 13.3085L255.199 13.2432C255.228 13.0757 255.367 12.9492 255.536 12.9348C257.541 12.7656 259.158 12.7992 260.276 12.8758C260.835 12.914 261.27 12.963 261.567 13.0028C261.715 13.0227 261.829 13.0402 261.906 13.053C261.945 13.0594 261.975 13.0646 261.995 13.0682L262.019 13.0726L262.026 13.0738L262.028 13.0742L262.028 13.0743L262.028 13.0743C262.029 13.0744 262.029 13.0744 261.957 13.4425Z" stroke="white" stroke-width="0.75" stroke-linecap="round" stroke-linejoin="round"/>
<path d="M258.978 17.8367C258.854 17.8367 258.725 17.829 258.594 17.8109C257.752 17.7052 257.132 17.3728 256.704 16.7929C255.999 15.842 255.999 14.4812 256.051 13.8086C256.835 13.7519 257.61 13.7235 258.364 13.7235C259.82 13.7235 260.876 13.8318 261.426 13.9039C261.413 14.6848 261.281 16.3419 260.434 17.2414C260.057 17.6408 259.58 17.8367 258.981 17.8367H258.978Z" fill="#D9D9D9"/>
<path d="M254.76 13.507L255.263 13.6075C255.263 13.6075 255.33 15.9553 254.693 16.7954L254.032 17.1253C254.032 17.1253 254.995 15.5533 254.757 13.5044L254.76 13.507Z" fill="white" stroke="white" stroke-width="0.75" stroke-linecap="round" stroke-linejoin="round"/>
<path d="M262.007 13.2858L262.578 13.5667C262.578 13.5667 262.585 15.4686 261.808 16.8758L260.807 17.5226C260.807 17.5226 262.177 15.9403 262.01 13.2858H262.007Z" fill="white" stroke="white" stroke-width="0.75" stroke-linecap="round" stroke-linejoin="round"/>
<path d="M255.266 6.57949C255.266 6.57949 254.052 5.87334 253.407 4.70072C252.762 3.52811 251.017 5.02029 252.922 7.36552" stroke="white" stroke-width="0.75" stroke-miterlimit="10"/>
<path d="M222.947 26.9676C222.947 26.9676 224.367 9.01238 222.947 4.85024C221.527 0.6881 218.171 -0.0850529 217.396 0.172665C216.622 0.430382 217.138 4.08482 221.785 5.0925" stroke="white" stroke-width="0.75" stroke-miterlimit="10"/>
<path d="M217.099 2.18286C217.099 2.18286 217.394 6.61818 217.652 8.42221C217.91 10.2262 219.673 14.5275 218.685 25.947" stroke="white" stroke-width="0.75" stroke-miterlimit="10"/>
<path d="M218.253 38.3226C218.253 38.3226 218.426 48.8813 217.394 52.4893C216.361 56.0974 216.103 58.1591 216.103 58.1591C216.103 58.1591 218.101 61.7363 218.264 68.5812C218.426 75.4262 218.264 83.6191 218.264 83.6191C218.264 83.6191 219.717 85.2195 224.88 83.9309C224.88 83.9309 224.622 80.0651 224.364 77.488C224.106 74.9108 223.073 69.4987 223.331 65.6329C223.59 61.7672 225.846 62.1151 226.396 60.3961C226.946 58.6771 224.121 56.8113 222.823 54.3939C221.524 51.9765 222.944 37.2943 222.944 37.2943" stroke="white" stroke-width="0.75" stroke-miterlimit="10"/>
<path d="M221.731 54.3914C221.731 54.3914 220.128 55.0666 221.731 57.386C223.334 59.7055 224.95 60.8626 224.95 60.8626" stroke="white" stroke-width="0.75" stroke-miterlimit="10"/>
<path d="M251.99 67.6947C251.99 67.6947 252.292 71.2641 251.473 74.1376C251.125 75.3592 237.533 78.0034 237.275 78.7766C237.016 79.5497 237.016 80.0652 239.082 80.3229C241.147 80.5806 239.598 82.9 240.114 83.9309C240.631 84.9618 242.696 84.1886 243.729 84.7041C244.761 85.2195 244.245 86.5081 246.052 86.5081C248.182 86.5081 253.934 77.7637 254.897 76.8514C255.86 75.9391 255.346 74.6531 254.571 73.8799C253.797 73.1068 254.055 68.7256 254.055 68.7256" stroke="white" stroke-width="0.75" stroke-miterlimit="10"/>
<path d="M242.18 80.3228C242.18 80.3228 244.503 79.8074 247.343 78.5188" stroke="white" stroke-width="0.75" stroke-miterlimit="10"/>
<path d="M245.794 83.1578C245.794 83.1578 247.343 81.8692 249.15 79.8075" stroke="white" stroke-width="0.75" stroke-miterlimit="10"/>
<path d="M264.123 71.5604C264.123 71.5604 264.095 75.5422 263.865 78.5188C263.767 79.7842 251.311 86.1627 251.213 86.9719C251.115 87.7812 251.215 88.2863 253.291 88.1291C255.366 87.9719 254.311 90.5516 255.021 91.4614C255.73 92.3711 257.602 91.2011 258.717 91.5026C259.833 91.8041 259.582 93.1675 261.353 92.8092C263.439 92.3866 267.34 82.6758 268.102 81.5934C268.863 80.511 268.102 79.3486 267.19 78.7456C266.279 78.1425 266.705 71.8181 266.705 71.8181" stroke="white" stroke-width="0.75" stroke-miterlimit="10"/>
<path d="M256.324 87.5158C256.324 87.5158 258.498 86.5494 261.025 84.7247" stroke="white" stroke-width="0.75" stroke-miterlimit="10"/>
<path d="M260.432 89.5801C260.432 89.5801 261.694 88.0106 263.055 85.6318" stroke="white" stroke-width="0.75" stroke-miterlimit="10"/>
<path d="M218.331 78.1323C218.331 78.1323 212.233 78.7766 207.328 80.8384C202.423 82.9001 201.907 88.0106 196.098 89.5776" stroke="white" stroke-width="0.75" stroke-linecap="round" stroke-linejoin="round"/>
<path d="M224.139 75.6788C224.139 75.6788 227.978 72.5914 232.367 72.0759C236.756 71.5605 239.291 72.5991 244.477 71.8208" stroke="white" stroke-width="0.75" stroke-linecap="round" stroke-linejoin="round"/>
<path d="M247.286 64.6252C247.286 64.6252 241.945 70.1095 237.156 71.9934" stroke="white" stroke-width="0.75" stroke-linecap="round" stroke-linejoin="round"/>
<path d="M280.129 42.4384C280.129 42.4384 285.292 35.2223 291.488 33.4182C297.684 31.6142 298.998 29.9932 298.998 29.9932" stroke="white" stroke-width="0.75" stroke-linecap="round" stroke-linejoin="round"/>
<path d="M295.96 36.2171C295.96 36.2171 299.749 33.676 301.427 25.429C303.105 17.1821 304.244 5.82703 310.904 4.28845" stroke="white" stroke-width="0.75" stroke-linecap="round" stroke-linejoin="round"/>
</g>
<defs>
<clipPath id="clip0_1219_4838">
<rect width="17" height="10" fill="white" transform="translate(139 89)"/>
</clipPath>
<clipPath id="clip1_1219_4838">
<rect width="17" height="10" fill="white" transform="translate(39 101)"/>
</clipPath>
<clipPath id="clip2_1219_4838">
<rect width="17" height="10" fill="white" transform="translate(0 88)"/>
</clipPath>
<clipPath id="clip3_1219_4838">
<rect width="16.655" height="9.3268" fill="white" transform="translate(79.0043 88.6101) rotate(-6.98227)"/>
</clipPath>
<clipPath id="clip4_1219_4838">
<rect width="16.655" height="9.3268" fill="white" transform="translate(110.186 101.242) rotate(7.40986)"/>
</clipPath>
<clipPath id="clip5_1219_4838">
<rect width="115" height="93" fill="white" transform="translate(196)"/>
</clipPath>
</defs>
</svg>
