<svg width="203" height="162" viewBox="0 0 203 162" fill="none" xmlns="http://www.w3.org/2000/svg">
<g clip-path="url(#clip0_652_316)">
<path d="M109.257 2.29456L105.093 14.837L98.798 17.0739L102.264 23.2357L98.224 28.0109L102.052 32.6402L98.0528 37.6978L102.724 42.3271L98.0528 47.8701L102.229 52.7977L98.0908 58.0615L102.001 63.7347L98.0528 69.6331L102.302 76.3533L95.7822 81.0016L102.302 85.6499L98.0528 92.3669L102.001 98.2654L98.0908 103.939L102.229 109.202L98.0528 114.13L102.724 119.673L98.0528 124.305L102.052 129.36L98.224 133.992L102.264 138.767L98.798 144.926L105.093 147.166L109.257 159.709L113.424 147.166L119.718 144.926L116.252 138.767L120.292 133.992L116.465 129.36L120.464 124.305L115.792 119.673L120.464 114.13L116.287 109.202L120.425 103.939L116.512 98.2654L120.464 92.3669L116.211 85.6499L122.734 81.0016L116.211 76.3533L120.464 69.6331L116.512 63.7347L120.425 58.0615L116.287 52.7977L120.464 47.8701L115.792 42.3271L120.464 37.6978L116.465 32.6402L120.292 28.0109L116.252 23.2357L119.718 17.0739L113.424 14.837L109.257 2.29456Z" stroke="black" stroke-miterlimit="10"/>
<path d="M144.27 42.1177C154.164 42.1177 161.521 47.0674 164.692 55.5708H159.492C157.018 49.6692 151.817 45.9886 144.27 45.9886C134.566 45.9886 127.146 53.1594 127.146 64.7722C127.146 76.385 134.566 83.4923 144.27 83.4923C151.817 83.4923 157.018 79.8118 159.492 74.0371H164.692C161.521 82.4135 154.164 87.3633 144.27 87.3633C131.966 87.3633 122.579 78.0984 122.579 64.7722C122.579 51.446 131.966 42.1177 144.27 42.1177Z" fill="black"/>
<path d="M177.947 66.4856V86.9826H173.508V42.6254H177.947V63.3762L197.165 42.6254H202.81L182.07 64.7722L203 86.9826H197.165L177.947 66.4856Z" fill="black"/>
<path d="M120.797 101.226H121.97L126.204 110.713L130.437 101.226H131.626V112.172H130.517V103.431L126.616 112.172H125.807L121.907 103.463V112.172H120.797V101.226Z" fill="black"/>
<path d="M153.206 112.172H149.369V101.083H153.095C155.426 101.083 156.536 102.32 156.536 103.875C156.536 105.335 155.616 106.144 154.554 106.445C155.791 106.667 156.79 107.809 156.79 109.206C156.79 110.871 155.537 112.172 153.206 112.172ZM153.016 102.019H150.479V105.985H153.064C154.57 105.985 155.41 105.224 155.41 103.986C155.41 102.749 154.617 102.019 153.016 102.019ZM153.079 106.905H150.479V111.236H153.127C154.728 111.236 155.68 110.427 155.68 109.094C155.68 107.762 154.665 106.905 153.079 106.905Z" fill="black"/>
<path d="M174.054 101.08H175.164V112.169H174.054V101.08Z" fill="black"/>
<path d="M199.331 109.539H194.289L193.322 112.172H192.148L196.192 101.226H197.444L201.472 112.172H200.298L199.331 109.539ZM196.81 102.622L194.622 108.619H198.998L196.81 102.622Z" fill="black"/>
<mask id="mask0_652_316" style="mask-type:luminance" maskUnits="userSpaceOnUse" x="0" y="33" width="103" height="101">
<path d="M101.538 33.2906L98.0529 37.6978L102.724 42.3271L98.0529 47.8701L102.229 52.7977L98.091 58.0615L102.001 63.7347L98.0529 69.6331L102.302 76.3533L95.7823 81.0016L102.302 85.6499L98.0529 92.3669L102.001 98.2654L98.091 103.939L102.229 109.202L98.0529 114.13L102.724 119.673L98.0529 124.305L102.052 129.36L98.2242 133.992H0V33.2906H101.538Z" fill="white"/>
</mask>
<g mask="url(#mask0_652_316)">
<path d="M52.6003 41.1626C47.4534 42.73 42.6205 45.4492 38.0953 49.3138C33.57 53.1816 29.7995 57.6807 26.7805 62.8145C26.2763 63.6712 25.8577 64.4359 25.5215 65.1117C25.1854 65.7875 24.8334 66.5871 24.4687 67.5136C24.1008 68.4401 23.8249 69.2809 23.6442 70.0297C23.4603 70.7785 23.3683 71.5463 23.3588 72.3364C23.3524 73.1264 23.4729 73.8276 23.7203 74.4464C24.6368 74.9255 25.9021 74.862 27.513 74.2528C29.124 73.6436 30.7952 72.7108 32.5203 71.4543C34.2486 70.201 35.9833 68.7891 37.7338 67.2248C39.4811 65.6606 40.9842 64.2201 42.2495 62.9065C43.5116 61.5929 44.4693 60.5173 45.1131 59.6797C45.1829 59.6892 45.2653 59.6892 45.3573 59.6797C45.4492 59.6733 45.6363 59.6797 45.9249 59.6955C46.2103 59.7114 46.4894 59.7368 46.7558 59.7717C47.0221 59.8034 47.3424 59.8447 47.7166 59.8891C48.0908 59.9335 48.4175 59.9938 48.6965 60.0636C48.9756 60.1366 49.2547 60.2254 49.5305 60.3333C49.8064 60.4412 50.0253 60.5586 50.1902 60.6887C50.9164 61.2566 51.3128 62.0657 51.3825 63.1223C51.4491 64.1789 51.3318 65.1466 51.0242 66.0255C50.7166 66.9044 50.3392 67.6849 49.8952 68.3639C48.8805 69.8552 47.6374 71.3433 46.1723 72.8345C44.7072 74.3258 42.9916 75.7536 41.035 77.1306C39.0752 78.5045 37.0171 79.5992 34.8543 80.4178C32.6947 81.2332 30.4273 81.744 28.0521 81.9471C25.6769 82.1502 23.3334 81.8138 21.0216 80.9413C20.8123 80.8778 20.5967 80.7985 20.3747 80.697C20.1527 80.5954 19.9402 80.4971 19.7341 80.3987C17.9709 79.4469 16.6073 78.0571 15.6401 76.2295C14.6729 74.4019 14.1306 72.4157 14.0165 70.274C13.9023 68.1291 14.0926 65.9303 14.5873 63.6807C15.082 61.4279 15.8304 59.318 16.8325 57.3476C18.3959 54.346 20.1876 51.611 22.2076 49.1425C24.2277 46.6739 26.4887 44.4656 28.9876 42.5174C31.4865 40.5693 34.2772 38.9765 37.3564 37.739C40.4356 36.5048 43.7178 35.6957 47.1966 35.3181L47.2505 35.3245L47.3044 35.3308C48.2906 35.2325 49.4481 35.3213 50.7673 35.5942C52.0897 35.867 53.1679 36.2763 54.0051 36.8221C54.1383 36.9109 54.2588 37.0283 54.3698 37.1711C54.4776 37.3139 54.5759 37.463 54.6679 37.6216C54.9374 38.3514 54.8042 39.0907 54.2588 39.83C53.7133 40.5724 53.1647 41.0167 52.6034 41.169L52.6003 41.1626Z" fill="black"/>
<path d="M65.846 34.8644C65.7192 36.4667 65.494 38.0912 65.1642 39.738C64.8344 41.3879 64.5078 42.7966 64.1812 43.9674C63.8545 45.1382 63.344 46.5724 62.6463 48.2667C61.9486 49.961 61.4254 51.2112 61.0734 52.0107C60.7214 52.8135 60.0967 54.1398 59.1992 55.9927C58.3018 57.8457 57.7088 59.0673 57.4202 59.6574C56.8811 60.8029 56.4657 61.6786 56.1739 62.2846C55.8822 62.8906 55.6063 63.4364 55.3494 63.9186C55.0894 64.4009 54.8833 64.769 54.7247 65.026C54.5661 65.283 54.2839 65.7431 53.878 66.4094C53.4689 67.0757 53.0408 67.7832 52.5873 68.5352C63.8038 56.9954 73.9833 47.5845 83.1226 40.3027C83.2019 40.2393 83.3636 40.1124 83.6046 39.922C83.8456 39.7316 84.0327 39.5983 84.1691 39.5222C84.3055 39.446 84.4767 39.3667 84.686 39.2842C84.8953 39.1986 85.1078 39.17 85.3202 39.1986C86.9058 39.2462 87.743 39.7919 87.8318 40.8294C88.1997 41.0579 88.39 41.3657 88.3963 41.7527C88.4026 42.1398 88.3138 42.4952 88.1299 42.822C87.9428 43.1488 87.7082 43.5327 87.4196 43.9738C87.131 44.4148 86.9566 44.7258 86.8995 44.9003C85.3393 49.923 82.907 55.9483 79.6026 62.9763C76.2951 70.0043 73.7137 74.8906 71.8586 77.6351C71.7349 77.7652 71.5573 77.9397 71.3353 78.1491C71.1102 78.3617 70.9453 78.5235 70.8406 78.6378C70.736 78.7551 70.5679 78.8789 70.3332 79.0153C70.0986 79.1518 69.921 79.2025 69.7973 79.1708C69.6768 79.1359 69.5087 79.0883 69.2994 79.028C68.9284 79.0915 68.6113 79.1073 68.3449 79.0756C68.0785 79.0439 67.8597 78.9677 67.6948 78.8567C67.5267 78.7456 67.3904 78.6251 67.2794 78.5045C67.1684 78.3807 67.0733 78.2031 66.994 77.9746C66.9147 77.743 66.8576 77.5431 66.8227 77.3749C66.791 77.2036 66.7561 76.972 66.7213 76.6737C66.6864 76.3755 66.642 76.1312 66.5944 75.944C66.8418 74.2116 67.1208 72.6219 67.4253 71.1719C67.7297 69.7219 67.9771 68.678 68.1642 68.0403C68.3513 67.4025 68.6493 66.457 69.0584 65.2037C69.4643 63.9504 69.7275 63.1476 69.8417 62.7954C66.4327 65.5337 63.3503 67.7959 60.6009 69.5855C57.8483 71.375 54.9403 72.8535 51.8675 74.0148C51.0207 74.1291 50.3263 74.202 49.7808 74.2242C49.2354 74.2496 48.6614 74.1322 48.062 73.8752C47.4627 73.6182 47.0377 73.1804 46.7872 72.5616C46.2386 71.137 46.283 69.1762 46.9172 66.6854C47.8337 63.6394 48.9151 60.6728 50.1582 57.7759C51.3981 54.8822 52.86 51.9885 54.5344 49.0917C56.212 46.1948 57.6866 43.7517 58.9614 41.7623C60.2362 39.7729 61.9074 37.2694 63.9814 34.2584C63.9909 34.1854 64.1526 34.1949 64.4666 34.2901C64.7805 34.3853 65.0913 34.4963 65.4021 34.6264C65.7097 34.7565 65.8619 34.839 65.8587 34.8771L65.846 34.8644Z" fill="black"/>
<path d="M140.179 51.9758C135.032 53.5433 130.199 56.2624 125.674 60.127C121.149 63.9948 117.378 68.494 114.359 73.6277C113.855 74.4844 113.436 75.2491 113.1 75.9249C112.764 76.6007 112.412 77.4003 112.044 78.3268C111.676 79.2533 111.4 80.0941 111.22 80.8397C111.036 81.5885 110.944 82.3564 110.934 83.1464C110.928 83.9365 111.048 84.6377 111.296 85.2564C112.212 85.7355 113.474 85.6721 115.088 85.0629C116.699 84.4537 118.371 83.5208 120.096 82.2644C121.824 81.0111 123.559 79.5991 125.309 78.0349C127.057 76.4707 128.563 75.0302 129.825 73.7166C131.087 72.403 132.045 71.3274 132.689 70.4897C132.758 70.4993 132.841 70.4993 132.933 70.4897C133.025 70.4834 133.212 70.4897 133.5 70.5056C133.786 70.5246 134.065 70.5468 134.331 70.5817C134.598 70.6135 134.918 70.6547 135.292 70.6991C135.666 70.7436 135.993 70.8038 136.272 70.8736C136.551 70.9466 136.83 71.0355 137.106 71.1433C137.382 71.2512 137.601 71.3686 137.766 71.4987C138.492 72.0667 138.888 72.8758 138.958 73.9323C139.025 74.9889 138.907 75.9566 138.6 76.8355C138.292 77.7144 137.915 78.495 137.471 79.174C136.456 80.6652 135.213 82.1533 133.748 83.6446C132.283 85.1359 130.567 86.5637 128.61 87.9407C126.651 89.3146 124.592 90.4092 122.43 91.2278C120.27 92.0433 118.003 92.5541 115.628 92.7572C113.252 92.9602 110.909 92.6239 108.594 91.7514C108.385 91.6879 108.169 91.6086 107.947 91.507C107.725 91.4055 107.513 91.3072 107.306 91.2088C105.543 90.2569 104.18 88.8672 103.212 87.0396C102.245 85.212 101.703 83.2258 101.589 81.0841C101.475 78.9392 101.665 76.7404 102.16 74.4908C102.654 72.238 103.403 70.128 104.405 68.1576C105.968 65.1561 107.76 62.421 109.78 59.9525C111.8 57.484 114.061 55.2757 116.56 53.3275C119.059 51.3793 121.849 49.7865 124.929 48.5491C128.008 47.3148 131.29 46.5058 134.769 46.1282L134.823 46.1345L134.877 46.1409C135.866 46.0425 137.02 46.1314 138.34 46.4042C139.662 46.6771 140.74 47.0864 141.577 47.6321C141.711 47.721 141.831 47.8384 141.939 47.9812C142.047 48.1239 142.148 48.2731 142.237 48.4317C142.507 49.1615 142.37 49.9008 141.828 50.64C141.286 51.3825 140.734 51.8267 140.173 51.979L140.179 51.9758Z" fill="black"/>
<path d="M35.5174 94.9496C32.3018 95.93 29.2797 97.6276 26.4541 100.045C23.6255 102.463 21.2693 105.274 19.3824 108.485C19.0685 109.021 18.8053 109.497 18.596 109.919C18.3867 110.341 18.1647 110.843 17.9364 111.42C17.708 112.001 17.5336 112.524 17.4226 112.991C17.3085 113.46 17.2482 113.939 17.245 114.431C17.2387 114.923 17.318 115.364 17.4734 115.751C18.0442 116.053 18.837 116.011 19.8422 115.631C20.8475 115.25 21.8908 114.669 22.9722 113.882C24.0504 113.099 25.1381 112.217 26.229 111.239C27.3199 110.262 28.2617 109.361 29.0513 108.542C29.841 107.724 30.4372 107.051 30.8431 106.524C30.8875 106.531 30.9382 106.531 30.9953 106.524C31.0524 106.521 31.1697 106.524 31.3505 106.534C31.5312 106.543 31.7025 106.559 31.8705 106.581C32.0386 106.601 32.2384 106.626 32.473 106.654C32.7077 106.683 32.9107 106.721 33.0851 106.766C33.2595 106.81 33.4339 106.867 33.6052 106.934C33.7796 107 33.9159 107.076 34.0174 107.156C34.4709 107.511 34.7182 108.016 34.7626 108.676C34.8039 109.336 34.7309 109.942 34.5375 110.49C34.344 111.043 34.1094 111.528 33.8303 111.953C33.1961 112.886 32.4191 113.816 31.5027 114.749C30.5862 115.681 29.5143 116.573 28.2903 117.433C27.0662 118.293 25.7787 118.975 24.4278 119.486C23.0768 119.997 21.6593 120.314 20.1752 120.441C18.6911 120.568 17.226 120.358 15.78 119.812C15.6499 119.774 15.5136 119.72 15.374 119.66C15.2345 119.597 15.1013 119.533 14.9745 119.473C13.8741 118.876 13.021 118.01 12.4153 116.868C11.8128 115.726 11.4735 114.485 11.4006 113.146C11.3276 111.807 11.4481 110.433 11.7557 109.025C12.0665 107.616 12.5327 106.296 13.1606 105.068C14.1373 103.193 15.2567 101.483 16.522 99.9406C17.7841 98.3986 19.1985 97.0184 20.7587 95.8C22.3189 94.5816 24.0631 93.5853 25.988 92.8143C27.9129 92.0432 29.9615 91.5387 32.1401 91.3008H32.1718L32.2067 91.3103C32.825 91.25 33.5449 91.304 34.3726 91.4753C35.2003 91.6466 35.8726 91.9005 36.3958 92.2431C36.4782 92.3002 36.5544 92.3732 36.6241 92.4589C36.6907 92.5477 36.7541 92.6429 36.8112 92.7413C36.9793 93.1982 36.8968 93.6582 36.5575 94.1215C36.2182 94.5847 35.8726 94.864 35.5237 94.9591L35.5174 94.9496Z" fill="black"/>
<path d="M40.7494 99.2077C40.7906 97.5832 41.3392 96.0665 42.3953 94.6609C44.0855 92.3225 46.1848 91.2151 48.6996 91.3421C49.3972 91.3611 50.0473 91.5388 50.6498 91.8751C51.2524 92.2146 51.7439 92.6525 52.1308 93.195C52.5145 93.7344 52.8253 94.3309 53.0631 94.9782C53.2978 95.6255 53.4436 96.2886 53.4976 96.9581C53.7164 99.763 53.2121 102.66 51.9849 105.652C50.7259 109.075 48.9977 112.324 46.8032 115.393C44.6056 118.461 42.1733 121.021 39.5031 123.081C39.3319 123.198 39.1036 123.376 38.8277 123.617C38.5486 123.858 38.2949 124.074 38.0698 124.264C37.8414 124.454 37.5624 124.683 37.2231 124.949C36.8837 125.219 36.5761 125.438 36.2939 125.609C36.0117 125.781 35.6787 125.958 35.295 126.139C34.9113 126.32 34.5593 126.431 34.239 126.472C33.9155 126.514 33.5477 126.53 33.1322 126.526C32.7136 126.52 32.3363 126.428 31.9969 126.247C31.6323 126.089 31.3373 125.822 31.1122 125.451C30.887 125.08 30.7316 124.699 30.6429 124.309C30.5572 123.918 30.5097 123.426 30.5033 122.83C30.497 122.233 30.5128 121.748 30.5477 121.374C30.5826 120.999 30.6333 120.539 30.6999 120C31.6132 112.585 34.6132 105.566 39.7029 98.9412C39.7156 98.8492 40.0644 98.9412 40.7558 99.2077H40.7494ZM34.6671 122.694C37.7907 118.258 40.4291 114.26 42.5855 110.694C44.7419 107.127 46.6668 103.336 48.3602 99.3219C48.4649 99.0364 48.5695 98.7286 48.6774 98.3986C48.7852 98.0686 48.8962 97.6911 49.004 97.2691C49.1118 96.8471 49.2038 96.5234 49.2767 96.3045C49.5082 95.7143 49.5241 95.1305 49.3243 94.553C49.1245 93.9787 48.8201 93.6488 48.4142 93.5631C48.0051 93.4774 47.5421 93.7154 47.022 94.2707C46.7207 94.5086 46.3878 94.7307 46.0263 94.9401C45.6806 95.1718 45.4237 95.3875 45.2525 95.5842C45.0812 95.781 44.6753 96.3584 44.0411 97.3103C43.9301 97.4816 43.8445 97.6181 43.7874 97.7259C43.188 98.7318 43.0041 99.7756 43.2324 100.858C43.4608 101.943 43.9523 102.714 44.707 103.174C44.7229 103.221 44.577 103.358 44.2662 103.583C43.9555 103.808 43.6288 104.021 43.2895 104.221C42.947 104.421 42.7695 104.497 42.7536 104.446C42.6553 104.319 42.4999 104.123 42.2843 103.856C42.0686 103.589 41.9323 103.415 41.872 103.342C41.8149 103.266 41.723 103.123 41.6025 102.914C41.482 102.704 41.3868 102.504 41.3202 102.311C41.2536 102.12 41.168 101.892 41.0665 101.625C39.6966 107.974 37.5655 114.999 34.6734 122.697L34.6671 122.694Z" fill="black"/>
<path d="M67.2326 90.0158C66.9916 91.799 66.5857 93.6139 66.0181 95.4605C65.4504 97.3071 64.8796 98.9221 64.3025 100.309C63.7253 101.695 62.9293 103.301 61.9114 105.125C60.8934 106.95 60.0753 108.358 59.4601 109.348C58.8385 110.338 57.9442 111.75 56.7709 113.578C56.3808 114.171 56.0891 114.606 55.8988 114.882C54.5289 117.008 53.4253 118.639 52.5849 119.774C51.7446 120.91 50.4063 122.614 48.5671 124.889C51.1611 123.649 54.3957 122.786 58.2709 122.3C60.1292 122.072 61.4864 121.916 62.3427 121.84C63.1989 121.761 64.3564 121.71 65.8183 121.685C67.277 121.659 68.6882 121.757 70.0518 121.983C71.4122 122.208 72.9027 122.548 74.5168 122.998C74.5866 122.982 74.6722 123.258 74.7705 123.82C74.872 124.385 74.9418 124.949 74.9862 125.517C75.0274 126.085 75.0147 126.374 74.9449 126.39C72.8456 126.752 70.3277 127.002 67.3975 127.145C64.4674 127.288 61.8416 127.37 59.5203 127.396C57.2022 127.418 54.6779 127.602 51.9475 127.941C49.2171 128.281 46.8134 128.817 44.7363 129.547C44.5777 129.55 44.4128 129.547 44.2447 129.537C44.0767 129.528 43.9149 129.515 43.7595 129.496C43.6042 129.477 43.4424 129.458 43.2744 129.436C43.1063 129.414 42.9445 129.395 42.7892 129.376C42.3991 129.074 42.2057 128.563 42.2152 127.843C42.2247 127.123 42.3357 126.457 42.545 125.854C42.7543 125.248 42.9985 124.654 43.2744 124.067C44.4857 121.577 45.8969 118.991 47.5174 116.313C49.1347 113.632 50.5522 111.385 51.7699 109.574C52.9877 107.762 54.5986 105.414 56.6028 102.527C58.607 99.6424 60.1102 97.4467 61.1091 95.9396C61.2772 95.6858 61.5372 95.3114 61.8924 94.8132C62.2475 94.3182 62.5139 93.9375 62.6947 93.6741C62.8723 93.4108 63.1133 93.0649 63.4145 92.6429C63.7158 92.2209 63.979 91.8656 64.2073 91.5705C64.4356 91.2786 64.6957 90.9486 64.9906 90.5837C65.2855 90.2188 65.5773 89.8698 65.8658 89.5398C65.8722 89.4954 66.1037 89.5525 66.5572 89.7112C67.0106 89.8698 67.2358 89.9714 67.2295 90.019L67.2326 90.0158Z" fill="black"/>
<path d="M69.1195 102.714C69.1608 101.089 69.7094 99.5726 70.7654 98.167C72.4556 95.8286 74.5549 94.7213 77.0697 94.8482C77.7673 94.8672 78.4174 95.0449 79.02 95.3812C79.6225 95.7207 80.114 96.1586 80.5009 96.7011C80.8846 97.2405 81.1954 97.837 81.4332 98.4843C81.6679 99.1316 81.8138 99.7947 81.8677 100.464C82.0865 103.269 81.5823 106.166 80.355 109.158C79.0961 112.585 77.3678 115.831 75.1733 118.899C72.9757 121.967 70.5434 124.528 67.8733 126.587C67.702 126.704 67.4737 126.882 67.1978 127.123C66.9187 127.364 66.665 127.58 66.4399 127.77C66.2116 127.961 65.9325 128.189 65.5932 128.456C65.257 128.725 64.9463 128.944 64.664 129.116C64.3818 129.287 64.0488 129.465 63.6651 129.645C63.2814 129.826 62.9294 129.937 62.6091 129.979C62.2856 130.02 61.9178 130.036 61.5024 130.032C61.0838 130.026 60.7064 129.934 60.3671 129.753C60.0024 129.595 59.7075 129.328 59.4823 128.957C59.2572 128.586 59.1018 128.205 59.013 127.815C58.9273 127.424 58.8798 126.933 58.8734 126.336C58.8671 125.74 58.883 125.254 58.9178 124.88C58.9527 124.505 59.0035 124.045 59.0701 123.506C59.9834 116.091 62.9865 109.072 68.073 102.447C68.0857 102.358 68.4346 102.447 69.1259 102.714H69.1195ZM63.0372 126.2C66.1608 121.764 68.7992 117.766 70.9556 114.2C73.112 110.633 75.037 106.842 76.7304 102.828C76.835 102.542 76.9397 102.235 77.0475 101.905C77.1553 101.575 77.2663 101.197 77.3741 100.775C77.4819 100.353 77.5739 100.033 77.6468 99.8106C77.8783 99.2204 77.8942 98.6366 77.6944 98.0623C77.4946 97.488 77.1902 97.158 76.7843 97.0724C76.3752 96.9867 75.9122 97.2247 75.3921 97.7799C75.0909 98.0179 74.7579 98.24 74.3964 98.4494C74.0507 98.681 73.7938 98.8968 73.6226 99.0935C73.4514 99.2902 73.0454 99.8677 72.4112 100.82C72.3002 100.991 72.2146 101.127 72.1575 101.235C71.5582 102.241 71.3742 103.285 71.6026 104.367C71.8309 105.452 72.3224 106.223 73.0772 106.683C73.093 106.731 72.9471 106.867 72.6364 107.092C72.3256 107.318 71.999 107.53 71.6596 107.73C71.3172 107.93 71.1396 108.003 71.1237 107.955C71.0254 107.829 70.87 107.632 70.6544 107.365C70.4387 107.099 70.3024 106.924 70.2421 106.851C70.185 106.775 70.0931 106.632 69.9726 106.423C69.8521 106.214 69.7569 106.014 69.6903 105.82C69.6237 105.63 69.5381 105.401 69.4366 105.135C68.0667 111.484 65.9357 118.509 63.0435 126.206L63.0372 126.2Z" fill="black"/>
<path d="M84.8511 108.682C81.0552 115.65 78.1757 120.491 76.2128 123.211C75.8005 123.985 75.4676 124.588 75.2107 125.013C75.2107 125.035 75.1822 125.067 75.1314 125.108C73.6727 127.589 72.5691 128.303 71.8175 127.247C71.4814 127.228 71.2277 127.082 71.0596 126.809C70.8884 126.536 70.863 126.2 70.9803 125.8C71.9254 122.703 72.9655 119.689 74.0976 116.754C75.2266 113.819 76.5267 110.846 77.9918 107.835C79.4601 104.827 81.1028 102.085 82.9198 99.6138C84.7369 97.1421 86.6048 95.1749 88.5265 93.7154C88.6914 93.6678 88.9102 93.5726 89.1861 93.4362C89.462 93.2997 89.7188 93.1918 89.9535 93.1189C90.1882 93.0459 90.4165 93.0205 90.6417 93.0491C91.13 93.1093 91.5518 93.2299 91.9006 93.4108C92.2494 93.5916 92.5063 93.8455 92.6712 94.1786C92.833 94.5086 92.9503 94.8386 93.0232 95.1686C93.0962 95.4985 93.1152 95.9205 93.0866 96.4314C93.0581 96.9454 93.0201 97.3801 92.9757 97.745C92.9313 98.1098 92.8615 98.5858 92.7632 99.1823C92.668 99.7788 92.5983 100.236 92.5602 100.553C92.4778 101.232 92.3509 101.933 92.1829 102.657C92.0148 103.383 91.7991 104.154 91.5423 104.97C91.2822 105.788 91.0571 106.464 90.8668 107.003C90.6765 107.543 90.4102 108.285 90.0677 109.228C89.7252 110.173 89.4874 110.808 89.3573 111.138C90.1406 109.742 90.889 108.504 91.612 107.422C93.8953 104.1 96.3752 101.492 99.0485 99.5979C100.853 98.3288 102.308 97.7069 103.412 97.7259C103.796 97.7259 104.151 97.7767 104.478 97.875C104.804 97.9734 105.074 98.132 105.283 98.3542C105.492 98.5763 105.673 98.7984 105.828 99.0236C105.981 99.2489 106.098 99.544 106.177 99.9089C106.257 100.274 106.317 100.61 106.358 100.912C106.399 101.216 106.409 101.6 106.387 102.07C106.364 102.536 106.339 102.923 106.31 103.231C106.282 103.536 106.231 103.951 106.158 104.468C106.082 104.989 106.019 105.376 105.965 105.633C105.911 105.89 105.841 106.267 105.759 106.759C105.711 106.959 105.683 107.105 105.67 107.197C104.896 110.728 103.517 114.952 101.532 119.87C102.014 120.158 102.242 120.336 102.21 120.403C100.495 123.128 99.6129 124.604 99.5622 124.826L97.4121 127.97C97.1426 128.141 96.835 128.252 96.4893 128.303C96.1437 128.351 95.8234 128.303 95.5253 128.151C95.2272 127.999 95.0464 127.735 94.9798 127.361C94.9164 126.596 94.9164 125.797 94.9862 124.968C95.0528 124.14 95.1384 123.42 95.2335 122.814C95.3318 122.205 95.5094 121.453 95.7663 120.555C96.0232 119.657 96.2229 119 96.3656 118.581C96.5083 118.163 96.7589 117.455 97.1204 116.452C97.4819 115.453 97.7134 114.809 97.8149 114.523C98.3698 112.94 99.0516 111.233 99.8539 109.405C100.656 107.578 101.284 106.191 101.738 105.249C102.194 104.307 102.99 102.679 104.135 100.363C102.99 101.232 101.877 102.2 100.796 103.272C99.7144 104.345 98.6648 105.534 97.6436 106.842C96.6225 108.149 95.7378 109.332 94.9862 110.386C94.2346 111.439 93.3055 112.778 92.2051 114.396C91.1015 116.015 90.2357 117.281 89.6015 118.188C88.092 120.158 87.0551 121.339 86.4874 121.729C86.3162 121.821 86.1322 121.913 85.9293 122.002C85.7263 122.094 85.4885 122.176 85.2189 122.259C84.9494 122.341 84.7433 122.408 84.6006 122.459C83.998 122.224 83.5414 121.846 83.2338 121.326C82.9262 120.806 82.7518 120.228 82.7201 119.594C82.6852 118.959 82.6979 118.261 82.7581 117.499C82.8184 116.738 82.9167 115.986 83.053 115.247C83.3638 113.632 83.9632 111.446 84.8447 108.685L84.8511 108.682Z" fill="black"/>
<path d="M114.229 103.462C113.963 103.431 113.627 103.399 113.224 103.374C112.821 103.348 112.441 103.317 112.082 103.285C111.724 103.253 111.404 103.205 111.115 103.148C111.09 103.167 111.039 103.088 110.96 102.907C110.88 102.726 110.814 102.546 110.754 102.365C110.697 102.184 110.681 102.085 110.706 102.066C113.167 100.972 116.709 100.204 121.323 99.7629C123.495 99.5503 125.477 99.4742 127.266 99.5313C129.054 99.5916 131.144 99.8168 133.535 100.204C133.906 100.296 134.274 100.404 134.629 100.528C134.988 100.651 135.371 100.819 135.787 101.032C136.202 101.245 136.523 101.518 136.751 101.857C136.979 102.197 137.071 102.568 137.021 102.974C136.957 103.494 136.694 103.977 136.231 104.427C135.768 104.874 135.137 105.338 134.331 105.81C133.526 106.286 133.085 106.553 133.012 106.613C130.412 108.082 128.037 109.316 125.88 110.31C129.093 109.903 132.451 109.767 135.961 109.903C138.099 109.961 139.922 110.072 141.425 110.233C142.928 110.395 144.479 110.662 146.071 111.03C147.663 111.398 149.233 111.909 150.777 112.559C151.202 112.772 151.541 112.953 151.795 113.099C152.049 113.245 152.372 113.463 152.765 113.752C153.159 114.041 153.46 114.333 153.676 114.622C153.888 114.91 154.059 115.266 154.189 115.685C154.319 116.1 154.354 116.548 154.294 117.023C154.024 117.566 153.682 118.032 153.273 118.429C152.861 118.826 152.391 119.162 151.862 119.441C151.329 119.72 150.828 119.952 150.352 120.133C149.876 120.317 149.309 120.52 148.649 120.748C147.99 120.977 147.466 121.17 147.086 121.329C146.731 121.469 146.249 121.669 145.64 121.926C145.031 122.183 144.657 122.344 144.514 122.408C144.371 122.471 144.099 122.579 143.696 122.738C143.293 122.893 143.058 122.985 143.001 123.014C142.941 123.039 142.738 123.115 142.399 123.233C142.056 123.35 141.828 123.42 141.711 123.442C141.593 123.461 141.333 123.534 140.921 123.655C140.509 123.775 140.16 123.877 139.868 123.956C139.576 124.036 139.126 124.163 138.517 124.34C137.908 124.518 137.309 124.696 136.722 124.876C128.525 127.237 118.821 128.541 107.608 128.785C107.421 129.198 107.237 129.55 107.056 129.836C106.872 130.124 106.656 130.416 106.406 130.721C106.155 131.022 105.876 131.27 105.569 131.46C105.261 131.651 104.925 131.781 104.554 131.85C104.009 131.692 103.625 131.324 103.403 130.743C103.181 130.166 103.114 129.525 103.2 128.824C99.8796 128.824 97.4822 128.014 96.0108 126.387C94.8755 125.143 94.6345 123.794 95.2909 122.338C96.0393 120.663 97.7486 119.441 100.419 118.67C101.633 118.337 103.006 118.118 104.535 118.007C104.557 118.007 105.074 118.017 106.089 118.026C108.312 112.654 111.02 107.803 114.22 103.469L114.229 103.462ZM152.191 117.1C148.37 116.398 143.471 115.999 137.496 115.903C135.283 115.884 132.711 115.916 129.774 115.999C126.838 116.084 123.835 116.173 120.762 116.262C117.689 116.354 114.959 116.389 112.568 116.37C112.374 116.827 112.136 117.385 111.854 118.039C125.081 118.134 132.505 118.191 134.128 118.207C140.75 118.197 146.769 117.829 152.191 117.096V117.1ZM130.133 104.186C127.437 104.243 123.175 104.084 117.35 103.71C116.706 105.81 116.037 107.771 115.336 109.589C116.731 108.914 118.482 108.165 120.594 107.346C121.092 107.156 121.558 106.978 121.999 106.813C122.436 106.648 122.814 106.512 123.134 106.401C123.454 106.29 123.835 106.159 124.282 106.01C124.729 105.858 125.059 105.744 125.274 105.668C125.487 105.592 125.858 105.477 126.384 105.322C126.911 105.17 127.269 105.065 127.456 105.008C127.643 104.951 128.071 104.821 128.741 104.614C129.41 104.411 129.873 104.268 130.133 104.183V104.186Z" fill="black"/>
<path d="M80.7539 77.6891L78.6894 84.5457C78.6894 84.5457 74.6176 86.129 74.2688 86.5288C73.92 86.9286 74.2117 87.0238 75.1757 87.3125C76.1398 87.6012 77.4685 87.9788 77.9791 88.515C77.9791 88.515 80.034 88.7657 81.6481 89.0481C81.8733 89.0862 82.2792 89.2638 82.4726 89.2956C83.757 89.5208 79.9547 84.9709 79.9547 84.9709L82.1523 78.165C82.1523 78.165 82.8627 79.2311 86.6967 80.4114C90.5306 81.5949 92.1289 81.1571 92.1289 81.1571L90.1501 88.0296L85.7643 89.7905C85.7643 89.7905 85.3743 90.1618 85.6438 90.2094C86.0783 90.2855 87.9493 90.5203 89.6871 91.9354C89.6871 91.9354 91.5581 91.8751 92.9312 92.5922C94.3043 93.3093 93.9777 92.6874 93.9016 92.5034C93.8255 92.3193 92.3667 89.8572 91.4217 88.4801L93.5527 81.541C93.5527 81.541 97.9797 82.2422 99.3148 76.0487C99.3148 76.0487 103.593 73.9768 102.445 69.0651C101.297 64.1535 98.7313 61.3772 98.652 60.2572C98.5727 59.134 98.7027 58.5121 97.9924 57.2048C97.2821 55.8944 97.041 52.8389 98.281 50.8463C99.5209 48.8537 101.455 49.4978 102.334 45.9664C103.212 42.435 101.655 40.7343 101.706 39.8173C101.757 38.9003 101.744 37.1362 100.301 36.765C98.8581 36.3938 98.0653 36.9268 97.1996 38.4879C96.3339 40.0489 95.3064 38.6497 93.6701 42.5587C92.0337 46.4646 94.2028 47.1118 94.0221 49.2091C93.8413 51.3064 92.7536 53.5623 91.0158 54.8061C89.278 56.0467 88.9989 56.199 88.3932 57.3825C87.7875 58.566 82.0223 59.5972 79.2634 63.6775C76.5045 67.7579 78.9463 70.3216 78.9463 70.3216C78.9463 70.3216 77.237 75.8551 80.757 77.6859L80.7539 77.6891Z" fill="black"/>
</g>
<path d="M128.166 36.7681L136.982 32.8464V36.7681L145.801 33.8269L135.025 39.7063V35.7877L128.166 36.7681Z" stroke="black" stroke-width="0.5" stroke-linecap="round" stroke-linejoin="round"/>
<path d="M124.84 24.8571L131.09 17.5023L132.787 21.0369L139.462 14.5674L132.295 24.5366L130.599 21.002L124.84 24.8571Z" stroke="black" stroke-width="0.5" stroke-linecap="round" stroke-linejoin="round"/>
<path d="M89.2558 36.7681L80.4399 32.8464V36.7681L71.624 33.8269L82.3997 39.7063V35.7877L89.2558 36.7681Z" stroke="black" stroke-width="0.5" stroke-linecap="round" stroke-linejoin="round"/>
<path d="M92.5823 24.8571L86.3319 17.5023L84.6353 21.0369L77.96 14.5674L85.13 24.5366L86.8266 21.002L92.5823 24.8571Z" stroke="black" stroke-width="0.5" stroke-linecap="round" stroke-linejoin="round"/>
<path d="M128.166 133.193L136.982 137.114V133.193L145.801 136.134L135.025 130.255V134.173L128.166 133.193Z" stroke="black" stroke-width="0.5" stroke-linecap="round" stroke-linejoin="round"/>
<path d="M124.84 145.104L131.09 152.459L132.787 148.924L139.462 155.393L132.295 145.424L130.599 148.959L124.84 145.104Z" stroke="black" stroke-width="0.5" stroke-linecap="round" stroke-linejoin="round"/>
<path d="M89.2558 133.193L80.4399 137.114V133.193L71.624 136.134L82.3997 130.255V134.173L89.2558 133.193Z" stroke="black" stroke-width="0.5" stroke-linecap="round" stroke-linejoin="round"/>
<path d="M92.5823 145.104L86.3319 152.459L84.6353 148.924L77.96 155.393L85.13 145.424L86.8266 148.959L92.5823 145.104Z" stroke="black" stroke-width="0.5" stroke-linecap="round" stroke-linejoin="round"/>
</g>
<defs>
<clipPath id="clip0_652_316">
<rect width="203" height="162" fill="white"/>
</clipPath>
</defs>
</svg>
