<svg width="198" height="162" viewBox="0 0 198 162" fill="none" xmlns="http://www.w3.org/2000/svg">
<g clip-path="url(#clip0_870_1169)">
<path d="M97.8135 15.2477C93.6966 12.0333 86.2787 13.9393 83.1596 17.8015C80.8815 20.6322 79.4883 24.0667 77.411 27.0545C74.3422 31.8666 69.3028 34.6029 63.6169 34.6406C63.5416 34.6406 63.5291 34.5148 63.6169 34.5148C68.1543 33.8921 72.1645 31.9736 74.9196 28.5013C77.819 24.9599 79.2749 20.6133 82.2622 17.0404C83.5174 15.5496 85.2808 14.3922 87.1447 13.782C89.8308 12.8259 92.8871 12.4988 95.5668 13.6248C96.4454 13.977 97.2675 14.474 97.9077 15.1533C97.9579 15.2099 97.8826 15.298 97.8198 15.2477H97.8135Z" fill="black"/>
<path d="M97.9264 15.1596C102.006 11.1653 110.152 12.9454 113.572 17.0467C116.001 19.9339 117.381 23.3433 119.389 26.3941C122.465 31.3571 126.538 33.5839 132.274 34.5903C130.51 34.6972 128.565 34.2821 126.833 33.7537C123.312 32.6529 120.431 30.099 118.417 27.0608C116.339 24.073 114.946 20.6448 112.668 17.8078C111.551 16.3925 109.995 15.3546 108.325 14.7067C106.656 14.0211 104.867 13.5871 103.06 13.6248C101.278 13.6437 99.42 14.128 98.0143 15.254C97.9578 15.3043 97.8699 15.2162 97.9264 15.1596Z" fill="black"/>
<path d="M90.0131 69.6083C92.2285 75.6407 92.0465 83.0506 88.0425 88.3408C87.2455 89.429 86.072 90.9638 85.5762 92.203C83.7876 96.3609 85.0239 101.267 87.6974 104.752C88.2496 105.444 87.6158 106.545 86.7435 106.406C84.139 106.105 81.6978 105.532 79.2502 104.752C70.4893 102.072 62.6257 95.2286 62.6132 85.4535C62.4249 81.6982 62.4877 77.8297 63.1717 74.1121C63.5922 71.6023 64.4708 69.212 65.2302 66.872C66.0021 64.532 66.3912 62.0914 66.3849 59.6004C66.3849 59.5627 66.41 59.5312 66.4477 59.5312C66.7866 61.9467 66.3159 64.6075 65.682 66.9915C65.0043 69.3881 64.2637 71.7659 63.8934 74.2254C63.3977 77.2699 63.3788 80.4339 63.4981 83.5161C63.6236 84.9755 63.6612 86.7179 63.9311 88.1458C65.2176 96.0904 72.3971 101.292 79.6393 103.582C81.9864 104.356 84.4089 104.941 86.8627 105.249L86.7623 105.431C83.9005 101.601 82.614 96.2791 84.7038 91.7941C85.2749 90.5046 86.4987 88.932 87.3773 87.8187C91.3624 82.755 91.7201 75.6407 89.8939 69.6397C89.8625 69.5643 89.988 69.5202 90.0131 69.5957V69.6083Z" fill="black"/>
<path d="M98.8177 1.91851C87.7786 -1.45938 74.882 1.86819 68.9075 12.2157C65.2424 18.355 65.4307 25.5511 63.14 32.2188L61.9414 35.4835C60.8368 38.7167 59.8327 42.0757 59.5001 45.4473C59.0294 50.0266 60.2344 54.7506 59.8013 59.4054C59.6946 61.7517 59.2428 64.0602 59.1487 66.3939C58.7784 73.3636 60.4164 80.4213 63.6421 86.5543C59.8013 80.7358 58.2198 73.3447 58.3516 66.3688C58.6529 61.6322 59.2365 57.1283 58.5776 52.3666C57.6801 46.5103 58.8411 40.6101 60.7992 35.0809L61.9853 31.7722C62.8011 29.5895 63.2091 27.2746 63.6672 24.985C64.8721 18.1349 66.9118 10.8885 72.4219 6.23364C77.7374 1.55367 85.0236 -0.572445 92.0273 0.264163C94.3556 0.515774 96.6588 0.993836 98.8679 1.79899C98.9495 1.82415 98.893 1.94996 98.824 1.91851H98.8177Z" fill="black"/>
<path d="M105.828 69.6524C104.002 75.6533 104.36 82.7676 108.345 87.8313C109.217 88.9636 110.453 90.5047 111.018 91.8068C113.108 96.2854 111.821 101.613 108.96 105.438L108.859 105.255C111.307 104.947 113.736 104.362 116.083 103.588C123.325 101.299 130.511 96.0967 131.791 88.1521C132.054 86.7242 132.105 84.9818 132.224 83.5225C132.337 80.4402 132.324 77.2762 131.829 74.2317C131.458 71.7722 130.718 69.3945 130.04 66.9979C129.406 64.6139 128.923 61.9342 129.274 59.5376C129.425 61.9782 129.651 64.5321 130.492 66.8784C131.251 69.2183 132.13 71.6087 132.55 74.1185C133.228 77.8297 133.297 81.6983 133.109 85.4599C133.096 95.235 125.233 102.085 116.472 104.758C114.024 105.538 111.583 106.111 108.979 106.413C108.1 106.545 107.479 105.444 108.025 104.758C110.698 101.274 111.934 96.3672 110.146 92.2093C109.656 90.9764 108.47 89.4227 107.679 88.3471C106.657 87.0261 105.935 85.5039 105.339 83.9691C103.738 79.3457 104.058 74.1373 105.709 69.6146C105.734 69.5391 105.853 69.5832 105.828 69.6587V69.6524Z" fill="black"/>
<path d="M91.2808 4.95044C97.6821 0.974976 105.527 -0.773723 113.007 0.320787C116.817 0.924654 120.708 2.03174 123.676 4.61076C130.46 10.6683 131.879 20.456 134.383 28.6082C135.958 33.4203 138.368 37.9493 138.437 43.1891C138.537 45.7681 137.765 48.3345 137.226 50.7626C136.441 54.2977 136.535 57.965 137.157 61.5378C137.897 65.1925 138.525 69.0799 138.004 72.8289C137.69 75.3513 137.031 77.8171 136.058 80.1445C135.054 82.4279 133.824 84.8559 132.08 86.5606C133.46 84.5666 134.841 82.3587 135.676 79.9998C138.023 74.1373 137.822 67.7401 136.284 61.7077C135.575 58.0404 135.362 54.2222 136.165 50.555C136.68 48.1207 137.414 45.7115 137.301 43.2268C137.201 38.1883 134.74 33.6719 133.19 28.9919C130.404 19.8836 129.124 8.3409 119.936 3.33383C113.189 0.138369 105.251 0.0251436 98.1716 2.16384C95.8056 2.88093 93.4836 3.8056 91.3436 5.05108C91.2808 5.09511 91.2055 4.98189 91.2746 4.94415L91.2808 4.95044Z" fill="black"/>
<path d="M59.4313 73.9863C56.7515 74.477 54.2036 75.6407 52.2706 77.4271C50.2373 79.2136 49.0198 81.7989 47.3191 83.8495C42.2796 90.4103 36.8511 96.5622 31.887 103.136C29.565 106.35 26.8538 109.583 25.6238 113.332C25.5297 113.703 25.492 114.043 25.4857 114.389C25.5046 114.596 25.5548 114.898 25.5799 115.093C26.0003 118.484 29.1821 120.667 32.3388 121.308C32.4204 121.308 32.4079 121.447 32.3263 121.434C30.2741 121.163 28.2596 120.333 26.7597 118.88C25.3351 117.402 24.4251 115.225 24.8268 113.162C25.128 111.797 25.7556 110.552 26.402 109.331C29.1131 104.526 32.571 100.204 35.9976 95.9017C39.4618 91.6243 43.0704 87.4727 46.566 83.2268C48.3985 81.1698 49.685 78.6412 51.8564 76.905C54.009 75.1689 56.6825 74.1059 59.4313 73.8542C59.4627 73.8542 59.494 73.8794 59.5003 73.9109C59.5003 73.9486 59.4752 73.9801 59.4375 73.9801L59.4313 73.9863Z" fill="black"/>
<path d="M54.2602 111.923C54.5488 111.143 54.8877 109.464 53.6075 109.734C52.7351 110.206 52.095 111.193 51.4674 111.973C50.1558 113.735 48.9132 115.571 47.7836 117.471C46.3464 119.798 44.8779 122.164 44.0181 124.743C43.8989 125.196 43.7985 125.655 44.0997 126.038C44.3947 126.397 44.9658 126.189 45.3549 126.013C45.9009 125.781 46.3464 125.359 46.7857 125.126C46.1707 125.843 44.2566 127.341 43.6353 125.906C42.6688 123.353 50.9905 110.395 53.5447 109.407C55.1325 109.218 54.8062 111.036 54.3166 111.955C54.2978 111.992 54.2413 111.961 54.2602 111.929V111.923Z" fill="black"/>
<path d="M48.6747 125.799C47.8652 127.221 47.0493 128.825 45.6498 129.806C45.1917 130.008 44.6645 129.825 44.3005 129.743C43.6228 129.561 42.9826 129.316 42.3488 129.07C39.8385 128.014 37.4286 126.793 35.025 125.554C33.7008 124.887 31.9687 124.176 31.7804 122.447C31.6737 120.987 32.1695 119.578 32.4582 118.169C33.82 112.797 36.5688 107.564 41.194 104.312C42.6186 103.299 44.2127 102.488 45.8569 101.915C47.269 101.292 48.9571 101.406 50.2939 102.148C52.3398 103.444 54.2602 104.809 56.0801 106.413C57.0654 107.363 58.2704 108.419 58.3896 109.885C58.5339 111.256 58.2515 112.873 57.3792 113.867C57.944 112.69 58.3394 111.288 58.0821 109.935C57.9189 108.57 56.714 107.658 55.7601 106.79C54.7308 105.922 53.6326 105.142 52.5218 104.387C50.6014 103.079 48.5178 101.5 46.1268 102.67L45.1917 103.035C40.1523 105.085 36.5751 109.614 34.5668 114.565C33.6443 117.05 32.6967 119.666 32.5837 122.327C32.7594 123.78 34.2844 124.252 35.3701 124.906C37.7236 126.208 40.0958 127.491 42.5433 128.611C43.447 128.976 44.3947 129.504 45.3737 129.523C46.8108 128.705 47.6706 127.089 48.5806 125.749C48.612 125.692 48.6936 125.749 48.6622 125.799H48.6747Z" fill="black"/>
<path d="M68.6879 119.484C68.1294 111.911 68.7758 98.2669 61.8913 93.5932C61.8536 93.5806 61.8725 93.5114 61.9164 93.5366C69.259 97.3862 69.1586 112.376 68.6879 119.484Z" fill="black"/>
<path d="M61.2015 95.5558C63.172 95.4677 65.6949 96.7509 66.3162 98.6821C64.8853 97.2856 63.0528 96.3169 61.1826 95.6187C61.145 95.6061 61.1638 95.5495 61.2015 95.5621V95.5558Z" fill="black"/>
<path d="M135.35 95.6123C133.8 96.927 132.036 97.8894 130.197 98.6568C131.521 97.1346 133.454 96.2225 135.331 95.5494C135.368 95.5368 135.387 95.5934 135.35 95.6123Z" fill="black"/>
<path d="M53.0303 104.387C53.0303 104.387 59.124 96.449 62.9836 96.3295" stroke="black" stroke-linecap="round" stroke-linejoin="round"/>
<path d="M52.0575 110.602C55.6473 113.062 60.9064 116.987 64.6153 119.1C66.4541 119.987 68.6318 119.912 70.433 120.931C73.5834 122.623 76.8593 124.265 79.5579 126.655C81.723 128.592 76.6773 136.26 75.9305 138.814C75.6732 139.462 75.4975 140.047 75.441 140.758C75.3343 141.211 74.8009 141.305 74.4243 141.255C71.4057 140.638 68.7636 138.896 65.9395 137.757C65.0044 137.254 63.9124 137.116 63.084 136.443C62.4941 135.87 62.3184 134.908 62.7075 134.172C62.8958 133.826 63.0589 133.574 63.2409 133.272L64.2953 131.53C64.3831 131.385 64.5463 131.316 64.7032 131.341C64.7032 131.347 71.6316 132.511 71.6316 132.524C72.4851 132.725 71.8011 134.184 71.4747 134.618C70.6024 135.788 69.0084 135.832 67.7281 135.574L67.0001 135.405C66.7114 135.335 66.5357 135.052 66.6047 134.763C66.6738 134.474 66.9687 134.298 67.2511 134.367C68.977 134.719 70.6589 135.071 72.3471 135.612L71.6002 136.153C71.6191 135.379 71.7258 134.669 71.9391 133.933C72.0709 133.48 72.2717 133.008 72.5228 132.599C72.4412 132.706 72.5291 132.895 72.6671 132.926C72.6985 132.933 72.7362 132.933 72.6671 132.926C69.8116 132.694 66.8056 132.36 64.4898 130.423C63.4543 129.397 62.5255 128.385 61.5465 127.359L62.1615 127.447C62.0109 127.529 62.0297 127.51 61.9042 127.542C60.3666 127.529 58.9044 126.862 57.461 126.422C53.2499 124.988 48.7314 124.132 44.5078 122.931C48.8946 123.547 53.3817 124.478 57.712 125.661C59.0299 126.045 60.4294 126.573 61.7599 126.636C61.7097 126.655 61.7536 126.63 61.6469 126.693L62.2619 126.781C63.2347 127.737 64.22 128.75 65.1801 129.655C66.1278 130.46 67.4143 130.932 68.7134 131.247C70.0187 131.561 71.3806 131.719 72.7299 131.788C73.5959 131.813 73.8972 132.756 73.3826 133.404C72.9495 134.228 72.7675 135.241 72.7424 136.166C72.7424 136.543 72.3471 136.814 71.9956 136.694C70.4078 136.178 68.7134 135.782 67.0503 135.423L67.3013 134.386C68.7197 134.832 70.8974 134.964 71.0542 133.014L71.4559 133.499L64.5651 132.159L64.9856 131.97L63.8748 133.675C63.561 134.197 63.0966 134.637 63.1907 135.273C63.2786 135.883 63.6802 136.235 64.289 136.436C64.9228 136.7 65.5441 136.983 66.1529 137.279C68.9079 138.531 71.5061 140.267 74.4494 140.921C74.7632 140.959 75.0833 140.909 75.1209 140.676C75.1398 140.575 75.1335 140.355 75.1649 140.185C75.918 137.034 77.7128 134.235 78.7044 131.171C79.0558 130.064 79.6395 128.567 79.2316 127.504C78.4659 126.586 77.1731 125.913 76.1564 125.227C74.211 124.019 72.0144 122.843 69.9936 121.755C67.9854 120.622 65.3182 120.755 63.3288 119.32C59.3688 116.672 55.6661 113.691 51.976 110.684C51.9258 110.646 51.9885 110.558 52.0387 110.596L52.0575 110.602Z" fill="black"/>
<path d="M137.006 73.8605C141.462 74.7412 145.547 77.3831 148.133 81.1447C149.351 82.7298 154.164 87.9067 155.576 89.4982C160.308 94.9519 171.422 106.796 172.332 113.697C172.458 118.176 168.303 121.327 164.105 121.434C164.03 121.44 164.017 121.314 164.092 121.308C166.094 121.038 168.071 120.22 169.533 118.805C170.908 117.389 171.818 115.269 171.448 113.282C171.171 111.961 170.525 110.734 169.866 109.545C167.092 104.84 163.54 100.651 160.038 96.4804C156.518 92.3037 152.852 88.2527 149.338 84.0634C147.506 82.0253 146.257 79.5092 144.104 77.8045C142.033 76.0496 139.586 74.7223 136.975 73.9801C136.9 73.9612 136.931 73.8417 137.006 73.8605Z" fill="black"/>
<path d="M142.102 111.948C141.418 110.917 141.111 109.055 142.924 109.155C146.32 110.589 152.47 120.855 153.116 124.579C153.242 125.189 153.242 125.988 152.733 126.447C151.623 127.29 150.349 125.938 149.639 125.17C149.608 125.139 149.658 125.101 149.683 125.126C150.085 125.51 150.518 125.856 151.001 126.133C151.811 126.611 152.677 126.592 152.809 125.485C152.853 122.478 145.554 110.74 142.862 109.482C141.368 109.294 141.707 111.068 142.159 111.923C142.178 111.961 142.121 111.986 142.102 111.948Z" fill="black"/>
<path d="M147.819 125.749C148.773 127.007 149.676 128.441 151.032 129.272C151.245 129.309 151.584 129.177 151.898 129.077C155.551 127.529 159.027 125.397 162.435 123.371C163.075 122.918 163.301 122.252 163.1 121.459C162.699 119.195 162.033 116.968 161.167 114.842C158.889 109.401 154.979 104.727 149.199 102.991C147.317 102.481 145.704 103.871 144.154 104.796C142.277 106.073 140.187 107.262 138.826 109.111C138.129 110.552 138.33 112.351 139.033 113.804C139.077 113.854 138.983 113.911 138.957 113.854C138.123 112.407 137.834 110.489 138.512 108.941C139.805 106.941 141.92 105.652 143.809 104.287C145.465 103.198 147.229 101.714 149.356 102.223C153.938 103.513 157.81 106.79 160.188 110.879C161.588 113.194 162.579 115.748 163.276 118.358C163.558 119.673 164.029 121 163.973 122.359C163.797 123.862 162.228 124.378 161.098 125.045C158.739 126.34 156.36 127.617 153.906 128.731C152.965 129.102 152.042 129.636 151.007 129.643C149.507 128.819 148.672 127.177 147.737 125.812C147.706 125.755 147.787 125.711 147.819 125.762V125.749Z" fill="black"/>
<path d="M127.661 119.49C126.783 111.936 126.481 99.6067 132.946 94.4046C133.416 94.046 133.931 93.7252 134.496 93.5428C134.533 93.5302 134.552 93.5869 134.521 93.5994C126.958 97.8643 127.718 112.112 127.661 119.49Z" fill="black"/>
<path d="M143.357 104.406C140.658 102.091 138.38 99.5124 135.556 97.4177C135.167 97.1661 134.608 96.8327 134.188 96.6251C133.943 96.5308 133.68 96.4616 133.416 96.3546C133.403 96.3546 133.391 96.3295 133.397 96.3169C135.606 96.4364 137.401 98.1474 139.014 99.5187C140.602 101.016 142.058 102.645 143.401 104.368C143.426 104.4 143.376 104.438 143.351 104.406H143.357Z" fill="black"/>
<path d="M144.423 110.69C142.327 112.414 140.206 114.112 138.041 115.748C135.807 117.32 133.748 119.27 131.169 120.258C129.493 120.887 127.868 120.893 126.406 121.761C123.776 123.183 121.027 124.636 118.567 126.328C118.115 126.649 117.438 127.095 117.174 127.504C116.954 127.938 117.023 128.643 117.155 129.265C117.977 133.084 120.325 136.405 121.247 140.192C121.278 140.361 121.272 140.582 121.291 140.682C121.498 141.198 122.477 140.808 122.916 140.701C126.086 139.588 129.004 137.738 132.129 136.436C133.002 136.204 133.522 135.304 133.083 134.505C132.939 134.26 132.725 133.952 132.543 133.675L131.433 131.97L131.853 132.159L124.962 133.499L125.364 133.014C125.458 134.631 127.171 134.876 128.477 134.549L129.117 134.392L129.368 135.43C127.705 135.788 126.01 136.185 124.423 136.7C124.121 136.795 123.801 136.631 123.701 136.329C123.632 135.656 123.594 134.927 123.381 134.266C123.268 133.889 123.124 133.543 122.923 133.216C122.672 132.851 122.766 132.266 123.124 131.995C123.28 131.863 123.488 131.794 123.695 131.788C125.044 131.712 126.406 131.555 127.705 131.241C128.998 130.926 130.284 130.454 131.232 129.649C132.192 128.743 133.177 127.731 134.15 126.774L134.765 126.686C134.658 126.623 134.702 126.649 134.652 126.63C135.983 126.567 137.382 126.038 138.7 125.655C143.024 124.478 147.524 123.535 151.904 122.931C147.668 124.126 143.162 124.988 138.951 126.416C137.508 126.856 136.045 127.523 134.508 127.536C134.376 127.504 134.401 127.529 134.25 127.441L134.865 127.353C133.886 128.372 132.958 129.385 131.922 130.41C129.801 132.272 126.042 132.845 123.839 132.876C123.921 132.826 123.933 132.662 123.883 132.593C124.536 133.675 124.761 134.895 124.805 136.147L124.059 135.606C125.753 135.065 127.448 134.713 129.18 134.36C129.857 134.235 130.071 135.241 129.406 135.405C127.924 135.801 125.992 136.009 124.931 134.612C124.598 134.172 123.927 132.725 124.774 132.517L131.69 131.341C131.859 131.31 132.029 131.385 132.11 131.53C132.481 132.165 133.34 133.536 133.692 134.172C134.188 135.096 133.767 136.342 132.826 136.795C130.755 137.575 128.778 138.518 126.77 139.456C125.54 140.028 124.31 140.613 122.998 141.034C122.49 141.173 121.95 141.355 121.404 141.217C121.203 141.167 121.002 140.984 120.952 140.758C120.726 138.726 119.609 136.965 118.812 135.109C117.821 132.933 116.572 130.769 116.289 128.347C116.258 127.894 116.308 127.29 116.641 126.881C117.055 126.391 117.557 126.026 118.053 125.636C120.544 123.837 123.243 122.34 125.966 120.931C127.768 119.905 129.945 119.987 131.784 119.1C135.474 116.999 140.783 113.03 144.342 110.602C144.392 110.564 144.461 110.646 144.405 110.69H144.423Z" fill="black"/>
<path d="M98.7802 152.212C92.8433 134.568 99.7655 115.804 97.2552 97.839C96.3201 92.1652 94.3683 86.1014 93.7784 80.3646C93.7219 79.8551 93.6968 79.3204 93.6027 78.9996C93.6403 79.0374 93.6592 79.0625 93.7408 79.1066C93.8349 79.1632 94.0295 79.1883 94.111 79.1506C94.2742 79.0877 94.2052 79.094 94.1801 79.1317C93.8726 79.484 93.6592 79.9369 93.427 80.4087C91.9898 83.6607 90.7849 87.1581 89.6741 90.6178C89.649 90.7436 89.5235 90.8254 89.3979 90.8002C88.808 90.687 88.262 90.4983 87.7223 90.2907C87.1826 90.0831 86.6554 89.8378 86.1534 89.561C86.122 89.5484 86.1094 89.5107 86.122 89.4793C86.1345 89.4478 86.1722 89.4352 86.2036 89.4478C87.2328 89.9321 88.3248 90.297 89.4419 90.4857L89.3666 90.536C90.3519 87.0135 91.3246 83.4846 92.7366 80.1067C93.6341 78.0372 94.4311 77.5025 94.6319 80.2577C94.908 82.5222 95.4164 84.7427 95.9812 86.9569C96.7469 89.9699 97.5188 93.2471 98.1965 96.2916C100.199 107.602 98.1966 119.132 97.4058 130.46C96.6715 137.719 97.0544 145.123 98.8994 152.187C98.9245 152.256 98.799 152.3 98.7802 152.225V152.212Z" fill="black"/>
<path d="M94.4504 78.597C94.4504 78.597 94.4504 77.339 93.8228 77.339C93.1952 77.339 91.3125 76.71 91.3125 76.71" stroke="black" stroke-linecap="round" stroke-linejoin="round"/>
<path d="M98.8118 96.3231C100.236 90.9197 101.63 85.5101 103.286 80.1696C103.487 79.5909 103.644 78.9871 103.952 78.4461C103.983 78.4084 104.008 78.358 104.083 78.358C104.115 78.358 104.134 78.3832 104.152 78.4021C104.447 79.094 104.673 79.8048 104.918 80.5093L106.267 84.4785L108.916 92.4294L108.866 92.4105L110.767 91.4859C110.805 91.467 110.83 91.5236 110.792 91.5425C110.183 91.901 109.568 92.2533 108.947 92.5867C108.859 92.637 108.746 92.5867 108.715 92.4923C106.926 88.0828 105.288 83.1953 103.613 78.7417C103.713 78.9242 104.14 79.1443 104.441 78.8172L104.378 78.9493C102.816 83.2204 101.598 88.0073 100.174 92.3602C99.7344 93.6875 99.3264 95.021 98.862 96.3482C98.8558 96.386 98.793 96.3734 98.7993 96.3294L98.8118 96.3231Z" fill="black"/>
<path d="M43.3026 43.057H18.8271V71.9923H43.3026V43.057Z" stroke="black" stroke-linecap="round" stroke-linejoin="round"/>
<path d="M24.7889 79.8552H0.313477V108.791H24.7889V79.8552Z" stroke="black" stroke-linecap="round" stroke-linejoin="round"/>
<path d="M154.697 71.9987H179.173V43.0633H154.697V71.9987Z" stroke="black" stroke-linecap="round" stroke-linejoin="round"/>
<path d="M173.211 108.797H197.687V79.8614H173.211V108.797Z" stroke="black" stroke-linecap="round" stroke-linejoin="round"/>
<path d="M67.0318 137.965C66.6364 141.752 65.8206 145.507 64.5089 149.092L64.4587 148.35C69.8872 155.942 80.1042 163.183 89.5303 158.282C92.4988 156.823 95.2162 154.678 97.5445 152.156C97.5884 152.099 97.6888 152.175 97.6386 152.237C95.5613 154.993 92.9632 157.364 89.9446 159.056C80.2611 164.724 68.9584 157.2 63.668 148.828C65.0235 145.318 66.1783 141.67 66.9063 137.952C66.9251 137.877 67.0443 137.896 67.0318 137.977V137.965Z" fill="black"/>
<path d="M130.197 137.94C130.988 140.556 131.967 143.393 133.002 145.903C133.353 146.765 133.743 147.614 134.119 148.457C134.226 148.696 134.207 148.96 134.081 149.168C130.423 155.345 124.505 160.308 117.357 161.755C110.052 163.176 103.117 158.226 99.4581 152.231C99.4142 152.168 99.5146 152.099 99.5586 152.156C103.606 157.458 110.183 162.025 117.118 160.572C123.846 159.106 129.55 154.414 133.272 148.721C131.872 145.664 130.799 141.525 130.065 137.959C130.046 137.883 130.178 137.852 130.191 137.933L130.197 137.94Z" fill="black"/>
<path d="M105.747 44.3717C111.872 46.1455 118.593 43.2897 117.828 36.0559L117.89 36.0433C118.938 39.9936 116.547 44.2144 112.456 45.0321C110.24 45.592 107.774 45.4473 105.722 44.4283L105.747 44.3717Z" fill="black"/>
<path d="M118.009 37.8361C118.009 37.8361 119.265 37.1693 119.735 36.0497C120.206 34.93 120.369 34.7853 120.369 34.7853C120.369 34.7853 116.685 32.6969 108.91 33.76C101.134 34.8231 102.339 40.3774 102.339 40.3774C102.339 40.3774 102.427 36.88 109.832 35.7163C115.518 34.8231 118.154 36.2698 118.009 37.8361Z" fill="black"/>
<path d="M114.288 40.585C113.937 44.8498 108.872 46.523 106.205 43.0885C104.617 41.1825 104.724 38.0563 106.707 36.4271C110.015 33.6153 114.79 36.339 114.288 40.585ZM114.226 40.585C114.602 36.9177 109.833 34.584 107.084 36.8926C104.04 39.264 105.396 44.2459 109.356 44.3969C111.602 44.5604 114.019 42.9753 114.226 40.585Z" fill="black"/>
<path d="M109.738 42.6544C111.124 42.6544 112.248 41.5279 112.248 40.1383C112.248 38.7487 111.124 37.6222 109.738 37.6222C108.351 37.6222 107.228 38.7487 107.228 40.1383C107.228 41.5279 108.351 42.6544 109.738 42.6544Z" fill="black"/>
<path d="M108.85 42.2041C108.928 41.7733 108.59 41.3516 108.095 41.2622C107.6 41.1729 107.137 41.4496 107.059 41.8804C106.982 42.3112 107.32 42.7329 107.814 42.8222C108.309 42.9116 108.773 42.6348 108.85 42.2041Z" fill="#D9D9D9"/>
<path d="M112.875 38.9503C113.214 38.3402 112.966 37.5538 112.321 37.1939C111.676 36.8341 110.878 37.0369 110.539 37.6471C110.2 38.2572 110.449 39.0436 111.094 39.4034C111.739 39.7633 112.536 39.5604 112.875 38.9503Z" fill="#D9D9D9"/>
<g opacity="0.3">
<mask id="mask0_870_1169" style="mask-type:luminance" maskUnits="userSpaceOnUse" x="102" y="34" width="17" height="8">
<path d="M117.991 36.8926L118.01 38.0248C118.01 38.0248 115.342 36.295 109.412 36.8108C103.481 37.3266 102.534 41.1322 102.534 41.1322C102.389 40.7611 102.308 40.3711 102.308 39.9748V39.3458C102.308 39.3458 102.37 36.5529 109.475 35.4207C116.635 34.2758 117.809 34.9866 117.991 36.8926Z" fill="white"/>
</mask>
<g mask="url(#mask0_870_1169)">
<path d="M117.859 36.163C117.859 36.163 118.713 43.0823 112.631 44.5039C106.544 45.9318 102.295 43.6798 102.339 39.7421C102.383 35.8044 113.849 32.3385 117.859 36.163Z" fill="black" stroke="black" stroke-miterlimit="10"/>
</g>
</g>
<path d="M89.9321 44.4283C83.7191 46.2902 76.9539 43.3778 77.7635 36.0433L77.8262 36.0559C77.845 36.7982 77.9203 37.5341 78.0898 38.2386C79.232 44.0886 84.9994 44.8497 89.9321 44.4283Z" fill="black"/>
<path d="M77.6439 37.8361C77.6439 37.8361 76.3887 37.1693 75.918 36.0497C75.4474 34.93 75.2842 34.7853 75.2842 34.7853C75.2842 34.7853 78.968 32.6969 86.7437 33.76C94.5194 34.8231 93.3144 40.3774 93.3144 40.3774C93.3144 40.3774 93.2266 36.88 85.8212 35.7163C80.1353 34.8231 77.4995 36.2698 77.6439 37.8361Z" fill="black"/>
<path d="M81.4284 40.5787C81.6355 42.969 84.0454 44.5541 86.2984 44.3906C90.2584 44.2396 91.6203 39.2577 88.5703 36.8863C85.8215 34.5777 81.0519 36.9114 81.4284 40.5787ZM81.3657 40.5787C80.8636 36.3327 85.6395 33.6153 88.9468 36.4208C90.9299 38.0437 91.0429 41.17 89.4489 43.0822C86.7817 46.5167 81.7171 44.8435 81.3657 40.5787Z" fill="black"/>
<path d="M85.9156 42.6544C87.302 42.6544 88.4259 41.5279 88.4259 40.1383C88.4259 38.7487 87.302 37.6222 85.9156 37.6222C84.5292 37.6222 83.4053 38.7487 83.4053 40.1383C83.4053 41.5279 84.5292 42.6544 85.9156 42.6544Z" fill="black"/>
<path d="M87.8441 42.8143C88.3387 42.7249 88.6768 42.3033 88.5994 41.8725C88.5219 41.4417 88.0581 41.1649 87.5635 41.2543C87.0689 41.3437 86.7308 41.7654 86.8083 42.1961C86.8858 42.6269 87.3495 42.9037 87.8441 42.8143Z" fill="#D9D9D9"/>
<path d="M84.5659 39.399C85.2109 39.0391 85.4592 38.2527 85.1204 37.6426C84.7816 37.0325 83.984 36.8296 83.3389 37.1895C82.6938 37.5493 82.4456 38.3357 82.7844 38.9458C83.1232 39.556 83.9208 39.7588 84.5659 39.399Z" fill="#D9D9D9"/>
<g opacity="0.3">
<mask id="mask1_870_1169" style="mask-type:luminance" maskUnits="userSpaceOnUse" x="77" y="34" width="17" height="8">
<path d="M77.6624 36.8926L77.6436 38.0248C77.6436 38.0248 80.3107 36.295 86.2413 36.8108C92.1782 37.3266 93.1196 41.1322 93.1196 41.1322C93.2639 40.7611 93.3455 40.3711 93.3455 39.9748V39.3458C93.3455 39.3458 93.2827 36.5529 86.1786 35.4207C79.0179 34.2758 77.8444 34.9866 77.6624 36.8926Z" fill="white"/>
</mask>
<g mask="url(#mask1_870_1169)">
<path d="M77.7939 36.163C77.7939 36.163 76.9404 43.0823 83.0216 44.5039C89.1028 45.9255 93.3578 43.6798 93.3139 39.7421C93.2699 35.8044 81.8041 32.3385 77.7939 36.163Z" fill="black" stroke="black" stroke-miterlimit="10"/>
</g>
</g>
<path d="M91.8014 32.5774C90.2011 31.5772 87.2578 30.2248 83.0844 30.2248C76.4823 30.2248 75.2146 32.5711 74.4615 32.5711C74.0348 32.5711 74.1415 32.3572 74.7753 31.7156C75.4154 31.074 78.3399 28.2371 83.7999 28.2371C87.5904 28.2371 90.3957 29.2938 91.7198 30.0046C92.2282 30.2751 92.5985 30.5141 93.0754 31.0299C93.157 31.118 93.1695 31.2501 93.1131 31.357C92.8683 31.7848 92.2031 32.829 91.7952 32.5774H91.8014Z" fill="black"/>
<path d="M104.027 32.5774C105.627 31.5772 108.571 30.2248 112.744 30.2248C119.346 30.2248 120.614 32.5711 121.367 32.5711C121.794 32.5711 121.687 32.3572 121.053 31.7156C120.419 31.074 117.488 28.2371 112.029 28.2371C108.238 28.2371 105.433 29.2938 104.109 30.0046C103.6 30.2751 103.23 30.5141 102.753 31.0299C102.671 31.118 102.659 31.2501 102.715 31.357C102.96 31.7848 103.625 32.829 104.033 32.5774H104.027Z" fill="black"/>
<path d="M88.708 59.1098C91.7266 58.204 94.8833 58.1725 98.0024 58.0278C101.178 57.9712 104.291 57.9523 107.441 58.5877C108.188 58.8267 107.68 59.6444 107.397 60.0093C104.052 64.2741 91.5572 63.7646 88.708 59.1098ZM88.7645 59.1349C91.8584 62.8147 98.7806 62.821 103.13 61.8335C104.699 61.3868 106.45 60.632 107.215 59.1035L107.253 59.1852C104.234 58.5436 101.084 58.5562 98.0024 58.5122C94.9398 58.5373 91.758 58.5373 88.7645 59.1412V59.1349Z" fill="black"/>
<path d="M106.707 58.9902C106.707 58.9902 106.707 59.9023 106.557 60.1476C106.688 60.0344 107.297 59.2418 107.291 59.1223C107.291 59.1223 107.002 59.0217 106.707 58.9902Z" fill="black"/>
<path d="M94.4629 49.8128C94.4943 48.3723 96.2452 47.5797 97.4878 48.0138V48.0452C96.2326 48.0075 94.9273 48.6554 94.4629 49.8128Z" fill="black"/>
<path d="M94.2119 37.7983C94.9964 40.6667 95.2662 43.8496 94.852 46.7431C94.8332 43.7552 94.5571 40.717 94.2119 37.7983Z" fill="black"/>
<path d="M101.83 37.8046C101.36 40.761 101.272 43.8118 101.134 46.7431C100.832 43.7929 100.945 40.5912 101.83 37.8046Z" fill="black"/>
<path d="M95.8182 52.8321C95.8182 53.1718 95.2785 53.4486 94.6823 53.4486C94.0861 53.4486 93.6343 53.1718 93.6029 52.8321C93.5464 52.2723 93.7472 52.0521 94.3434 52.0521C94.9396 52.0521 95.8245 52.4924 95.8245 52.8321H95.8182Z" fill="black"/>
<path d="M100.387 52.9453C100.387 53.285 100.751 53.4486 101.347 53.4486C101.944 53.4486 102.395 53.1718 102.427 52.8321C102.483 52.2723 102.282 52.0521 101.686 52.0521C101.09 52.0521 100.381 52.6057 100.381 52.9453H100.387Z" fill="black"/>
<path d="M95.0593 52.1717C94.6262 52.1213 93.5468 51.9704 93.6472 52.6686L93.6158 52.6812C93.233 52.2912 93.7665 51.8697 94.1242 51.8383C94.4191 51.8194 94.9212 51.8823 95.053 52.1717H95.0593Z" fill="black"/>
<path d="M95.9756 52.9516C93.7414 54.7758 90.591 52.8321 91.9465 50.0141C92.0595 49.775 92.5804 49.3913 92.7561 49.4354C92.4925 49.6052 92.2164 49.7876 92.0972 50.0833C91.1181 52.8762 93.7351 54.1468 95.9756 52.9516Z" fill="black"/>
<path d="M100.023 52.9202C102.233 54.2412 104.887 52.7504 103.883 50.0833C103.758 49.7877 103.488 49.6052 103.224 49.4354C103.394 49.3851 103.927 49.7814 104.034 50.0141C105.402 52.9013 102.145 54.7884 100.023 52.9265V52.9202Z" fill="black"/>
<path d="M100.933 52.1402C101.328 51.7628 101.969 51.6999 102.389 52.0962C102.533 52.266 102.552 52.5365 102.376 52.6749L102.345 52.6623C102.383 52.5239 102.345 52.3604 102.226 52.2786C101.837 51.9892 101.121 52.1968 100.927 52.1339L100.933 52.1402Z" fill="black"/>
<path d="M94.2373 51.7943C95.3167 52.0019 95.9882 52.9329 96.9108 53.4298C98.2224 54.0085 99.7851 53.5745 100.676 52.4674C100.852 52.285 101.335 51.8383 101.555 51.9138C100.902 52.2346 100.626 52.9329 100.042 53.3732C99.4525 53.8701 98.6303 54.0085 97.9023 53.9833C96.3146 53.9393 95.5678 52.373 94.2436 51.7943H94.2373Z" fill="black"/>
<path d="M122.98 30.9419C123.582 38.094 123.538 45.4976 121.373 52.4169C120.243 55.9395 118.072 58.9588 115.857 61.8838C113.585 64.7836 110.798 67.3689 107.548 69.1554L107.842 68.9226C106.443 70.4072 104.868 71.3759 103.029 72.1181C98.5544 73.8165 93.3204 72.9296 89.3667 70.3191C88.5257 69.7341 87.8354 69.1931 87.1325 68.3817L87.4024 68.6144C82.8211 65.6894 78.6728 62.0222 75.8675 57.3108C73.2819 52.5365 72.3782 47.0513 72.0707 41.7297C71.9515 38.2009 71.8197 34.4959 72.3908 31.0803C72.3657 34.5337 72.259 38.1757 72.6293 41.6794C73.2568 48.5987 74.8383 55.8955 79.9028 60.9654C82.2876 63.5507 85.0364 65.7964 88.03 67.6269C91.6511 71.3947 97.7009 72.7094 102.596 70.967C104.234 70.3317 105.772 69.3693 106.995 68.1112C111.752 65.5825 115.242 61.3051 118.154 56.8579C121.248 52.4295 122.101 46.9129 122.634 41.6417C122.948 38.0877 123.024 34.5022 122.86 30.9356C122.854 30.8601 122.98 30.8476 122.986 30.9293L122.98 30.9419Z" fill="black"/>
<path d="M128.464 37.1945C128.263 36.3893 127.586 35.7289 126.732 35.8861C125.879 35.8987 125.496 36.6724 125.213 37.3958C124.573 38.9495 124.297 40.6856 123.996 42.3337L123.77 41.9122C126.902 43.6798 126.199 48.0578 122.364 47.8691C124.567 47.6238 126.205 45.9946 124.981 43.6987C124.649 43.1074 124.14 42.6167 123.544 42.2959V42.2645C123.808 40.5472 124.159 38.8237 124.849 37.226C125.126 36.6535 125.446 35.9868 126.067 35.7289C126.688 35.5402 127.441 35.5402 127.931 36.0245C128.251 36.3327 128.433 36.7542 128.508 37.1882H128.464V37.1945Z" fill="black"/>
<path d="M123.043 34.8041C125.509 32.7409 130.097 32.8164 131.465 36.1565C132.902 40.0754 130.643 45.6045 127.957 48.5232C126.482 50.1587 122.855 52.4546 121.411 49.6492L121.499 49.5926C123.156 51.8508 125.992 49.473 127.304 47.9634C129.601 45.2963 132.707 37.9178 129.664 35.0431C127.856 33.4076 125.076 33.741 123.093 34.8984L123.037 34.8104L123.043 34.8041Z" fill="black"/>
<path d="M66.2402 37.1882C66.2653 35.8672 67.5205 35.0998 68.7505 35.515C69.4722 35.7729 69.8613 36.4899 70.1877 37.1001C70.9094 38.7419 71.3173 40.4528 71.5495 42.2267L71.5809 42.5098C70.9784 42.7928 70.3948 43.252 70.0496 43.8685C68.8572 46.0009 70.3697 47.4288 72.3779 47.8754C70.0935 47.8313 68.4681 45.8121 69.6919 43.6672C69.9743 43.1388 70.6709 42.3965 71.1039 42.2896C70.7588 40.6164 70.2065 35.6408 68.0225 35.6848C67.5958 35.6533 67.1565 35.7729 66.849 36.0748C66.5352 36.3704 66.3532 36.7856 66.2842 37.2007H66.2402V37.1882Z" fill="black"/>
<path d="M71.65 34.8985C69.6418 34.0682 67.0875 33.8669 65.5061 35.5149C63.1401 38.1946 66.0709 45.007 67.9662 47.5105C69.1523 48.9636 71.399 51.4042 73.2441 49.5989L73.3319 49.6555C71.6437 52.0206 68.6753 49.6429 67.3135 48.0766C64.8973 45.2775 61.7908 37.9681 64.9726 34.9362C66.8491 33.2693 69.6794 33.6153 71.7002 34.8104L71.6437 34.8985H71.65Z" fill="black"/>
<path d="M12.0742 79.8552L26.8034 71.9923" stroke="black" stroke-miterlimit="10"/>
<path d="M168.008 71.9923L183.176 79.8552" stroke="black" stroke-miterlimit="10"/>
</g>
<defs>
<clipPath id="clip0_870_1169">
<rect width="198" height="162" fill="white"/>
</clipPath>
</defs>
</svg>
