<svg width="224" height="105" viewBox="0 0 224 105" fill="none" xmlns="http://www.w3.org/2000/svg">
<g id="Capa_1" clip-path="url(#clip0_1139_1598)">
<path id="Vector" d="M224 84.9261C223.706 80.6824 223.444 76.4387 223.115 72.2003C222.785 67.967 222.507 63.7129 221.947 59.5267C221.784 57.9327 221.324 56.5216 220.491 55.1889C216.752 49.461 210.133 46.1423 203.483 45.1075C199.356 44.5274 195.078 43.6546 190.946 44.1929C186.548 44.7156 184.526 49.0638 182.85 52.6542C182.013 54.5774 181.28 56.5686 180.824 58.5964C180.62 59.6051 180.436 60.6555 180.74 61.5388C182.002 64.3975 184.133 66.9165 185.437 69.8067C186.385 71.7299 187.045 73.8256 187.239 75.9736L187.076 75.8116C187.81 75.8691 188.6 75.6757 189.255 75.2837C191.339 74.0033 191.742 71.2752 191.836 69.0227C191.962 72.1689 190.889 76.2349 187.035 76.167C186.945 76.167 186.877 76.0886 186.872 76.0049C186.621 73.9197 185.888 71.9233 184.935 70.0523C183.547 67.1413 181.384 64.7477 180.028 61.7896C179.62 60.6869 179.829 59.5423 180.017 58.4344C180.442 56.2969 181.17 54.2691 182.018 52.2936C183.751 48.4262 186.055 43.7905 190.779 43.2156C195.125 42.6146 199.388 43.4665 203.64 44.1093C210.515 45.233 217.422 48.7188 221.214 54.7447C222.072 56.1453 222.57 57.8229 222.69 59.4221C223.57 67.9148 223.78 76.4074 223.994 84.9261H224Z" fill="black"/>
<path id="Vector_2" d="M192.638 51.7552C191.318 55.8631 189.548 59.8977 188.925 64.1728C188.831 65.0194 189.344 65.4375 189.873 66.1065L191.025 67.413C192.601 69.1952 193.973 71.2543 194.638 73.5695C194.963 74.7349 195.089 75.9422 195.094 77.1338L194.738 76.7993C196.848 76.6164 198.173 74.5311 198.67 72.6392C198.435 74.8081 197.131 77.1338 194.774 77.4787C194.596 77.5048 194.434 77.3742 194.424 77.1965C194.293 73.026 191.831 69.7178 189.093 66.7702C188.716 66.2998 188.307 65.8608 188.035 65.1762C187.705 63.8696 188.229 62.6781 188.538 61.4499C189.601 58.0947 191.051 54.8805 192.648 51.7552H192.638Z" fill="black"/>
<path id="Vector_3" d="M199.084 54.4729C197.911 57.3682 196.759 60.2792 195.979 63.2948C195.749 64.4341 195.319 65.7563 195.869 66.8277C197.66 70.2665 200.456 73.3761 201.624 77.139L200.959 76.7993C202.174 76.2767 203.368 75.43 204.169 74.343C206.777 70.8101 204.955 65.6831 201.944 62.9394C205.232 65.2912 207.243 70.0209 205.504 73.8779C204.619 75.6286 203.127 76.9718 201.315 77.7505C201.038 77.8707 200.718 77.7034 200.65 77.4108C200.053 75.498 198.891 73.7211 197.849 71.9912C196.812 70.1934 195.319 68.3694 194.764 66.3521C194.633 64.1466 195.576 62.1241 196.33 60.1224C197.142 58.1887 198.063 56.3021 199.084 54.4729Z" fill="black"/>
<path id="Vector_4" d="M185.448 46.3513C184.254 46.4767 182.992 46.5969 181.955 47.2084C180.714 48.7867 180.018 50.7831 179.185 52.6123C178.216 55.053 177.137 57.5197 176.645 60.0963C176.556 60.7025 176.86 61.0683 177.027 61.6432C178.153 64.7424 179.353 67.8415 180.196 71.0713C180.41 71.9232 180.625 72.7855 180.672 73.7001C180.672 73.7106 180.688 73.7262 180.704 73.7315C180.724 73.7315 180.73 73.7419 180.761 73.721C182.463 72.472 184.071 70.8727 184.552 68.7248C184.49 69.5505 184.217 70.371 183.804 71.1027C183.139 72.3047 182.201 73.3395 181.143 74.2123C180.861 74.4579 180.363 74.4109 180.133 74.0921C180.002 73.9457 179.986 73.6844 179.976 73.6322C179.871 72.8639 179.646 72.0695 179.405 71.2908C178.42 68.0662 176.708 64.0107 175.629 60.7809C175.525 60.2896 175.645 59.7775 175.744 59.3071C176.368 56.856 177.378 54.5565 178.436 52.2831C179.389 50.433 180.206 48.4261 181.699 46.9053C182.83 46.3199 184.202 46.3095 185.443 46.3513H185.448Z" fill="black"/>
<path id="Vector_5" d="M206.777 57.6191C206.725 59.8716 205.646 63.4359 203.599 64.6223C204.641 62.2548 205.222 59.741 206.777 57.6191Z" fill="black"/>
<path id="Vector_6" d="M0 61.7582C1.42435 58.9413 4.1369 57.0076 6.8704 55.5443C12.5311 52.5653 19.0873 52.3772 25.3189 53.1088C29.8695 53.6106 35.6978 53.9973 38.0804 58.5807C39.9604 62.2861 41.7513 71.0191 40.2536 74.9179C38.9759 77.0188 36.9703 78.3463 35.3469 80.0918C33.1685 82.2659 31.1629 84.6909 30.1208 87.5862C30.0894 87.696 29.9847 87.7691 29.8747 87.743C29.0107 87.581 28.2775 87.1472 27.691 86.5514C25.942 84.7014 26.2562 81.9106 26.827 79.6424C26.429 81.8478 26.2039 84.5968 27.9476 86.2953C28.4922 86.8127 29.2201 87.1786 29.9271 87.2779L29.6809 87.4347C30.6288 84.3982 32.671 81.8478 34.818 79.5692C36.3262 77.8811 38.2742 76.4073 39.4524 74.5207C40.7197 70.7578 38.9654 62.6049 37.164 59.0667C34.9542 54.8126 29.482 54.567 25.2351 54.0182C20.6426 53.5322 15.9402 53.1559 11.4315 54.3997C7.04844 55.6227 2.47167 57.7602 0.00523658 61.7582H0Z" fill="black"/>
<path id="Vector_7" d="M29.9642 62.6362C30.9225 66.6186 31.797 70.6742 31.8179 74.7976C31.776 75.4927 31.8022 76.0781 31.4147 76.7523C30.603 77.8236 29.5871 78.3306 28.5974 79.0988C25.7644 81.0325 23.3922 83.6665 22.4601 87.0166C22.4078 87.189 22.2193 87.2779 22.0517 87.2151C19.8366 86.3424 19.093 83.7867 19.3548 81.6179C19.4072 83.5725 20.2241 85.9034 22.2402 86.5566L21.816 86.8023C22.0936 85.6421 22.4916 84.4975 23.0728 83.4314C24.2458 81.3252 26.0524 79.6267 27.99 78.2522L29.4091 77.2435C30.0741 76.7104 30.6711 76.423 30.7706 75.5711C31.1319 71.2647 30.3202 66.9374 29.9694 62.6362H29.9642Z" fill="black"/>
<path id="Vector_8" d="M23.0669 63.8279C23.6429 65.84 24.109 67.8886 24.465 69.953C24.7478 72.0748 25.2086 74.2594 24.5802 76.3708C24.1247 77.3742 23.2397 78.1372 22.517 78.9473C21.0613 80.442 19.5322 81.8635 18.155 83.4105C17.4742 84.1735 16.8196 84.9679 16.3379 85.8093C16.2122 86.0602 15.9032 86.1595 15.6571 86.0184C14.0442 84.8634 12.8765 83.191 12.4104 81.273C11.5935 77.1286 14.6255 72.9737 18.3644 71.4268C14.8088 73.418 11.8711 78.0014 13.6096 82.0308C14.1437 83.2746 15.1177 84.3721 16.1808 85.1508L15.4529 85.3285C17.4428 81.9315 20.878 79.5274 23.402 76.5851C24.1875 75.6705 24.0618 74.2855 24.0985 73.1201C24.0252 70.0053 23.5591 66.9113 23.0773 63.8226L23.0669 63.8279Z" fill="black"/>
<path id="Vector_9" d="M38.19 59.004C39.4102 59.2444 40.7455 59.5632 41.7142 60.389C42.8244 62.2025 43.1595 64.3452 43.6727 66.3625C44.1859 68.8189 44.652 71.2856 44.6991 73.8151C44.6939 74.296 44.6939 74.8186 44.4792 75.2785C42.6935 78.1843 40.1119 81.7381 38.4152 84.6595C38.0067 85.3651 37.6035 86.0863 37.326 86.8075C37.305 86.8546 37.2265 87.1054 37.0694 87.2204C36.7762 87.4765 36.2787 87.4138 36.0587 87.1106C35.2314 86.0236 34.5454 84.8006 34.1736 83.4784C33.9327 82.6736 33.8594 81.8165 33.9798 80.996C33.9589 83.1962 35.1633 85.1142 36.5405 86.7187C36.5667 86.7448 36.5772 86.7396 36.5929 86.7396C36.6086 86.7396 36.6243 86.7291 36.6295 86.7187C36.8861 85.8354 37.2946 85.0463 37.6926 84.2676C39.2478 81.3095 41.1173 78.5605 42.9187 75.8011C43.2119 75.2837 43.5837 74.9963 43.6413 74.3796C43.746 71.7612 43.2538 69.1115 42.8663 66.5193C42.4736 64.549 42.2431 62.4481 41.3948 60.6294C40.5203 59.7984 39.3211 59.4012 38.1848 59.004H38.19Z" fill="black"/>
<path id="Vector_10" d="M14.8615 65.1553C15.8931 67.575 15.8878 70.1568 16.3644 72.6967C14.6363 71.0818 14.3954 67.366 14.8615 65.1553Z" fill="black"/>
<g id="Clip path group">
<mask id="mask0_1139_1598" style="mask-type:luminance" maskUnits="userSpaceOnUse" x="54" y="0" width="129" height="84">
<g id="clippath">
<path id="Vector_11" d="M182.762 0H54.4658V83.8808H182.762V0Z" fill="white"/>
</g>
</mask>
<g mask="url(#mask0_1139_1598)">
<g id="Group">
<g id="Group_2">
<path id="Vector_12" d="M96.306 31.8643C96.306 31.8643 90.7238 41.6373 88.9434 42.2279C88.9434 42.2279 90.9542 46.9314 99.2175 46.5656C107.481 46.1998 111.901 38.7785 112.23 32.3503L96.306 31.8643Z" fill="black"/>
<path id="Vector_13" d="M141.267 31.8643C141.267 31.8643 146.849 41.6373 148.63 42.2279C148.63 42.2279 146.619 46.9314 138.356 46.5656C130.092 46.1998 125.673 38.7785 125.343 32.3503L141.267 31.8643Z" fill="black"/>
<path id="Vector_14" d="M81.2977 47.684C77.1712 48.17 72.584 48.6195 69.6463 51.7813C67.7087 53.6314 65.6665 55.3351 63.3938 56.7828L63.5142 56.0773C64.1007 57.0493 64.8129 58.1991 65.9964 58.497C66.0278 58.497 66.054 58.5231 66.0487 58.5545C65.4832 58.7061 64.7186 58.1573 64.2945 57.8072C63.8127 57.3943 63.399 56.9135 63.0325 56.4013C63.0115 56.3752 63.0167 56.3386 63.0429 56.3177C64.4306 55.2411 65.7607 54.0861 67.0542 52.8997C68.3947 51.75 69.4839 50.3232 71.0025 49.3929C74.1078 47.6369 77.8153 47.3965 81.3081 47.5899C81.3343 47.5899 81.3553 47.616 81.3553 47.6422C81.3553 47.6735 81.3291 47.6892 81.3029 47.6892L81.2977 47.684Z" fill="black"/>
<path id="Vector_15" d="M78.0092 55.3142C74.5059 54.708 70.8089 55.701 68.0125 57.8385C65.3471 60.253 63.0692 63.6187 59.3512 64.8155L59.9168 63.7703C60.3514 65.1291 61.1631 66.4461 62.0114 67.5958C64.3679 70.7473 67.9183 72.7959 71.6258 74.0659C72.2489 74.2018 73.6995 74.6565 74.3069 74.7819C74.9091 74.8812 76.4487 75.1268 77.0614 75.2314C79.554 75.5188 82.0571 75.5711 84.5811 75.5815C84.6125 75.5815 84.6387 75.6024 84.6387 75.6338C84.6387 75.6599 84.6177 75.6808 84.5916 75.6808L80.8055 75.9108C79.5435 75.8846 78.2762 75.8637 77.0142 75.7958C76.3701 75.7174 74.8044 75.5188 74.1865 75.4456C73.5738 75.3254 72.0447 74.9596 71.4111 74.8185C70.8089 74.6251 70.2119 74.4056 69.6149 74.2018C64.8968 72.4562 60.6133 68.8919 58.9899 64.0159C58.9742 63.9689 59.0004 63.9166 59.0475 63.9061C60.7651 63.326 62.289 62.2756 63.6138 61.0422C65.609 59.2234 67.358 56.9239 69.9815 55.9466C72.4951 54.8648 75.3752 54.5042 78.0406 55.2202C78.1034 55.2515 78.0773 55.3299 78.0092 55.3142Z" fill="black"/>
<path id="Vector_16" d="M74.2752 75.8429C77.1972 79.0256 82.3657 80.0238 86.4974 80.6144C88.4873 80.8287 90.5924 81.1161 92.3728 82.1666C96.3421 84.2257 97.4785 89.2743 96.3631 93.3298L96.3212 92.7288C96.3107 92.7079 96.2688 92.619 96.2636 92.619C96.583 92.896 97.1276 93.126 97.5727 93.3089C101.008 94.4848 104.668 94.8506 108.266 95.2792C112.612 95.7443 117.037 95.969 121.394 96.314C121.457 96.314 121.462 96.4185 121.394 96.4133C117.561 96.4028 113.691 96.3401 109.858 96.1258C106.758 95.9011 97.3842 95.3367 95.4362 93.1312C96.3474 89.4519 95.5357 84.8842 91.9277 82.9453C89.6812 81.576 86.9791 81.5656 84.4708 81.0064C83.1983 80.7555 81.9415 80.4001 80.7109 79.9977C78.3021 79.1093 75.7676 78.0222 74.1966 75.8951C74.1809 75.8742 74.1862 75.8429 74.2071 75.8272C74.2333 75.8115 74.2647 75.822 74.2804 75.8481L74.2752 75.8429Z" fill="black"/>
<path id="Vector_17" d="M156.412 47.5848C159.821 46.7433 163.9 46.9994 166.712 49.3146C167.167 49.7275 167.665 50.2449 168.032 50.6891C169.571 52.4033 171.289 54.29 172.844 55.9624C173.389 56.4327 172.655 56.9867 172.352 57.3473C171.718 57.9797 170.891 58.7061 169.927 58.5964C169.864 58.5964 169.864 58.5023 169.927 58.4971C171.095 58.3717 171.844 57.2324 172.446 56.3334L172.462 56.4171C171.242 55.3666 170.09 54.2482 168.964 53.1036C167.806 52.0061 166.859 50.6525 165.607 49.6857C162.994 47.8199 159.553 47.5116 156.422 47.6893C156.364 47.6997 156.349 47.5952 156.412 47.59V47.5848Z" fill="black"/>
<path id="Vector_18" d="M159.297 55.2202C162.302 54.0129 165.91 54.7707 168.534 56.5947C170.058 57.7549 171.262 59.26 172.587 60.5771C173.723 61.7268 174.985 62.6571 176.378 63.1902C177.515 63.7128 176.499 65.1918 176.279 65.9705C175.567 67.6534 174.545 69.1899 173.315 70.5382C168.838 75.5554 161.632 76.8985 155.233 75.9787L153.515 75.6808C153.489 75.6808 153.468 75.6495 153.473 75.6233C157.998 75.9944 162.842 75.8794 167.073 73.9144C171.246 72.0434 174.666 68.3746 175.959 63.9741L176.017 64.0786C174.441 63.4672 173.105 62.3906 171.964 61.1833C170.225 59.4168 168.859 57.2166 166.544 56.1452C164.36 55.0164 161.716 54.5878 159.338 55.309C159.281 55.3352 159.244 55.2359 159.302 55.215L159.297 55.2202Z" fill="black"/>
<path id="Vector_19" d="M162.71 75.8899C160.831 79.1354 156.982 80.6458 153.52 81.5917C152.353 81.9262 151.064 82.1091 150.012 82.407C146.587 83.2171 144.534 86.102 144.471 89.5513C144.424 90.654 144.498 91.8403 144.723 92.8804C144.775 93.0581 144.775 93.2567 144.686 93.4134C144.461 93.8524 144.367 93.8577 144.22 94.0145C143.461 94.6521 142.529 94.997 141.612 95.2949C134.941 97.077 127.856 96.8105 121.017 96.4133C120.959 96.4133 120.959 96.314 121.017 96.314C124.913 96.2826 128.814 96.2095 132.7 95.8593C135.124 95.6503 137.549 95.3576 139.91 94.7879C141.199 94.49 142.963 93.9256 143.77 93.1155C143.01 89.6401 143.482 85.3964 146.509 83.1178C148.457 81.5551 151.028 81.4454 153.358 80.9228C154.536 80.6824 155.688 80.3113 156.819 79.9089C159.003 79.0257 161.302 77.8707 162.616 75.8481C162.642 75.7906 162.737 75.8377 162.705 75.8899H162.71Z" fill="black"/>
<path id="Vector_20" d="M88.2568 48.0341C86.6649 49.6961 84.9421 51.2273 83.0464 52.56C82.3657 53.0618 81.6064 53.5008 80.8837 53.945C79.8573 54.6558 79.009 55.654 78.4854 56.7985C76.1708 61.638 80.4491 64.2197 84.5965 65.3381C84.6541 65.3538 84.6331 65.4479 84.5755 65.4322C82.3342 65.1082 79.9883 64.4758 78.3544 62.8139C75.7362 60.1746 77.0348 55.7689 79.7055 53.6732C80.6062 52.952 81.6797 52.5339 82.6275 51.8963C84.5493 50.6838 86.3978 49.3511 88.194 47.9557C88.2411 47.9192 88.3092 47.9923 88.2568 48.0341Z" fill="black"/>
<path id="Vector_21" d="M148.451 47.9558C150.431 49.0794 152.379 50.2553 154.353 51.3633C154.631 51.5044 155.94 52.2099 156.196 52.3249C157.778 53.0984 159.008 54.4676 159.773 56.0303C162.402 61.8209 157.626 65.6152 152.07 65.4375C152.007 65.4375 151.991 65.3539 152.054 65.3382C154.264 65.0037 156.589 64.3556 158.181 62.7146C160.71 60.1276 159.385 55.8735 156.825 53.8144C155.95 53.1036 154.866 52.6646 153.934 52.027C152.012 50.7988 150.174 49.4452 148.389 48.0342C148.341 47.9976 148.399 47.914 148.451 47.9558Z" fill="black"/>
<path id="Vector_22" d="M90.614 54.9171C89.7133 58.3036 88.6556 61.6746 86.9798 64.7789C86.4457 65.6987 85.8435 66.6865 84.9009 67.2666C83.8693 67.7527 83.6022 68.9651 83.8903 70.1306C84.3511 72.1009 86.1001 74.0084 88.2576 73.559C98.6417 72.1479 109.089 70.857 119.63 70.763C124.107 70.7525 129.218 71.0086 133.664 71.4215C138.309 71.8134 142.985 72.3726 147.557 72.9162C148.688 73.0102 149.819 73.0991 150.599 72.6601C152.06 71.5939 154.265 69.7438 153.312 67.7056C153.144 67.2927 152.835 66.791 152.631 66.3782C151.5 65.15 149.819 64.2041 148.62 62.955C146.08 60.5091 144.163 57.2009 143.603 53.7568C144.284 55.9257 145.153 58.1991 146.577 60.0649C147.955 61.9463 149.74 63.4619 151.641 64.7998C152.353 65.2963 153.097 65.8555 153.443 66.6813C154.312 67.9878 154.448 69.5191 153.448 70.8048C152.762 71.7507 151.934 72.6078 150.955 73.2663C149.908 73.8673 148.651 73.7419 147.499 73.6792C142.854 73.2402 138.236 72.6705 133.585 72.3151C130.375 72.0434 126.364 71.8134 123.123 71.7559C112.644 71.5939 102.166 72.5503 91.7818 73.8726C90.0537 73.9875 88.268 74.5311 86.5452 74.1496C84.8381 73.5956 83.686 71.9336 83.3038 70.2403C83.0472 69.1115 83.2252 67.7161 84.2621 67.0262C85.3356 66.5245 86.0058 65.5263 86.6028 64.5438C88.3466 61.523 89.4777 58.1887 90.5093 54.8752C90.525 54.8125 90.6245 54.8439 90.6036 54.9014L90.614 54.9171Z" fill="black"/>
<path id="Vector_23" d="M81.6226 50.1926C80.1669 49.2936 80.0307 47.1248 81.3399 46.0377C81.3661 46.0168 81.4132 46.0377 81.408 46.0691C81.387 46.7589 81.3713 47.4436 81.4446 48.1282C81.4813 48.8128 81.5912 49.4922 81.7221 50.1664C81.7274 50.2239 81.6645 50.2291 81.6279 50.1926H81.6226Z" fill="black"/>
<path id="Vector_24" d="M156.322 50.1664C155.505 48.8599 155.626 47.407 156.647 46.252C156.668 46.2311 156.699 46.1893 156.731 46.2206C156.919 47.5376 156.793 48.9174 156.416 50.1926C156.39 50.25 156.338 50.2082 156.322 50.1664Z" fill="black"/>
<path id="Vector_25" d="M97.2907 28.9271C103.271 28.718 109.256 28.833 115.226 29.2615C115.425 29.272 115.582 29.434 115.593 29.6326C115.755 33.3798 115.142 37.127 113.592 40.5502C111.335 45.8078 105.942 49.2623 100.297 49.6856C94.8662 50.2135 88.6451 49.2623 85.0371 44.7939C88.8284 48.9435 94.7405 49.8999 100.249 49.2675C105.816 48.7606 110.848 45.4994 113.131 40.3359C114.697 37.0852 115.231 33.1028 115.189 29.7058C109.293 29.1466 103.051 29.0629 97.2907 28.9271Z" fill="black"/>
<path id="Vector_26" d="M95.9654 31.8433C101.39 31.5873 106.837 31.5925 112.262 31.9374C112.492 31.9531 112.665 32.1569 112.649 32.3816C112.429 35.209 111.759 38.0625 110.303 40.5816C108.14 44.4333 103.81 46.6022 99.4896 46.8321C95.3317 47.1248 90.5926 46.5133 87.6392 43.3149C87.613 43.294 87.6549 43.2522 87.6759 43.2783C88.6603 44.2713 89.8752 45.0186 91.1791 45.5256C92.483 46.0273 93.8707 46.3095 95.2637 46.4349C98.0443 46.6544 100.909 46.482 103.548 45.5465C109.13 43.7069 111.832 37.8587 112.194 32.3451C107.109 32.0524 101.108 31.8956 95.9706 31.8381L95.9654 31.8433Z" fill="black"/>
<path id="Vector_27" d="M88.9639 42.2122C91.1842 43.8636 93.415 45.1441 95.7505 46.5447C95.7714 46.5604 95.7505 46.6022 95.7295 46.5917C94.4361 46.1736 93.1741 45.6249 92.0063 44.9141C91.0794 44.3236 89.4037 43.0484 88.9639 42.2174V42.2122Z" fill="black"/>
<path id="Vector_28" d="M140.115 28.9794C134.234 29.1466 128.066 29.4916 122.216 30.0665L122.583 29.7163C122.269 33.2963 122.698 37.0539 124.112 40.3673C126.296 45.6563 131.202 48.5725 136.805 48.9749C142.168 49.4557 148.237 48.6666 152.133 44.5954C148.614 48.8338 142.131 49.8163 136.769 49.393C131.077 49.0794 125.809 45.9646 123.641 40.5659C122.216 37.1375 121.792 33.3381 122.143 29.6588C128.013 29.1205 134.349 28.8278 140.115 28.9794Z" fill="black"/>
<path id="Vector_29" d="M141.602 31.8956C136.287 32.0315 130.485 32.3503 125.175 32.7632L125.562 32.3137C125.955 37.7176 128.615 43.4508 134.077 45.2329C138.963 46.8008 145.954 46.9158 149.876 43.1006C146.394 47.1457 138.806 47.2503 133.925 45.6667C131.228 44.7626 128.898 42.8811 127.469 40.4196C126.06 37.979 125.238 35.0627 125.144 32.3033C130.563 31.974 136.329 31.6709 141.602 31.8904V31.8956Z" fill="black"/>
<path id="Vector_30" d="M148.583 42.0867C147.305 44.6685 144.467 46.32 141.644 46.5917C141.613 46.5969 141.597 46.5551 141.628 46.5395C142.948 46.09 144.226 45.5151 145.399 44.7678C146.577 44.0361 147.651 43.1215 148.541 42.0554C148.562 42.0292 148.604 42.0606 148.583 42.0867Z" fill="black"/>
<path id="Vector_31" d="M89.0117 66.7493C97.4426 64.5438 106.251 63.624 114.954 63.3418C123.667 63.0857 132.481 63.6919 141.079 65.1762C143.535 65.6047 145.97 66.1796 148.395 66.7493C148.452 66.7597 148.436 66.859 148.374 66.8486C128.883 63.2895 108.246 63.5665 89.0117 66.7493Z" fill="black"/>
<path id="Vector_32" d="M92.9389 74.2176C95.3058 76.8202 98.4058 78.8428 101.899 79.2765C104.192 79.5535 110.146 78.8637 112.539 78.7748C114.938 78.6285 117.347 78.524 119.755 78.4769C123.379 78.4456 127.029 78.5501 130.632 79.0466C134.072 79.6528 137.633 79.8096 140.901 78.3567C143.042 77.4578 145.001 76.0206 146.488 74.1548C146.52 74.1078 146.603 74.1653 146.567 74.2123C145.221 76.2192 143.283 77.7714 141.126 78.8323C138.942 79.8566 136.518 80.3218 134.114 80.2538C131.71 80.1389 129.354 79.6999 126.95 79.6058C124.557 79.4647 122.164 79.4386 119.766 79.4751C114.974 79.5222 110.188 79.888 105.397 80.05C104.198 80.0761 102.983 80.1336 101.794 79.9298C98.2069 79.3758 95.044 77.1077 92.8498 74.2855C92.8079 74.2332 92.897 74.1705 92.9336 74.228L92.9389 74.2176Z" fill="black"/>
<path id="Vector_33" d="M115.194 29.6378C116.875 29.1413 118.624 29.1204 120.347 29.2929C120.923 29.3608 121.499 29.4549 122.075 29.643C122.101 29.6483 122.096 29.6953 122.07 29.6953C120.357 29.7214 116.912 29.7214 115.199 29.6953C115.168 29.6953 115.168 29.6483 115.199 29.643L115.194 29.6378Z" fill="black"/>
<path id="Vector_34" d="M115.194 32.5436C116.875 32.0471 118.624 32.0262 120.347 32.1986C120.923 32.2666 121.499 32.3607 122.075 32.5488C122.101 32.554 122.096 32.6011 122.07 32.6011C120.357 32.6272 116.912 32.6272 115.199 32.6011C115.168 32.6011 115.168 32.554 115.199 32.5488L115.194 32.5436Z" fill="black"/>
<path id="Vector_35" d="M117.179 13.7554C113.89 13.029 110.266 13.4993 107.37 15.1508C104.553 17.027 102.846 20.006 101.265 22.9692C100.207 24.9866 99.238 27.0771 98.2431 29.1728C94.3366 37.5452 88.6758 46.989 78.1555 46.6127C78.0927 46.6127 78.0927 46.5134 78.1555 46.5134C85.5705 46.3096 90.8228 41.0624 94.1899 34.9112C96.4836 30.8922 98.2483 26.6015 100.442 22.5302C102.589 18.5583 105.517 14.1944 110.319 13.4105C112.591 12.9663 114.995 12.9349 117.22 13.6666C117.247 13.677 117.262 13.7032 117.252 13.7293C117.241 13.7606 117.21 13.7711 117.184 13.7606L117.179 13.7554Z" fill="black"/>
<path id="Vector_36" d="M73.7779 48.0028C72.9976 44.59 74.2492 40.9003 76.6999 38.4127C77.7263 37.4301 78.9464 36.641 80.1089 35.8727C82.7272 34.2055 85.225 32.4809 87.4087 30.2911C90.7601 27.0404 93.2684 23.1625 95.6982 19.1436C95.7191 19.0861 95.8186 19.1279 95.7872 19.1854C94.4728 22.0337 92.9647 24.8036 91.111 27.3435C88.3722 31.2057 84.6804 34.2839 80.6064 36.6671C79.2815 37.5033 77.92 38.3081 76.836 39.4265C74.6838 41.6738 73.5265 44.8879 73.8774 47.9871C73.8878 48.0446 73.7883 48.0655 73.7779 48.0028Z" fill="black"/>
<path id="Vector_37" d="M118.032 11.1737C114.461 8.18949 110.089 5.81156 105.37 5.85337C101.799 5.99971 98.411 7.56235 95.6932 9.8253C91.3154 13.2955 88.3568 18.2134 85.3562 22.8543C83.7171 25.227 81.7115 27.422 79.5122 29.2303C74.6945 32.413 73.8514 38.5277 74.108 44.0779C74.1237 44.1407 74.0138 44.1563 74.0085 44.0936C73.6001 39.944 73.7048 35.3397 76.0665 31.7441C76.8729 30.5629 77.9517 29.6118 78.9938 28.6606C81.1146 26.7896 83.0207 24.6834 84.5864 22.3316C87.587 17.5601 90.5928 12.6109 95.1172 9.09363C98.1492 6.65821 101.967 4.99627 105.91 5.18442C109.125 5.29939 112.167 6.66344 114.807 8.4299C115.98 9.22428 117.095 10.1075 118.111 11.1057C118.158 11.1475 118.085 11.2207 118.038 11.1737H118.032Z" fill="black"/>
<path id="Vector_38" d="M77.4595 29.4445C77.4857 22.1278 81.5702 14.7066 88.1055 11.2259C90.2787 10.0918 92.787 9.25561 95.1435 9.19812C92.8917 9.8514 90.5405 10.6197 88.5087 11.8948C84.4242 14.3616 81.3503 18.2604 79.4861 22.6191C78.5592 24.8036 77.8732 27.1032 77.5538 29.455C77.5538 29.5124 77.4491 29.5072 77.4543 29.4445H77.4595Z" fill="black"/>
<path id="Vector_39" d="M120.31 13.6665C123.625 12.3914 127.542 12.5534 130.742 14.1474C132.862 15.3389 134.569 17.1629 135.9 19.1541C140.408 25.8489 142.576 33.9234 147.76 40.1583C150.258 43.2104 153.767 45.4524 157.658 46.2311L159.365 46.5186C159.427 46.5186 159.427 46.6231 159.365 46.6179C154.673 46.5029 150.248 44.1824 147.19 40.6757C142.54 35.4338 140.188 28.7076 136.936 22.6138C134.816 18.6576 131.956 14.3355 127.186 13.5359C124.934 13.0864 122.541 13.0499 120.347 13.7606C120.289 13.7868 120.253 13.6927 120.31 13.6665Z" fill="black"/>
<path id="Vector_40" d="M163.648 47.9871C163.669 44.8566 162.323 41.9038 160.229 39.8604C157.982 37.8744 154.945 36.5887 152.515 34.6916C149.289 32.2719 146.608 29.1727 144.639 25.6816C143.445 23.6486 142.513 21.3909 141.738 19.1802C141.712 19.1279 141.801 19.0809 141.827 19.1384C143.157 21.971 144.676 24.7305 146.535 27.2495C149.289 31.0855 152.976 34.1011 157.013 36.5156C158.333 37.357 159.7 38.1775 160.799 39.3221C162.972 41.6111 164.119 44.8619 163.748 48.0028C163.748 48.0289 163.721 48.0499 163.695 48.0446C163.664 48.0446 163.648 48.0133 163.653 47.9819L163.648 47.9871Z" fill="black"/>
<path id="Vector_41" d="M119.426 11.1057C129.616 0.433737 140.807 3.80465 148.913 14.764C150.641 17.0322 152.039 19.5147 153.579 21.9031C155.087 24.2549 156.925 26.2774 158.962 28.2006C159.972 29.1727 161.067 30.1814 161.894 31.4514C162.737 32.7057 163.224 34.1324 163.528 35.5487C164.067 38.3813 164.041 41.2714 163.528 44.0936C163.518 44.1563 163.418 44.1406 163.429 44.0779C163.821 39.9596 163.706 35.3763 161.36 31.8172C160.559 30.657 159.491 29.7163 158.443 28.7703C156.317 26.8993 154.39 24.7827 152.809 22.4257C149.793 17.6803 146.802 12.7467 142.315 9.22947C137.806 5.53453 131.993 4.09209 126.511 6.50661C123.913 7.60411 121.525 9.21379 119.499 11.1736C119.457 11.2207 119.384 11.1475 119.426 11.1057Z" fill="black"/>
<path id="Vector_42" d="M159.967 29.4549C157.574 20.8839 152.542 13.3999 144.08 9.92972C143.593 9.70499 142.912 9.47504 142.42 9.25031C142.362 9.23986 142.378 9.13533 142.44 9.15101C149.62 10.6457 155.464 15.7988 158.171 22.5563C159.088 24.7617 159.763 27.0717 160.062 29.4392C160.062 29.4653 160.046 29.4915 160.02 29.4915C159.988 29.4915 159.967 29.4758 159.962 29.4444L159.967 29.4549Z" fill="black"/>
<path id="Vector_43" d="M112.706 7.18084C115.738 6.23489 118.912 6.19831 122.033 6.52234C123.075 6.64777 124.117 6.83068 125.159 7.18607C125.206 7.20174 125.201 7.28014 125.143 7.28014C122.043 7.32717 115.806 7.32717 112.706 7.28014C112.649 7.28014 112.643 7.18607 112.706 7.18084Z" fill="black"/>
<path id="Vector_44" d="M110.848 44.2295C112.419 41.3812 114.969 37.7699 118.451 37.2995C120.373 37.2368 121.975 38.4859 123.154 39.829C124.29 41.1565 125.295 42.6721 125.892 44.2661C125.007 42.8341 124.065 41.3341 122.86 40.1112C121.038 38.0991 118.566 36.9441 116.121 38.6845C113.948 40.0224 112.282 42.3637 110.853 44.2295H110.848Z" fill="black"/>
</g>
</g>
</g>
</g>
<path id="Vector_45" d="M185.642 83.6195H51.5859V84.9261H185.642V83.6195Z" stroke="black" stroke-linecap="round" stroke-linejoin="round"/>
<path id="Vector_46" d="M185.773 71.5208V84.9261H214.051V63.0857C214.051 62.1607 213.297 61.4081 212.37 61.4081H205.562" stroke="black" stroke-linecap="round" stroke-linejoin="round"/>
<path id="Vector_47" d="M218.24 80.7451H214.051V84.9261H218.24V80.7451Z" stroke="black" stroke-linecap="round" stroke-linejoin="round"/>
<path id="Vector_48" d="M203.698 64.246C207.316 65.7354 209.861 69.284 209.861 73.4284C209.861 78.9107 205.405 83.3583 199.912 83.3583C194.895 83.3583 190.748 79.6529 190.062 74.8343" stroke="black" stroke-linecap="round" stroke-linejoin="round"/>
<path id="Vector_49" d="M194.623 75.7123C194.319 75.012 194.151 74.2385 194.151 73.4285" stroke="black" stroke-linecap="round" stroke-linejoin="round"/>
<path id="Vector_50" d="M205.609 72.587C205.651 72.864 205.672 73.141 205.672 73.4285C205.672 76.606 203.096 79.1773 199.912 79.1773C198.121 79.1773 196.524 78.362 195.466 77.0868" stroke="black" stroke-linecap="round" stroke-linejoin="round"/>
<path id="Vector_51" d="M51.7165 83.8809H50.1455V87.0166H51.7165V83.8809Z" stroke="black" stroke-linecap="round" stroke-linejoin="round"/>
<path id="Vector_52" d="M43.3382 64.0212C45.4119 64.4445 47.3338 65.7093 48.5801 67.4287C49.575 69.0122 50.3762 71.4999 51.0727 73.2298C52.3661 76.3185 54.068 81.8844 57.5713 82.8565C58.0949 82.9297 58.1421 83.6979 57.6341 83.8338C54.5812 84.6804 51.2193 84.1683 48.6743 82.2973C46.2341 80.5151 44.3437 77.7348 44.1185 74.6931C44.7207 77.7975 46.8939 80.374 49.5436 81.9837C51.8477 83.3112 54.7854 83.5986 57.3094 82.8669L57.3723 83.8442C56.2202 83.6091 55.2462 82.8983 54.4765 82.0621C52.3504 79.6162 51.2926 76.491 50.2348 73.5277C49.6379 71.8448 48.9152 69.2631 48.0878 67.7161C47.0353 66.0385 45.3072 64.664 43.333 64.0107L43.3382 64.0212Z" fill="black"/>
<g id="Group_3">
<path id="Vector_53" d="M53.2871 99.5594V104.739H188.653V99.5594" stroke="black" stroke-linecap="round" stroke-linejoin="round"/>
<path id="Vector_54" d="M56.9531 101.65V104.739" stroke="black" stroke-linecap="round" stroke-linejoin="round"/>
<path id="Vector_55" d="M61.666 101.65V104.739" stroke="black" stroke-linecap="round" stroke-linejoin="round"/>
<path id="Vector_56" d="M66.9023 101.65V104.739" stroke="black" stroke-linecap="round" stroke-linejoin="round"/>
<path id="Vector_57" d="M72.6621 99.0369V104.739" stroke="black" stroke-linecap="round" stroke-linejoin="round"/>
<path id="Vector_58" d="M78.4229 101.65V104.739" stroke="black" stroke-linecap="round" stroke-linejoin="round"/>
<path id="Vector_59" d="M83.1357 101.65V104.739" stroke="black" stroke-linecap="round" stroke-linejoin="round"/>
<path id="Vector_60" d="M88.3721 101.65V104.739" stroke="black" stroke-linecap="round" stroke-linejoin="round"/>
<path id="Vector_61" d="M94.1328 99.0369V104.739" stroke="black" stroke-linecap="round" stroke-linejoin="round"/>
<path id="Vector_62" d="M99.3691 101.65V104.739" stroke="black" stroke-linecap="round" stroke-linejoin="round"/>
<path id="Vector_63" d="M104.082 101.65V104.739" stroke="black" stroke-linecap="round" stroke-linejoin="round"/>
<path id="Vector_64" d="M109.318 101.65V104.739" stroke="black" stroke-linecap="round" stroke-linejoin="round"/>
<path id="Vector_65" d="M115.079 99.0369V104.739" stroke="black" stroke-linecap="round" stroke-linejoin="round"/>
<path id="Vector_66" d="M121.887 101.65V104.739" stroke="black" stroke-linecap="round" stroke-linejoin="round"/>
<path id="Vector_67" d="M126.6 101.65V104.739" stroke="black" stroke-linecap="round" stroke-linejoin="round"/>
<path id="Vector_68" d="M131.836 101.65V104.739" stroke="black" stroke-linecap="round" stroke-linejoin="round"/>
<path id="Vector_69" d="M137.596 99.0369V104.739" stroke="black" stroke-linecap="round" stroke-linejoin="round"/>
<path id="Vector_70" d="M144.403 101.65V104.739" stroke="black" stroke-linecap="round" stroke-linejoin="round"/>
<path id="Vector_71" d="M149.116 101.65V104.739" stroke="black" stroke-linecap="round" stroke-linejoin="round"/>
<path id="Vector_72" d="M154.354 101.65V104.739" stroke="black" stroke-linecap="round" stroke-linejoin="round"/>
<path id="Vector_73" d="M160.113 99.0369V104.739" stroke="black" stroke-linecap="round" stroke-linejoin="round"/>
<path id="Vector_74" d="M165.874 101.65V104.739" stroke="black" stroke-linecap="round" stroke-linejoin="round"/>
<path id="Vector_75" d="M170.587 101.65V104.739" stroke="black" stroke-linecap="round" stroke-linejoin="round"/>
<path id="Vector_76" d="M175.823 101.65V104.739" stroke="black" stroke-linecap="round" stroke-linejoin="round"/>
<path id="Vector_77" d="M185.249 101.65V104.739" stroke="black" stroke-linecap="round" stroke-linejoin="round"/>
<path id="Vector_78" d="M181.583 99.0369V104.739" stroke="black" stroke-linecap="round" stroke-linejoin="round"/>
</g>
</g>
<defs>
<clipPath id="clip0_1139_1598">
<rect width="224" height="105" fill="white"/>
</clipPath>
</defs>
</svg>
