<svg width="181" height="160" viewBox="0 0 181 160" fill="none" xmlns="http://www.w3.org/2000/svg">
<g clip-path="url(#clip0_870_720)">
<path d="M60.027 58.7906C57.311 59.162 55.1729 58.6306 53.4842 59.6486C53.4842 59.6486 51.8983 57.5485 51.9754 53.3931" stroke="black" stroke-linecap="round" stroke-linejoin="round"/>
<path d="M127.74 42.1305C127.727 41.6888 127.708 41.2406 127.676 40.7924" stroke="black" stroke-linecap="round" stroke-linejoin="round"/>
<path d="M125.436 59.13C127.298 58.0671 126.79 55.6725 126.367 53.1818C126.309 52.8552 126.63 52.4839 126.758 52.0165" stroke="black" stroke-linecap="round" stroke-linejoin="round"/>
<path d="M59.7257 59.13C59.7257 59.13 56.0787 58.0928 52.9647 60.1673C49.8507 62.2354 46.2229 82.9293 63.8607 83.4479" stroke="black" stroke-linecap="round" stroke-linejoin="round"/>
<path d="M119.355 59.13C119.355 59.13 123.002 58.0928 126.116 60.1673C129.23 62.2354 132.857 82.9293 115.22 83.4479" stroke="black" stroke-linecap="round" stroke-linejoin="round"/>
<path d="M55.5332 63.9897C55.5332 63.9897 58.063 63.7144 60.002 64.7645" stroke="black" stroke-linecap="round" stroke-linejoin="round"/>
<path d="M55.7514 64.7324C55.7514 64.7324 52.7593 75.9117 60.9843 79.6382C60.2652 79.2092 59.2314 76.1166 60.3101 73.754" stroke="black" stroke-linecap="round" stroke-linejoin="round"/>
<path d="M123.586 63.9897C123.586 63.9897 121.056 63.7144 119.117 64.7645" stroke="black" stroke-linecap="round" stroke-linejoin="round"/>
<path d="M123.374 64.7324C123.374 64.7324 126.367 75.9117 118.142 79.6382C118.861 79.2092 119.894 76.1166 118.816 73.754" stroke="black" stroke-linecap="round" stroke-linejoin="round"/>
<path d="M73.4662 98.93C69.2414 94.9026 67.3794 89.87 65.6779 87.3217C62.5638 82.6668 60.3808 72.3391 60.3808 72.3391C60.3808 72.3391 59.7965 68.7215 60.3808 64.5789" stroke="black" stroke-linecap="round" stroke-linejoin="round"/>
<path d="M85.3635 68.1196C85.3635 70.0405 83.829 73.3571 83.829 73.3571C83.829 73.3571 81.235 81.1174 89.537 81.1174C97.839 81.1174 94.802 73.3571 94.802 73.3571C94.802 73.3571 93.7104 70.6808 93.7104 68.1196" stroke="black" stroke-linecap="round" stroke-linejoin="round"/>
<path d="M83.8291 76.9746C83.8291 76.9746 84.3492 75.9374 86.4231 78.0119C88.497 80.0864 91.0909 80.08 92.6512 78.5305C94.205 76.981 93.8904 76.4624 95.3415 76.7185" stroke="black" stroke-linecap="round" stroke-linejoin="round"/>
<path d="M54.2932 79.8943C54.2932 79.8943 53.2209 84.7348 50.627 86.2907C50.627 86.2907 52.7008 86.8093 55.8149 85.7721" stroke="black" stroke-linecap="round" stroke-linejoin="round"/>
<path d="M56.3354 83.6976C56.3354 83.6976 55.1219 85.9194 54.9678 88.7238" stroke="black" stroke-linecap="round" stroke-linejoin="round"/>
<path d="M121.743 83.0574C121.743 83.0574 122.957 85.2792 123.111 88.0836" stroke="black" stroke-linecap="round" stroke-linejoin="round"/>
<path d="M105.691 98.8531C109.865 94.8386 111.708 89.8572 113.403 87.3217C116.517 82.6668 118.7 72.3391 118.7 72.3391C118.7 72.3391 119.445 69.3618 119.098 64.5789" stroke="black" stroke-linecap="round" stroke-linejoin="round"/>
<path d="M124.78 79.8943C124.78 79.8943 125.853 84.7348 128.447 86.2907C128.447 86.2907 126.373 86.8093 123.259 85.7721" stroke="black" stroke-linecap="round" stroke-linejoin="round"/>
<path d="M103.983 86.6877C91.1416 83.4863 75.0898 86.6877 75.0898 86.6877C75.0898 86.6877 77.0161 93.7308 89.8575 93.7308C102.699 93.7308 103.983 86.6877 103.983 86.6877Z" stroke="black" stroke-linecap="round" stroke-linejoin="round"/>
<path d="M60.2196 56.4984C60.2196 56.4984 71.9309 55.0834 87.071 56.4984C87.071 56.4984 88.2331 73.2802 73.6774 73.9205C57.3431 74.6376 60.2196 56.4984 60.2196 56.4984Z" stroke="black" stroke-linecap="round" stroke-linejoin="round"/>
<path d="M72.7534 71.3786C69.1065 71.3786 66.3969 70.2581 64.6954 68.0492C62.5445 65.2511 62.2941 61.2238 62.3711 58.8611C64.5349 58.6818 68.4323 58.4321 73.3891 58.4321C77.1966 58.4321 80.9976 58.5794 84.7152 58.8675C84.5483 61.2045 83.9062 64.9438 81.6718 67.6906C79.8162 69.97 77.0938 71.2057 73.5945 71.3594C73.312 71.3722 73.0295 71.3786 72.7598 71.3786H72.7534Z" stroke="black" stroke-linecap="round" stroke-linejoin="round"/>
<path d="M63.7831 59.1941C63.7831 59.1941 62.621 68.158 71.5329 71.3787" stroke="black" stroke-linecap="round" stroke-linejoin="round"/>
<path d="M119.516 56.4984C119.516 56.4984 107.804 55.0834 92.6641 56.4984C92.6641 56.4984 90.571 73.9205 106.058 73.9205C122.405 73.9205 119.516 56.4984 119.516 56.4984Z" stroke="black" stroke-linecap="round" stroke-linejoin="round"/>
<path d="M106.988 71.3786C110.635 71.3786 113.345 70.2581 115.046 68.0492C117.197 65.2511 117.448 61.2238 117.37 58.8611C115.207 58.6818 111.309 58.4321 106.353 58.4321C102.545 58.4321 98.744 58.5794 95.0264 58.8675C95.1933 61.2045 95.8354 64.9438 98.0698 67.6906C99.9254 69.97 102.648 71.2057 106.147 71.3594C106.43 71.3722 106.712 71.3786 106.982 71.3786H106.988Z" stroke="black" stroke-linecap="round" stroke-linejoin="round"/>
<path d="M115.958 59.1941C115.958 59.1941 117.12 68.158 108.208 71.3787" stroke="black" stroke-linecap="round" stroke-linejoin="round"/>
<path d="M87.0781 56.4984H92.5678" stroke="black" stroke-linecap="round" stroke-linejoin="round"/>
<path d="M87.0781 59.0596H92.5678" stroke="black" stroke-linecap="round" stroke-linejoin="round"/>
<path d="M84.7087 58.8675C84.7087 58.8675 69.7933 58.2208 63.7322 58.8675C63.7322 58.8675 63.0452 69.7971 72.2974 71.3786C81.5497 72.9601 84.9719 62.0625 84.7151 58.8675H84.7087Z" fill="black"/>
<path d="M95.1809 58.8675C95.1809 58.8675 110.096 58.2208 116.157 58.8675C116.157 58.8675 116.844 69.7971 107.592 71.3786C98.3399 72.9601 94.9177 62.0625 95.1745 58.8675H95.1809Z" fill="black"/>
<path d="M61.6322 37.9623C61.6322 37.9623 62.2871 43.4944 51.1793 45.396C46.7747 46.1515 45.9528 49.116 46.5179 52.3303C47.0829 55.5445 67.764 50.275 87.7068 48.8279C107.65 47.3809 129.962 54.3215 133.236 51.8372C136.511 49.3529 135.31 45.7674 133.422 44.1539C131.535 42.5468 116.452 40.8116 119.643 35.6317" stroke="black" stroke-linecap="round" stroke-linejoin="round"/>
<path d="M125.807 41.6375C125.807 41.6375 130.925 40.9012 129.782 35.1066C128.639 29.3121 118.963 31.0088 109.332 30.7783C99.7008 30.5478 99.8549 24.145 90.211 24.5612C90.211 24.5612 85.7165 24.4523 81.1321 28.1852C74.4417 33.634 52.7975 30.2405 49.4523 37.0339C45.4008 45.2615 53.1185 44.8069 53.1185 44.8069" stroke="black" stroke-linecap="round" stroke-linejoin="round"/>
<path d="M57.7539 52.7528C57.7539 52.7528 59.6801 56.5945 62.8905 56.5945C65.356 56.5945 88.6247 52.8232 106.551 54.6736C125.171 56.5945 124.118 51.6195 124.118 51.6195" stroke="black" stroke-linecap="round" stroke-linejoin="round"/>
<path d="M64.1169 85.881C64.1169 85.881 53.5612 88.6086 44.7392 93.7308C35.9171 98.8531 29.4964 98.8531 29.4964 98.8531C29.4964 98.8531 25.6439 104.616 26.9281 111.659" stroke="black" stroke-linecap="round" stroke-linejoin="round"/>
<path d="M114.636 85.881C114.636 85.881 125.191 88.6086 134.013 93.7308C142.836 98.8531 149.256 98.8531 149.256 98.8531C149.256 98.8531 153.109 104.616 151.825 111.659" stroke="black" stroke-linecap="round" stroke-linejoin="round"/>
<path d="M57.7539 32.9169C57.7539 32.9169 61.6063 27.7819 61.6063 20.7388C61.6063 13.6957 67.9821 9.59146 73.8057 7.93313C82.7947 5.372 83.4817 0.0768684 88.5733 1.53031C93.0678 2.81087 90.9426 6.89587 90.9426 6.89587" stroke="black" stroke-linecap="round" stroke-linejoin="round"/>
<path d="M84.7275 10.5134C84.7275 10.5134 92.4324 7.29282 95.6428 2.81085C98.8531 -1.67112 102.706 0.890005 103.99 2.81085" stroke="black" stroke-linecap="round" stroke-linejoin="round"/>
<path d="M90.1602 12.6584C90.1602 12.6584 98.2053 11.7748 102.058 6.0123C105.91 0.249768 109.121 0.89005 111.689 2.17061C114.257 3.45118 113.615 7.29287 112.331 9.85399" stroke="black" stroke-linecap="round" stroke-linejoin="round"/>
<path d="M107.836 9.2136C107.836 9.2136 112.973 8.57332 116.183 13.6956C119.393 18.8178 116.793 26.418 123.554 30.9384" stroke="black" stroke-linecap="round" stroke-linejoin="round"/>
<path d="M106.872 9.53374C106.872 9.53374 96.2783 9.2136 94.9941 22.6595" stroke="black" stroke-linecap="round" stroke-linejoin="round"/>
<path d="M66.7435 24.5804C66.7435 24.5804 65.4915 11.9541 77.6587 13.0554C84.7215 13.6957 85.3636 23.9402 85.3636 23.9402" stroke="black" stroke-linecap="round" stroke-linejoin="round"/>
<path d="M132.672 98.8531H48.329C47.8609 98.8531 47.4814 99.2316 47.4814 99.6983V153.072C47.4814 153.539 47.8609 153.917 48.329 153.917H132.672C133.14 153.917 133.519 153.539 133.519 153.072V99.6983C133.519 99.2316 133.14 98.8531 132.672 98.8531Z" stroke="black" stroke-linecap="round" stroke-linejoin="round"/>
<path d="M128.382 147.95V104.821C128.382 104.354 128.002 103.975 127.534 103.975H53.4649C52.9968 103.975 52.6174 104.354 52.6174 104.821V147.95C52.6174 148.417 52.9968 148.795 53.4649 148.795H127.534C128.002 148.795 128.382 148.417 128.382 147.95Z" stroke="black" stroke-linecap="round" stroke-linejoin="round"/>
<path d="M28.2899 101.197C28.2899 101.197 3.19127 104.584 0.931178 113.259C-1.31607 121.903 2.63267 126.385 13.015 126.385H47.4814" stroke="black" stroke-linecap="round" stroke-linejoin="round"/>
<path d="M10.2412 114.86C10.2412 114.86 12.3922 109.738 24.8034 111.659C37.2082 113.58 47.4814 115.558 47.4814 115.558" stroke="black" stroke-linecap="round" stroke-linejoin="round"/>
<path d="M16.6621 109.738C16.6621 109.738 22.6526 108.316 26.4023 111.908" stroke="black" stroke-linecap="round" stroke-linejoin="round"/>
<path d="M150.212 100.774C150.212 100.774 177.815 104.584 180.069 113.259C182.322 121.935 178.367 126.385 167.985 126.385C157.596 126.385 133.519 126.385 133.519 126.385" stroke="black" stroke-linecap="round" stroke-linejoin="round"/>
<path d="M170.759 114.86C170.759 114.86 168.608 109.738 156.197 111.659C143.785 113.58 133.519 115.558 133.519 115.558" stroke="black" stroke-linecap="round" stroke-linejoin="round"/>
<path d="M164.338 109.738C164.338 109.738 158.347 108.316 154.598 111.908" stroke="black" stroke-linecap="round" stroke-linejoin="round"/>
<path d="M41.0609 153.917H140.582C143.773 153.917 146.361 156.498 146.361 159.68H35.2822C35.2822 156.498 37.8698 153.917 41.0609 153.917Z" stroke="black" stroke-linecap="round" stroke-linejoin="round"/>
<path d="M56.7909 131.347C56.7909 130.287 55.9285 129.427 54.8647 129.427C53.8009 129.427 52.9385 130.287 52.9385 131.347V137.75C52.9385 138.811 53.8009 139.671 54.8647 139.671C55.9285 139.671 56.7909 138.811 56.7909 137.75V131.347Z" stroke="black" stroke-linecap="round" stroke-linejoin="round"/>
<path d="M60.9647 131.347C60.9647 130.287 60.1023 129.427 59.0385 129.427C57.9747 129.427 57.1123 130.287 57.1123 131.347V137.75C57.1123 138.811 57.9747 139.671 59.0385 139.671C60.1023 139.671 60.9647 138.811 60.9647 137.75V131.347Z" stroke="black" stroke-linecap="round" stroke-linejoin="round"/>
<path d="M65.1386 131.347C65.1386 130.287 64.2762 129.427 63.2123 129.427C62.1485 129.427 61.2861 130.287 61.2861 131.347V137.75C61.2861 138.811 62.1485 139.671 63.2123 139.671C64.2762 139.671 65.1386 138.811 65.1386 137.75V131.347Z" stroke="black" stroke-linecap="round" stroke-linejoin="round"/>
<path d="M69.3114 131.347C69.3114 130.287 68.449 129.427 67.3852 129.427C66.3214 129.427 65.459 130.287 65.459 131.347V137.75C65.459 138.811 66.3214 139.671 67.3852 139.671C68.449 139.671 69.3114 138.811 69.3114 137.75V131.347Z" stroke="black" stroke-linecap="round" stroke-linejoin="round"/>
<path d="M73.4852 131.347C73.4852 130.287 72.6228 129.427 71.559 129.427C70.4952 129.427 69.6328 130.287 69.6328 131.347V137.75C69.6328 138.811 70.4952 139.671 71.559 139.671C72.6228 139.671 73.4852 138.811 73.4852 137.75V131.347Z" stroke="black" stroke-linecap="round" stroke-linejoin="round"/>
<path d="M77.6581 131.347C77.6581 130.287 76.7957 129.427 75.7319 129.427C74.6681 129.427 73.8057 130.287 73.8057 131.347V137.75C73.8057 138.811 74.6681 139.671 75.7319 139.671C76.7957 139.671 77.6581 138.811 77.6581 137.75V131.347Z" stroke="black" stroke-linecap="round" stroke-linejoin="round"/>
<path d="M112.01 131.347C112.01 130.287 111.147 129.427 110.083 129.427C109.02 129.427 108.157 130.287 108.157 131.347V137.75C108.157 138.811 109.02 139.671 110.083 139.671C111.147 139.671 112.01 138.811 112.01 137.75V131.347Z" stroke="black" stroke-linecap="round" stroke-linejoin="round"/>
<path d="M116.183 131.347C116.183 130.287 115.32 129.427 114.256 129.427C113.192 129.427 112.33 130.287 112.33 131.347V137.75C112.33 138.811 113.192 139.671 114.256 139.671C115.32 139.671 116.183 138.811 116.183 137.75V131.347Z" stroke="black" stroke-linecap="round" stroke-linejoin="round"/>
<path d="M120.356 131.347C120.356 130.287 119.494 129.427 118.43 129.427C117.366 129.427 116.504 130.287 116.504 131.347V137.75C116.504 138.811 117.366 139.671 118.43 139.671C119.494 139.671 120.356 138.811 120.356 137.75V131.347Z" stroke="black" stroke-linecap="round" stroke-linejoin="round"/>
<path d="M124.53 131.347C124.53 130.287 123.668 129.427 122.604 129.427C121.54 129.427 120.678 130.287 120.678 131.347V137.75C120.678 138.811 121.54 139.671 122.604 139.671C123.668 139.671 124.53 138.811 124.53 137.75V131.347Z" stroke="black" stroke-linecap="round" stroke-linejoin="round"/>
<path d="M82.4745 119.182C82.4745 118.121 81.6121 117.261 80.5483 117.261C79.4845 117.261 78.6221 118.121 78.6221 119.182V125.585C78.6221 126.646 79.4845 127.506 80.5483 127.506C81.6121 127.506 82.4745 126.646 82.4745 125.585V119.182Z" stroke="black" stroke-linecap="round" stroke-linejoin="round"/>
<path d="M86.6474 119.182C86.6474 118.121 85.785 117.261 84.7211 117.261C83.6573 117.261 82.7949 118.121 82.7949 119.182V125.585C82.7949 126.646 83.6573 127.506 84.7211 127.506C85.785 127.506 86.6474 126.646 86.6474 125.585V119.182Z" stroke="black" stroke-linecap="round" stroke-linejoin="round"/>
<path d="M90.8212 119.182C90.8212 118.121 89.9588 117.261 88.895 117.261C87.8311 117.261 86.9688 118.121 86.9688 119.182V125.585C86.9688 126.646 87.8311 127.506 88.895 127.506C89.9588 127.506 90.8212 126.646 90.8212 125.585V119.182Z" stroke="black" stroke-linecap="round" stroke-linejoin="round"/>
<path d="M94.994 119.182C94.994 118.121 94.1316 117.261 93.0678 117.261C92.004 117.261 91.1416 118.121 91.1416 119.182V125.585C91.1416 126.646 92.004 127.506 93.0678 127.506C94.1316 127.506 94.994 126.646 94.994 125.585V119.182Z" stroke="black" stroke-linecap="round" stroke-linejoin="round"/>
<path d="M107.515 110.218C107.515 109.157 106.652 108.297 105.588 108.297C104.525 108.297 103.662 109.157 103.662 110.218V116.621C103.662 117.682 104.525 118.542 105.588 118.542C106.652 118.542 107.515 117.682 107.515 116.621V110.218Z" stroke="black" stroke-linecap="round" stroke-linejoin="round"/>
<path d="M111.688 110.218C111.688 109.157 110.826 108.297 109.762 108.297C108.698 108.297 107.836 109.157 107.836 110.218V116.621C107.836 117.682 108.698 118.542 109.762 118.542C110.826 118.542 111.688 117.682 111.688 116.621V110.218Z" stroke="black" stroke-linecap="round" stroke-linejoin="round"/>
<path d="M115.862 110.218C115.862 109.157 115 108.297 113.936 108.297C112.872 108.297 112.01 109.157 112.01 110.218V116.621C112.01 117.682 112.872 118.542 113.936 118.542C115 118.542 115.862 117.682 115.862 116.621V110.218Z" stroke="black" stroke-linecap="round" stroke-linejoin="round"/>
<path d="M120.035 110.218C120.035 109.157 119.173 108.297 118.109 108.297C117.045 108.297 116.183 109.157 116.183 110.218V116.621C116.183 117.682 117.045 118.542 118.109 118.542C119.173 118.542 120.035 117.682 120.035 116.621V110.218Z" stroke="black" stroke-linecap="round" stroke-linejoin="round"/>
<path d="M103.283 113.394H52.9385" stroke="black" stroke-linecap="round" stroke-linejoin="round"/>
<path d="M120.356 113.394H128.382" stroke="black" stroke-linecap="round" stroke-linejoin="round"/>
<path d="M94.9941 122.383H128.382" stroke="black" stroke-linecap="round" stroke-linejoin="round"/>
<path d="M78.3581 122.383H52.9385" stroke="black" stroke-linecap="round" stroke-linejoin="round"/>
<path d="M78.1143 134.549H107.836" stroke="black" stroke-linecap="round" stroke-linejoin="round"/>
<path d="M124.53 134.843H128.383" stroke="black" stroke-linecap="round" stroke-linejoin="round"/>
<path d="M68.6699 27.7818C68.6699 27.7818 73.7294 28.7999 82.757 27.0071" stroke="black" stroke-linecap="round" stroke-linejoin="round"/>
<path d="M98.2627 26.4564C98.2627 26.4564 99.8101 14.0862 107.836 15.6165C115.862 17.1467 113.454 30.7847 113.454 30.7847C113.454 30.7847 105.377 32.1806 98.2627 26.4564Z" stroke="black" stroke-linecap="round" stroke-linejoin="round"/>
<path d="M106.231 29.3825C108.713 29.3825 110.725 27.3759 110.725 24.9006C110.725 22.4252 108.713 20.4186 106.231 20.4186C103.749 20.4186 101.736 22.4252 101.736 24.9006C101.736 27.3759 103.749 29.3825 106.231 29.3825Z" fill="black"/>
<path d="M96.625 25.6113C96.625 25.6113 97.2414 11.9412 107.836 12.6584C118.43 13.3755 117.383 30.7207 117.383 30.7207" stroke="black" stroke-linecap="round" stroke-linejoin="round"/>
<path d="M109.762 26.8214C110.649 26.8214 111.368 26.2481 111.368 25.5408C111.368 24.8336 110.649 24.2603 109.762 24.2603C108.876 24.2603 108.157 24.8336 108.157 25.5408C108.157 26.2481 108.876 26.8214 109.762 26.8214Z" fill="white"/>
</g>
<defs>
<clipPath id="clip0_870_720">
<rect width="181" height="160" fill="white"/>
</clipPath>
</defs>
</svg>
