<svg width="153" height="167" viewBox="0 0 153 167" fill="none" xmlns="http://www.w3.org/2000/svg">
<g clip-path="url(#clip0_649_205)">
<path d="M50.9445 44.0889C40.6509 41.7254 33.9961 37.966 33.9961 33.7314C33.9961 26.5766 52.9895 20.7792 76.4209 20.7792C99.8523 20.7792 118.846 26.5766 118.846 33.7314C118.846 38.0945 111.774 41.9566 100.939 44.303" stroke="black" stroke-linecap="round" stroke-linejoin="round"/>
<path d="M50.1583 36.2019C47.4001 35.5853 45.8105 34.8617 45.8105 34.091C45.8105 31.826 59.4681 29.9891 76.3135 29.9891C93.1588 29.9891 106.816 31.826 106.816 34.091C106.816 34.9816 104.716 35.8037 101.15 36.4759" stroke="black" stroke-linecap="round" stroke-linejoin="round"/>
<path d="M50.0507 47.7926C50.0507 47.7926 44.5688 47.2959 42.077 49.7793C39.5852 52.2627 37.5918 53.7528 37.5918 53.7528C37.5918 53.7528 38.5885 55.2428 39.5852 55.2428" stroke="black" stroke-linecap="round" stroke-linejoin="round"/>
<path d="M47.8079 53.0077C47.8079 53.0077 44.8177 52.0144 41.3292 54.0011C39.3959 55.1015 37.8407 57.9745 34.8506 58.9679C34.8506 58.9679 37.3424 68.4048 52.2931 66.9148" stroke="black" stroke-linecap="round" stroke-linejoin="round"/>
<path d="M45.2129 67.0731C45.2129 67.0731 46.8111 69.8948 54.2864 70.8881C61.7618 71.8815 59.7684 78.835 59.7684 78.835C59.7684 78.835 60.2882 79.9996 66.8399 80.6462" stroke="black" stroke-linecap="round" stroke-linejoin="round"/>
<path d="M104.517 67.0731C104.517 67.0731 102.919 69.8948 95.4438 70.8881C87.9684 71.8815 89.9618 78.835 89.9618 78.835C89.9618 78.835 89.6052 79.6314 85.7773 80.2737" stroke="black" stroke-linecap="round" stroke-linejoin="round"/>
<path d="M101.411 47.7926C101.411 47.7926 106.253 47.2959 108.453 49.7793C110.652 52.2627 112.414 53.7528 112.414 53.7528C112.414 53.7528 111.533 55.2428 110.652 55.2428" stroke="black" stroke-linecap="round" stroke-linejoin="round"/>
<path d="M103.392 53.0077C103.392 53.0077 106.034 52.0144 109.115 54.0011C110.825 55.1015 112.195 57.9745 114.837 58.9679C114.837 58.9679 112.638 68.4048 99.4355 66.9148" stroke="black" stroke-linecap="round" stroke-linejoin="round"/>
<path d="M54.781 48.0409C54.781 48.0409 51.8596 50.3659 49.6943 51.4962C46.8073 53.0077 44.8138 58.8779 52.2892 59.9141" stroke="black" stroke-linecap="round" stroke-linejoin="round"/>
<path d="M95.9424 48.0409C95.9424 48.0409 98.8638 50.3659 101.029 51.4962C103.916 53.0077 105.91 58.8779 98.4342 59.9141" stroke="black" stroke-linecap="round" stroke-linejoin="round"/>
<path d="M56.3792 52.7594C56.3792 52.7594 54.2827 59.9913 52.2893 60.9675C50.2958 61.9437 51.894 66.0071 54.3343 65.9643C56.7745 65.9214 70.2301 63.438 83.6858 64.4314C97.1414 65.4248 96.6431 66.4181 98.6365 64.4314C100.63 62.4447 99.6332 61.4513 99.1349 60.458C98.6365 59.4646 94.1513 57.9746 92.6562 52.0144" stroke="black" stroke-linecap="round" stroke-linejoin="round"/>
<path d="M50.3 49.531C50.3 49.531 49.3032 46.0542 51.2967 43.5708" stroke="black" stroke-linecap="round" stroke-linejoin="round"/>
<path d="M101.377 49.531C101.377 49.531 102.373 46.0542 100.38 43.5708" stroke="black" stroke-linecap="round" stroke-linejoin="round"/>
<path d="M50.2441 35.5255C50.2441 35.5255 60.2671 34.4294 73.2244 35.5255C73.2244 35.5255 74.2211 48.5419 61.7622 49.0386C47.7824 49.5952 50.2441 35.5255 50.2441 35.5255Z" stroke="black" stroke-linecap="round" stroke-linejoin="round"/>
<path d="M60.9628 47.0647C57.8438 47.0647 55.5238 46.1955 54.0674 44.4828C52.2287 42.312 52.0139 39.1906 52.074 37.358C53.9257 37.2167 57.2595 37.024 61.4998 37.024C64.7606 37.024 68.0128 37.1354 71.192 37.3623C71.046 39.1735 70.5003 42.0765 68.5885 44.2045C66.9989 45.9728 64.6704 46.932 61.676 47.0518C61.4311 47.0604 61.1948 47.0647 60.9585 47.0647H60.9628Z" stroke="black" stroke-linecap="round" stroke-linejoin="round"/>
<path d="M53.2859 37.6106C53.2859 37.6106 52.2892 44.5641 59.9192 47.0646" stroke="black" stroke-linecap="round" stroke-linejoin="round"/>
<path d="M100.981 35.5255C100.981 35.5255 90.9583 34.4294 78.0011 35.5255C78.0011 35.5255 76.2095 49.0386 89.4633 49.0386C103.452 49.0386 100.981 35.5255 100.981 35.5255Z" stroke="black" stroke-linecap="round" stroke-linejoin="round"/>
<path d="M90.2585 47.0647C93.3775 47.0647 95.6975 46.1955 97.1539 44.4828C98.9927 42.312 99.2075 39.1906 99.1473 37.358C97.2957 37.2167 93.9618 37.024 89.7215 37.024C86.4607 37.024 83.2085 37.1354 80.0293 37.3623C80.1754 39.1735 80.721 42.0765 82.6328 44.2045C84.2224 45.9728 86.5509 46.932 89.5453 47.0518C89.7902 47.0604 90.0265 47.0647 90.2628 47.0647H90.2585Z" stroke="black" stroke-linecap="round" stroke-linejoin="round"/>
<path d="M51.9062 35.3756C51.9062 35.3756 52.2285 33.5002 53.4357 31.2737" stroke="black" stroke-linecap="round" stroke-linejoin="round"/>
<path d="M97.1411 35.3756C97.1411 35.3756 96.7802 33.2732 95.3926 30.884" stroke="black" stroke-linecap="round" stroke-linejoin="round"/>
<path d="M55.3262 60.8818C55.3262 60.8818 74.2552 56.8356 95.9165 60.8818" stroke="black" stroke-linecap="round" stroke-linejoin="round"/>
<path d="M57.9766 65.9685C57.9766 65.9685 60.7605 69.8991 65.2457 69.8991C69.7309 69.8991 77.7046 68.9057 84.6816 69.8991C91.6586 70.8925 94.6488 65.9257 94.6488 65.9257" stroke="black" stroke-linecap="round" stroke-linejoin="round"/>
<path d="M73.2197 35.5254H77.9198" stroke="black" stroke-linecap="round" stroke-linejoin="round"/>
<path d="M73.2197 37.5122H77.9198" stroke="black" stroke-linecap="round" stroke-linejoin="round"/>
<path d="M71.196 37.358C71.196 37.358 58.4321 36.8571 53.2423 37.358C53.2423 37.358 52.6537 45.8401 60.5716 47.0647C68.4851 48.2893 71.4151 39.8371 71.196 37.358Z" fill="black"/>
<path d="M80.1578 37.358C80.1578 37.358 92.9218 36.8571 98.1116 37.358C98.1116 37.358 98.7002 45.8401 90.7823 47.0647C82.8687 48.2893 79.9387 39.8371 80.1578 37.358Z" fill="black"/>
<path d="M70.0576 45.5532C70.0576 45.5532 72.9361 40.9889 75.5696 40.9889C78.2032 40.9889 80.6176 45.5532 80.6176 45.5532" stroke="black" stroke-linecap="round" stroke-linejoin="round"/>
<path d="M41.3203 26.4568C41.3203 26.4568 44.5811 16.8272 52.0694 12.8109C59.5576 8.79465 79.3201 9.651 79.3201 9.651" stroke="black" stroke-linecap="round" stroke-linejoin="round"/>
<path d="M111.113 26.4567C111.113 26.4567 107.852 16.8271 100.364 12.8109C97.5882 11.3208 93.1202 10.503 88.6006 10.062" stroke="black" stroke-linecap="round" stroke-linejoin="round"/>
<path d="M55.4512 11.5007C55.4512 11.5007 59.7903 0.214111 75.5702 0.214111C91.3501 0.214111 96.9781 11.5007 96.9781 11.5007" stroke="black" stroke-linecap="round" stroke-linejoin="round"/>
<path d="M36.9385 28.983C33.2309 26.628 30.7734 22.4919 30.7734 17.782C30.7734 10.4517 36.7365 4.50867 44.0916 4.50867C49.015 4.50867 53.3112 7.1719 55.6183 11.1282" stroke="black" stroke-linecap="round" stroke-linejoin="round"/>
<path d="M115.614 28.983C119.322 26.628 121.779 22.4919 121.779 17.782C121.779 10.4517 115.816 4.50867 108.461 4.50867C103.538 4.50867 99.2416 7.1719 96.9346 11.1282" stroke="black" stroke-linecap="round" stroke-linejoin="round"/>
<path d="M46.24 68.7345C46.24 68.7345 44.5216 73.8726 38.9365 74.7289" stroke="black" stroke-linecap="round" stroke-linejoin="round"/>
<path d="M40.2256 81.5797C40.2256 81.5797 42.9365 82.6501 48.3883 81.1515" stroke="black" stroke-linecap="round" stroke-linejoin="round"/>
<path d="M33.996 85.8614C37.6737 85.8614 40.6551 82.89 40.6551 79.2247C40.6551 75.5594 37.6737 72.588 33.996 72.588C30.3183 72.588 27.3369 75.5594 27.3369 79.2247C27.3369 82.89 30.3183 85.8614 33.996 85.8614Z" stroke="black" stroke-linecap="round" stroke-linejoin="round"/>
<path d="M58.9691 73.3116C58.9691 73.3116 51.3949 74.7289 47.5283 82.8642" stroke="black" stroke-linecap="round" stroke-linejoin="round"/>
<path d="M90.9199 73.3116C90.9199 73.3116 98.4941 74.7289 102.361 82.8642" stroke="black" stroke-linecap="round" stroke-linejoin="round"/>
<path d="M74.1654 88.4303C74.1654 88.4303 73.826 81.16 84.0938 80.5134C94.3617 79.8669 94.3574 76.4415 94.3574 76.4415" stroke="black" stroke-linecap="round" stroke-linejoin="round"/>
<path d="M74.5945 86.1097C73.7954 83.9217 71.527 80.9159 65.0956 80.5134C54.832 79.8669 54.832 76.4415 54.832 76.4415" stroke="black" stroke-linecap="round" stroke-linejoin="round"/>
<path d="M18.1474 120.783C15.269 125.484 13.1123 128.113 13.1123 128.113" stroke="black" stroke-linecap="round" stroke-linejoin="round"/>
<path d="M62.4535 86.1097C62.4535 86.1097 48.3878 80.6462 40.6547 83.682C32.9216 86.7177 28.7586 98.2826 25.6181 105.985C25.0123 107.475 24.3851 108.906 23.7578 110.267" stroke="black" stroke-linecap="round" stroke-linejoin="round"/>
<path d="M135.046 120.565C137.989 125.403 140.214 128.109 140.214 128.109" stroke="black" stroke-linecap="round" stroke-linejoin="round"/>
<path d="M90.873 86.1097C90.873 86.1097 104.939 80.6462 112.672 83.682C120.405 86.7177 124.568 98.2826 127.709 105.985C128.319 107.48 128.942 108.91 129.569 110.271" stroke="black" stroke-linecap="round" stroke-linejoin="round"/>
<path d="M54.8316 100.419C54.8316 100.419 53.5428 108.983 57.839 117.974C62.1352 126.966 74.5941 126.538 74.5941 126.538H78.4048C78.4048 126.538 90.8637 126.966 95.1599 117.974C99.4561 108.983 98.1672 100.419 98.1672 100.419" stroke="black" stroke-linecap="round" stroke-linejoin="round"/>
<path d="M49.6759 101.704C49.6759 101.704 48.387 108.126 50.1055 115.405C51.824 122.684 52.0904 132.888 46.08 131.359C37.217 129.107 38.9354 114.797 26.0469 111.034L13.1583 107.27C13.1583 107.27 3.70673 104.273 4.56597 93.5685" stroke="black" stroke-linecap="round" stroke-linejoin="round"/>
<path d="M0.22293 95.7736C0.22293 95.7736 -0.589049 110.695 13.1587 117.118C26.9065 123.541 21.9616 140.201 21.9616 140.201" stroke="black" stroke-linecap="round" stroke-linejoin="round"/>
<path d="M103.323 101.704C103.323 101.704 104.611 108.126 102.893 115.405C101.175 122.684 100.908 132.888 106.919 131.359C115.782 129.107 114.063 114.797 126.952 111.034L139.84 107.27C139.84 107.27 149.292 104.273 148.433 93.5685" stroke="black" stroke-linecap="round" stroke-linejoin="round"/>
<path d="M152.776 95.7736C152.776 95.7736 153.588 110.695 139.84 117.118C126.093 123.541 131.037 140.201 131.037 140.201" stroke="black" stroke-linecap="round" stroke-linejoin="round"/>
<path d="M130.26 134.031C132.288 134.386 133.822 134.767 135.098 135.23C140.747 137.281 141.186 141.254 141.186 142.423C141.186 143.592 140.747 147.565 135.098 149.616C133.822 150.079 132.284 150.46 130.26 150.815C127.116 151.367 122.738 151.856 117.256 152.262C106.395 153.067 92.0114 153.513 76.7471 153.513C61.4827 153.513 47.0991 153.067 36.2383 152.262C30.7521 151.856 26.3786 151.367 23.2338 150.815C21.206 150.46 19.6723 150.079 18.3963 149.616C12.7468 147.565 12.3086 143.592 12.3086 142.423C12.3086 141.254 12.7468 137.281 18.3963 135.23C19.552 134.81 20.9267 134.455 22.6839 134.129C22.8643 134.095 23.0491 134.061 23.2338 134.031" stroke="black" stroke-linecap="round" stroke-linejoin="round"/>
<path d="M130.944 139.122C132.297 139.546 133.023 139.991 133.023 140.453C133.023 143.172 107.826 145.377 76.7429 145.377C45.66 145.377 20.4629 143.172 20.4629 140.453C20.4629 140.034 21.0644 139.623 22.1985 139.233" stroke="black" stroke-linecap="round" stroke-linejoin="round"/>
<path d="M17.4898 149.252C17.4898 149.252 7.57422 153.941 7.57422 166.786" stroke="black" stroke-linecap="round" stroke-linejoin="round"/>
<path d="M136.46 149.252C136.46 149.252 146.376 153.941 146.376 166.786" stroke="black" stroke-linecap="round" stroke-linejoin="round"/>
<path d="M70.9298 115.478L70.9599 119.657C70.9599 119.657 68.9535 121.241 68.829 121.524C68.7044 121.806 68.8805 121.811 69.4734 121.806C70.0663 121.802 70.8739 121.781 71.252 121.995C71.252 121.995 72.4463 121.781 73.3958 121.661C73.529 121.644 73.7867 121.669 73.8984 121.661C74.6589 121.567 71.7418 119.683 71.7418 119.683L71.7976 115.508C71.7976 115.508 72.3776 115.979 74.7319 115.979C77.0819 115.979 77.9025 115.461 77.9025 115.461L77.9798 119.636L75.8274 121.374C75.8274 121.374 75.6728 121.648 75.8317 121.627C76.0895 121.592 77.1764 121.404 78.3923 121.896C78.3923 121.896 79.4276 121.541 80.3212 121.704C81.2149 121.866 80.9227 121.575 80.8497 121.485C80.7766 121.395 79.535 120.274 78.766 119.67V115.431C78.766 115.431 81.3609 115.058 81.0387 111.376C81.0387 111.376 83.0751 109.484 81.5843 106.94C80.0935 104.397 78.1774 103.292 77.9412 102.68C77.7049 102.068 77.6662 101.699 77.0433 101.091C76.4203 100.483 75.7587 98.8221 76.1067 97.4948C76.4547 96.1675 77.6533 96.1975 77.533 94.0737C77.4127 91.9543 76.2485 91.2735 76.1196 90.7511C75.9907 90.2287 75.6771 89.2482 74.8049 89.291C73.9328 89.3338 73.5805 89.7663 73.3657 90.7854C73.1509 91.8044 72.3346 91.2007 72.0941 93.6627C71.8535 96.1247 73.1767 96.1118 73.4388 97.3107C73.7008 98.5096 73.4817 99.9568 72.7213 100.95C71.9609 101.944 71.832 102.076 71.6988 102.838C71.5656 103.601 68.511 105.172 67.6733 107.921C66.8312 110.674 68.6442 111.68 68.6442 111.68C68.6442 111.68 68.6442 115.058 70.9298 115.478Z" fill="black"/>
<path d="M85.1201 104.059L88.9867 102.346V104.059L92.8532 102.774L88.1274 105.343V103.63L85.1201 104.059Z" stroke="black" stroke-width="0.5" stroke-linecap="round" stroke-linejoin="round"/>
<path d="M83.6592 98.8564L86.4044 95.6408L87.1477 97.1865L90.0734 94.3606L86.9286 98.7151L86.1853 97.1694L83.6592 98.8564Z" stroke="black" stroke-width="0.5" stroke-linecap="round" stroke-linejoin="round"/>
<path d="M84.54 108.619L88.2476 110.644L86.8815 111.68L90.254 113.967L85.3391 111.779L86.7053 110.742L84.54 108.619Z" stroke="black" stroke-width="0.5" stroke-linecap="round" stroke-linejoin="round"/>
<path d="M65.573 104.059L61.7064 102.346V104.059L57.8398 102.774L62.5656 105.343V103.631L65.573 104.059Z" stroke="black" stroke-width="0.5" stroke-linecap="round" stroke-linejoin="round"/>
<path d="M67.0333 98.8564L64.2924 95.6408L63.5448 97.1865L60.6191 94.3606L63.7639 98.7151L64.5072 97.1694L67.0333 98.8564Z" stroke="black" stroke-width="0.5" stroke-linecap="round" stroke-linejoin="round"/>
<path d="M66.1573 108.619L62.4454 110.644L63.8116 111.68L60.4434 113.967L65.3582 111.779L63.992 110.743L66.1573 108.619Z" stroke="black" stroke-width="0.5" stroke-linecap="round" stroke-linejoin="round"/>
</g>
<defs>
<clipPath id="clip0_649_205">
<rect width="153" height="167" fill="white"/>
</clipPath>
</defs>
</svg>
