<svg width="154" height="164" viewBox="0 0 154 164" fill="none" xmlns="http://www.w3.org/2000/svg">
<g clip-path="url(#clip0_649_267)">
<path d="M59.1677 163.681C59.1677 163.681 47.7789 156.493 48.2696 147.779C48.2696 147.779 26.8623 138.408 26.9579 124.557C26.9579 124.557 13.8867 121.465 11.3247 106.184C11.3247 106.184 -1.7211 97.7573 0.592337 82.5973C2.90578 67.4373 25.4029 66.6451 37.6902 70.8296C49.9776 75.0141 147.219 109.876 147.219 109.876" stroke="black" stroke-linecap="round" stroke-linejoin="round"/>
<path d="M15.3398 104.714C15.3398 104.714 22.7645 96.7352 42.3619 96.058C61.9528 95.3808 139.24 124.941 139.24 124.941" stroke="black" stroke-linecap="round" stroke-linejoin="round"/>
<path d="M30.1826 122.251C30.1826 122.251 37.0783 113.991 48.5499 113.639C60.0216 113.294 139.239 139.845 139.239 139.845" stroke="black" stroke-linecap="round" stroke-linejoin="round"/>
<path d="M54.8976 66.7602C54.8976 66.7602 30.0425 58.4551 32.5917 52.7054" stroke="black" stroke-linecap="round" stroke-linejoin="round"/>
<path d="M50.4369 61.0105C50.4369 61.0105 21.7578 48.8723 26.8563 43.7615" stroke="black" stroke-linecap="round" stroke-linejoin="round"/>
<path d="M47.4538 54.6538C47.4538 54.6538 25.5812 43.7614 21.7574 40.5671C19.1508 38.3886 19.5077 35.9163 19.992 34.5619C20.196 33.9933 20.8524 33.7378 21.3877 34.0189C25.5558 36.2229 42.9289 45.3521 48.5245 47.5945C54.8976 50.1499 57.4468 52.1304 57.1282 54.6538" stroke="black" stroke-linecap="round" stroke-linejoin="round"/>
<path d="M40.877 61.6493C40.877 61.6493 42.1516 73.7875 56.8097 76.3429C71.4679 78.8983 73.826 70.1333 71.8631 68.6575C70.1933 67.399 66.3694 69.3155 66.3694 69.3155" stroke="black" stroke-linecap="round" stroke-linejoin="round"/>
<path d="M65.7326 69.3156C65.7326 69.3156 70.1938 68.5682 70.1938 66.7602C70.1938 64.8436 68.677 63.5659 64.458 65.4825" stroke="black" stroke-linecap="round" stroke-linejoin="round"/>
<path d="M67.6439 72.5098C67.6439 72.5098 65.0946 69.9544 64.4573 63.8853C63.82 57.8162 67.6439 49.5111 68.2812 41.8449C68.9185 34.1786 64.4573 32.2621 63.1827 30.3455C61.908 28.429 59.9961 30.9844 60.6334 32.9009" stroke="black" stroke-linecap="round" stroke-linejoin="round"/>
<path d="M65.7322 35.4563C65.7322 35.4563 61.271 32.262 57.4471 32.9009C53.6233 33.5397 52.3486 37.3729 52.3486 37.3729" stroke="black" stroke-linecap="round" stroke-linejoin="round"/>
<path d="M59.9969 32.9009C59.9969 32.9009 58.7223 31.6232 58.7223 30.3455C58.7223 29.0678 55.6887 29.7066 56.5682 32.9009" stroke="black" stroke-linecap="round" stroke-linejoin="round"/>
<path d="M40.8767 38.6506C40.8767 38.6506 40.2394 39.2894 42.1513 40.5671C44.0633 41.8448 49.1618 46.3168 53.6229 47.5945C55.8344 48.227 58.0841 47.5945 59.3587 45.0391C60.6334 42.4837 60.2319 41.091 58.1988 39.8708C56.1658 38.6506 57.2747 37.3729 56.4016 37.0534C56.4016 37.0534 55.828 36.0952 54.0882 37.3729C52.3419 38.6506 49.1554 38.0117 47.2434 37.3729C45.6247 36.8298 43.222 35.7694 41.6925 35.2902C41.0233 35.0794 40.2649 35.2774 39.8697 35.8524C39.7104 36.0824 39.5957 36.3699 39.5957 36.734C39.5957 38.0117 42.7823 39.2894 47.2434 41.206C51.7046 43.1226 54.9422 44.7389 57.1473 43.2887" stroke="black" stroke-linecap="round" stroke-linejoin="round"/>
<path d="M48.5246 45.678C48.5246 45.678 47.8873 46.9557 47.25 46.9557" stroke="black" stroke-linecap="round" stroke-linejoin="round"/>
<path d="M30.6803 38.6506C30.6803 38.6506 34.5042 31.6232 28.7684 27.7901C23.0326 23.957 17.8194 30.9844 13.0969 38.6506C8.37444 46.3168 7.09981 51.4277 12.8356 53.9831C19.8715 57.1198 26.2192 46.3168 26.2192 46.3168" stroke="black" stroke-linecap="round" stroke-linejoin="round"/>
<path d="M16.0225 36.734C16.0225 36.734 18.0682 39.4939 23.7339 41.9471" stroke="black" stroke-linecap="round" stroke-linejoin="round"/>
<path d="M16.6589 38.6506C16.6589 38.6506 16.0853 44.5153 19.8773 51.8046" stroke="black" stroke-linecap="round" stroke-linejoin="round"/>
<path d="M10.2861 45.2244C10.2861 45.2244 10.9234 48.8722 19.8777 52.7053" stroke="black" stroke-linecap="round" stroke-linejoin="round"/>
<path d="M16.0225 36.0186C16.0225 36.0186 21.344 26.7999 26.2194 28.429C30.0433 29.7067 31.3689 33.9614 29.4315 38.2226" stroke="black" stroke-linecap="round" stroke-linejoin="round"/>
<path d="M77.293 84.8717C77.293 84.8717 82.3022 53.9831 91.2246 50.15C91.2246 50.15 95.6858 36.651 105.564 35.0922C105.564 35.0922 112.256 0.319458 153.681 0.319458V163.681" stroke="black" stroke-linecap="round" stroke-linejoin="round"/>
<path d="M87.7197 88.8006C87.7197 88.8006 92.6971 48.6104 123.728 53.3443C153.044 57.8163 145.396 108.925 145.396 108.925L87.7197 88.8006Z" fill="black"/>
</g>
<defs>
<clipPath id="clip0_649_267">
<rect width="154" height="164" fill="white"/>
</clipPath>
</defs>
</svg>
