<svg width="170" height="144" viewBox="0 0 170 144" fill="none" xmlns="http://www.w3.org/2000/svg">
<g id="Capa_1" clip-path="url(#clip0_585_140)">
<path id="Vector" d="M58.7168 39.2307C58.7168 39.2307 54.6702 40.9615 54.6702 53.6538C54.6702 66.3461 50.6235 68.0769 50.6235 68.0769" stroke="black" stroke-linecap="round" stroke-linejoin="round"/>
<path id="Vector_2" d="M77.2333 33.0231C79.5919 34.9731 80.3954 37.2115 80.3954 37.2115C80.3954 37.2115 78.6612 40.0961 78.6612 42.4038C78.6612 44.7115 74.8284 44.2154 74.0364 48.1731C73.4583 51.0577 74.0364 53.9423 76.9269 54.5192C79.8173 55.0961 81.5516 54.5192 91.9573 54.5192C100.051 54.5192 101.785 52.2115 100.629 49.9038" stroke="black" stroke-linecap="round" stroke-linejoin="round"/>
<path id="Vector_3" d="M54.3813 54.5193C54.3813 54.5193 54.3813 55.0962 52.647 56.827C52.647 56.827 53.8032 54.4154 53.5141 48.6981C53.3233 44.8847 53.2887 38.5847 57.2139 34.402" stroke="black" stroke-linecap="round" stroke-linejoin="round"/>
<path id="Vector_4" d="M80.3953 48.75C80.3953 48.75 82.1296 51.0577 94.2696 51.0577C98.929 51.0577 106.41 48.1731 106.41 47.5962C106.41 47.0192 107.427 44.0192 105.473 43.5C103.519 42.9808 91.3791 42.9808 87.9105 41.8269C84.442 40.6731 85.997 36.1962 80.3086 36.9923" stroke="black" stroke-linecap="round" stroke-linejoin="round"/>
<path id="Vector_5" d="M76.9271 29.7115C78.0833 30.75 77.5052 33.1039 77.5052 33.1039C77.5052 33.1039 76.3027 34.5346 69.99 33.75C65.3652 33.1731 65.2611 32.5558 59.8213 32.5731" stroke="black" stroke-linecap="round" stroke-linejoin="round"/>
<path id="Vector_6" d="M71.7242 29.1346C71.7242 29.1346 78.0832 29.1346 79.2394 30.8654C80.3956 32.5962 83.8642 31.4423 83.2861 28.5577C82.708 25.6731 79.2394 21.6346 68.2556 21.6346C57.2719 21.6346 52.6471 27.9808 52.069 30.8654C51.4909 33.75 53.1096 36.2135 57.214 34.402C61.3185 32.5904 59.5842 29.7116 69.9899 29.1346" stroke="black" stroke-linecap="round" stroke-linejoin="round"/>
<path id="Vector_7" d="M53.2249 27.9808C53.2249 27.9808 51.7565 27.1096 53.2249 25.3904C54.9592 23.3654 56.1153 25.0962 56.1153 25.0962" stroke="black" stroke-linecap="round" stroke-linejoin="round"/>
<path id="Vector_8" d="M48.0222 80.4807C48.0222 80.4807 29.5637 95.7115 14.4928 98.3653C4.66522 100.096 9.86807 108.173 16.8052 108.173" stroke="black" stroke-linecap="round" stroke-linejoin="round"/>
<path id="Vector_9" d="M57.2139 85.7596C57.2139 85.7596 52.2712 98.4289 16.678 108.71C14.4639 109.35 13.3077 111.888 14.435 113.89C15.3831 115.569 17.759 117.242 23.1642 117.981C35.8823 119.712 59.1448 112.454 70.9263 94.4481C70.9263 94.4481 79.7365 79.6212 70.3829 71.2558C61.0293 62.8904 50.0745 64.8693 44.2646 73.275C32.7028 90.0058 16.6202 89.4289 20.3258 96.6404" stroke="black" stroke-linecap="round" stroke-linejoin="round"/>
<path id="Vector_10" d="M82.0776 54.7731C82.0776 54.7731 82.1297 65.4808 88.4887 70.0961C94.8477 74.7115 97.9752 81.0577 95.5472 89.7115C95.5472 89.7115 94.2696 89.7115 91.9573 86.25" stroke="black" stroke-linecap="round" stroke-linejoin="round"/>
<path id="Vector_11" d="M94.2697 89.7115C94.2697 89.7115 94.2697 93.1731 92.5354 94.9039C90.8011 96.6346 90.2231 98.3654 90.2231 98.3654C90.2231 98.3654 88.4888 97.2115 88.4888 93.1731" stroke="black" stroke-linecap="round" stroke-linejoin="round"/>
<path id="Vector_12" d="M53.8669 120.773C45.5018 122.262 35.6858 121.887 24.4419 118.119" stroke="black" stroke-linecap="round" stroke-linejoin="round"/>
<path id="Vector_13" d="M89.223 97.9097C89.223 97.9097 78.7769 114.196 58.4106 119.752" stroke="black" stroke-linecap="round" stroke-linejoin="round"/>
<path id="Vector_14" d="M13.9959 110.533C13.9959 110.533 8.7121 106.442 6.97782 101.25C5.24354 96.0577 6.97782 94.4481 6.97782 94.4481" stroke="black" stroke-linecap="round" stroke-linejoin="round"/>
<path id="Vector_15" d="M10.0992 99.6404C10.0992 99.6404 6.39941 95.4808 6.39941 90.8654C6.39941 87.4038 10.4461 86.8269 13.3365 92.0192C15.8455 96.5308 17.3832 97.2115 17.3832 97.2115" stroke="black" stroke-linecap="round" stroke-linejoin="round"/>
<path id="Vector_16" d="M13.3364 90.8654C13.3364 90.8654 13.3364 90.2885 14.4926 89.7115C15.6488 89.1346 18.4294 94.1019 19.9267 95.6596" stroke="black" stroke-linecap="round" stroke-linejoin="round"/>
<path id="Vector_17" d="M56.1155 115.673C56.1155 115.673 55.5374 117.981 51.4907 119.135" stroke="black" stroke-linecap="round" stroke-linejoin="round"/>
<path id="Vector_18" d="M54.3813 117.981C54.3813 117.981 57.2718 117.981 60.1623 116.25" stroke="black" stroke-linecap="round" stroke-linejoin="round"/>
<path id="Vector_19" d="M58.4279 117.404C58.4279 117.404 58.162 131.538 59.6072 132.981" stroke="black" stroke-linecap="round" stroke-linejoin="round"/>
<path id="Vector_20" d="M64.7869 134.135C66.7351 134.712 67.7583 134.59 71.724 135.289C71.724 135.289 72.8802 135.865 72.3021 137.596C71.724 139.327 70.5678 138.75 69.4116 139.327C68.2554 139.904 69.4116 140.481 69.4116 142.212C69.4116 143.942 67.6773 143.942 65.365 143.365C63.0526 142.789 55.416 139.512 52.6469 138.173C49.8778 136.835 51.2017 133.939 52.6469 132.981C54.3812 131.827 53.8031 118.558 53.8031 118.558" stroke="black" stroke-linecap="round" stroke-linejoin="round"/>
<path id="Vector_21" d="M69.4116 134.712C69.4116 134.712 69.9897 134.135 71.1459 134.135C72.3021 134.135 72.3021 132.508 71.1459 132.456C69.9897 132.404 63.9371 132.75 59.1562 131.135" stroke="black" stroke-linecap="round" stroke-linejoin="round"/>
<path id="Vector_22" d="M67.0993 138.75C67.0993 138.75 63.6307 137.596 60.7402 135.865" stroke="black" stroke-linecap="round" stroke-linejoin="round"/>
<path id="Vector_23" d="M71.1228 114.554C71.117 118.275 71.2268 125.85 72.2269 126.842" stroke="black" stroke-linecap="round" stroke-linejoin="round"/>
<path id="Vector_24" d="M67.5389 132.427C66.8567 132.121 66.267 131.844 65.8161 131.625C63.2667 130.39 64.4865 127.725 65.8161 126.842C66.8798 126.138 66.5619 120.525 66.5214 116.827" stroke="black" stroke-linecap="round" stroke-linejoin="round"/>
<path id="Vector_25" d="M76.9964 127.91C78.7885 128.44 79.7366 128.331 83.3844 128.971C83.3844 128.971 84.4481 129.502 83.9162 131.094C83.3844 132.687 82.3207 132.156 81.257 132.687C80.1933 133.217 81.257 133.748 81.257 135.34C81.257 136.933 79.6614 136.933 77.5283 136.402C76.3952 136.119 73.8689 135.133 71.3716 134.083" stroke="black" stroke-linecap="round" stroke-linejoin="round"/>
<path id="Vector_26" d="M81.2508 128.44C81.2508 128.44 81.7827 127.91 82.8464 127.91C83.91 127.91 83.91 126.41 82.8464 126.363C81.7827 126.317 76.2098 126.635 71.8105 125.146" stroke="black" stroke-linecap="round" stroke-linejoin="round"/>
<path id="Vector_27" d="M79.1237 132.156C79.1237 132.156 75.9268 131.094 73.2676 129.502" stroke="black" stroke-linecap="round" stroke-linejoin="round"/>
<path id="Vector_28" d="M7.53857 125.192H53.8786" stroke="black" stroke-linecap="round" stroke-linejoin="round"/>
<path id="Vector_29" d="M58.4917 125.192H66.4289" stroke="black" stroke-linecap="round" stroke-linejoin="round"/>
<path id="Vector_30" d="M71.6606 125.192H121.221L121.88 123.738C122.198 123.035 122.787 122.596 123.423 122.596H124.325C125.053 122.596 125.707 122.031 125.978 121.165V121.142C126.256 120.277 126.909 119.712 127.637 119.712H129.713C130.441 119.712 131.1 119.14 131.366 118.269C131.638 117.398 132.291 116.827 133.02 116.827H138.436C139.055 116.827 139.633 117.242 139.957 117.923L143.419 125.192H169.711" stroke="black" stroke-linecap="round" stroke-linejoin="round"/>
<path id="Vector_31" d="M45.5308 21.6346H3.82132C1.80956 21.6346 0.214019 19.9615 0.289171 17.9538C0.393228 15.1731 1.42802 11.8269 5.81575 11.8269C5.81575 11.8269 4.65956 6.05768 14.4872 6.05768C14.4872 6.05768 13.9091 0.288452 23.1586 0.288452C34.7204 0.288452 33.5642 7.78845 33.5642 7.78845C33.5642 7.78845 42.8137 7.78845 42.8137 14.7115C42.8137 14.7115 44.0855 14.5096 45.7562 14.5904C50.3116 14.8154 50.0862 21.6346 45.525 21.6346H45.5308Z" stroke="black" stroke-linecap="round" stroke-linejoin="round"/>
<path id="Vector_32" d="M152.027 125.152V106.869H145.206C144.529 106.869 143.986 106.327 143.986 105.652V95.752C143.986 94.402 145.084 93.3058 146.437 93.3058C147.79 93.3058 148.888 94.402 148.888 95.752V102.663H152.021V84.3C152.021 82.95 153.12 81.8539 154.472 81.8539H155.282C156.635 81.8539 157.733 82.95 157.733 84.3V102.663H160.172V98.4981C160.172 97.1481 161.271 96.052 162.624 96.052C163.976 96.052 165.075 97.1481 165.075 98.4981V105.652C165.075 106.327 164.531 106.869 163.855 106.869H157.716V125.192L152.016 125.152H152.027Z" fill="black"/>
<g id="Group">
<path id="Vector_33" d="M125.545 7.5C129.152 7.5 130.418 10.2 130.418 13.9038C130.418 17.6077 129.152 20.3423 125.545 20.3423C121.937 20.3423 120.671 17.6423 120.671 13.9038C120.671 10.1654 121.937 7.5 125.545 7.5ZM125.545 10.2692C123.793 10.2692 123.585 11.9654 123.585 13.9038C123.585 15.8423 123.793 17.5731 125.545 17.5731C127.296 17.5731 127.504 15.9115 127.504 13.9038C127.504 11.8962 127.296 10.2692 125.545 10.2692Z" fill="black"/>
<path id="Vector_34" d="M136.401 7.46533C139.072 7.46533 140.511 8.98841 140.511 10.8923C140.511 12.5538 139.471 13.4365 138.604 13.7307V13.7999C139.87 14.2153 140.737 15.1846 140.737 16.8461C140.737 18.9749 139.211 20.498 136.557 20.498C133.904 20.498 132.013 19.2519 131.927 16.3961H134.806C134.823 17.3826 135.361 18.0403 136.453 18.0403C137.372 18.0403 137.875 17.4519 137.875 16.6211C137.875 15.4961 137.199 15.0461 135.655 15.0461H135.1V12.6403H135.655C136.661 12.6403 137.633 12.398 137.633 11.2557C137.633 10.4076 137.13 9.94033 136.332 9.94033C135.378 9.94033 135.031 10.6326 134.979 11.3249H132.083C132.187 8.83264 133.817 7.46533 136.401 7.46533Z" fill="black"/>
<path id="Vector_35" d="M147.345 7.5C150.952 7.5 152.218 10.2 152.218 13.9038C152.218 17.6077 150.952 20.3423 147.345 20.3423C143.737 20.3423 142.471 17.6423 142.471 13.9038C142.471 10.1654 143.737 7.5 147.345 7.5ZM147.345 10.2692C145.593 10.2692 145.385 11.9654 145.385 13.9038C145.385 15.8423 145.593 17.5731 147.345 17.5731C149.096 17.5731 149.304 15.9115 149.304 13.9038C149.304 11.8962 149.096 10.2692 147.345 10.2692Z" fill="black"/>
<path id="Vector_36" d="M158.652 7.5C162.259 7.5 163.525 10.2 163.525 13.9038C163.525 17.6077 162.259 20.3423 158.652 20.3423C155.045 20.3423 153.779 17.6423 153.779 13.9038C153.779 10.1654 155.045 7.5 158.652 7.5ZM158.652 10.2692C156.901 10.2692 156.692 11.9654 156.692 13.9038C156.692 15.8423 156.901 17.5731 158.652 17.5731C160.404 17.5731 160.612 15.9115 160.612 13.9038C160.612 11.8962 160.404 10.2692 158.652 10.2692Z" fill="black"/>
</g>
<path id="Vector_37" d="M75.4819 40.0962C75.9608 40.0962 76.349 39.3213 76.349 38.3654C76.349 37.4095 75.9608 36.6346 75.4819 36.6346C75.003 36.6346 74.6147 37.4095 74.6147 38.3654C74.6147 39.3213 75.003 40.0962 75.4819 40.0962Z" fill="black" stroke="black" stroke-linecap="round" stroke-linejoin="round"/>
</g>
<defs>
<clipPath id="clip0_585_140">
<rect width="170" height="144" fill="white"/>
</clipPath>
</defs>
</svg>
