<svg width="160" height="144" viewBox="0 0 160 144" fill="none" xmlns="http://www.w3.org/2000/svg">
<g id="Icono Dise&#195;&#177;o UI/UX" clip-path="url(#clip0_1139_1392)">
<path id="Vector" d="M53.4213 45.4695C51.3298 45.7567 49.6832 45.3457 48.3828 46.1331C48.3828 46.1331 47.1615 44.5088 47.2208 41.2949" stroke="black" stroke-linecap="round" stroke-linejoin="round"/>
<path id="Vector_2" d="M105.566 32.5843C105.556 32.2426 105.541 31.896 105.517 31.5493" stroke="black" stroke-linecap="round" stroke-linejoin="round"/>
<path id="Vector_3" d="M103.791 45.7319C105.225 44.9099 104.834 43.0578 104.508 41.1315C104.463 40.8789 104.711 40.5917 104.81 40.2302" stroke="black" stroke-linecap="round" stroke-linejoin="round"/>
<path id="Vector_4" d="M53.1884 45.7319C53.1884 45.7319 50.3799 44.9297 47.9818 46.5342C45.6183 48.1089 42.8691 63.6682 55.7843 64.51" stroke="black" stroke-linecap="round" stroke-linejoin="round"/>
<path id="Vector_5" d="M99.1084 45.7319C99.1084 45.7319 101.917 44.9297 104.315 46.5342C106.664 48.099 109.393 63.475 96.7598 64.4952" stroke="black" stroke-linecap="round" stroke-linejoin="round"/>
<path id="Vector_6" d="M49.96 49.4905C49.96 49.4905 51.9081 49.2776 53.4014 50.0897" stroke="black" stroke-linecap="round" stroke-linejoin="round"/>
<path id="Vector_7" d="M50.1274 50.0649C50.1274 50.0649 47.8233 58.7112 54.1572 61.5933C53.6035 61.2615 52.8074 58.8696 53.6381 57.0423" stroke="black" stroke-linecap="round" stroke-linejoin="round"/>
<path id="Vector_8" d="M102.367 49.4905C102.367 49.4905 100.419 49.2776 98.9258 50.0897" stroke="black" stroke-linecap="round" stroke-linejoin="round"/>
<path id="Vector_9" d="M102.204 50.0649C102.204 50.0649 104.508 58.7112 98.1738 61.5933C98.7276 61.2615 99.5237 58.8696 98.693 57.0423" stroke="black" stroke-linecap="round" stroke-linejoin="round"/>
<path id="Vector_10" d="M72.9323 52.6846C72.9323 54.1702 71.7505 56.7353 71.7505 56.7353C71.7505 56.7353 69.7529 62.7372 76.1462 62.7372C82.5395 62.7372 80.2008 56.7353 80.2008 56.7353C80.2008 56.7353 79.3602 54.6654 79.3602 52.6846" stroke="black" stroke-linecap="round" stroke-linejoin="round"/>
<path id="Vector_11" d="M71.75 59.5333C71.75 59.5333 72.1505 58.7311 73.7476 60.3355C75.3447 61.94 77.3423 61.9351 78.5438 60.7367C79.7404 59.5383 79.4981 59.1372 80.6156 59.3352" stroke="black" stroke-linecap="round" stroke-linejoin="round"/>
<path id="Vector_12" d="M49.006 61.7914C49.006 61.7914 48.1802 65.5351 46.1826 66.7385C46.1826 66.7385 47.7797 67.1396 50.1778 66.3373C50.1778 66.3373 49.1988 70.5119 51.1766 72.9879C53.1544 75.4639 51.7749 78.8759 51.7749 78.8759" stroke="black" stroke-linecap="round" stroke-linejoin="round"/>
<path id="Vector_13" d="M103.316 61.7914C103.316 61.7914 104.142 65.5351 106.139 66.7385C106.139 66.7385 104.542 67.1396 102.144 66.3373C102.144 66.3373 103.123 70.5119 101.145 72.9879C99.1676 75.4639 100.547 78.8759 100.547 78.8759" stroke="black" stroke-linecap="round" stroke-linejoin="round"/>
<path id="Vector_14" d="M87.271 67.0455C77.3819 64.5695 65.0205 67.0455 65.0205 67.0455C65.0205 67.0455 66.5039 72.4927 76.393 72.4927C86.2821 72.4927 87.271 67.0455 87.271 67.0455Z" stroke="black" stroke-linecap="round" stroke-linejoin="round"/>
<path id="Vector_15" d="M53.5692 43.6967C53.5692 43.6967 62.5881 42.6023 74.2474 43.6967C74.2474 43.6967 75.1423 56.676 63.933 57.1712C51.3541 57.7258 53.5692 43.6967 53.5692 43.6967Z" stroke="black" stroke-linecap="round" stroke-linejoin="round"/>
<path id="Vector_16" d="M63.2212 55.2051C60.4127 55.2051 58.3261 54.3385 57.0158 52.6301C55.3593 50.466 55.1665 47.3512 55.2258 45.5239C56.8922 45.3853 59.8935 45.1921 63.7107 45.1921C66.6428 45.1921 69.57 45.306 72.4329 45.5289C72.3043 47.3364 71.8099 50.2283 70.0892 52.3528C68.6602 54.1157 66.5637 55.0714 63.8689 55.1903C63.6514 55.2002 63.4338 55.2051 63.2261 55.2051H63.2212Z" stroke="black" stroke-linecap="round" stroke-linejoin="round"/>
<path id="Vector_17" d="M56.3137 45.7815C56.3137 45.7815 55.4187 52.7143 62.2818 55.2052" stroke="black" stroke-linecap="round" stroke-linejoin="round"/>
<path id="Vector_18" d="M99.2326 43.6967C99.2326 43.6967 90.2137 42.6023 78.5544 43.6967C78.5544 43.6967 76.9425 57.1712 88.8688 57.1712C101.458 57.1712 99.2326 43.6967 99.2326 43.6967Z" stroke="black" stroke-linecap="round" stroke-linejoin="round"/>
<path id="Vector_19" d="M89.5857 55.2051C92.3942 55.2051 94.4808 54.3385 95.7911 52.6301C97.4476 50.466 97.6404 47.3512 97.5811 45.5239C95.9148 45.3853 92.9134 45.1921 89.0962 45.1921C86.1641 45.1921 83.2369 45.306 80.374 45.5289C80.5026 47.3364 80.997 50.2283 82.7177 52.3528C84.1467 54.1157 86.2432 55.0714 88.938 55.1903C89.1555 55.2002 89.3731 55.2051 89.5808 55.2051H89.5857Z" stroke="black" stroke-linecap="round" stroke-linejoin="round"/>
<path id="Vector_20" d="M96.4925 45.7815C96.4925 45.7815 97.3875 52.7143 90.5244 55.2052" stroke="black" stroke-linecap="round" stroke-linejoin="round"/>
<path id="Vector_21" d="M74.252 43.6967H78.4795" stroke="black" stroke-linecap="round" stroke-linejoin="round"/>
<path id="Vector_22" d="M74.252 45.6775H78.4795" stroke="black" stroke-linecap="round" stroke-linejoin="round"/>
<path id="Vector_23" d="M72.4274 45.5289C72.4274 45.5289 60.9412 45.0288 56.2735 45.5289C56.2735 45.5289 55.7444 53.982 62.8695 55.2052C69.9946 56.4283 72.6301 48 72.4323 45.5289H72.4274Z" fill="black"/>
<path id="Vector_24" d="M80.4928 45.5289C80.4928 45.5289 91.979 45.0288 96.6466 45.5289C96.6466 45.5289 97.1757 53.982 90.0506 55.2052C82.9255 56.4283 80.29 48 80.4878 45.5289H80.4928Z" fill="black"/>
<path id="Vector_25" d="M54.6573 29.3605C54.6573 29.3605 55.1616 33.6391 46.6075 35.1098C43.2156 35.6942 42.5827 37.987 43.0178 40.4729C43.4529 42.9588 59.3793 38.8833 74.7371 37.7641C90.0949 36.645 107.277 42.0129 109.799 40.0916C112.321 38.1702 111.396 35.397 109.942 34.1491C108.489 32.9062 96.8739 31.5642 99.3313 27.558" stroke="black" stroke-linecap="round" stroke-linejoin="round"/>
<path id="Vector_26" d="M104.078 32.203C104.078 32.203 108.019 31.6336 107.139 27.152C106.259 22.6704 98.8074 23.9827 91.3906 23.8044C83.9737 23.6261 84.0924 18.6741 76.6657 18.996C76.6657 18.996 73.2045 18.9118 69.6741 21.7988C64.5219 26.013 47.8538 23.3884 45.2777 28.6425C42.1576 35.0059 48.101 34.6543 48.101 34.6543" stroke="black" stroke-linecap="round" stroke-linejoin="round"/>
<path id="Vector_27" d="M51.6709 40.7997C51.6709 40.7997 53.1543 43.7709 55.6265 43.7709C57.5253 43.7709 75.4443 40.8542 89.2495 42.2853C103.589 43.7709 102.778 39.9232 102.778 39.9232" stroke="black" stroke-linecap="round" stroke-linejoin="round"/>
<path id="Vector_28" d="M51.6709 25.4584C51.6709 25.4584 54.6376 21.4869 54.6376 16.0396C54.6376 10.5924 59.5476 7.41814 64.0323 6.13557C70.9547 4.15476 71.4837 0.0594309 75.4048 1.18354C78.8659 2.17395 77.2293 5.33334 77.2293 5.33334" stroke="black" stroke-linecap="round" stroke-linejoin="round"/>
<path id="Vector_29" d="M72.4375 8.13119C72.4375 8.13119 78.371 5.64032 80.8432 2.1739C83.3155 -1.29252 86.2823 0.688289 87.2712 2.1739" stroke="black" stroke-linecap="round" stroke-linejoin="round"/>
<path id="Vector_30" d="M76.626 9.79013C76.626 9.79013 82.8215 9.10675 85.7882 4.64992C88.755 0.1931 91.2272 0.688303 93.2051 1.67871C95.1829 2.66911 94.6884 5.64033 93.6995 7.62114" stroke="black" stroke-linecap="round" stroke-linejoin="round"/>
<path id="Vector_31" d="M90.2383 7.12601C90.2383 7.12601 94.1939 6.63081 96.6662 10.5924C99.1385 14.554 97.1359 20.4321 102.343 23.9282" stroke="black" stroke-linecap="round" stroke-linejoin="round"/>
<path id="Vector_32" d="M89.4961 7.37356C89.4961 7.37356 81.3375 7.12596 80.3486 17.5252" stroke="black" stroke-linecap="round" stroke-linejoin="round"/>
<path id="Vector_33" d="M58.5925 19.0108C58.5925 19.0108 57.6284 9.24545 66.9983 10.0972C72.4373 10.5924 72.9317 18.5156 72.9317 18.5156" stroke="black" stroke-linecap="round" stroke-linejoin="round"/>
<path id="Vector_34" d="M60.0762 21.4869C60.0762 21.4869 63.9725 22.2743 70.9245 20.8877" stroke="black" stroke-linecap="round" stroke-linejoin="round"/>
<path id="Vector_35" d="M82.8662 20.4617C82.8662 20.4617 84.0579 10.8944 90.2385 12.078C96.4192 13.2615 94.565 23.8093 94.565 23.8093C94.565 23.8093 88.3448 24.8889 82.8662 20.4617Z" stroke="black" stroke-linecap="round" stroke-linejoin="round"/>
<path id="Vector_36" d="M89.0022 22.7248C90.9138 22.7248 92.4634 21.1729 92.4634 19.2584C92.4634 17.344 90.9138 15.792 89.0022 15.792C87.0906 15.792 85.541 17.344 85.541 19.2584C85.541 21.1729 87.0906 22.7248 89.0022 22.7248Z" fill="black"/>
<path id="Vector_37" d="M81.6045 19.8081C81.6045 19.8081 82.0792 9.2355 90.2377 9.79013C98.3962 10.3448 97.5902 23.7598 97.5902 23.7598" stroke="black" stroke-linecap="round" stroke-linejoin="round"/>
<path id="Vector_38" d="M91.7215 20.744C92.4042 20.744 92.9576 20.3006 92.9576 19.7536C92.9576 19.2066 92.4042 18.7632 91.7215 18.7632C91.0388 18.7632 90.4854 19.2066 90.4854 19.7536C90.4854 20.3006 91.0388 20.744 91.7215 20.744Z" fill="white"/>
<path id="Vector_39" d="M53.6484 50.2086C53.6484 50.2086 53.5347 83.3575 76.0226 83.3575C98.5104 83.3575 99.1383 49.7134 99.1383 49.7134" stroke="black" stroke-linecap="round" stroke-linejoin="round"/>
<path id="Vector_40" d="M60.1106 74.5479C59.0821 75.0777 57.8064 75.9295 56.8126 77.1873C54.8298 79.7029 52.9756 88.0322 52.9756 88.0322L64.2343 93.4497" stroke="black" stroke-linecap="round" stroke-linejoin="round"/>
<path id="Vector_41" d="M59.6661 91.6868L56.2939 100.229L73.3774 109.717C73.3774 109.717 65.4513 90.4438 64.5019 79.5791" stroke="black" stroke-linecap="round" stroke-linejoin="round"/>
<path id="Vector_42" d="M92.0727 74.538C93.1357 75.0876 94.6488 76.0681 95.7415 77.5934C97.6056 80.1981 99.0791 88.6017 99.0791 88.6017L87.583 93.4993" stroke="black" stroke-linecap="round" stroke-linejoin="round"/>
<path id="Vector_43" d="M92.2355 91.9492L95.2121 100.635L84.8829 104.017C81.3772 105.166 78.0298 106.751 74.9197 108.732L73.377 109.712C73.377 109.712 73.9258 106.013 76.2052 102.344C80.4823 95.4652 86.2674 85.2739 87.9436 79.6335" stroke="black" stroke-linecap="round" stroke-linejoin="round"/>
<path id="Vector_44" d="M56.4026 77.4052C56.4026 77.4052 44.3626 81.1836 41.7272 82.2383C39.0917 83.2931 30.6514 103.369 30.6514 103.369C30.6514 103.369 37.0348 108.747 47.5568 110.812" stroke="black" stroke-linecap="round" stroke-linejoin="round"/>
<path id="Vector_45" d="M95.7412 77.4052C95.7412 77.4052 107.781 81.1836 110.417 82.2383C113.052 83.2931 121.492 103.369 121.492 103.369C121.492 103.369 115.109 108.747 104.587 110.812" stroke="black" stroke-linecap="round" stroke-linejoin="round"/>
<path id="Vector_46" d="M47.913 108.014C47.913 108.014 47.3494 111.416 49.609 113.114C49.609 113.114 49.5101 110.282 50.6919 108.014" stroke="black" stroke-linecap="round" stroke-linejoin="round"/>
<path id="Vector_47" d="M49.6086 113.119C49.6086 113.119 49.4108 132.402 47.7148 140.335" stroke="black" stroke-linecap="round" stroke-linejoin="round"/>
<path id="Vector_48" d="M104.963 107.449C104.963 107.449 105.527 110.851 103.267 112.55C103.267 112.55 103.366 109.717 102.185 107.449" stroke="black" stroke-linecap="round" stroke-linejoin="round"/>
<path id="Vector_49" d="M103.267 112.55C103.267 112.55 103.375 132.397 105.071 140.336" stroke="black" stroke-linecap="round" stroke-linejoin="round"/>
<path id="Vector_50" d="M35.3284 106.087L29.8004 133.522C29.8004 133.522 28.1044 134.086 28.1242 135.557" stroke="black" stroke-linecap="round" stroke-linejoin="round"/>
<path id="Vector_51" d="M45.0945 110.252L38.8594 134.091C38.8594 134.091 39.9917 135.225 39.4231 136.359" stroke="black" stroke-linecap="round" stroke-linejoin="round"/>
<path id="Vector_52" d="M28.1144 136.057C27.4766 135.77 26.3591 135.413 25.2466 135.794C23.5506 136.374 22.448 140.35 23.0265 142.044C23.605 143.742 25.3059 144.297 26.9969 143.153" stroke="black" stroke-linecap="round" stroke-linejoin="round"/>
<path id="Vector_53" d="M31.3535 135.993C30.7008 135.72 29.6822 135.453 28.6686 135.79C26.9726 136.354 25.8403 140.326 26.404 142.024C26.9677 143.723 28.6686 144.292 30.3646 143.158" stroke="black" stroke-linecap="round" stroke-linejoin="round"/>
<path id="Vector_54" d="M34.3301 136.359C34.3301 136.359 33.7664 135.225 32.0655 135.794C30.3645 136.364 29.2372 140.331 29.8009 142.029C30.3646 143.728 32.0655 144.297 33.7615 143.163" stroke="black" stroke-linecap="round" stroke-linejoin="round"/>
<path id="Vector_55" d="M37.1579 143.158C35.462 144.292 33.761 143.723 33.1974 142.024C32.6337 140.326 33.761 136.354 35.462 135.789C36.3124 135.507 37.1579 135.646 37.7958 135.859C38.399 136.062 38.6908 136.75 38.4386 137.335L38.2754 137.721C37.5387 139.439 37.1629 141.291 37.1629 143.158H37.1579Z" stroke="black" stroke-linecap="round" stroke-linejoin="round"/>
<path id="Vector_56" d="M38.2902 136.359C38.2902 136.359 39.734 135.795 41.7959 137.493C43.8627 139.192 44.55 138.058 45.2422 138.627C45.9345 139.197 45.9295 140.326 45.9295 140.326H37.5732" stroke="black" stroke-linecap="round" stroke-linejoin="round"/>
<path id="Vector_57" d="M118.081 106.087L123.609 133.522C123.609 133.522 125.305 134.086 125.285 135.557" stroke="black" stroke-linecap="round" stroke-linejoin="round"/>
<path id="Vector_58" d="M108.311 110.252L114.546 134.091C114.546 134.091 113.413 135.225 113.982 136.359" stroke="black" stroke-linecap="round" stroke-linejoin="round"/>
<path id="Vector_59" d="M125.295 136.057C125.933 135.77 127.05 135.413 128.163 135.794C129.859 136.374 130.961 140.35 130.383 142.044C129.804 143.738 128.103 144.297 126.412 143.153" stroke="black" stroke-linecap="round" stroke-linejoin="round"/>
<path id="Vector_60" d="M122.052 135.993C122.704 135.72 123.723 135.453 124.737 135.79C126.433 136.354 127.565 140.326 127.001 142.024C126.438 143.723 124.737 144.292 123.041 143.158" stroke="black" stroke-linecap="round" stroke-linejoin="round"/>
<path id="Vector_61" d="M119.08 136.359C119.08 136.359 119.644 135.225 121.345 135.794C123.046 136.364 124.173 140.331 123.609 142.029C123.046 143.728 121.345 144.297 119.649 143.163" stroke="black" stroke-linecap="round" stroke-linejoin="round"/>
<path id="Vector_62" d="M116.246 143.158C117.942 144.292 119.643 143.723 120.207 142.024C120.771 140.326 119.643 136.354 117.942 135.789C117.092 135.507 116.246 135.646 115.609 135.859C115.005 136.062 114.714 136.75 114.966 137.335L115.129 137.721C115.866 139.439 116.242 141.291 116.242 143.158H116.246Z" stroke="black" stroke-linecap="round" stroke-linejoin="round"/>
<path id="Vector_63" d="M115.114 136.359C115.114 136.359 113.67 135.795 111.608 137.493C109.546 139.192 108.854 138.058 108.162 138.627C107.47 139.197 107.475 140.326 107.475 140.326H115.831" stroke="black" stroke-linecap="round" stroke-linejoin="round"/>
<path id="Vector_64" d="M45.9297 140.326H108.31" stroke="black" stroke-linecap="round" stroke-linejoin="round"/>
<path id="Vector_65" d="M11.125 93.4497V140.336" stroke="black" stroke-linecap="round" stroke-linejoin="round"/>
<path id="Vector_66" d="M47.5268 43.771H11.125V62.4599" stroke="black" stroke-linecap="round" stroke-linejoin="round"/>
<path id="Vector_67" d="M138.694 80.9558V43.771H104.75" stroke="black" stroke-linecap="round" stroke-linejoin="round"/>
<path id="Vector_68" d="M138.694 140.336V111.738" stroke="black" stroke-linecap="round" stroke-linejoin="round"/>
<path id="Vector_69" d="M37.5391 140.335H115.9" stroke="black" stroke-linecap="round" stroke-linejoin="round"/>
<path id="Vector_70" d="M130.679 140.335H138.695V137.364H129.839" stroke="black" stroke-linecap="round" stroke-linejoin="round"/>
<path id="Vector_71" d="M23.7534 137.364H11.125V140.335H22.9029" stroke="black" stroke-linecap="round" stroke-linejoin="round"/>
<path id="Vector_72" d="M104.948 43.771H138.695V32.9062C138.695 29.6082 136.025 26.9341 132.732 26.9341H107.267" stroke="black" stroke-linecap="round" stroke-linejoin="round"/>
<path id="Vector_73" d="M47.062 26.9341H17.0881C13.7951 26.9341 11.125 29.6082 11.125 32.9062V43.771H47.4477" stroke="black" stroke-linecap="round" stroke-linejoin="round"/>
<path id="Vector_74" d="M121.468 32.7972H114.467V39.8093H121.468V32.7972Z" stroke="black" stroke-linecap="round" stroke-linejoin="round"/>
<g id="Group">
<path id="Vector_75" d="M124.801 32.7972L132.02 39.8093" stroke="black" stroke-linecap="round" stroke-linejoin="round"/>
<path id="Vector_76" d="M132.02 32.7972L124.801 39.8093" stroke="black" stroke-linecap="round" stroke-linejoin="round"/>
</g>
<path id="Vector_77" d="M34.3645 66.5503H0.24707V93.2912H34.3645V66.5503Z" stroke="black" stroke-linecap="round" stroke-linejoin="round"/>
<path id="Vector_78" d="M1.06787 62.5886H33.5437C33.9986 62.5886 34.3645 62.9551 34.3645 63.4107V66.5502H0.24707V63.4107C0.24707 62.9551 0.612967 62.5886 1.06787 62.5886Z" stroke="black" stroke-linecap="round" stroke-linejoin="round"/>
<path id="Vector_79" d="M159.462 84.8728H125.345V111.614H159.462V84.8728Z" stroke="black" stroke-linecap="round" stroke-linejoin="round"/>
<path id="Vector_80" d="M126.166 80.9111H158.641C159.096 80.9111 159.462 81.2776 159.462 81.7332V84.8728H125.345V81.7332C125.345 81.2776 125.711 80.9111 126.166 80.9111Z" stroke="black" stroke-linecap="round" stroke-linejoin="round"/>
</g>
<defs>
<clipPath id="clip0_1139_1392">
<rect width="159.709" height="144" fill="white"/>
</clipPath>
</defs>
</svg>
