<svg width="92" height="144" viewBox="0 0 92 144" fill="none" xmlns="http://www.w3.org/2000/svg">
<g id="Capa_1" clip-path="url(#clip0_565_685)">
<path id="Vector" d="M79.3255 99.7944H12.4559C9.19742 99.7944 6.55566 97.1526 6.55566 93.8941V6.14305C6.55566 2.88456 9.19742 0.242798 12.4559 0.242798H79.3303C82.5888 0.242798 85.2306 2.88456 85.2306 6.14305V93.899C85.2306 97.1575 82.5888 99.7993 79.3303 99.7993L79.3255 99.7944ZM76.9702 91.5389V8.4983H14.8112V91.5389H76.9702Z" fill="black" stroke="black" stroke-linecap="round" stroke-linejoin="round"/>
<path id="Vector_2" d="M85.2258 92.9957H91.5388V102.222H0.242676V92.9957H6.5557" stroke="black" stroke-linecap="round" stroke-linejoin="round"/>
<path id="Vector_3" d="M33.4057 102.223L20.396 143.257H26.5536L39.6653 102.223" stroke="black" stroke-linecap="round" stroke-linejoin="round"/>
<path id="Vector_4" d="M53.8451 102.223L66.8596 143.257H60.702L47.5903 102.223" stroke="black" stroke-linecap="round" stroke-linejoin="round"/>
<path id="Vector_5" d="M46.6194 102.465H40.792V126.746H46.6194V102.465Z" stroke="black" stroke-linecap="round" stroke-linejoin="round"/>
<path id="Vector_6" d="M46.6194 131.117H40.792V143.257H46.6194V131.117Z" stroke="black" stroke-linecap="round" stroke-linejoin="round"/>
<path id="Vector_7" d="M30.4092 131.185H56.5451" stroke="black" stroke-linecap="round" stroke-linejoin="round"/>
<path id="Vector_8" d="M55.4817 126.916H32.0361" stroke="black" stroke-linecap="round" stroke-linejoin="round"/>
<path id="Vector_9" d="M76.9705 62.1445C76.9705 62.1445 72.1144 57.06 63.3733 56.5744C63.3733 56.5744 70.6867 23.0668 52.4614 8.49829" stroke="black" stroke-linecap="round" stroke-linejoin="round"/>
<path id="Vector_10" d="M65.5584 74.7852C65.5584 74.7852 50.9899 75.7564 53.418 90.8105" stroke="black" stroke-linecap="round" stroke-linejoin="round"/>
<path id="Vector_11" d="M70.5167 91.5389C70.5167 91.5389 76.2422 90.8105 76.2422 79.6413C76.2422 68.4721 69.9291 64.1015 61.188 63.6159C52.4469 63.1303 32.0509 65.0728 25.2523 58.7597C18.4537 52.4467 14.8115 52.3204 14.8115 52.3204" stroke="black" stroke-linecap="round" stroke-linejoin="round"/>
<path id="Vector_12" d="M34.3525 11.9608C34.3525 11.9608 50.5042 11.1692 53.4179 30.5939C56.7249 52.6507 50.5042 62.1591 50.5042 62.1591" stroke="black" stroke-linecap="round" stroke-linejoin="round"/>
<path id="Vector_13" d="M27.1948 13.1117C27.1948 13.1117 18.4537 13.5973 16.5112 26.2234" stroke="black" stroke-linecap="round" stroke-linejoin="round"/>
<path id="Vector_14" d="M17.9678 44.6768C17.9678 44.6768 22.8239 47.1048 37.8781 47.1048C52.9322 47.1048 54.3454 45.2109 54.3454 45.2109" stroke="black" stroke-linecap="round" stroke-linejoin="round"/>
<path id="Vector_15" d="M63.6159 79.6413C63.6159 79.6413 58.9297 78.1651 55.2002 80.36" stroke="black" stroke-linecap="round" stroke-linejoin="round"/>
<path id="Vector_16" d="M44.1914 98.3375C45.6665 98.3375 46.8623 97.1417 46.8623 95.6666C46.8623 94.1915 45.6665 92.9957 44.1914 92.9957C42.7163 92.9957 41.5205 94.1915 41.5205 95.6666C41.5205 97.1417 42.7163 98.3375 44.1914 98.3375Z" fill="#D9D9D9"/>
<path id="Vector_17" d="M44.1914 97.3664C45.1301 97.3664 45.891 96.6054 45.891 95.6667C45.891 94.728 45.1301 93.967 44.1914 93.967C43.2527 93.967 42.4917 94.728 42.4917 95.6667C42.4917 96.6054 43.2527 97.3664 44.1914 97.3664Z" stroke="black" stroke-width="0.5" stroke-linecap="round" stroke-linejoin="round"/>
<path id="Vector_18" d="M57.1331 93.7242H51.16C50.7979 93.7242 50.5044 94.0178 50.5044 94.3798V96.468C50.5044 96.83 50.7979 97.1236 51.16 97.1236H57.1331C57.4951 97.1236 57.7887 96.83 57.7887 96.468V94.3798C57.7887 94.0178 57.4951 93.7242 57.1331 93.7242Z" fill="#D9D9D9"/>
<path id="Vector_19" d="M67.8167 93.7242H61.8436C61.4815 93.7242 61.188 94.0178 61.188 94.3798V96.468C61.188 96.83 61.4815 97.1236 61.8436 97.1236H67.8167C68.1787 97.1236 68.4723 96.83 68.4723 96.468V94.3798C68.4723 94.0178 68.1787 93.7242 67.8167 93.7242Z" fill="#D9D9D9"/>
<path id="Vector_20" d="M26.5388 93.7242H20.5657C20.2037 93.7242 19.9102 94.0178 19.9102 94.3798V96.468C19.9102 96.83 20.2037 97.1236 20.5657 97.1236H26.5388C26.9009 97.1236 27.1944 96.83 27.1944 96.468V94.3798C27.1944 94.0178 26.9009 93.7242 26.5388 93.7242Z" fill="#D9D9D9"/>
<path id="Vector_21" d="M37.2224 93.7242H31.2493C30.8873 93.7242 30.5938 94.0178 30.5938 94.3798V96.468C30.5938 96.83 30.8873 97.1236 31.2493 97.1236H37.2224C37.5845 97.1236 37.878 96.83 37.878 96.468V94.3798C37.878 94.0178 37.5845 93.7242 37.2224 93.7242Z" fill="#D9D9D9"/>
</g>
<defs>
<clipPath id="clip0_565_685">
<rect width="91.7817" height="143.5" fill="white"/>
</clipPath>
</defs>
</svg>
