<svg width="123" height="139" viewBox="0 0 123 139" fill="none" xmlns="http://www.w3.org/2000/svg">
<g id="Capa_1" clip-path="url(#clip0_565_519)">
<g id="Group">
<path id="Vector" d="M38.6623 22.3086C38.6623 22.3086 33.9432 21.8796 31.7981 24.0246C29.6531 26.1697 27.937 27.4567 27.937 27.4567C27.937 27.4567 28.795 28.7438 29.6531 28.7438" stroke="black" stroke-linecap="round" stroke-linejoin="round"/>
<path id="Vector_2" d="M36.732 26.8133C36.732 26.8133 34.1579 25.9552 31.1548 27.6713C29.4902 28.6237 28.1517 31.1034 25.5776 31.9614C25.5776 31.9614 27.7227 40.1126 40.5931 38.8256" stroke="black" stroke-linecap="round" stroke-linejoin="round"/>
<path id="Vector_3" d="M34.4966 38.9629C34.4966 38.9629 35.8737 41.3997 42.3089 42.2577C48.7441 43.1157 47.028 49.1219 47.028 49.1219C47.028 49.1219 47.6501 50.5205 56.7065 50.9366" stroke="black" stroke-linecap="round" stroke-linejoin="round"/>
<path id="Vector_4" d="M82.8809 22.3086C82.8809 22.3086 87.0466 21.8796 88.9428 24.0246C90.839 26.1697 92.3535 27.4567 92.3535 27.4567C92.3535 27.4567 91.5941 28.7438 90.839 28.7438" stroke="black" stroke-linecap="round" stroke-linejoin="round"/>
<path id="Vector_5" d="M84.584 26.8133C84.584 26.8133 86.8578 25.9552 89.509 27.6713C90.9806 28.6237 92.1603 31.1034 94.4341 31.9614C94.4341 31.9614 92.5379 40.1126 81.1733 38.8256" stroke="black" stroke-linecap="round" stroke-linejoin="round"/>
<path id="Vector_6" d="M86.5574 38.9629C86.5574 38.9629 85.7122 40.6575 82.1343 41.7171" stroke="black" stroke-linecap="round" stroke-linejoin="round"/>
<path id="Vector_7" d="M42.7381 22.5231C42.7381 22.5231 40.2241 24.5308 38.3579 25.509C35.8739 26.8132 34.1579 31.8841 40.593 32.7808" stroke="black" stroke-linecap="round" stroke-linejoin="round"/>
<path id="Vector_8" d="M78.1704 22.5231C78.1704 22.5231 80.6844 24.5308 82.5506 25.509C85.0346 26.8132 86.7507 31.8841 80.3155 32.7808" stroke="black" stroke-linecap="round" stroke-linejoin="round"/>
<path id="Vector_9" d="M44.1107 26.5987C44.1107 26.5987 42.3046 32.8451 40.5885 33.6903C38.8725 34.5354 40.2496 38.0448 42.3475 38.0062C44.4454 37.9675 56.033 35.8225 67.6163 36.6805C79.1996 37.5385 78.7706 38.3966 80.4867 36.6805C82.2027 34.9645 81.3447 34.1064 80.9157 33.2484C80.4867 32.3904 76.6256 31.1033 75.3385 25.9552" stroke="black" stroke-linecap="round" stroke-linejoin="round"/>
<path id="Vector_10" d="M38.8771 23.8101C38.8771 23.8101 38.0191 20.807 39.7351 18.662" stroke="black" stroke-linecap="round" stroke-linejoin="round"/>
<path id="Vector_11" d="M82.8507 23.8101C82.8507 23.8101 83.7087 20.807 81.9927 18.662" stroke="black" stroke-linecap="round" stroke-linejoin="round"/>
<path id="Vector_12" d="M38.8298 11.7078C38.8298 11.7078 47.4573 10.7596 58.6116 11.7078C58.6116 11.7078 59.4696 22.9522 48.7443 23.3812C36.7105 23.8617 38.8298 11.7078 38.8298 11.7078Z" stroke="black" stroke-linecap="round" stroke-linejoin="round"/>
<path id="Vector_13" d="M48.058 21.6779C45.3724 21.6779 43.3732 20.9272 42.1247 19.4471C40.5417 17.5723 40.3572 14.8738 40.4087 13.2907C42.0046 13.1706 44.8704 13.0033 48.5256 13.0033C51.3313 13.0033 54.1328 13.102 56.8699 13.295C56.7455 14.8609 56.2736 17.3664 54.6304 19.2068C53.2619 20.7341 51.2584 21.5621 48.68 21.6651C48.4698 21.6736 48.2639 21.6779 48.0623 21.6779H48.058Z" stroke="black" stroke-linecap="round" stroke-linejoin="round"/>
<path id="Vector_14" d="M41.4509 13.5139C41.4509 13.5139 40.5929 19.5201 47.161 21.678" stroke="black" stroke-linecap="round" stroke-linejoin="round"/>
<path id="Vector_15" d="M82.5076 11.7078C82.5076 11.7078 73.8802 10.7596 62.7259 11.7078C62.7259 11.7078 61.1857 23.3812 72.5932 23.3812C84.6355 23.3812 82.5076 11.7078 82.5076 11.7078Z" stroke="black" stroke-linecap="round" stroke-linejoin="round"/>
<path id="Vector_16" d="M73.2797 21.6779C75.9653 21.6779 77.9645 20.9272 79.2129 19.4471C80.796 17.5723 80.9805 14.8738 80.929 13.2907C79.333 13.1706 76.4672 13.0033 72.8121 13.0033C70.0063 13.0033 67.2049 13.102 64.4678 13.295C64.5922 14.8609 65.0641 17.3664 66.7072 19.2068C68.0758 20.7341 70.0793 21.5621 72.6576 21.6651C72.8678 21.6736 73.0738 21.6779 73.2754 21.6779H73.2797Z" stroke="black" stroke-linecap="round" stroke-linejoin="round"/>
<path id="Vector_17" d="M79.8864 13.5139C79.8864 13.5139 80.7444 19.5201 74.1763 21.678" stroke="black" stroke-linecap="round" stroke-linejoin="round"/>
<path id="Vector_18" d="M40.2583 11.5833C40.2583 11.5833 40.5886 9.65272 41.8757 7.50766C43.1627 5.3626 44.8788 5.79161 44.8788 5.79161" stroke="black" stroke-linecap="round" stroke-linejoin="round"/>
<path id="Vector_19" d="M79.204 11.5833C79.204 11.5833 78.8736 9.65272 77.5866 7.50766C76.2995 5.3626 74.5835 5.79161 74.5835 5.79161" stroke="black" stroke-linecap="round" stroke-linejoin="round"/>
<path id="Vector_20" d="M44.0254 7.50769C44.0254 7.50769 46.5995 0.214478 59.4698 0.214478C72.3402 0.214478 75.5578 7.50769 75.5578 7.50769" stroke="black" stroke-linecap="round" stroke-linejoin="round"/>
<path id="Vector_21" d="M46.479 4.23858C46.479 4.23858 46.509 2.19219 48.7442 1.07246C51.3183 -0.214572 53.4633 0.643453 53.4633 0.643453" stroke="black" stroke-linecap="round" stroke-linejoin="round"/>
<path id="Vector_22" d="M72.769 4.23858C72.769 4.23858 72.739 2.19219 70.5038 1.07246C67.9297 -0.214572 65.7847 0.643453 65.7847 0.643453" stroke="black" stroke-linecap="round" stroke-linejoin="round"/>
</g>
<path id="Vector_23" d="M69.0454 48.4741C70.8129 48.3025 72.5848 48.0537 74.3008 47.6976" stroke="black" stroke-linecap="round" stroke-linejoin="round"/>
<path id="Vector_24" d="M48.3799 47.6976C48.3799 47.6976 54.459 48.7444 61.9624 48.7787" stroke="black" stroke-linecap="round" stroke-linejoin="round"/>
<path id="Vector_25" d="M43.2061 33.6131C43.2061 33.6131 59.4999 30.1166 78.1491 33.6131" stroke="black" stroke-linecap="round" stroke-linejoin="round"/>
<path id="Vector_26" d="M45.4883 38.0063C45.4883 38.0063 47.8865 41.3998 51.7476 41.3998C55.6087 41.3998 62.4729 40.5417 68.4791 41.3998C74.4852 42.2578 77.0593 37.9677 77.0593 37.9677" stroke="black" stroke-linecap="round" stroke-linejoin="round"/>
<path id="Vector_27" d="M58.6118 11.7078H62.6574" stroke="black" stroke-linecap="round" stroke-linejoin="round"/>
<path id="Vector_28" d="M58.6118 13.4238H62.6574" stroke="black" stroke-linecap="round" stroke-linejoin="round"/>
<path id="Vector_29" d="M45.7411 53.8411C45.7411 53.8411 31.1546 55.1281 19.3568 55.3426C7.55897 55.5571 8.84601 60.7053 9.70403 62.8503C10.5621 64.9954 13.5651 64.5664 16.5682 66.7114" stroke="black" stroke-linecap="round" stroke-linejoin="round"/>
<path id="Vector_30" d="M18.2847 67.9984C18.2847 67.9984 29.3189 79.9893 31.5841 87.304C37.1612 105.322 34.497 138.785 34.497 138.785" stroke="black" stroke-linecap="round" stroke-linejoin="round"/>
<path id="Vector_31" d="M9.72574 63.3608C9.72574 63.3608 7.44768 65.0125 11.9652 67.3893C20.4725 71.8682 24.5052 79.9293 24.5052 79.9293" stroke="black" stroke-linecap="round" stroke-linejoin="round"/>
<path id="Vector_32" d="M79.0068 54.2357C84.4596 54.5875 94.773 55.1924 103.027 55.3426C114.825 55.5571 113.538 60.7052 112.68 62.8503C111.822 64.9953 108.819 64.5663 105.816 66.7114" stroke="black" stroke-linecap="round" stroke-linejoin="round"/>
<path id="Vector_33" d="M87.3557 118.622C87.1712 130.591 87.8834 138.786 87.8834 138.786" stroke="black" stroke-linecap="round" stroke-linejoin="round"/>
<path id="Vector_34" d="M104.096 67.9984C104.096 67.9984 94.4773 78.4492 91.3584 85.7896" stroke="black" stroke-linecap="round" stroke-linejoin="round"/>
<path id="Vector_35" d="M112.654 63.3608C112.654 63.3608 114.933 65.0125 110.415 67.3893C101.908 71.8682 97.875 79.9293 97.875 79.9293" stroke="black" stroke-linecap="round" stroke-linejoin="round"/>
<path id="Vector_36" d="M9.7044 66.2825C9.7044 66.2825 -0.591898 104.894 0.266127 110.042C1.12415 115.19 25.5779 122.522 25.5779 122.522C25.5779 122.522 32.013 116.477 32.013 102.32L19.1427 97.6004C19.1427 97.6004 16.1396 95.8843 13.5655 97.1714" stroke="black" stroke-linecap="round" stroke-linejoin="round"/>
<path id="Vector_37" d="M15.2812 94.1682C15.2812 94.1682 21.8709 94.5801 21.5792 98.4498" stroke="black" stroke-linecap="round" stroke-linejoin="round"/>
<path id="Vector_38" d="M22.0811 98.5055L28.3575 80.384" stroke="black" stroke-linecap="round" stroke-linejoin="round"/>
<path id="Vector_39" d="M24.342 122.14C24.342 122.14 24.1318 123.796 24.8525 124.641C25.5733 125.486 34.9987 128.832 34.9987 128.832" stroke="black" stroke-linecap="round" stroke-linejoin="round"/>
<path id="Vector_40" d="M30.8286 101.886C30.8286 101.886 32.0127 100.603 32.8707 101.032C33.7287 101.461 34.2521 101.56 34.2521 101.56" stroke="black" stroke-linecap="round" stroke-linejoin="round"/>
<path id="Vector_41" d="M111.526 67.0718C111.526 67.0718 124.306 106.434 121.411 118.901C118.515 131.368 104.821 135.345 98.3597 132.397C91.8987 129.45 85.3306 114.061 85.3306 114.061C85.3306 114.061 99.4837 113.512 104.962 101.882C104.962 101.882 107.987 104.43 110.604 109.557" stroke="black" stroke-linecap="round" stroke-linejoin="round"/>
<path id="Vector_42" d="M106.661 103.607C106.661 103.607 108.806 103.178 110.951 105.752" stroke="black" stroke-linecap="round" stroke-linejoin="round"/>
<path id="Vector_43" d="M85.2103 114.761C85.2103 114.761 82.6363 115.619 81.7782 112.187C81.2162 109.947 77.8142 103.169 75.5061 101.886C73.198 100.603 74.914 98.0293 76.2011 97.1713" stroke="black" stroke-linecap="round" stroke-linejoin="round"/>
<path id="Vector_44" d="M93.7905 88.1621C93.7905 88.1621 96.9438 86.4461 98.3724 88.1621C99.7967 89.8782 100.655 96.7424 104.087 98.4584C107.519 100.174 105.554 102.229 105.554 102.229" stroke="black" stroke-linecap="round" stroke-linejoin="round"/>
<path id="Vector_45" d="M96.7938 89.02C96.7938 89.02 92.1004 97.167 76.6431 99.312" stroke="black" stroke-linecap="round" stroke-linejoin="round"/>
<path id="Vector_46" d="M95.1508 91.0578C95.1508 91.0578 87.7847 80.8688 86.0686 78.2947C84.3526 75.7206 84.7816 74.0046 82.2075 72.7175" stroke="black" stroke-linecap="round" stroke-linejoin="round"/>
<path id="Vector_47" d="M68.479 79.5818L78.9083 98.9431" stroke="black" stroke-linecap="round" stroke-linejoin="round"/>
<g id="Group_2">
<path id="Vector_48" d="M70.6242 78.7238C70.6242 78.7238 67.8442 80.5771 65.0471 78.2948C61.7008 75.562 58.1829 71.4306 55.5659 67.3764C54.2488 65.3386 50.9626 57.6593 50.6322 55.9218C50.3019 54.1843 53.3479 52.2108 55.0854 52.524C56.8229 52.8372 60.8771 60.8854 60.8771 60.8854" stroke="black" stroke-linecap="round" stroke-linejoin="round"/>
<path id="Vector_49" d="M56.3724 53.2405C56.3724 53.2405 55.5873 51.9063 56.9473 50.6964C58.3073 49.4866 60.2807 48.7745 61.3275 49.2249C62.3743 49.6754 67.2393 58.586 67.2393 58.586" stroke="black" stroke-linecap="round" stroke-linejoin="round"/>
<path id="Vector_50" d="M62.1341 50.1301C62.1341 50.1301 61.349 48.7959 62.709 47.5861C64.069 46.3763 66.0424 45.6641 67.0892 46.1146C68.136 46.565 73.001 55.4756 73.001 55.4756" stroke="black" stroke-linecap="round" stroke-linejoin="round"/>
<path id="Vector_51" d="M71.9458 53.0431C71.9458 53.0431 73.3658 49.0533 74.2753 48.2424C75.1806 47.4359 77.2999 47.985 77.9177 48.4484" stroke="black" stroke-linecap="round" stroke-linejoin="round"/>
<path id="Vector_52" d="M74.3008 47.8134C74.3008 47.8134 75.6607 46.6036 77.7758 47.1527" stroke="black" stroke-linecap="round" stroke-linejoin="round"/>
<path id="Vector_53" d="M74.9146 47.4059C74.9146 47.4059 75.4165 43.2659 77.613 42.4723C79.8053 41.6829 80.6376 42.1591 81.5213 41.7773C82.4051 41.3954 82.3193 42.8326 81.3969 43.9953C80.4703 45.1579 78.7714 52.3653 79.003 55.8145C79.2347 59.2638 85.2151 70.5683 81.354 73.1424" stroke="black" stroke-linecap="round" stroke-linejoin="round"/>
</g>
<path id="Vector_54" d="M47.0283 49.1219C47.0283 49.1219 45.664 49.3279 45.4881 50.7265C45.3122 52.125 45.7413 52.125 45.7413 52.125C45.7413 52.125 46.1703 54.2701 45.7413 55.5571C45.3122 56.8442 45.7884 59.0107 51.7689 59.2166" stroke="black" stroke-linecap="round" stroke-linejoin="round"/>
<path id="Vector_55" d="M46.5991 52.125C46.5991 52.125 49.8896 53.1031 52.7469 53.0431" stroke="black" stroke-linecap="round" stroke-linejoin="round"/>
<path id="Vector_56" d="M70.624 50.8251C70.624 50.8251 71.8295 50.971 72.8377 50.8123" stroke="black" stroke-linecap="round" stroke-linejoin="round"/>
<path id="Vector_57" d="M56.8697 13.2951C56.8697 13.2951 45.8827 12.8618 41.4167 13.2951C41.4167 13.2951 40.9104 20.6184 47.7232 21.678C54.5359 22.7377 57.0585 15.4359 56.8697 13.2951Z" fill="black"/>
<path id="Vector_58" d="M64.5835 13.2951C64.5835 13.2951 75.5705 12.8618 80.0365 13.2951C80.0365 13.2951 80.5428 20.6184 73.7301 21.678C66.9174 22.7377 64.3948 15.4359 64.5835 13.2951Z" fill="black"/>
</g>
<defs>
<clipPath id="clip0_565_519">
<rect width="122.05" height="139" fill="white"/>
</clipPath>
</defs>
</svg>
