<svg width="158" height="144" viewBox="0 0 158 144" fill="none" xmlns="http://www.w3.org/2000/svg">
<g id="Capa_1" clip-path="url(#clip0_565_581)">
<path id="Vector" d="M78.7062 21.5916C78.7062 21.5916 77.0754 19.0267 71.2389 20.6279C65.4024 22.2291 64.0977 32.0093 60.1046 34.4012C56.1114 36.7932 53.3192 35.2018 51.3226 36.3978C51.3226 36.3978 51.7229 34.0009 50.522 30.8084C49.3261 27.6159 45.9309 16.2344 56.7094 10.2447C56.7094 10.2447 54.1149 11.243 52.914 12.439C52.914 12.439 59.5016 2.25847 75.4742 5.451C75.4742 5.451 72.2817 3.45443 65.8916 3.45443C65.8916 3.45443 71.8813 1.85817 77.4707 4.25504C77.4707 4.25504 75.4742 2.25847 72.677 1.45787C72.677 1.45787 77.8661 0.657263 81.0636 3.45443C81.0636 3.45443 80.263 1.05756 79.067 0.261903C79.067 0.261903 82.0569 -0.257007 84.5526 4.79372" stroke="black" stroke-linecap="round" stroke-linejoin="round"/>
<path id="Vector_2" d="M80.0705 21.9771C80.0705 21.9771 82.2647 19.427 87.4588 19.427C92.6528 19.427 93.0482 34.1986 98.6376 35.3995C104.227 36.6005 101.998 34.5989 106.708 35.9975C106.708 35.9975 106.228 34.1986 107.424 31.4064C108.62 28.6092 110.222 15.8342 103.431 9.0488C96.6459 2.26344 82.67 4.65536 77.0806 6.25163" stroke="black" stroke-linecap="round" stroke-linejoin="round"/>
<path id="Vector_3" d="M56.1264 35.9975C56.1264 35.9975 53.3194 35.1969 50.9225 36.7981C48.5256 38.3944 45.7334 54.3669 59.3091 54.7672" stroke="black" stroke-linecap="round" stroke-linejoin="round"/>
<path id="Vector_4" d="M102.022 35.9975C102.022 35.9975 104.83 35.1969 107.226 36.7981C109.623 38.3944 112.416 54.3669 98.8398 54.7672" stroke="black" stroke-linecap="round" stroke-linejoin="round"/>
<path id="Vector_5" d="M52.6223 36.0321C52.558 36.5016 52.5234 36.9859 52.5234 37.4752C52.5234 43.7169 57.584 48.7775 63.8258 48.7775H64.0482C67.1023 48.7775 70.1466 48.3525 73.0723 47.4531C74.2732 47.0824 75.6421 46.781 76.8826 46.781H81.6763C82.9217 46.781 84.2857 47.0824 85.4866 47.4531C88.4073 48.3525 91.4516 48.7775 94.5107 48.7775H94.7331C100.975 48.7775 106.035 43.7169 106.035 37.4752" stroke="black" stroke-linecap="round" stroke-linejoin="round"/>
<path id="Vector_6" d="M93.0679 27.2156H80.0704H78.4742H65.0171" stroke="black" stroke-linecap="round" stroke-linejoin="round"/>
<path id="Vector_7" d="M50.7246 38.9924C50.7246 38.9924 51.8267 38.8689 52.6718 39.3334" stroke="black" stroke-linecap="round" stroke-linejoin="round"/>
<path id="Vector_8" d="M52.3208 39.3927C52.3208 39.3927 50.7245 45.3824 55.118 47.379C54.7374 47.1516 54.179 45.4911 54.7572 44.226" stroke="black" stroke-linecap="round" stroke-linejoin="round"/>
<path id="Vector_9" d="M107.82 38.9924C107.82 38.9924 106.718 38.8689 105.873 39.3334" stroke="black" stroke-linecap="round" stroke-linejoin="round"/>
<path id="Vector_10" d="M106.223 39.3927C106.223 39.3927 107.82 45.3824 103.426 47.379C103.807 47.1516 104.365 45.4911 103.787 44.226" stroke="black" stroke-linecap="round" stroke-linejoin="round"/>
<path id="Vector_11" d="M56.6304 46.1929C56.6304 46.1929 58.3107 54.1643 60.7075 57.7572C63.1044 61.35 65.8966 71.3328 79.4723 71.3328" stroke="black" stroke-linecap="round" stroke-linejoin="round"/>
<path id="Vector_12" d="M74.6786 46.9786C74.6786 46.9786 72.682 52.9683 79.072 52.9683C85.462 52.9683 83.1245 46.9786 83.1245 46.9786" stroke="black" stroke-linecap="round" stroke-linejoin="round"/>
<path id="Vector_13" d="M74.6787 49.7709C74.6787 49.7709 75.079 48.9703 76.6753 50.5715C78.2715 52.1727 80.2681 52.1677 81.469 50.9718C82.665 49.7758 82.4228 49.3755 83.5397 49.5732" stroke="black" stroke-linecap="round" stroke-linejoin="round"/>
<path id="Vector_14" d="M51.9454 52.0244C51.9454 52.0244 51.1201 55.7606 49.1235 56.9615C49.1235 56.9615 50.7198 57.3618 53.1167 56.5612" stroke="black" stroke-linecap="round" stroke-linejoin="round"/>
<path id="Vector_15" d="M53.5169 54.965C53.5169 54.965 51.1201 59.3584 53.5169 62.9512C55.9138 66.5441 54.1199 68.847 54.1199 68.847C54.1199 68.847 57.1147 69.3412 59.5066 66.1438" stroke="black" stroke-linecap="round" stroke-linejoin="round"/>
<path id="Vector_16" d="M58.3105 67.74C58.3105 67.74 58.3105 69.9491 59.5065 70.6409C60.7025 71.3328 59.3088 72.682 59.3088 72.682C59.3088 72.682 62.7238 72.3954 62.7139 68.8717" stroke="black" stroke-linecap="round" stroke-linejoin="round"/>
<path id="Vector_17" d="M67.1815 67.2013C67.1815 67.2013 67.6806 71.1252 65.6841 74.3227" stroke="black" stroke-linecap="round" stroke-linejoin="round"/>
<path id="Vector_18" d="M62.8374 69.7711C62.8374 69.7711 65.4171 68.1403 67.4582 68.1403" stroke="black" stroke-linecap="round" stroke-linejoin="round"/>
<path id="Vector_19" d="M101.514 46.1929C101.514 46.1929 99.8335 54.1643 97.4366 57.7572C95.0398 61.35 92.2475 71.3328 78.6719 71.3328" stroke="black" stroke-linecap="round" stroke-linejoin="round"/>
<path id="Vector_20" d="M106.199 52.0244C106.199 52.0244 107.024 55.7606 109.02 56.9615C109.02 56.9615 107.424 57.3618 105.027 56.5612" stroke="black" stroke-linecap="round" stroke-linejoin="round"/>
<path id="Vector_21" d="M104.627 54.965C104.627 54.965 107.024 59.3584 104.627 62.9512C102.23 66.5441 104.024 68.847 104.024 68.847C104.024 68.847 101.029 69.3412 98.6372 66.1438" stroke="black" stroke-linecap="round" stroke-linejoin="round"/>
<path id="Vector_22" d="M99.8335 67.74C99.8335 67.74 99.8335 69.9491 98.6376 70.6409C97.4416 71.3328 98.8352 72.682 98.8352 72.682C98.8352 72.682 95.4203 72.3954 95.4302 68.8717" stroke="black" stroke-linecap="round" stroke-linejoin="round"/>
<path id="Vector_23" d="M90.9627 67.2013C90.9627 67.2013 90.4635 71.1252 92.4601 74.3227" stroke="black" stroke-linecap="round" stroke-linejoin="round"/>
<path id="Vector_24" d="M95.3063 69.7711C95.3063 69.7711 93.6507 68.1403 90.6855 68.1403" stroke="black" stroke-linecap="round" stroke-linejoin="round"/>
<path id="Vector_25" d="M66.4598 72.7462C66.4598 72.7462 45.7133 78.0243 41.7597 79.5069C37.8061 80.9895 33.8525 93.8387 30.3931 100.757C30.3931 100.757 31.8757 107.182 47.6901 107.182" stroke="black" stroke-linecap="round" stroke-linejoin="round"/>
<path id="Vector_26" d="M91.6743 72.7462C91.6743 72.7462 112.421 78.0243 116.374 79.5069C120.328 80.9895 124.282 93.8387 127.741 100.757C127.741 100.757 126.258 107.182 110.444 107.182" stroke="black" stroke-linecap="round" stroke-linejoin="round"/>
<path id="Vector_27" d="M65.9707 73.8285C65.9707 73.8285 68.2588 77.8365 79.4722 77.8365C90.6856 77.8365 92.1781 73.8285 92.1781 73.8285" stroke="black" stroke-linecap="round" stroke-linejoin="round"/>
<path id="Vector_28" d="M47.6904 100.263C47.6904 100.263 46.702 109.159 49.6672 116.572C50.2701 118.084 49.7265 121.42 49.6672 124.973C49.5733 130.642 49.6672 136.834 49.6672 136.834" stroke="black" stroke-linecap="round" stroke-linejoin="round"/>
<path id="Vector_29" d="M110.083 100.263C110.083 100.263 111.072 109.159 108.106 116.572C107.503 118.084 108.047 121.42 108.106 124.973C108.2 130.642 108.106 136.834 108.106 136.834" stroke="black" stroke-linecap="round" stroke-linejoin="round"/>
<path id="Vector_30" d="M34.421 104.751L30.7837 120.842C29.9929 124.331 31.9352 127.859 35.3056 129.06L49.6374 134.175" stroke="black" stroke-linecap="round" stroke-linejoin="round"/>
<path id="Vector_31" d="M40.7715 121.02C40.7715 121.02 43.0992 119.384 45.1452 119.458C47.1911 119.532 49.6374 121.499 49.6374 121.499" stroke="black" stroke-linecap="round" stroke-linejoin="round"/>
<path id="Vector_32" d="M45.4072 119.458L48.1846 110.641" stroke="black" stroke-linecap="round" stroke-linejoin="round"/>
<path id="Vector_33" d="M123.417 104.751L127.054 120.842C127.845 124.331 125.902 127.859 122.532 129.06L108.2 134.175" stroke="black" stroke-linecap="round" stroke-linejoin="round"/>
<path id="Vector_34" d="M117.071 121.02C117.071 121.02 114.743 119.384 112.697 119.458C110.651 119.532 108.205 121.499 108.205 121.499" stroke="black" stroke-linecap="round" stroke-linejoin="round"/>
<path id="Vector_35" d="M112.431 119.458L109.658 110.641" stroke="black" stroke-linecap="round" stroke-linejoin="round"/>
<path id="Vector_36" d="M134.155 136.834L136.493 140.294H24.957L27.2995 136.834H134.155Z" stroke="black" stroke-linecap="round" stroke-linejoin="round"/>
<path id="Vector_37" d="M139.276 140.293L141.835 143.753H19.7681L22.328 140.293H139.276Z" stroke="black" stroke-linecap="round" stroke-linejoin="round"/>
<path id="Vector_38" d="M0.24707 79.0127V108.665L26.9339 123.491V90.8735L0.24707 79.0127Z" stroke="black" stroke-linecap="round" stroke-linejoin="round"/>
<path id="Vector_39" d="M16.5557 99.8828V91.259L23.4745 94.333V103.229L16.5557 99.8828Z" stroke="black" stroke-linecap="round" stroke-linejoin="round"/>
<path id="Vector_40" d="M16.5557 108.778V103.614L23.4745 107.182V112.623L16.5557 108.778Z" stroke="black" stroke-linecap="round" stroke-linejoin="round"/>
<path id="Vector_41" d="M3.2124 99.2749V85.4423L14.8261 90.6017V105.309L3.2124 99.2749Z" stroke="black" stroke-linecap="round" stroke-linejoin="round"/>
<path id="Vector_42" d="M141.588 99.8828V91.259L134.669 94.333V103.229L141.588 99.8828Z" stroke="black" stroke-linecap="round" stroke-linejoin="round"/>
<path id="Vector_43" d="M142.082 110.261V101.637L135.164 105.205V114.106L142.082 110.261Z" stroke="black" stroke-linecap="round" stroke-linejoin="round"/>
<path id="Vector_44" d="M154.932 99.2749V85.4423L143.318 90.6017V105.309L154.932 99.2749Z" stroke="black" stroke-linecap="round" stroke-linejoin="round"/>
<path id="Vector_45" d="M157.403 79.0127V108.665L130.716 123.491V90.8735L157.403 79.0127Z" stroke="black" stroke-linecap="round" stroke-linejoin="round"/>
<g id="Group">
<path id="Vector_46" d="M77.9456 113.315C79.5023 113.379 80.2189 113.172 80.2189 113.172C80.2189 113.172 80.0706 116.295 80.0558 116.394C80.041 116.493 77.5848 117.911 78.3014 117.817C79.018 117.723 79.7346 117.975 80.0657 118.104C80.1744 118.148 80.298 118.158 80.4166 118.134C81.573 117.911 82.2352 118.312 82.2204 118.104C82.2006 117.812 80.7032 116.547 80.6587 116.463C80.6143 116.379 80.8811 113.197 80.8811 113.197C82.5663 113.088 82.848 110.192 82.848 110.192C82.848 110.192 83.9452 109.367 83.8167 107.909C83.6882 106.451 82.3291 105.003 81.3061 103.831C80.4116 102.804 81.1628 103.036 80.3276 102.052C79.5814 101.173 79.4479 99.3689 80.1398 98.5732C80.8317 97.7775 81.0986 97.6194 81.0244 96.1022C80.9503 94.585 80.4314 94.9062 80.0805 93.562C80.0805 93.562 79.9026 92.9047 79.2354 92.8405C78.5683 92.7762 78.2965 93.1222 78.0889 93.8091C77.8813 94.496 77.402 94.4268 77.1252 95.2571C76.8485 96.0874 76.6903 97.1252 77.1499 97.8467L77.5255 98.4249C78.1037 99.3046 77.7331 101.079 76.8781 101.85C75.9194 102.71 76.6952 102.581 75.6723 103.481C74.501 104.513 72.969 105.764 72.6478 107.192C72.3265 108.62 73.305 109.584 73.305 109.584C73.305 109.584 73.2013 112.49 74.8568 112.821C74.8568 112.821 74.6987 116.009 74.6443 116.088C74.59 116.167 72.7268 117.259 72.88 117.511C73.0332 117.763 73.5373 117.471 74.6295 117.822C74.753 117.862 74.8865 117.852 75.015 117.822C75.3856 117.733 76.2011 117.649 76.804 117.743C77.5206 117.857 75.2522 116.201 75.2522 116.102C75.2522 116.004 75.5191 112.885 75.5191 112.885C75.5191 112.885 76.2159 113.281 77.9703 113.315" fill="black"/>
<path id="Vector_47" d="M73.048 98.756L74.1698 100.421C74.1698 100.421 73.0628 101.054 72.0299 102.186L70.5918 100.787C70.5918 100.787 71.2738 99.6258 73.048 98.7511V98.756Z" fill="black"/>
<path id="Vector_48" d="M84.5131 99.1514L83.2578 100.718C83.2578 100.718 84.3055 101.44 85.2396 102.655L86.7913 101.38C86.7913 101.38 86.2131 100.169 84.5131 99.1465V99.1514Z" fill="black"/>
<path id="Vector_49" d="M72.351 115.381L73.6063 113.814C73.6063 113.814 72.5586 113.093 71.6245 111.877L70.0728 113.152C70.0728 113.152 70.651 114.363 72.351 115.386V115.381Z" fill="black"/>
<path id="Vector_50" d="M83.8064 115.949L82.6846 114.284C82.6846 114.284 83.7916 113.651 84.8245 112.52L86.2626 113.918C86.2626 113.918 85.5806 115.079 83.8064 115.954V115.949Z" fill="black"/>
<path id="Vector_51" d="M88.6842 109.871L86.7964 109.194C86.7964 109.194 87.2115 107.716 86.9397 106.228L88.9066 105.868C88.9066 105.868 89.3267 107.533 88.6842 109.871Z" fill="black"/>
<path id="Vector_52" d="M68.4271 104.696L70.3149 105.373C70.3149 105.373 69.8998 106.851 70.1716 108.339L68.2047 108.699C68.2047 108.699 67.7846 107.034 68.4271 104.696Z" fill="black"/>
</g>
<path id="Vector_53" d="M90.1916 57.2679C80.3076 54.7969 67.9526 57.2679 67.9526 57.2679C67.9526 57.2679 69.4352 62.7041 79.3192 62.7041C89.2032 62.7041 90.1916 57.2679 90.1916 57.2679Z" stroke="black" stroke-linecap="round" stroke-linejoin="round"/>
<path id="Vector_54" d="M64.1568 29.2122C64.1568 29.2122 62.4321 32.889 60.989 33.7144C59.546 34.5397 58.8788 35.4885 54.767 36.0025C54.767 36.0025 52.6667 42.9856 59.9265 45.926C65.9755 48.3773 71.1646 44.6708 77.6189 44.7844C85.2493 44.9179 84.9577 45.16 90.5422 46.5191C96.1266 47.8781 101.533 45.2688 102.784 42.1256C104.034 38.9825 104.528 36.0173 104.034 35.5231C103.54 35.0289 100.08 37.0057 97.115 34.5347C94.1498 32.0637 93.9324 29.3209 93.5469 29.2073C93.1614 29.0936 64.1618 29.2073 64.1618 29.2073L64.1568 29.2122Z" fill="black"/>
<path id="Vector_55" d="M73.374 29.3456L66.811 46.6475C66.811 46.6475 70.5818 46.3856 73.5915 45.2786L80.0902 29.3456H73.374Z" fill="#606060"/>
<path id="Vector_56" d="M86.9348 29.1627L80.3521 44.8486C80.3521 44.8486 83.4606 44.5422 85.7141 45.3478L92.7812 29.2121L86.9348 29.1627Z" fill="#606060"/>
<path id="Vector_57" d="M63.8804 29.2122H93.8388" stroke="black" stroke-linecap="round" stroke-linejoin="round"/>
<path id="Vector_58" d="M103.856 35.7998C103.97 36.3434 104.029 36.9019 104.029 37.4751C104.029 42.6049 99.8531 46.7809 94.7233 46.7809H94.5009C91.5753 46.7809 88.7336 46.3658 86.0649 45.5454C84.4242 45.0413 82.9416 44.7844 81.6665 44.7844H76.8728C75.5978 44.7844 74.1152 45.0413 72.4744 45.5454C69.8057 46.3658 66.9641 46.7809 64.0384 46.7809H63.816C58.6862 46.7809 54.5103 42.6049 54.5103 37.4751C54.5103 36.9216 54.5646 36.383 54.6684 35.8591" stroke="black" stroke-linecap="round" stroke-linejoin="round"/>
</g>
<defs>
<clipPath id="clip0_565_581">
<rect width="157.65" height="144" fill="white"/>
</clipPath>
</defs>
</svg>
