<svg width="150" height="159" viewBox="0 0 150 159" fill="none" xmlns="http://www.w3.org/2000/svg">
<g clip-path="url(#clip0_685_156)">
<path d="M101.122 35.8356H141.547V121.037" stroke="black" stroke-linecap="round" stroke-linejoin="round"/>
<path d="M8.45312 107.273V35.8356H41.9675" stroke="black" stroke-linecap="round" stroke-linejoin="round"/>
<path d="M94.7412 29.1993H149.82V134.303H131.648" stroke="black" stroke-linecap="round" stroke-linejoin="round"/>
<path d="M14.7624 134.303H0.179688V29.1993H48.1077" stroke="black" stroke-linecap="round" stroke-linejoin="round"/>
<path d="M55.6657 41.9336C53.8671 51.9776 49.1909 53.0538 49.1909 53.0538C51.3491 47.673 51.7089 40.8575 48.4714 30.4548C46.5506 24.2777 49.1909 16.8236 49.1909 16.8236C47.0326 18.2585 45.5938 17.8998 45.5938 17.8998C45.5938 17.8998 46.6729 17.5411 50.27 8.57322C53.8671 -0.394635 68.7952 0.186482 68.7952 0.186482H74.011C74.011 0.186482 88.9391 -0.394635 92.5362 8.57322C96.1333 17.5411 97.2125 17.8998 97.2125 17.8998C97.2125 17.8998 95.7736 18.2585 93.6153 16.8236C93.6153 16.8236 96.2556 24.2777 94.3348 30.4548C91.0973 40.8575 91.4571 47.673 93.6153 53.0538C93.6153 53.0538 88.9391 51.9776 87.1405 41.9336" stroke="black" stroke-linecap="round" stroke-linejoin="round"/>
<path d="M55.3058 32.9658C55.3058 32.9658 57.8238 46.2382 50.9893 56.2822C50.9893 56.2822 62.1188 53.7712 59.9713 32.9658" stroke="black" stroke-linecap="round" stroke-linejoin="round"/>
<path d="M64.6584 37.9878C64.6584 37.9878 65.7376 48.7492 57.1045 56.6409C57.1045 56.6409 58.5433 53.0538 58.5577 48.3582" stroke="black" stroke-linecap="round" stroke-linejoin="round"/>
<path d="M87.5002 32.9658C87.5002 32.9658 84.9822 46.2382 91.8167 56.2822C91.8167 56.2822 80.6872 53.7712 82.8347 32.9658" stroke="black" stroke-linecap="round" stroke-linejoin="round"/>
<path d="M78.1477 37.9878C78.1477 37.9878 77.0685 48.7492 85.7016 56.6409C85.7016 56.6409 84.2628 53.0538 84.2484 48.3582" stroke="black" stroke-linecap="round" stroke-linejoin="round"/>
<path d="M63.6048 46.3028C63.6048 46.3028 63.8746 52.6951 63.1875 56.2822C63.1875 56.2822 67.5364 53.7712 68.2558 42.2924" stroke="black" stroke-linecap="round" stroke-linejoin="round"/>
<path d="M78.989 46.3028C78.989 46.3028 78.7192 52.6951 79.4062 56.2822C79.4062 56.2822 75.0573 53.7712 74.3379 42.2924" stroke="black" stroke-linecap="round" stroke-linejoin="round"/>
<path d="M67.8955 46.5969C67.8955 46.5969 68.6149 54.1299 71.4926 57.3583C71.4926 57.3583 74.5718 53.7712 74.8308 46.5969" stroke="black" stroke-linecap="round" stroke-linejoin="round"/>
<path d="M48.6693 31.1005C48.6693 31.1005 42.6117 33.6832 40.5074 37.9878C38.4031 42.2923 35.5254 42.6511 35.5254 42.6511C35.5254 42.6511 36.4786 47.3143 47.8707 49.2873" stroke="black" stroke-linecap="round" stroke-linejoin="round"/>
<path d="M45.5933 49.1079C45.5933 49.1079 43.0753 50.1841 40.917 52.3363C40.917 52.3363 46.3127 57.2543 57.104 55.8697" stroke="black" stroke-linecap="round" stroke-linejoin="round"/>
<path d="M94.3164 31.1005C94.3164 31.1005 100.374 33.6832 102.478 37.9878C104.583 42.2923 107.46 42.6511 107.46 42.6511C107.46 42.6511 106.507 47.3143 95.115 49.2873" stroke="black" stroke-linecap="round" stroke-linejoin="round"/>
<path d="M97.3917 49.1079C97.3917 49.1079 99.9096 50.1841 102.068 52.3363C102.068 52.3363 96.6722 57.2543 85.8809 55.8697" stroke="black" stroke-linecap="round" stroke-linejoin="round"/>
<path d="M58.1758 55.597V58.6138" stroke="black" stroke-linecap="round" stroke-linejoin="round"/>
<path d="M84.4355 55.597V58.6138" stroke="black" stroke-linecap="round" stroke-linejoin="round"/>
<path d="M53.8669 64.1739L53.1475 59.8693C53.1475 59.8693 57.2158 58.4022 69.7446 58.2838H73.2913C85.8201 58.4022 89.8885 59.8693 89.8885 59.8693L89.169 64.1739" stroke="black" stroke-linecap="round" stroke-linejoin="round"/>
<path d="M127.798 76.3702C127.798 76.3702 129.597 73.4144 127.798 71.1258C126 68.8372 104.957 64.174 75.0105 64.174H71.4026C41.4565 64.174 20.4134 68.8372 18.6148 71.1258C16.8162 73.4144 18.6148 76.3702 18.6148 76.3702" stroke="black" stroke-linecap="round" stroke-linejoin="round"/>
<path d="M18.4567 76.3702C18.4567 76.3702 16.8165 76.729 16.4567 77.4464C16.097 78.1638 17.8956 79.24 17.8956 79.24" stroke="black" stroke-linecap="round" stroke-linejoin="round"/>
<path d="M17.7371 79.24C17.7371 79.24 16.0968 79.5987 15.7371 80.3161C15.3774 81.0336 17.1759 82.1097 17.1759 82.1097C17.1759 82.1097 3.14714 118.699 4.58599 126.59C6.02484 134.482 41.2227 143.999 79.4061 150.624C79.4061 150.624 86.6004 143.45 86.6004 125.873C86.6004 125.873 62.7658 122.307 55.6184 118.351C48.4709 114.394 38.7587 112.959 38.7587 112.959" stroke="black" stroke-linecap="round" stroke-linejoin="round"/>
<path d="M128.021 76.3702C128.021 76.3702 129.662 76.729 130.021 77.4464C130.381 78.1638 128.583 79.24 128.583 79.24" stroke="black" stroke-linecap="round" stroke-linejoin="round"/>
<path d="M128.741 79.24C128.741 79.24 130.381 79.5987 130.741 80.3161C131.101 81.0336 129.302 82.1097 129.302 82.1097C129.302 82.1097 143.331 118.699 141.892 126.59C141.032 131.307 128.108 136.606 109.694 141.52" stroke="black" stroke-linecap="round" stroke-linejoin="round"/>
<path d="M39.4781 109.731C39.4781 109.731 38.3989 115.47 33.7227 121.209" stroke="black" stroke-linecap="round" stroke-linejoin="round"/>
<path d="M34.4424 89.2839C34.4424 89.2839 36.8884 103.464 38.7589 107.937C40.6294 112.41 40.5575 113.318 40.5575 113.318" stroke="black" stroke-linecap="round" stroke-linejoin="round"/>
<path d="M118.256 89.2839C118.256 89.2839 115.81 103.464 113.939 107.937C112.141 112.242 108.903 135.558 108.903 135.558" stroke="black" stroke-linecap="round" stroke-linejoin="round"/>
<path d="M85.8809 137.71C85.8809 137.71 85.8809 131.253 89.1183 130.895C92.3557 130.536 95.2334 130.177 98.1111 128.742C99.8665 127.867 100.816 126.196 101.295 125.019C101.539 124.413 102.363 124.32 102.741 124.854C103.525 125.966 104.442 127.932 104.23 130.891C103.87 135.913 97.3953 136.989 97.3953 137.348C97.3953 137.707 97.755 143.446 90.9204 143.446" stroke="black" stroke-linecap="round" stroke-linejoin="round"/>
<path d="M84.8021 143.091C84.8021 143.091 83.3632 145.961 84.4423 148.113C86.6006 152.418 93.4352 153.135 93.4352 153.135" stroke="black" stroke-linecap="round" stroke-linejoin="round"/>
<path d="M91.9961 143.45C91.9961 143.45 94.5141 144.167 95.2335 147.754" stroke="black" stroke-linecap="round" stroke-linejoin="round"/>
<path d="M107.273 147.416L97.764 145.343C96.6053 145.09 95.4607 145.822 95.2074 146.978L94.8956 148.401C94.6423 149.556 95.3763 150.698 96.5349 150.95L106.044 153.023C107.203 153.275 108.347 152.544 108.601 151.388L108.913 149.965C109.166 148.81 108.432 147.668 107.273 147.416Z" stroke="black" stroke-linecap="round" stroke-linejoin="round"/>
<path d="M108.351 141.676L98.8421 139.603C97.6834 139.351 96.5388 140.083 96.2856 141.238L95.9737 142.661C95.7204 143.816 96.4544 144.958 97.6131 145.21L107.122 147.283C108.281 147.536 109.426 146.804 109.679 145.648L109.991 144.226C110.244 143.07 109.51 141.929 108.351 141.676Z" stroke="black" stroke-linecap="round" stroke-linejoin="round"/>
<path d="M102.777 134.342L110.137 135.945C111.295 136.197 112.029 137.341 111.777 138.496L111.464 139.92C111.212 141.075 110.065 141.807 108.906 141.556L99.3991 139.482C98.2912 139.242 97.5718 138.187 97.7336 137.083" stroke="black" stroke-linecap="round" stroke-linejoin="round"/>
<path d="M105.833 153.158L96.3235 151.085C95.1649 150.832 94.0203 151.564 93.767 152.72L93.4551 154.142C93.2019 155.298 93.9359 156.439 95.0945 156.692L104.604 158.765C105.762 159.017 106.907 158.285 107.16 157.13L107.472 155.707C107.725 154.552 106.991 153.41 105.833 153.158Z" stroke="black" stroke-linecap="round" stroke-linejoin="round"/>
<path d="M103.846 134.572L110.702 84.9794" stroke="black" stroke-width="0.75" stroke-linecap="round" stroke-linejoin="round"/>
<path d="M105.644 134.93L112.14 84.9794" stroke="black" stroke-width="0.75" stroke-linecap="round" stroke-linejoin="round"/>
<path d="M118.256 120.377C116.457 116.675 112.141 116.187 112.141 116.187C112.141 116.187 114.299 114.394 116.817 115.829" stroke="black" stroke-linecap="round" stroke-linejoin="round"/>
<path d="M38.7588 112.959C38.7588 112.959 41.2768 116.801 40.1976 121.873" stroke="black" stroke-linecap="round" stroke-linejoin="round"/>
<path d="M108.544 84.9794C108.544 84.9794 111.274 84.2619 114.403 85.6968L117.536 78.5225C117.536 78.5225 115.738 77.0876 111.421 77.0876C107.105 77.0876 107.464 77.8051 107.464 77.8051L108.544 84.9794Z" stroke="black" stroke-width="0.75" stroke-linecap="round" stroke-linejoin="round"/>
<path d="M108.544 84.9794C108.544 84.9794 108.015 85.9013 110.256 86.3353" stroke="black" stroke-width="0.75" stroke-linecap="round" stroke-linejoin="round"/>
<path d="M114.403 85.6968C114.403 85.6968 113.579 86.7729 112.141 86.5254" stroke="black" stroke-width="0.75" stroke-linecap="round" stroke-linejoin="round"/>
<path d="M25.6581 68.4928C25.6581 68.4928 24.3811 66.3262 25.8092 64.5326C27.2372 62.7391 48.4711 60.5868 50.2696 61.3042C52.0682 62.0216 51.5286 64.8806 51.5286 64.8806" stroke="black" stroke-linecap="round" stroke-linejoin="round"/>
<path d="M119.784 68.4928C119.784 68.4928 121.061 66.3262 119.633 64.5326C118.205 62.7391 96.9713 60.5868 95.1728 61.3042C93.3742 62.0216 93.9138 64.8806 93.9138 64.8806" stroke="black" stroke-linecap="round" stroke-linejoin="round"/>
</g>
<defs>
<clipPath id="clip0_685_156">
<rect width="150" height="159" fill="white"/>
</clipPath>
</defs>
</svg>
