<svg width="137" height="138" viewBox="0 0 137 138" fill="none" xmlns="http://www.w3.org/2000/svg">
<g id="Capa_1" clip-path="url(#clip0_230_1064)">
<path id="Vector" d="M25.4161 76.2316C25.4161 76.2316 16.2805 75.3972 12.1278 79.5718C7.97501 83.7464 4.65234 86.2497 4.65234 86.2497C4.65234 86.2497 6.31254 88.7554 7.97501 88.7554" stroke="white" stroke-width="0.75" stroke-linecap="round" stroke-linejoin="round"/>
<path id="Vector_2" d="M21.678 84.998C21.678 84.998 16.6952 83.3291 10.8822 86.667C7.65763 88.5193 5.06928 93.3449 0.0864258 95.0162C0.0864258 95.0162 4.23918 110.878 29.1535 108.374" stroke="white" stroke-width="0.75" stroke-linecap="round" stroke-linejoin="round"/>
<path id="Vector_3" d="M17.3545 108.643C17.3545 108.643 20.0181 113.383 32.4741 115.052C44.9324 116.721 41.6097 128.411 41.6097 128.411C41.6097 128.411 43.2699 132.168 71.0918 132.168" stroke="white" stroke-width="0.75" stroke-linecap="round" stroke-linejoin="round"/>
<path id="Vector_4" d="M111.012 76.2316C111.012 76.2316 119.078 75.3972 122.745 79.5718C126.412 83.7464 129.345 86.2497 129.345 86.2497C129.345 86.2497 127.878 88.7554 126.412 88.7554" stroke="white" stroke-width="0.75" stroke-linecap="round" stroke-linejoin="round"/>
<path id="Vector_5" d="M114.311 84.998C114.311 84.998 118.71 83.3291 123.846 86.667C126.694 88.5193 128.979 93.3449 133.381 95.0162C133.381 95.0162 129.714 110.878 107.714 108.374" stroke="white" stroke-width="0.75" stroke-linecap="round" stroke-linejoin="round"/>
<path id="Vector_6" d="M118.131 108.643C118.131 108.643 115.78 113.383 104.779 115.052C93.7782 116.721 96.7132 128.411 96.7132 128.411C96.7132 128.411 95.2468 132.168 70.6792 132.168" stroke="white" stroke-width="0.75" stroke-linecap="round" stroke-linejoin="round"/>
<path id="Vector_7" d="M33.3042 76.6511C33.3042 76.6511 28.4354 80.5575 24.8277 82.4603C20.0159 84.998 16.6932 94.8671 29.1515 96.6117" stroke="white" stroke-width="0.75" stroke-linecap="round" stroke-linejoin="round"/>
<path id="Vector_8" d="M101.899 76.6511C101.899 76.6511 106.768 80.5575 110.375 82.4603C115.187 84.998 118.51 94.8671 106.052 96.6117" stroke="white" stroke-width="0.75" stroke-linecap="round" stroke-linejoin="round"/>
<path id="Vector_9" d="M35.9677 84.5808C35.9677 84.5808 32.474 96.7355 29.1536 98.3815C25.8309 100.027 28.4945 106.852 32.5606 106.779C36.6267 106.705 59.0507 102.531 81.4747 104.2C103.899 105.869 103.069 107.54 106.389 104.2C109.712 100.86 108.049 99.1907 107.219 97.5218C106.389 95.8529 98.9135 93.3472 96.4233 83.3291" stroke="white" stroke-width="0.75" stroke-linecap="round" stroke-linejoin="round"/>
<path id="Vector_10" d="M25.8311 79.1545C25.8311 79.1545 24.1709 73.3109 27.4913 69.1364" stroke="white" stroke-width="0.75" stroke-linecap="round" stroke-linejoin="round"/>
<path id="Vector_11" d="M110.957 79.1545C110.957 79.1545 112.617 73.3109 109.297 69.1364" stroke="white" stroke-width="0.75" stroke-linecap="round" stroke-linejoin="round"/>
<path id="Vector_12" d="M25.7373 55.6062C25.7373 55.6062 42.4396 53.7654 64.0312 55.6062C64.0312 55.6062 65.6914 77.4856 44.9299 78.3201C21.6348 79.2577 25.7373 55.6062 25.7373 55.6062Z" stroke="white" stroke-width="0.75" stroke-linecap="round" stroke-linejoin="round"/>
<path id="Vector_13" d="M43.605 75.0074C38.4055 75.0074 34.5401 73.5471 32.1182 70.6654C29.051 67.0204 28.6975 61.7683 28.8001 58.6873C31.8879 58.4511 37.4409 58.1256 44.5104 58.1256C49.9425 58.1256 55.3609 58.3159 60.663 58.6918C60.4213 61.7363 59.5137 66.6169 56.3256 70.1955C53.6756 73.1711 49.7988 74.7804 44.8023 74.9822C44.3941 74.9982 43.9973 75.0074 43.6073 75.0074H43.605Z" stroke="white" stroke-width="0.75" stroke-linecap="round" stroke-linejoin="round"/>
<path id="Vector_14" d="M30.8139 59.1183C30.8139 59.1183 29.1537 70.8053 41.8674 75.0074" stroke="white" stroke-width="0.75" stroke-linecap="round" stroke-linejoin="round"/>
<path id="Vector_15" d="M110.295 55.6062C110.295 55.6062 93.5932 53.7654 72.0016 55.6062C72.0016 55.6062 69.0188 78.3201 91.1029 78.3201C114.416 78.3201 110.295 55.6062 110.295 55.6062Z" stroke="white" stroke-width="0.75" stroke-linecap="round" stroke-linejoin="round"/>
<path id="Vector_16" d="M92.4281 75.0074C97.6276 75.0074 101.493 73.5471 103.915 70.6654C106.982 67.0204 107.336 61.7683 107.233 58.6873C104.145 58.4511 98.5923 58.1256 91.5228 58.1256C86.0907 58.1256 80.6722 58.3159 75.3701 58.6918C75.6118 61.7363 76.5195 66.6169 79.7076 70.1955C82.3575 73.1711 86.2343 74.7804 91.2309 74.9822C91.6391 74.9982 92.0359 75.0074 92.4259 75.0074H92.4281Z" stroke="white" stroke-width="0.75" stroke-linecap="round" stroke-linejoin="round"/>
<path id="Vector_17" d="M105.219 59.1183C105.219 59.1183 106.879 70.8053 94.1655 75.0074" stroke="white" stroke-width="0.75" stroke-linecap="round" stroke-linejoin="round"/>
<path id="Vector_18" d="M28.5083 55.3609C28.5083 55.3609 29.1514 51.6035 31.644 47.4289C34.1365 43.2544 37.4569 44.0888 37.4569 44.0888" stroke="white" stroke-width="0.75" stroke-linecap="round" stroke-linejoin="round"/>
<path id="Vector_19" d="M103.896 55.3609C103.896 55.3609 103.253 51.6035 100.761 47.4289C98.2681 43.2544 94.9478 44.0888 94.9478 44.0888" stroke="white" stroke-width="0.75" stroke-linecap="round" stroke-linejoin="round"/>
<path id="Vector_20" d="M35.7969 47.429C35.7969 47.429 40.7797 33.2363 65.694 33.2363C90.6083 33.2363 96.8386 47.429 96.8386 47.429" stroke="white" stroke-width="0.75" stroke-linecap="round" stroke-linejoin="round"/>
<path id="Vector_21" d="M25.4161 57.4333C25.4161 57.4333 16.9623 57.3187 16.2782 60.0696C15.594 62.8206 16.2782 72.2197 16.2782 72.2197C16.2782 72.2197 16.5404 74.5856 25.4161 75.0074" stroke="white" stroke-width="0.75" stroke-linecap="round" stroke-linejoin="round"/>
<path id="Vector_22" d="M111.069 57.4333C111.069 57.4333 119.523 57.3187 120.207 60.0696C120.891 62.8206 120.207 72.2197 120.207 72.2197C120.207 72.2197 119.944 74.5856 111.069 75.0074" stroke="white" stroke-width="0.75" stroke-linecap="round" stroke-linejoin="round"/>
<path id="Vector_23" d="M17.8195 58.575C17.8195 58.575 14.9301 54.7581 15.0327 50.423C15.1353 46.0879 10.8024 45.8587 10.3463 38.752C9.89022 31.6453 4.65879 31.1731 4.65195 26.3658C4.64511 21.5585 0.0864258 19.642 0.0864258 14.0644C0.0864258 8.48678 3.50715 6.42585 11.9449 7.80133C20.3827 9.17681 18.084 2.98714 29.1535 3.90413C40.2229 4.82112 42.2343 -0.355289 51.3768 1.54517C60.5192 3.44563 56.6424 0.0871582 63.9399 0.0871582H73.0619C80.3594 0.0871582 76.4826 3.44792 85.6251 1.54517C94.7675 -0.355289 96.7789 4.82112 107.848 3.90413C118.918 2.98714 116.619 9.17681 125.057 7.80133C133.495 6.42585 136.915 8.48907 136.915 14.0644C136.915 19.6397 132.354 21.5562 132.348 26.3635C132.341 31.1708 127.109 31.643 126.653 38.7497C126.197 45.8564 121.864 46.0856 121.967 50.4207C122.069 54.7558 119.18 58.5727 119.18 58.5727" stroke="white" stroke-width="0.75" stroke-linecap="round" stroke-linejoin="round"/>
<path id="Vector_24" d="M16.0498 8.03052C16.0498 8.03052 20.1547 9.8645 20.6108 15.5957C21.0669 21.3269 23.5754 20.1806 24.4876 25.4533C25.3998 30.726 23.5754 30.9552 26.7681 34.6232C29.9607 38.2912 27.0759 43.9398 31.2538 48.1075" stroke="white" stroke-width="0.75" stroke-linecap="round" stroke-linejoin="round"/>
<path id="Vector_25" d="M28.5928 3.6748C28.5928 3.6748 32.2552 5.31163 32.6634 10.4261C33.0694 15.5406 35.3088 14.5182 36.1229 19.2224C36.9371 23.9265 35.3088 24.1328 38.1571 27.4065C41.0054 30.6801 38.4308 35.7213 42.1616 39.4397" stroke="white" stroke-width="0.75" stroke-linecap="round" stroke-linejoin="round"/>
<path id="Vector_26" d="M117.103 5.85266C117.103 5.85266 112.774 7.78522 112.293 13.8282C111.812 19.8711 109.167 18.663 108.207 24.2222C107.244 29.7815 109.169 30.0222 105.803 33.8896C102.437 37.757 105.479 43.7129 101.073 48.1075" stroke="white" stroke-width="0.75" stroke-linecap="round" stroke-linejoin="round"/>
<path id="Vector_27" d="M103.506 4.27551C103.506 4.27551 99.9055 5.88483 99.5041 10.9122C99.1027 15.9396 96.9021 14.9355 96.1016 19.5617C95.3012 24.1879 96.9021 24.3897 94.1016 27.6083C91.3012 30.8269 93.8325 35.7833 90.1655 39.4398" stroke="white" stroke-width="0.75" stroke-linecap="round" stroke-linejoin="round"/>
<path id="Vector_28" d="M34.207 98.2348C34.207 98.2348 65.7529 91.433 101.848 98.2348" stroke="white" stroke-width="0.75" stroke-linecap="round" stroke-linejoin="round"/>
<path id="Vector_29" d="M38.6289 106.779C38.6289 106.779 43.2697 113.383 50.7451 113.383C58.2205 113.383 71.5066 111.714 83.1348 113.383C94.7607 115.052 99.7436 106.705 99.7436 106.705" stroke="white" stroke-width="0.75" stroke-linecap="round" stroke-linejoin="round"/>
<path id="Vector_30" d="M64.0337 55.6062H71.8649" stroke="white" stroke-width="0.75" stroke-linecap="round" stroke-linejoin="round"/>
<path id="Vector_31" d="M62.8936 64.4482H72.6061" stroke="white" stroke-width="0.75" stroke-linecap="round" stroke-linejoin="round"/>
<path id="Vector_32" d="M41.8197 127.468C41.8197 127.468 39.9953 127.698 39.7672 127.927C39.5392 128.156 39.3111 131.783 39.7672 133.637C39.7672 133.637 40.7957 137.913 71.865 137.913C102.934 137.913 99.0598 133.2 99.0598 133.2V129.091C99.0598 128.422 98.5718 127.854 97.9127 127.753L96.5467 127.546" stroke="white" stroke-width="0.75" stroke-linecap="round" stroke-linejoin="round"/>
<path id="Vector_33" d="M40.9163 120.162H37.1831C37.1831 120.162 36.7407 120.362 36.7407 122.081C36.7407 123.8 37.1831 123.83 37.1831 123.83L41.8171 123.8" stroke="white" stroke-width="0.75" stroke-linecap="round" stroke-linejoin="round"/>
<path id="Vector_34" d="M39.1785 123.83C38.9094 125.561 38.2526 126.781 37.4841 126.781C36.4761 126.781 35.6597 124.676 35.6597 122.081C35.6597 119.486 36.4761 117.381 37.4841 117.381C38.2252 117.381 38.8637 118.523 39.1488 120.162" stroke="white" stroke-width="0.75" stroke-linecap="round" stroke-linejoin="round"/>
<path id="Vector_35" d="M37.4867 117.381H35.2062C34.1982 117.381 33.3818 119.486 33.3818 122.081C33.3818 124.676 34.1982 126.781 35.2062 126.781H37.4867" stroke="white" stroke-width="0.75" stroke-linecap="round" stroke-linejoin="round"/>
<path id="Vector_36" d="M97.4521 120.162H101.185C101.185 120.162 101.628 120.362 101.628 122.081C101.628 123.8 101.185 123.83 101.185 123.83L96.5513 123.8" stroke="white" stroke-width="0.75" stroke-linecap="round" stroke-linejoin="round"/>
<path id="Vector_37" d="M99.1895 123.83C99.4586 125.561 100.115 126.781 100.884 126.781C101.892 126.781 102.708 124.676 102.708 122.081C102.708 119.486 101.892 117.381 100.884 117.381C100.143 117.381 99.5042 118.523 99.2191 120.162" stroke="white" stroke-width="0.75" stroke-linecap="round" stroke-linejoin="round"/>
<path id="Vector_38" d="M100.884 117.381H103.164C104.172 117.381 104.989 119.486 104.989 122.081C104.989 124.676 104.172 126.781 103.164 126.781H100.884" stroke="white" stroke-width="0.75" stroke-linecap="round" stroke-linejoin="round"/>
<path id="Vector_39" d="M27.651 120.976L18.1004 115.318L16.7321 119.674L9.66259 113.943L6.83936 123.83L20.0388 127.468L21.065 122.883L27.651 120.976Z" fill="white" stroke="white" stroke-width="0.75" stroke-linecap="round" stroke-linejoin="round"/>
<path id="Vector_40" d="M111.728 118.975L120.932 113.101L122.551 117.077L129.274 111.29L132.665 120.33L119.702 124.55L118.412 120.341L111.728 118.975Z" fill="white" stroke="white" stroke-width="0.75" stroke-linecap="round" stroke-linejoin="round"/>
<path id="Vector_41" d="M49.8262 113.349C49.8262 113.349 50.2549 120.132 57.3244 122.883" stroke="white" stroke-width="0.75" stroke-linecap="round" stroke-linejoin="round"/>
<path id="Vector_42" d="M90.8498 113.349C90.8498 113.349 90.4211 120.132 83.3516 122.883" stroke="white" stroke-width="0.75" stroke-linecap="round" stroke-linejoin="round"/>
<path id="Vector_43" d="M56.4121 119.445C56.4121 119.445 57.2445 127.468 69.9399 132.168C69.9399 132.168 82.4096 129.073 84.6901 119.445" stroke="white" stroke-width="0.75" stroke-linecap="round" stroke-linejoin="round"/>
<path id="Vector 6" d="M57.9938 67.7301C54.2957 74.5031 46.0869 75.3497 42.4448 74.9264C32.0227 72.8945 30.2576 63.0737 30.6779 58.4172C46.4791 57.7399 57.1533 58.4172 60.5153 58.8405C60.5153 63.5816 58.8343 66.7424 57.9938 67.7301Z" fill="white"/>
<path id="Vector 7" d="M78.1257 68.0433C81.7649 74.8345 89.843 75.6834 93.4271 75.2589C103.683 73.2216 105.42 63.3743 105.007 58.7053C89.457 58.0262 78.9528 58.2808 75.6443 58.7053C75.6443 63.4591 77.2986 67.0529 78.1257 68.0433Z" fill="white"/>
</g>
<defs>
<clipPath id="clip0_230_1064">
<rect width="137" height="138" fill="white"/>
</clipPath>
</defs>
</svg>
