<svg width="160" height="80" viewBox="0 0 160 80" fill="none" xmlns="http://www.w3.org/2000/svg">
<g id="Capa_1" clip-path="url(#clip0_232_1215)">
<path id="Vector" d="M0 0V77.7047H69.7647V43.9663H55.7057V62.8279H16.977V0H0Z" fill="white"/>
<path id="Vector_2" d="M43.2383 12.7038H30.7814V21.9407H43.6229V33.9085H30.7814V44.1097H45.3365V56.7205H19.5952V0.0930176H38.4635L43.2383 12.7038Z" fill="white"/>
<path id="Vector_3" d="M71.7306 0.0930176H83.6595L69.7915 40.3905H55.4645L41.5381 0.0930176H53.5228L62.6558 29.1878L71.7306 0.0930176Z" fill="white"/>
<path id="Vector_4" d="M112.881 9.06692H98.3259V15.6393H111.167V24.1562H98.3259V31.4167H112.881V40.3905H87.1396V0.0930176H112.881V9.06692Z" fill="white"/>
<path id="Vector_5" d="M129.603 0.0930176V31.8178H142.103V40.3905H118.417V0.0930176H129.603Z" fill="white"/>
<path id="Vector_6" d="M74.415 41.8065H84.8585V63.7445C84.8585 67.6603 86.6252 70.1282 90.5909 70.1282C94.5566 70.1282 96.4294 67.6603 96.4294 63.7445V41.8065H106.929V63.7445C106.929 74.5275 99.4295 79.9974 90.3787 79.9974C81.3278 79.9974 74.4177 74.5249 74.4177 63.7445V41.8065H74.415Z" fill="white"/>
<path id="Vector_7" d="M128.402 66.8579H123.205V79.6254H112.706V41.8091H128.399C137.774 41.8091 142.54 47.1196 142.54 54.4145C142.54 61.0134 137.988 66.8605 128.399 66.8605L128.402 66.8579ZM127.383 58.4897C130.542 58.4897 131.829 56.8798 131.829 54.4119C131.829 51.9439 130.542 50.2809 127.383 50.2809H123.205V58.487H127.383V58.4897Z" fill="white"/>
<path id="Vector_8" d="M146.442 65.4845H160V79.5803H146.442V65.4845Z" fill="white"/>
<path id="Vector_9" d="M146.442 0.132812H160V60.1873H146.442V0.132812Z" fill="white"/>
<path id="Vector_10" d="M69.765 43.9663H50.9312V56.1865H69.765V43.9663Z" fill="white"/>
</g>
<defs>
<clipPath id="clip0_232_1215">
<rect width="160" height="80" fill="white"/>
</clipPath>
</defs>
</svg>
