<svg width="139" height="156" viewBox="0 0 139 156" fill="none" xmlns="http://www.w3.org/2000/svg">
<g id="Capa_1" clip-path="url(#clip0_230_1113)">
<path id="Vector" d="M13.6577 99.218V41.5198C13.6577 41.5198 11.2848 0.114505 64.6734 0.114505C64.6734 0.114505 115.59 -1.95862 115.59 41.2809V99.2298C115.59 99.2298 114.685 106.744 64.616 106.744C14.5475 106.744 13.6577 99.218 13.6577 99.218Z" stroke="white" stroke-miterlimit="10"/>
<path id="Vector_2" d="M115.59 96.5643C115.59 96.5643 121.324 97.1567 121.324 99.7234C121.324 102.29 121.324 119.27 121.324 119.27C121.324 119.27 121.833 128.184 64.7425 128.206H64.6159C7.31422 128.206 7.82437 119.27 7.82437 119.27V99.7234C7.82437 97.1567 13.5587 96.5643 13.5587 96.5643" stroke="white" stroke-miterlimit="10"/>
<path id="Vector_3" d="M14.3496 123.614C14.3496 123.614 12.57 133.091 6.04473 136.842C-0.480533 140.594 0.112673 150.268 0.112673 150.268C0.112673 150.268 3.27644 155.402 11.5813 153.032C11.5813 153.032 11.9768 146.517 17.7111 140.989C23.4454 135.46 26.714 126.228 26.714 126.228" stroke="white" stroke-miterlimit="10"/>
<path id="Vector_4" d="M22.8523 135.658C22.8523 135.658 24.0387 141.186 28.9821 143.753C33.9255 146.32 32.1459 154.81 32.1459 154.81C32.1459 154.81 39.1833 158.231 44.5617 152.965C44.5617 152.965 46.1851 145.332 42.6258 140.199C39.0666 135.065 35.1158 136.698 34.5207 127.095" stroke="white" stroke-miterlimit="10"/>
<path id="Vector_5" d="M52.1923 128.208C52.1923 128.208 53.1493 139.689 44.0317 143.004" stroke="white" stroke-miterlimit="10"/>
<path id="Vector_6" d="M44.9314 144.746C44.9314 144.746 52.5244 148.62 52.2219 153.293C52.2219 153.293 60.7008 156.847 66.9888 152.965C66.9888 152.965 67.1054 139.271 51.4053 134.799" stroke="white" stroke-miterlimit="10"/>
<path id="Vector_7" d="M64.7426 128.206C64.7426 128.206 65.0669 136.183 61.1636 140.165" stroke="white" stroke-miterlimit="10"/>
<path id="Vector_8" d="M62.7947 138.027C62.7947 138.027 64.9104 141.885 68.7267 143.95C73.4724 146.517 72.6814 153.427 72.6814 153.427C72.6814 153.427 79.009 157.376 85.9297 153.822C85.9297 153.822 87.9071 144.937 81.7773 140.791C76.739 137.383 74.5777 134.013 73.8263 128.123" stroke="white" stroke-miterlimit="10"/>
<path id="Vector_9" d="M120.929 120.257C120.929 120.257 123.925 129.89 130.717 133.134C137.509 136.378 138.899 146.768 138.899 146.768C138.899 146.768 137.481 151.994 126.861 149.479C126.861 149.479 126.784 143.929 120.644 138.852C114.505 133.776 110.542 124.818 110.542 124.818" stroke="white" stroke-miterlimit="10"/>
<path id="Vector_10" d="M115.59 133.288C115.59 133.288 114.35 139.531 109.617 142.465C104.883 145.401 107.305 153.731 107.305 153.731C107.305 153.731 100.548 157.676 94.7845 152.837C94.7845 152.837 92.5837 145.348 95.7415 139.96C98.8993 134.572 102.963 135.898 102.824 126.279" stroke="white" stroke-miterlimit="10"/>
<path id="Vector_11" d="M84.7434 127.76C84.7434 127.76 85.2081 140.25 94.5531 142.862" stroke="white" stroke-miterlimit="10"/>
<path id="Vector_12" d="M107.02 146.231C107.02 146.231 112.822 145.925 114.601 152.638C114.601 152.638 123.65 154.324 125.75 149.433C125.75 149.433 125.793 139.721 114.265 136.801" stroke="white" stroke-miterlimit="10"/>
<path id="Vector_13" d="M93.2283 142.402C93.2283 142.402 90.8732 143.753 91.8619 150.663C91.8619 150.663 90.0981 153.137 86.2344 151.899" stroke="white" stroke-miterlimit="10"/>
<path id="Vector_14" d="M51.0929 33.2965C51.0929 33.2965 37.4175 30.4573 36.8579 45.8399" stroke="white" stroke-miterlimit="10"/>
<path id="Vector_15" d="M42.6259 44.6375C42.6259 44.6375 33.8702 45.0284 32.6126 53.4216C31.355 61.8148 34.7145 65.9097 34.7145 65.9097" stroke="white" stroke-miterlimit="10"/>
<path id="Vector_16" d="M41.2418 62.2847C41.2418 62.2847 32.9922 64.2235 33.7278 72.8774C34.7165 84.5205 44.801 82.1512 44.801 82.1512" stroke="white" stroke-miterlimit="10"/>
<path id="Vector_17" d="M43.2189 75.3869C43.2189 75.3869 41.2416 89.654 63.1902 88.2719L64.1789 27.6576C64.1789 27.6576 50.7546 22.9605 44.6031 33.1859" stroke="white" stroke-miterlimit="10"/>
<path id="Vector_18" d="M82.9875 33.2965C82.9875 33.2965 96.6629 30.4573 97.2225 45.8399" stroke="white" stroke-miterlimit="10"/>
<path id="Vector_19" d="M91.4546 44.6375C91.4546 44.6375 100.21 45.0284 101.468 53.4216C102.726 61.8148 99.366 65.9097 99.366 65.9097" stroke="white" stroke-miterlimit="10"/>
<path id="Vector_20" d="M92.8388 62.2847C92.8388 62.2847 101.088 64.2235 100.353 72.8774C99.364 84.5205 89.2795 82.1512 89.2795 82.1512" stroke="white" stroke-miterlimit="10"/>
<path id="Vector_21" d="M90.8613 75.3869C90.8613 75.3869 92.8387 89.654 70.89 88.2719L69.9014 27.6576C69.9014 27.6576 83.3256 22.9605 89.4772 33.1859" stroke="white" stroke-miterlimit="10"/>
<path id="Vector_22" d="M61.9643 88.3666C61.9643 88.3666 60.7126 96.7539 66.9492 97.5516C74.6608 98.5388 73.4744 88.2719 73.4744 88.2719" stroke="white" stroke-miterlimit="10"/>
<path id="Vector_23" d="M12.9082 128.208C12.9082 128.208 20.6871 127.671 24.1435 131.962" stroke="white" stroke-width="0.75" stroke-linecap="round" stroke-linejoin="round"/>
<path id="Vector_24" d="M10.4365 132.734C10.4365 132.734 16.679 132.226 20.3589 137.989" stroke="white" stroke-width="0.75" stroke-linecap="round" stroke-linejoin="round"/>
<path id="Vector_25" d="M4.34424 138.084C4.34424 138.084 10.7093 137.567 15.3976 143.622" stroke="white" stroke-width="0.75" stroke-linecap="round" stroke-linejoin="round"/>
<path id="Vector_26" d="M0.717773 144.606C0.717773 144.606 1.18443 147.131 12.7104 148.503" stroke="white" stroke-width="0.75" stroke-linecap="round" stroke-linejoin="round"/>
<path id="Vector_27" d="M102.793 128.317C102.793 128.317 109.399 126.473 113.14 129.555" stroke="white" stroke-width="0.75" stroke-linecap="round" stroke-linejoin="round"/>
<path id="Vector_28" d="M101.683 133.253C101.683 133.253 108.646 131.217 114.172 136.896" stroke="white" stroke-width="0.75" stroke-linecap="round" stroke-linejoin="round"/>
<path id="Vector_29" d="M96.4058 139.721C96.4058 139.721 102.536 137.93 108.351 142.914" stroke="white" stroke-width="0.75" stroke-linecap="round" stroke-linejoin="round"/>
<path id="Vector_30" d="M94.1753 146.839C94.1753 146.839 95.1442 149.218 106.71 148.235" stroke="white" stroke-width="0.75" stroke-linecap="round" stroke-linejoin="round"/>
<path id="Vector_31" d="M24.2305 139.046C24.2305 139.046 28.1832 130.67 35.8988 133.263" stroke="white" stroke-width="0.75" stroke-linecap="round" stroke-linejoin="round"/>
<path id="Vector_32" d="M29.5969 144.126C29.5969 144.126 32.4344 136.821 40.3972 137.719" stroke="white" stroke-width="0.75" stroke-linecap="round" stroke-linejoin="round"/>
<path id="Vector_33" d="M32.1182 148.221C32.1182 148.221 40.7019 142.369 44.7297 145.923" stroke="white" stroke-width="0.75" stroke-linecap="round" stroke-linejoin="round"/>
<path id="Vector_34" d="M63.3821 139.046C63.3821 139.046 67.3348 130.67 75.0504 133.263" stroke="white" stroke-width="0.75" stroke-linecap="round" stroke-linejoin="round"/>
<path id="Vector_35" d="M68.8752 144.049C68.8752 144.049 71.5585 137.602 78.8114 138.422" stroke="white" stroke-width="0.75" stroke-linecap="round" stroke-linejoin="round"/>
<path id="Vector_36" d="M72.0608 148.023C72.0608 148.023 79.2069 141.778 85.5345 145.925" stroke="white" stroke-width="0.75" stroke-linecap="round" stroke-linejoin="round"/>
<path id="Vector_37" d="M113.447 130.185C113.447 130.185 119.697 130.649 123.972 126.639" stroke="white" stroke-width="0.75" stroke-linecap="round" stroke-linejoin="round"/>
<path id="Vector_38" d="M118.708 136.801C118.708 136.801 124.957 136.722 128.874 132.042" stroke="white" stroke-width="0.75" stroke-linecap="round" stroke-linejoin="round"/>
<path id="Vector_39" d="M124.294 142.781C124.294 142.781 133.675 144.489 136.299 138.89" stroke="white" stroke-width="0.75" stroke-linecap="round" stroke-linejoin="round"/>
<path id="Vector_40" d="M113.71 150.333C113.71 150.333 122.131 151.254 124.991 145.725" stroke="white" stroke-width="0.75" stroke-linecap="round" stroke-linejoin="round"/>
<path id="Vector_41" d="M111.246 147.324C111.246 147.324 118.778 146.318 119.853 139.407" stroke="white" stroke-width="0.75" stroke-linecap="round" stroke-linejoin="round"/>
<path id="Vector_42" d="M50.8062 149.419C50.8062 149.419 56.8628 141.822 64.5745 144.86" stroke="white" stroke-width="0.75" stroke-linecap="round" stroke-linejoin="round"/>
<path id="Vector_43" d="M47.2725 145.725C47.2725 145.725 49.5286 136.698 57.0604 137.237" stroke="white" stroke-width="0.75" stroke-linecap="round" stroke-linejoin="round"/>
</g>
<defs>
<clipPath id="clip0_230_1113">
<rect width="139" height="156" fill="white"/>
</clipPath>
</defs>
</svg>
