<svg width="91" height="123" viewBox="0 0 91 123" fill="none" xmlns="http://www.w3.org/2000/svg">
<g id="Capa_1" clip-path="url(#clip0_235_56)">
<path id="Vector" d="M76.7292 27.7268C78.5779 42.4561 65.026 49.2058 65.026 49.2058C65.6432 -0.504709 26.8361 0.110222 26.8361 0.110222C34.845 6.24789 44.0824 28.3418 20.6759 42.4561C20.3324 42.662 19.9947 42.8709 19.6599 43.0797C-16.2504 65.6203 0.678508 121.437 43.0984 122.864C43.6253 122.881 44.1552 122.89 44.6879 122.89C70.2022 122.89 90.4936 102.278 90.8867 76.8601C91.2389 54.189 76.7321 27.7268 76.7321 27.7268H76.7292Z" stroke="white" stroke-linecap="round" stroke-linejoin="round"/>
<path id="Vector_2" d="M52.6733 110.739C36.7778 115.969 19.6393 107.369 14.3932 91.5343C9.14419 75.697 17.7761 58.6212 33.6686 53.3943C33.6686 53.3943 17.8518 71.1547 28.7806 86.8005C28.7806 86.8005 27.3599 76.6716 36.5071 71.9291C36.5071 71.9291 26.5797 101.991 54.5918 110.11L52.6733 110.742V110.739Z" fill="white"/>
</g>
<defs>
<clipPath id="clip0_235_56">
<rect width="91" height="123" fill="white"/>
</clipPath>
</defs>
</svg>
