<svg width="521" height="210" viewBox="0 0 521 210" fill="none" xmlns="http://www.w3.org/2000/svg">
<g clip-path="url(#clip0_181_190)">
<path d="M397.832 46.042C397.832 46.042 400.558 49.0182 406.607 52.7224C408.335 53.7829 410.511 55.614 412.525 58.1003" stroke="white" stroke-linecap="round" stroke-linejoin="round"/>
<path d="M364.691 68.5711C367.193 60.3002 368.646 57.6412 375.256 55.0933C375.256 55.0933 388.07 51.9254 392.176 62.5224" stroke="white" stroke-linecap="round" stroke-linejoin="round"/>
<path d="M370.601 57.515C370.126 53.252 374.139 50.9038 374.139 50.9038C374.139 50.9038 373.464 51.0408 372.577 50.1645C371.691 49.2883 372.569 48.4003 372.569 48.4003C372.569 48.4003 373.046 49.0104 374.669 48.3222" stroke="white" stroke-linecap="round" stroke-linejoin="round"/>
<path d="M372.498 48.0569C372.498 48.0569 364.497 46.8716 363.766 36.4205C363.035 25.9694 369.059 24.3811 372.028 21.6509C374.998 18.9206 374.509 16.5468 375.524 16.3394C376.539 16.132 377.804 18.8656 376.547 21.3361C376.547 21.3361 377.65 21.5572 380.14 18.2207C382.63 14.8842 383.653 16.441 383.864 17.4577C384.239 19.2841 383.542 21.0564 383.542 21.0564" stroke="white" stroke-linecap="round" stroke-linejoin="round"/>
<path d="M386.753 20.3647C386.753 20.3647 388.558 20.7352 389.795 21.9653C391.032 23.1953 390.858 25.9522 391.908 27.4673" stroke="white" stroke-linecap="round" stroke-linejoin="round"/>
<path d="M395.493 30.5383C395.493 30.5383 398.047 30.6405 398.646 33.5866C399.245 36.5328 397.449 37.1798 397.449 37.1798" stroke="white" stroke-linecap="round" stroke-linejoin="round"/>
<path d="M394.717 34.3788C394.717 34.3788 394.986 38.835 405.188 37.9409" stroke="white" stroke-linecap="round" stroke-linejoin="round"/>
<path d="M376.227 37.4344C376.227 37.4344 378.619 39.2454 378.662 44.3928C378.704 49.5402 380.971 54.3218 388.895 50.3953C396.82 46.4688 400.338 41.4196 406.13 40.3242C411.971 39.2194 408.724 41.9844 408.724 41.9844" stroke="white" stroke-linecap="round" stroke-linejoin="round"/>
<path d="M396.189 46.0454C396.189 46.0454 403.932 45.9302 408.824 43.4545C413.713 40.9792 413.932 38.4469 410.676 37.365C407.421 36.2831 395.635 41.0946 391.576 45.0567" stroke="white" stroke-linecap="round" stroke-linejoin="round"/>
<path d="M379.29 38.9242C379.29 38.9242 376.893 36.1928 372.555 37.4513" stroke="white" stroke-linecap="round" stroke-linejoin="round"/>
<path d="M378.681 44.9904C378.681 44.9904 370.746 43.8528 369.922 39.2812C369.099 34.7095 372.723 31.7543 377.06 34.5497C381.397 37.345 384.029 36.5619 385.145 34.5486C386.79 31.5866 389.309 34.0166 389.415 34.087" stroke="white" stroke-linecap="round" stroke-linejoin="round"/>
<path d="M394.697 27.2959L394.745 27.2899C394.983 28.0241 395.572 30.2249 394.766 31.9655C394.323 32.9281 393.507 33.6129 392.344 34.0062C392.057 34.105 391.776 34.1715 391.509 34.205C388.314 34.6052 387.248 30.1791 387.027 29.0276C387.842 28.7266 390.555 27.8147 394.697 27.2959ZM394.654 26.9524C389.563 27.5901 386.637 28.8078 386.637 28.8078C386.637 28.8078 387.513 35.0543 391.552 34.5485C391.836 34.5128 392.138 34.4437 392.455 34.3342C397.268 32.7022 394.979 26.9117 394.979 26.9117C394.87 26.9254 394.76 26.9391 394.654 26.9524Z" fill="white"/>
<path d="M391.725 33.7907C391.888 33.7563 392.053 33.7113 392.224 33.655C393.299 33.29 394.021 32.6868 394.426 31.8092C395.092 30.3687 394.728 28.5758 394.48 27.7068C393.435 27.8447 392.412 28.0147 391.428 28.2182C389.52 28.6107 388.163 29.0353 387.462 29.2801C387.688 30.3053 388.308 32.4499 389.661 33.4039C390.264 33.8307 390.942 33.9586 391.729 33.7971L391.725 33.7907Z" fill="white"/>
<path d="M385.242 29.1501L385.29 29.144C385.528 29.8782 386.117 32.079 385.311 33.8196C384.868 34.7822 384.052 35.467 382.889 35.8603C382.602 35.9591 382.322 36.0256 382.054 36.0591C378.859 36.4593 377.793 32.0332 377.572 30.8817C378.387 30.5808 381.1 29.6688 385.242 29.1501ZM385.199 28.8066C380.108 29.4443 377.182 30.6619 377.182 30.6619C377.182 30.6619 378.059 36.9085 382.097 36.4026C382.382 36.367 382.683 36.2978 383 36.1884C387.813 34.5563 385.524 28.7658 385.524 28.7658C385.415 28.7795 385.305 28.7933 385.199 28.8066Z" fill="white"/>
<path d="M382.273 35.6409C382.436 35.6066 382.601 35.5615 382.772 35.5052C383.847 35.1403 384.569 34.537 384.974 33.6594C385.64 32.219 385.276 30.426 385.028 29.557C383.983 29.6949 382.96 29.8649 381.976 30.0684C380.068 30.4609 378.711 30.8856 378.01 31.1303C378.236 32.1556 378.857 34.3001 380.209 35.2541C380.812 35.6809 381.49 35.8088 382.278 35.6474L382.273 35.6409Z" fill="white"/>
<path d="M386.637 28.8078L386.002 29.0757C386.002 29.0757 386.545 32.1859 387.612 33.1197L388.567 33.3769C388.567 33.3769 386.881 31.5646 386.64 28.8074L386.637 28.8078Z" fill="white"/>
<path d="M376.941 31.2922C377.248 32.8237 377.856 33.9859 378.424 34.794C377.496 33.5321 377.037 31.8942 376.9 31.3253L376.941 31.2922ZM377.186 30.6615L376.513 31.1853C376.513 31.1853 377.015 33.6901 378.411 35.3328L379.901 35.9137C379.901 35.9137 377.678 34.2002 377.182 30.662L377.186 30.6615Z" fill="white"/>
<path d="M384.106 19.8312C384.106 19.8312 385.505 18.5779 386.035 16.8579C386.565 15.1379 389.256 16.6359 387.391 20.2325" stroke="white" stroke-linecap="round" stroke-linejoin="round"/>
<path d="M413.757 57.8726C413.757 57.8726 412.479 46.4748 416.318 41.0925C416.318 41.0925 438.197 39.4335 447.077 53.5107" stroke="white" stroke-linecap="round" stroke-linejoin="round"/>
<path d="M355.882 69.7409C355.882 69.7409 349.092 46.0872 364.013 38.4132" stroke="white" stroke-linecap="round" stroke-linejoin="round"/>
<path d="M359.993 68.898C359.993 68.898 356.81 51.8814 358.152 49.8398C359.495 47.7983 363.826 47.9639 366.73 58.8546" stroke="white" stroke-linecap="round" stroke-linejoin="round"/>
<path d="M359.438 48.8694C359.438 48.8694 360.991 47.8446 362.685 47.4963C364.379 47.1481 368.538 46.2958 368.538 46.2958" stroke="white" stroke-linecap="round" stroke-linejoin="round"/>
<path d="M363.676 38.5913C363.676 38.5913 347.973 44.0503 341.518 51.8362C331.996 63.3308 334.696 74.7912 334.696 74.7912" stroke="white" stroke-linecap="round" stroke-linejoin="round"/>
<path d="M324.651 156.086C276.588 158.698 265.959 143.332 267.353 117.935C269.098 86.1372 333.672 73.2379 333.672 73.2379" stroke="white" stroke-linecap="round" stroke-linejoin="round"/>
<path d="M332.959 75.0785L364.691 68.5712L414.436 57.7353C414.436 57.7353 480.297 42.2888 492.21 71.8176C504.853 103.146 495.529 124.754 393.708 145.639L386.935 147.028C373.791 149.725 362.014 151.807 351.478 153.312" stroke="white" stroke-linecap="round" stroke-linejoin="round"/>
<path d="M276.563 99.4253C276.563 99.4253 267.707 79.2887 268.812 75.5744C269.914 71.8606 282.327 73.5816 300.9 83.919" stroke="white" stroke-linecap="round" stroke-linejoin="round"/>
<path d="M280.992 120.05L277.634 138.078C277.437 139.146 278.318 140.092 279.397 139.982C281.333 139.781 284.643 138.857 289.475 135.625C297.851 130.02 305.264 116.839 305.264 116.839C305.264 116.839 298.908 111.076 280.996 120.05L280.992 120.05Z" stroke="white" stroke-linecap="round" stroke-linejoin="round"/>
<path d="M490.434 67.2326C490.434 67.2326 500.177 64.0935 503.28 73.0788C507.612 85.6186 504.048 89.77 496.602 91.7073" stroke="white" stroke-linecap="round" stroke-linejoin="round"/>
<path d="M342.8 83.6142C340.285 85.4188 338.156 87.7927 336.404 90.7367C334.652 93.6808 333.428 96.8309 332.73 100.187C332.612 100.746 332.528 101.242 332.467 101.671C332.409 102.101 332.364 102.602 332.335 103.177C332.306 103.75 332.311 104.259 332.348 104.7C332.386 105.142 332.476 105.578 332.617 106.01C332.758 106.442 332.953 106.802 333.205 107.094C333.792 107.188 334.468 106.919 335.236 106.289C335.999 105.659 336.736 104.842 337.446 103.839C338.156 102.836 338.841 101.745 339.506 100.57C340.17 99.3948 340.722 98.3313 341.171 97.382C341.616 96.4332 341.939 95.6706 342.138 95.0944C342.179 95.0893 342.223 95.0734 342.272 95.0498C342.321 95.0296 342.425 94.9957 342.584 94.9549C342.742 94.9107 342.897 94.8737 343.05 94.8441C343.203 94.8111 343.383 94.7746 343.597 94.7303C343.807 94.6865 343.999 94.6591 344.164 94.6453C344.329 94.6316 344.497 94.6316 344.668 94.638C344.839 94.6444 344.978 94.6689 345.095 94.7101C345.594 94.8849 345.96 95.2541 346.191 95.8182C346.422 96.3824 346.536 96.9298 346.53 97.4678C346.525 98.0058 346.464 98.4982 346.347 98.9525C346.069 99.9537 345.666 100.995 345.144 102.076C344.621 103.16 343.951 104.255 343.136 105.366C342.321 106.476 341.402 107.453 340.376 108.296C339.35 109.14 338.208 109.838 336.954 110.386C335.699 110.934 334.359 111.185 332.939 111.136C332.814 111.141 332.681 111.137 332.54 111.123C332.399 111.11 332.265 111.095 332.138 111.08C331.002 110.883 330.003 110.381 329.141 109.561C328.276 108.744 327.617 107.76 327.16 106.613C326.703 105.467 326.402 104.231 326.253 102.91C326.109 101.589 326.125 100.303 326.309 99.0413C326.607 97.1165 327.079 95.2922 327.724 93.5753C328.368 91.8549 329.192 90.2341 330.196 88.7095C331.199 87.1848 332.422 85.8036 333.872 84.558C335.321 83.3159 336.959 82.27 338.786 81.4237L338.817 81.4199L338.847 81.4126C339.368 81.1764 340.012 81.012 340.78 80.9158C341.551 80.8192 342.213 80.8445 342.77 80.9874C342.86 81.0111 342.946 81.0527 343.033 81.1115C343.117 81.1708 343.201 81.2334 343.276 81.3009C343.557 81.6495 343.621 82.0775 343.461 82.579C343.301 83.0839 343.083 83.4287 342.803 83.6137L342.8 83.6142Z" fill="white"/>
<path d="M348.853 77.7346C349.08 78.6306 349.256 79.5576 349.38 80.5189C349.504 81.4802 349.586 82.3071 349.625 83.0069C349.664 83.7067 349.648 84.5809 349.582 85.6358C349.516 86.6907 349.459 87.4652 349.414 87.9663C349.369 88.4673 349.276 89.3093 349.127 90.4827C348.978 91.6595 348.881 92.4358 348.833 92.808C348.75 93.5336 348.687 94.0857 348.641 94.4717C348.595 94.8577 348.545 95.2059 348.493 95.5159C348.442 95.8259 348.395 96.0655 348.357 96.2342C348.319 96.4029 348.249 96.7048 348.15 97.1427C348.052 97.5806 347.947 98.0473 347.838 98.5424C351.819 90.1804 355.628 83.1691 359.265 77.512C359.297 77.4626 359.361 77.3638 359.457 77.2157C359.554 77.0676 359.631 76.9602 359.692 76.8933C359.753 76.8263 359.831 76.7503 359.928 76.6683C360.026 76.5828 360.138 76.5305 360.256 76.5051C361.128 76.2389 361.686 76.3819 361.925 76.931C362.169 76.9877 362.329 77.1212 362.404 77.3316C362.479 77.5419 362.495 77.7528 362.455 77.9636C362.415 78.1744 362.357 78.4294 362.278 78.7218C362.201 79.0176 362.163 79.2177 362.166 79.322C362.242 82.3476 362.027 86.0829 361.522 90.5279C361.016 94.9695 360.511 98.1132 360.007 99.9521C359.963 100.048 359.899 100.171 359.817 100.328C359.733 100.485 359.674 100.604 359.639 100.685C359.604 100.767 359.533 100.87 359.433 100.987C359.333 101.104 359.243 101.164 359.171 101.17C359.098 101.175 358.998 101.177 358.873 101.183C358.684 101.287 358.515 101.353 358.362 101.386C358.21 101.419 358.081 101.418 357.969 101.387C357.857 101.355 357.762 101.318 357.675 101.27C357.593 101.221 357.507 101.144 357.423 101.033C357.336 100.922 357.268 100.822 357.219 100.737C357.169 100.649 357.109 100.531 357.034 100.373C356.959 100.219 356.891 100.091 356.83 99.9977C356.647 99.0055 356.504 98.0884 356.405 97.2426C356.306 96.3968 356.246 95.7798 356.23 95.3981C356.213 95.0164 356.201 94.4458 356.193 93.6863C356.185 92.9268 356.176 92.4429 356.177 92.2265C354.824 94.3497 353.563 96.1508 352.398 97.6364C351.229 99.1223 349.917 100.462 348.459 101.664C348.02 101.883 347.654 102.051 347.362 102.164C347.07 102.277 346.734 102.319 346.361 102.289C345.988 102.259 345.676 102.1 345.423 101.807C344.862 101.131 344.525 100.053 344.409 98.5776C344.347 96.7469 344.388 94.9312 344.53 93.1202C344.673 91.3127 344.933 89.4661 345.312 87.5765C345.692 85.687 346.045 84.0833 346.374 82.7618C346.702 81.4403 347.151 79.7688 347.723 77.7436C347.718 77.7024 347.805 77.6775 347.992 77.6715C348.18 77.6654 348.372 77.6693 348.564 77.68C348.758 77.6942 348.854 77.7101 348.86 77.7303L348.853 77.7346Z" fill="white"/>
<path d="M392.488 73.3505C389.974 75.1551 387.844 77.529 386.092 80.473C384.34 83.4171 383.116 86.5672 382.418 89.9234C382.3 90.4824 382.213 90.9783 382.155 91.4077C382.097 91.837 382.052 92.3381 382.023 92.9138C381.994 93.4861 381.999 93.9949 382.037 94.4367C382.074 94.8785 382.164 95.3139 382.305 95.7462C382.446 96.1786 382.641 96.5379 382.894 96.8307C383.483 96.9243 384.156 96.6551 384.924 96.0252C385.687 95.3958 386.428 94.5809 387.134 93.5749C387.844 92.572 388.53 91.4814 389.194 90.3063C389.858 89.1311 390.411 88.0676 390.859 87.1183C391.304 86.1695 391.627 85.407 391.826 84.8308C391.867 84.8256 391.911 84.8097 391.96 84.7861C392.01 84.7659 392.113 84.732 392.271 84.6878C392.43 84.6436 392.585 84.6066 392.738 84.577C392.891 84.544 393.071 84.5075 393.284 84.4632C393.495 84.4194 393.686 84.3919 393.852 84.3782C394.017 84.3645 394.184 84.3645 394.356 84.3709C394.527 84.3773 394.666 84.4018 394.783 84.443C395.282 84.6178 395.648 84.987 395.879 85.5511C396.11 86.1153 396.224 86.6627 396.218 87.2007C396.212 87.7387 396.152 88.2311 396.035 88.6854C395.756 89.6866 395.354 90.7278 394.832 91.8119C394.309 92.896 393.639 93.9917 392.824 95.102C392.009 96.2123 391.09 97.1891 390.064 98.0327C389.038 98.8764 387.896 99.5741 386.642 100.122C385.387 100.67 384.047 100.921 382.627 100.873C382.502 100.878 382.369 100.873 382.228 100.86C382.087 100.846 381.953 100.831 381.826 100.816C380.691 100.623 379.691 100.117 378.829 99.297C377.964 98.4808 377.305 97.4959 376.848 96.3495C376.391 95.2032 376.09 93.9675 375.942 92.6465C375.797 91.3284 375.813 90.039 375.997 88.7776C376.295 86.8529 376.767 85.0286 377.412 83.3116C378.057 81.5946 378.88 79.9704 379.884 78.4458C380.887 76.9212 382.111 75.5399 383.56 74.2944C385.009 73.0523 386.647 72.0063 388.474 71.1601L388.505 71.1562L388.535 71.1489C389.056 70.9127 389.7 70.7483 390.472 70.6517C391.243 70.5551 391.904 70.5804 392.462 70.7233C392.552 70.747 392.637 70.7886 392.725 70.8474C392.812 70.9062 392.893 70.9693 392.971 71.0363C393.251 71.3849 393.316 71.813 393.156 72.3145C392.996 72.8194 392.778 73.1642 392.502 73.3488L392.488 73.3505Z" fill="white"/>
<path d="M402.628 82.2464C402.497 82.2313 402.311 82.2198 402.067 82.2189C401.823 82.2146 401.591 82.2541 401.364 82.3314C401.137 82.4087 401.03 82.5336 401.045 82.7028C401.026 83.2215 400.998 83.7448 400.96 84.2798C400.922 84.8113 400.878 85.2913 400.831 85.7194C400.783 86.1474 400.708 86.6592 400.612 87.2573C400.513 87.8558 400.435 88.3191 400.375 88.6407C400.314 88.9622 400.212 89.4564 400.066 90.1202C399.919 90.784 399.815 91.2331 399.758 91.4705C399.7 91.7079 399.587 92.1931 399.41 92.9234C399.234 93.6572 399.133 94.099 399.1 94.2565C398.954 94.8645 398.612 95.4411 398.08 95.9786C397.548 96.5162 397.054 96.791 396.592 96.8C395.839 96.8279 395.466 96.2397 395.469 95.0393C395.472 93.926 395.463 91.4049 395.441 87.4759C395.422 83.5466 395.421 80.5605 395.439 78.5104C395.458 76.4602 395.536 73.9176 395.667 70.88C395.799 67.8424 395.994 65.2573 396.249 63.1286C396.352 62.8088 396.587 62.5979 396.958 62.4992C397.328 62.4004 397.791 62.4541 398.35 62.6632C398.909 62.8688 399.344 63.1771 399.663 63.5802C400.326 65.5659 400.857 68.6147 401.265 72.7291C401.273 72.8781 401.342 72.9811 401.471 73.0382C401.597 73.0992 401.705 73.0752 401.79 72.9738C401.875 72.8725 402.274 72.3865 402.991 71.5222C403.708 70.6579 404.159 70.1199 404.348 69.9078C404.538 69.6992 404.953 69.232 405.594 68.5098C406.235 67.7877 406.744 67.2703 407.12 66.9582C407.498 66.6456 407.993 66.2313 408.601 65.719C409.212 65.2064 409.817 64.7783 410.42 64.4271C411.021 64.0763 411.648 63.75 412.303 63.4447C412.6 63.4495 412.834 63.4619 413.009 63.4924C413.183 63.5194 413.355 63.5885 413.525 63.6929C413.695 63.7972 413.794 63.9801 413.827 64.2411C413.86 64.5022 413.82 64.8281 413.712 65.2115C413.407 66.2823 412.985 67.3608 412.452 68.4427C411.916 69.5286 411.28 70.6234 410.541 71.7311C409.799 72.8393 409.147 73.7757 408.579 74.5481C408.01 75.3205 407.29 76.2445 406.419 77.3234C406.352 77.4016 406.33 77.502 406.356 77.6244C406.382 77.7468 406.432 77.8451 406.511 77.9155C408.161 78.9682 410.306 80.4997 412.954 82.5124C415.602 84.5251 417.812 86.4112 419.585 88.1637C420.303 88.8936 420.721 89.5041 420.831 89.9961C420.941 90.4882 420.798 91.0433 420.399 91.6586C420.052 92.1171 419.364 92.2137 418.343 91.9544C417.765 91.8175 416.087 90.873 413.305 89.1213C410.523 87.373 408.281 85.9339 406.587 84.8031C404.889 83.6761 403.639 82.8419 402.833 82.3009L402.631 82.2459L402.628 82.2464Z" fill="white"/>
<path d="M409.315 97.746C408.769 97.5249 408.618 97.3274 408.858 97.1579C409.78 95.762 411.216 94.4624 413.168 93.255C413.249 93.2099 413.356 93.1477 413.486 93.0687C414.161 92.6492 414.646 92.3791 414.938 92.2658C415.29 92.1275 415.66 91.9695 416.046 91.7956C416.09 91.7587 416.257 91.8738 416.551 92.1335C416.841 92.3937 417.116 92.6663 417.371 92.9484C417.625 93.2305 417.739 93.3872 417.705 93.4228C417.397 93.6602 417.102 93.8891 416.82 94.1093C416.573 94.3077 416.133 94.5791 415.508 94.9226C415.339 94.996 415.215 95.0638 415.135 95.1192C414.095 95.6821 413.248 96.1162 412.599 96.4172C411.951 96.7181 410.858 97.1621 409.319 97.7456L409.315 97.746Z" fill="white"/>
<path d="M364.864 98.339L365.004 102.459C365.004 102.459 363.079 104.075 362.962 104.358C362.844 104.641 363.021 104.64 363.6 104.617C364.178 104.593 364.971 104.556 365.348 104.757C365.348 104.757 366.512 104.513 367.445 104.372C367.575 104.352 367.828 104.373 367.941 104.355C368.682 104.242 365.771 102.461 365.771 102.461L365.715 98.3442C365.715 98.3442 366.297 98.7945 368.605 98.7322C370.909 98.6704 371.699 98.1354 371.699 98.1354L371.89 102.249L369.827 104.018C369.827 104.018 369.684 104.294 369.841 104.267C370.091 104.229 371.153 104.012 372.362 104.464C372.362 104.464 373.37 104.087 374.251 104.224C375.132 104.362 374.839 104.081 374.762 103.996C374.685 103.912 373.44 102.836 372.671 102.259L372.552 98.0808C372.552 98.0808 375.092 97.6476 374.676 94.0226C374.676 94.0226 376.622 92.1043 375.091 89.6377C373.56 87.1712 371.65 86.13 371.401 85.5332C371.153 84.9365 371.107 84.5724 370.48 83.9881C369.853 83.4037 369.156 81.7851 369.464 80.4661C369.773 79.1472 370.946 79.1433 370.772 77.058C370.597 74.9692 369.437 74.3295 369.297 73.8203C369.157 73.3111 368.824 72.3515 367.969 72.4168C367.113 72.4821 366.781 72.9179 366.598 73.9281C366.415 74.9384 365.598 74.3674 365.426 76.7996C365.253 79.2319 366.553 79.1842 366.843 80.3619C367.134 81.5396 366.954 82.9714 366.237 83.9684C365.519 84.9653 365.396 85.0993 365.282 85.8567C365.172 86.6136 362.22 88.2392 361.47 90.9741C360.719 93.709 362.523 94.6553 362.523 94.6553C362.523 94.6553 362.613 97.9861 364.864 98.339Z" fill="white"/>
<mask id="mask0_181_190" style="mask-type:luminance" maskUnits="userSpaceOnUse" x="327" y="112" width="18" height="22">
<path d="M335.046 133.077L337.343 128.258L344.475 113.864L342.271 112.64L332.796 114.583L327.85 123.663L329.627 131.841L335.046 133.077Z" fill="white"/>
</mask>
<g mask="url(#mask0_181_190)">
<path d="M343.411 116.101C341.839 117.229 340.507 118.711 339.414 120.55C338.318 122.39 337.555 124.359 337.118 126.458C337.043 126.809 336.991 127.116 336.952 127.386C336.916 127.656 336.889 127.969 336.868 128.328C336.85 128.686 336.852 129.003 336.876 129.279C336.9 129.555 336.955 129.828 337.044 130.099C337.134 130.37 337.256 130.596 337.411 130.775C337.777 130.834 338.202 130.666 338.678 130.271C339.155 129.88 339.617 129.369 340.06 128.741C340.504 128.113 340.934 127.431 341.347 126.699C341.76 125.964 342.109 125.299 342.386 124.706C342.663 124.113 342.865 123.638 342.99 123.277C343.018 123.274 343.044 123.263 343.074 123.249C343.104 123.238 343.167 123.217 343.269 123.19C343.37 123.163 343.464 123.141 343.559 123.119C343.654 123.1 343.766 123.075 343.898 123.048C344.031 123.021 344.15 123.003 344.254 122.997C344.358 122.991 344.462 122.988 344.57 122.992C344.675 122.996 344.765 123.013 344.837 123.039C345.151 123.149 345.378 123.379 345.523 123.731C345.668 124.082 345.739 124.426 345.736 124.761C345.732 125.097 345.694 125.405 345.622 125.689C345.45 126.315 345.197 126.967 344.871 127.643C344.541 128.319 344.126 129.006 343.618 129.701C343.109 130.396 342.534 131.006 341.893 131.533C341.253 132.059 340.538 132.494 339.755 132.836C338.969 133.179 338.132 133.336 337.244 133.305C337.164 133.308 337.084 133.304 336.996 133.297C336.908 133.287 336.823 133.28 336.742 133.27C336.034 133.149 335.409 132.833 334.868 132.322C334.327 131.81 333.916 131.196 333.631 130.478C333.346 129.76 333.155 128.988 333.066 128.166C332.977 127.34 332.987 126.536 333.101 125.747C333.288 124.545 333.581 123.406 333.986 122.329C334.387 121.257 334.904 120.24 335.53 119.289C336.156 118.335 336.922 117.472 337.827 116.695C338.733 115.919 339.755 115.268 340.897 114.734L340.917 114.731L340.938 114.729C341.264 114.58 341.665 114.477 342.146 114.421C342.626 114.36 343.042 114.375 343.387 114.464C343.441 114.478 343.497 114.506 343.55 114.541C343.603 114.576 343.653 114.615 343.705 114.661C343.882 114.88 343.919 115.147 343.818 115.46C343.719 115.776 343.582 115.992 343.409 116.108L343.411 116.101Z" fill="white"/>
</g>
<mask id="mask1_181_190" style="mask-type:luminance" maskUnits="userSpaceOnUse" x="420" y="111" width="7" height="7">
<path d="M424.326 111.952L420.954 114.523L422.662 117.707L425.021 115.361L426.237 114.5L424.326 111.952Z" fill="white"/>
</mask>
<g mask="url(#mask1_181_190)">
<path d="M423.688 107.13C425.216 106.628 426.438 106.402 427.356 106.451C427.392 106.429 427.479 106.512 427.613 106.698C427.751 106.883 427.877 107.077 427.988 107.272C428.1 107.471 428.144 107.57 428.12 107.576C427.985 107.75 427.842 107.911 427.686 108.056C427.53 108.202 427.347 108.354 427.13 108.513C426.914 108.673 426.738 108.8 426.607 108.893C426.476 108.986 426.256 109.118 425.95 109.289C425.644 109.46 425.445 109.572 425.358 109.621C425.27 109.674 425.042 109.797 424.673 109.993C424.304 110.189 424.098 110.299 424.049 110.323C424.078 110.971 424.1 111.426 424.112 111.686C424.127 111.945 424.131 112.343 424.132 112.876C424.129 113.41 424.094 113.875 424.024 114.264C423.951 114.654 423.846 115.016 423.704 115.355C423.617 115.575 423.403 115.675 423.067 115.658C422.727 115.641 422.503 115.55 422.389 115.387C422.152 114.806 421.957 114.188 421.808 113.527C421.659 112.869 421.535 112.214 421.443 111.563C420.052 112.159 418.644 112.709 417.225 113.218C417.172 113.35 417.063 113.619 416.898 114.03C416.733 114.438 416.611 114.736 416.529 114.921C416.448 115.105 416.34 115.359 416.203 115.68C416.066 116.004 415.932 116.293 415.8 116.547C415.668 116.801 415.536 117.058 415.405 117.312C415.129 117.447 414.927 117.532 414.795 117.559C414.662 117.586 414.553 117.572 414.469 117.516C414.385 117.46 414.276 117.338 414.148 117.151C414.107 117.014 414.079 116.874 414.062 116.737C414.044 116.599 414.036 116.447 414.025 116.281C414.018 116.114 414.014 115.993 414.007 115.913C414.004 115.833 414.011 115.693 414.031 115.495C414.048 115.298 414.058 115.178 414.057 115.14C414.055 115.101 414.072 114.96 414.108 114.718C414.144 114.476 414.159 114.349 414.158 114.335C413.37 114.605 412.841 114.779 412.57 114.865C412.818 114.785 412.819 114.792 412.573 114.886C412.476 114.919 412.272 114.99 411.965 115.091C411.156 115.391 410.657 115.576 410.46 115.642C410.439 115.673 410.415 115.7 410.391 115.728C410.362 115.752 410.337 115.77 410.309 115.773C410.285 115.776 410.254 115.78 410.218 115.77C410.183 115.764 410.154 115.757 410.125 115.751C410.097 115.744 410.063 115.724 410.024 115.69C409.985 115.657 409.95 115.633 409.92 115.612C409.889 115.592 409.847 115.562 409.794 115.527C409.741 115.492 409.698 115.455 409.663 115.425C409.868 115.141 410.104 114.86 410.38 114.585C410.651 114.307 410.891 114.078 411.098 113.895C411.304 113.712 411.609 113.475 412.018 113.183C412.427 112.891 412.709 112.692 412.873 112.584C413.037 112.476 413.375 112.26 413.892 111.933C414.411 111.607 414.727 111.403 414.843 111.326C415.16 110.243 415.533 109.08 415.97 107.839C416.406 106.598 416.806 105.508 417.172 104.569C417.539 103.63 417.985 102.493 418.514 101.16C419.04 99.8248 419.46 98.7325 419.771 97.8772C420.041 97.7806 420.26 97.7566 420.426 97.8021C420.472 97.8313 420.495 97.8738 420.491 97.93C420.606 97.9051 420.693 97.9292 420.76 97.994C420.828 98.0588 420.885 98.1528 420.934 98.2688C420.983 98.3847 421.035 98.4654 421.082 98.5083C422.234 100.586 423.102 103.46 423.691 107.13L423.688 107.13ZM418.686 109.208C419.415 108.855 420.156 108.518 420.905 108.187C420.674 106.615 420.462 104.977 420.27 103.278C419.821 105.448 419.295 107.422 418.69 109.208L418.686 109.208Z" fill="white"/>
</g>
<path d="M351.937 108.024C348.9 108.523 346.279 110.418 344.848 113.147C338.557 125.158 323.207 157.68 323.198 160.723C323.172 169.21 412.209 127.665 434.284 102.908C436.063 100.909 435.369 97.7305 432.925 96.6482C432.884 96.6288 432.84 96.61 432.797 96.5945C429.835 95.3537 369.569 105.128 351.937 108.024Z" stroke="white" stroke-linecap="round" stroke-linejoin="round"/>
<path d="M503.318 52.6036C503.127 51.6672 502.214 51.0634 501.279 51.255C500.344 51.4467 499.742 52.3612 499.934 53.2977L509.654 100.774C509.846 101.711 510.759 102.315 511.694 102.123C512.629 101.931 513.231 101.017 513.039 100.08L503.318 52.6036Z" stroke="white" stroke-linecap="round" stroke-linejoin="round"/>
<path d="M299.695 172.123C299.695 172.123 224.835 191.617 147.512 169.207C70.1895 146.796 14.4035 163.475 14.4035 163.475" stroke="white" stroke-linecap="round" stroke-linejoin="round"/>
<path d="M29.7333 146.282C29.7333 146.282 87.5788 132.757 164.902 155.167C222.805 171.949 277.286 164.124 301 159.135" stroke="white" stroke-linecap="round" stroke-linejoin="round"/>
<path d="M44.6074 110.244C44.6074 110.244 100.39 93.5689 177.713 115.976C203.095 123.333 228.21 126.174 250.5 126.672" stroke="white" stroke-linecap="round" stroke-linejoin="round"/>
<path d="M54.0613 92.5308C54.0613 92.5308 111.91 79.0053 189.236 101.412C205.28 106.063 221.062 108.824 236 110.279" stroke="white" stroke-linecap="round" stroke-linejoin="round"/>
</g>
<defs>
<clipPath id="clip0_181_190">
<rect width="503" height="147" fill="white" transform="translate(1.64374 62.9958) rotate(-7.13948)"/>
</clipPath>
</defs>
</svg>
