<svg width="131" height="84" viewBox="0 0 131 84" fill="none" xmlns="http://www.w3.org/2000/svg">
<path d="M37.1361 21.0621C37.0072 23.1778 36.6631 25.2935 36.2764 27.4092C35.7608 30.3018 33.7837 33.5828 30.5602 33.5828C27.3368 33.5828 25.1882 30.7758 24.6726 27.7976C23.8129 22.2274 24.4574 17.781 26.0478 14.8017C27.2942 12.4698 28.9272 11.3044 31.5488 11.3044C33.4834 11.3044 35.3304 12.1681 36.1901 14.456C36.9635 16.6145 37.3076 18.8169 37.1361 21.0621ZM34.8149 21.7095C34.7723 19.8955 34.686 18.1255 34.1704 16.3983C33.9126 15.6214 33.0104 12.9438 31.9781 12.9438C31.7203 12.9438 31.4625 13.0733 31.2899 13.2895C30.7317 14.1531 30.3013 15.0595 29.9572 16.0098C28.5394 20.069 28.0664 24.1697 28.8398 28.4011C29.0975 29.696 29.6131 30.8625 30.5591 31.8116C30.9032 32.2001 31.2473 32.2001 31.5051 31.8116C32.1495 30.8613 32.8803 29.9549 33.3533 28.9618C34.4708 26.6739 34.8149 24.2125 34.8149 21.7083V21.7095Z" fill="white"/>
<path d="M49.8136 27.4947C49.5984 30.4313 48.3095 32.8487 45.6016 34.2731C44.7845 34.7043 43.9686 34.8777 43.0663 34.8777C42.637 34.8777 42.2066 34.8349 41.7336 34.7482C39.4987 34.3598 38.8105 32.2868 39.0695 30.733C39.2409 29.8694 39.5425 28.963 39.9291 28.1422C40.3584 27.2358 41.0892 26.9329 42.0777 27.0624C42.6359 27.1491 42.7659 27.408 42.507 27.926C41.9914 29.0486 41.7762 30.2579 41.8625 31.5099C41.8625 31.8117 41.9051 32.1146 42.034 32.3736C42.2492 32.9782 42.5496 33.28 42.9363 33.28C43.194 33.28 43.4518 33.1077 43.7959 32.8487C45.7305 31.2082 46.6753 29.0925 46.6327 26.5456C46.5901 25.1212 45.9019 24.4727 44.4404 24.4727C44.1826 24.4727 42.4633 24.4727 41.9051 24.3432C39.7128 23.9975 38.5102 22.6159 38.3813 20.4147C38.2524 18.6447 38.5528 16.9174 39.2409 15.233C40.3584 12.7716 42.8085 11.2178 45.3438 11.2178C47.4924 11.2178 49.5132 12.4271 49.7273 14.7578C49.8562 16.1821 49.4695 17.5209 48.8251 18.773C48.6536 19.032 48.3946 19.2909 48.0943 19.4204C47.8791 19.5499 47.4924 19.5071 47.2772 19.3776C47.1057 19.2909 47.1057 18.8597 47.1483 18.6435C47.6213 16.744 47.3635 15.0168 46.0308 13.5057C45.8156 13.2468 45.6442 13.1173 45.429 13.1173C45.2137 13.1173 45.0423 13.204 44.8271 13.3762C43.0652 14.715 42.0766 16.5278 41.6036 18.6874C41.4747 19.3349 41.4321 20.069 41.4747 20.8031C41.5173 22.357 42.377 23.135 43.9248 23.1778C44.7419 23.2206 45.5153 23.1778 46.3312 23.3073C48.7376 23.653 50.0277 25.0773 49.8125 27.4947H49.8136Z" fill="white"/>
<path d="M51.1578 10.33C50.7435 10.33 50.2256 10.2606 50.1911 9.80971C50.1566 9.32414 50.709 9.28946 51.0887 9.25477C52.2281 9.22009 53.3674 9.22009 54.5067 9.25477C56.2329 9.25477 57.9937 9.25477 59.7199 9.28946C60.0997 9.28946 60.9974 9.35882 61.1355 9.80971C61.1355 9.91376 60.9974 10.0872 60.8938 10.1219C60.5831 10.1912 60.2723 10.2953 59.9962 10.2953C59.0295 10.33 58.0628 10.33 57.1306 10.33H56.7163C56.7163 17.4401 56.7163 24.5849 56.5782 31.695C56.5782 32.2846 56.5437 32.8742 56.4746 33.4639C56.4056 34.0188 56.0603 34.3656 55.4734 34.435C55.0936 34.4697 54.6793 34.4697 54.2995 34.4003C53.8507 34.3656 53.54 34.0882 53.4709 33.6026C53.4019 33.117 53.2638 32.6315 53.2983 32.1806C53.2983 24.897 53.4019 17.5788 54.1614 10.33H51.1578Z" fill="white"/>
<path d="M85.7149 38.3622C85.8806 38.5148 85.9036 38.7715 85.7816 38.9623C85.5434 39.3334 85.3834 39.4548 84.7712 39.4548C83.5249 39.4548 82.2359 37.9865 81.9781 36.8211C81.5477 35.0939 81.2048 33.2811 80.947 31.5099C80.7755 30.3006 80.7755 29.0058 80.7318 27.6242C80.474 28.2289 80.3451 28.7468 80.1299 29.222C79.4854 30.733 78.6258 32.3736 76.735 32.3736C74.156 32.3736 72.6518 29.3515 72.2651 27.1491C72.0937 26.2427 71.9211 25.2923 71.7496 24.2565C71.6207 24.5154 71.5344 24.6877 71.4918 24.8611C70.5458 27.193 69.3858 29.3942 67.8816 31.4244C66.7216 32.9354 65.2601 33.799 63.2829 33.6268C61.8214 33.4973 60.8765 32.5909 60.7477 31.1226C60.5762 29.3087 60.9629 27.5826 61.6499 25.9421C62.8099 23.135 64.1426 20.4586 66.549 18.5152C67.5375 17.781 69.0843 16.8747 70.3306 16.8747C70.8899 16.8747 71.4481 16.9614 72.0074 17.2203C72.0499 16.9614 72.0937 16.7452 72.1788 16.5301C72.394 15.6237 72.8233 15.3648 73.8119 15.4075C74.5852 15.4942 74.8867 15.7532 74.9293 16.7463C75.0582 18.2574 75.1445 19.7684 75.2297 21.2795C75.316 24.1293 75.5301 28.1017 76.9064 30.6486L77.0353 30.6914C77.422 30 77.8524 29.3966 78.0665 28.6624C78.9687 25.5108 79.9147 22.3581 80.6018 19.121C81.0747 16.8758 81.1611 14.5439 81.4188 12.256C81.5903 10.701 81.8055 9.14716 81.9344 7.54941C82.0207 6.90198 82.3637 6.55631 83.0093 6.42682C83.7401 6.29733 84.4271 6.29734 84.9864 6.85921C85.1579 6.98869 85.1579 7.29044 85.1579 7.50663C85.0716 9.31942 84.9427 11.1334 84.8138 12.9462C84.556 17.9984 84.2545 23.0067 84.083 28.0578C83.9541 31.0799 83.9967 34.1019 84.6849 37.0813C84.8115 37.6339 84.8552 38.2697 85.6355 38.331C85.6631 38.3333 85.6907 38.3426 85.7114 38.3611C85.7114 38.3611 85.7137 38.3634 85.7149 38.3634V38.3622ZM71.577 18.1256C70.7173 18.3418 70.4595 18.4712 69.815 19.1187C66.8493 22.098 65.2163 25.7675 64.1414 29.7827C63.97 30.4301 64.0126 31.1215 63.97 31.7689C64.0563 31.8117 64.1414 31.8556 64.2278 31.8556C64.7007 31.4244 65.2163 30.992 65.6456 30.5168C68.6538 26.9329 70.2869 22.6587 71.577 18.1256Z" fill="white"/>
<path d="M10.7199 12.8688C10.7199 12.8688 10.7199 7.90328 10.995 6.15639C11.27 4.4095 11.2102 3.12158 11.2102 3.12158C9.50352 3.3054 8.15705 3.12158 8.15705 3.12158C8.15705 3.12158 8.06498 5.32861 8.24912 6.15639C8.43325 6.98417 8.32392 12.8688 8.32392 12.8688" fill="white"/>
<path d="M10.72 13.7219C10.72 13.7219 10.6279 17.9938 10.903 19.7407C11.178 21.4876 11.0273 22.7755 11.0273 22.7755H8.08919C8.08919 22.7755 7.85903 20.8101 8.15709 19.7407C8.38496 18.9245 8.32396 13.7219 8.32396 13.7219" fill="white"/>
<path d="M11.0813 2.54352C11.0813 2.54352 9.35508 2.65914 8.31934 2.54352C8.31934 2.54352 8.31934 1.84985 9.70033 1.84985C10.8512 1.84985 11.0813 2.54352 11.0813 2.54352Z" fill="white"/>
<path d="M8.49887 26.7861C8.49887 26.7861 8.49887 31.058 8.22382 32.8049C7.94877 34.5518 8.00861 35.8397 8.00861 35.8397C9.71529 35.6559 11.0618 35.8397 11.0618 35.8397C11.0618 35.8397 11.1538 33.6327 10.9697 32.8049C10.7856 31.9771 10.8949 26.7861 10.8949 26.7861" fill="white"/>
<path d="M8.13751 36.6488C8.13751 36.6488 9.86376 36.5332 10.8995 36.6488C10.8995 36.6488 10.8995 37.3425 9.51851 37.3425C8.36768 37.3425 8.13751 36.6488 8.13751 36.6488Z" fill="white"/>
<path d="M17.8574 27.2485C17.8574 27.2485 17.8574 32.5782 17.5628 34.4535C17.2682 36.3287 17.3315 37.7102 17.3315 37.7102C19.1636 37.5125 20.6079 37.7102 20.6079 37.7102C20.6079 37.7102 20.7057 35.3414 20.5101 34.4535C20.3144 33.5656 20.4295 27.2485 20.4295 27.2485" fill="white"/>
<path d="M17.3694 38.6016C17.3694 38.6016 19.4133 38.4652 20.6401 38.6016C20.6401 38.6016 20.6401 39.4236 19.0048 39.4236C17.6422 39.4236 17.3694 38.6016 17.3694 38.6016Z" fill="white"/>
<path d="M10.7384 23.6831C10.7384 23.6831 6.14081 23.6831 4.40191 23.4068C2.663 23.1305 1.38098 23.1906 1.38098 23.1906C1.56396 24.9051 1.38098 26.2578 1.38098 26.2578C1.38098 26.2578 3.57791 26.3503 4.40191 26.1653C5.2259 25.9803 10.7384 26.089 10.7384 26.089" fill="white"/>
<path d="M11.4726 23.6831C11.4726 23.6831 16.4154 23.7744 18.1543 23.4993C19.8932 23.223 21.1752 23.3744 21.1752 23.3744C20.9923 25.0889 21.1752 26.326 21.1752 26.326C21.1752 26.326 19.2188 26.5572 18.1543 26.2578C17.3418 26.0289 11.4726 26.0901 11.4726 26.0901" fill="white"/>
<path d="M0.690497 23.3201C0.690497 23.3201 0.80558 25.0542 0.690497 26.0947C0.690497 26.0947 0 26.0947 0 24.7074C0 23.5513 0.690497 23.3201 0.690497 23.3201Z" fill="white"/>
<path d="M21.9164 26.2102C21.9164 26.2102 21.8013 24.4761 21.9164 23.4355C21.9164 23.4355 22.6069 23.4355 22.6069 24.8229C22.6069 25.979 21.9164 26.2102 21.9164 26.2102Z" fill="white"/>
<path d="M20.3409 12.1983C20.3409 12.1983 20.3409 6.68474 20.6459 4.74362C20.9508 2.80365 20.8852 1.37354 20.8852 1.37354C18.9898 1.57817 17.4949 1.37354 17.4949 1.37354C17.4949 1.37354 17.3936 3.8245 17.5962 4.74362C17.7987 5.66273 17.6802 12.1983 17.6802 12.1983" fill="white"/>
<path d="M20.3409 12.9924C20.3409 12.9924 20.2396 17.9279 20.5446 19.869C20.8496 21.809 20.6332 22.4298 20.6332 22.4298C18.7919 22.3142 17.2958 22.7767 17.2958 22.7767C17.2958 22.7767 17.1646 21.0563 17.4961 19.869C17.7492 18.9626 17.6813 12.9924 17.6813 12.9924" fill="white"/>
<path d="M20.7425 0.769974C20.7425 0.769974 18.8252 0.898303 17.6756 0.769974C17.6756 0.769974 17.6756 0 19.2096 0C20.487 0 20.7437 0.769974 20.7437 0.769974H20.7425Z" fill="white"/>
<path d="M3.83686 67.397C3.62971 67.4016 3.42372 67.412 3.21657 67.4259C2.52837 67.471 1.71934 67.4016 1.06797 67.286C0.502912 67.2421 0.338343 66.4351 0.338343 65.7808C0.338343 62.9448 0.208299 60.1088 0.252031 57.3168C0.338343 50.1177 0.469538 42.9197 0.859669 35.7645C0.859669 35.5032 1.07718 35.1541 1.25095 35.0662C2.07609 34.6303 2.94497 34.5864 3.8127 34.717C4.29029 34.8038 4.55153 35.0223 4.55153 35.5899C4.46521 37.5969 4.46521 39.56 4.46521 41.567C4.42148 48.1107 4.3789 54.6115 4.33517 61.1563C4.29144 62.5089 4.33517 63.8177 4.3789 65.257C4.72645 65.301 5.78752 65.2038 6.36293 65.2038C6.36293 65.2038 8.83146 64.8489 8.66459 66.36C8.56792 67.2328 4.98654 67.3739 3.83686 67.3959V67.397Z" fill="white"/>
<path d="M22.9223 66.567C22.0534 66.8283 21.2283 66.567 20.9682 65.738C20.6644 64.7785 20.5343 63.775 20.4031 62.7275C20.0556 59.5863 19.7955 56.4012 19.4479 53.2161C19.4479 52.9548 19.3616 52.6924 19.3179 52.3005C18.8403 54.1329 18.4064 55.8775 17.9277 57.5793C17.3626 59.6303 16.3649 61.4616 15.061 63.1634C14.0621 64.4721 12.8456 64.9519 11.4566 64.9519C9.41502 64.9519 7.98224 64.2097 7.59095 61.9853C7.19967 59.673 7.721 57.4915 8.45983 55.3099C9.67626 51.9074 12.7593 47.0205 16.8413 47.0205C17.4927 47.0205 18.2315 47.1072 18.9255 47.2818C19.0118 46.6714 19.0992 46.1037 19.143 45.5372C19.2293 44.9268 19.4905 44.7522 20.2719 44.7522C21.0533 44.7522 21.4009 45.0135 21.4446 45.6251C21.5747 47.5882 21.6621 49.5512 21.8359 51.4715C22.1835 54.6567 22.531 57.8845 23.0086 61.0696L23.4425 63.6871C23.4862 64.1669 23.5725 64.6027 23.6162 65.0397C23.7463 65.8247 23.4425 66.3924 22.9211 66.567H22.9223ZM17.6676 48.2864C17.3638 48.2425 16.9725 48.3304 16.7124 48.505C16.0611 49.0287 15.2796 49.5085 14.802 50.2068C12.2403 53.6531 11.1977 57.5365 11.284 61.8119C11.284 62.161 11.4577 62.5541 11.5878 63.0339C11.8479 62.7287 12.0216 62.5541 12.1954 62.3795C13.4982 60.8095 14.6271 59.1077 15.4085 57.2313C16.4075 54.6139 17.3626 51.9525 18.3178 49.2911C18.5353 48.5928 18.4041 48.3315 17.6665 48.2876L17.6676 48.2864Z" fill="white"/>
<path d="M53.8852 39.3867C53.8852 39.5173 53.7551 40.9139 53.6677 41.5243C53.5376 42.048 53.1901 42.3093 52.7125 42.3972C52.2786 42.4411 51.801 42.4411 51.366 42.3972C50.6272 42.2666 50.2808 41.7868 50.2371 40.8272C50.2371 40.2595 50.2808 39.6491 50.3671 39.0826C50.5409 37.9045 51.1922 37.5554 52.625 37.686C53.5802 37.7727 53.884 38.2097 53.884 39.3878L53.8852 39.3867ZM53.6251 45.669C53.6251 48.6795 53.6251 59.9794 53.6688 62.5529C53.6688 63.2073 53.4087 63.5564 52.8437 63.6871C52.4524 63.731 52.0623 63.7738 51.671 63.731C50.8896 63.6443 50.6721 63.3819 50.6283 62.5969C50.4983 56.8382 50.4983 51.1224 50.4983 45.3638C50.6721 44.884 51.4535 44.5788 52.4087 44.6655C53.1901 44.7094 53.5814 45.0146 53.6251 45.669Z" fill="white"/>
<path d="M68.6941 65.1263C68.0428 65.2569 67.4777 65.1263 67.0001 64.6025C66.2613 63.6869 66.0449 62.5955 65.8711 61.5053C65.6536 60.1966 65.5673 58.8879 65.4799 57.5791C65.2623 53.7397 65.2624 49.9002 65.6974 46.0619C65.7411 45.7128 65.6974 45.3636 65.6974 44.8399C62.3968 48.8979 60.7902 55.7467 59.835 60.7203C59.6613 61.7678 59.5312 62.814 59.3137 63.9054C59.2274 64.4731 58.9224 64.8211 58.2711 64.865C56.7082 64.865 56.2295 64.5598 56.0557 62.9458C55.8819 60.3723 55.7519 57.8416 55.6219 55.2669C55.4918 52.5616 55.4481 49.8574 56.0557 47.1961C56.2732 46.1486 56.9672 45.626 57.8361 45.626C58.7475 45.626 59.5727 45.9752 59.5727 47.0226C59.5727 47.4157 59.5289 47.8076 59.5289 48.2007L59.4426 50.5569C59.4426 50.95 59.3989 51.3419 59.3989 51.735V54.7455C60.2678 51.8228 63.3071 43.1843 66.3913 43.1843C67.3028 43.1843 68.0853 43.8387 68.3454 44.9289C68.8667 47.1972 68.693 49.5534 68.693 51.9095C68.6067 55.3559 68.6067 58.8023 68.6067 62.2499C68.6504 62.9921 68.9105 63.7332 69.0843 64.4754C69.1706 64.8245 69.0843 65.043 68.693 65.1297L68.6941 65.1263Z" fill="white"/>
<path d="M84.762 45.4504C84.1106 49.639 83.7631 53.8704 83.6768 58.103C83.633 62.3783 83.5904 66.6108 83.5467 70.8861C83.5467 71.1047 83.2866 71.4099 83.0691 71.4966C82.3303 71.7151 81.6789 71.322 81.4188 70.6237C80.8112 68.8352 80.7237 67.0027 80.68 65.1703C80.55 61.9852 80.5062 58.8001 80.4625 55.4416C80.2887 55.9214 80.1587 56.2705 80.0712 56.6197C79.4198 59.1932 78.1171 61.5066 76.8144 63.7749C76.3368 64.6477 75.5979 65.3888 74.5127 65.5634C73.0799 65.8247 71.8635 65.3449 71.2996 63.9494C70.8657 62.8592 70.4744 61.6372 70.3881 60.4591C70.0843 55.267 71.7346 50.5998 74.7314 46.4551C75.6866 44.9718 77.5981 43.5324 79.4221 43.5324C80.1172 43.5324 80.7686 43.6631 81.3762 43.9255C81.9839 43.707 82.3752 43.4457 82.809 43.4457C84.4593 43.4457 85.067 43.2711 84.7631 45.4527L84.762 45.4504ZM80.0712 45.2319C79.7674 45.0134 79.5499 45.0134 79.3324 45.2758C78.8548 45.8435 78.3335 46.3661 77.8996 46.9776C76.6832 48.8101 75.7717 50.861 75.0766 52.9987C74.2515 55.5294 73.5564 58.103 73.7301 60.8522C73.8165 61.8118 74.034 62.7714 74.164 63.7321H74.3815C75.4242 62.3355 76.6394 60.1978 77.2482 58.6278C78.551 55.0069 79.7237 51.342 80.9401 47.6771C81.2876 46.5429 81.0264 45.9325 80.0712 45.2342V45.2319Z" fill="white"/>
<path d="M100.831 64.6028C100.571 64.864 100.223 64.9958 99.8758 64.9958C99.4845 64.9958 99.0507 64.8213 98.7031 64.4282C97.0091 62.3772 96.749 59.3679 96.5752 56.7932C96.4889 55.4845 96.4015 54.2197 96.184 52.9098C95.185 55.7897 94.0998 58.5378 92.7533 61.2859C92.232 62.5507 90.973 63.7287 89.5828 63.7287C87.2811 63.7287 86.456 61.1113 86.1522 59.2349C85.5445 55.5261 86.4123 51.993 87.585 48.4588C87.715 48.0229 88.0188 47.6298 88.2363 47.194C88.6702 46.4517 89.3653 46.2344 90.1904 46.3211C90.668 46.4078 90.9719 46.6263 90.9293 47.15C90.7992 48.4148 90.6255 49.6808 90.4517 50.9895C90.0604 54.2613 89.4528 57.577 89.6265 60.9367C89.6703 61.3298 89.7566 61.7217 89.844 62.2894C91.1468 60.9367 91.9719 59.4534 92.6233 57.9262C94.0135 54.785 94.9687 51.4693 95.9676 48.1975C96.4015 46.7142 96.9228 45.2748 97.4878 43.8343C97.6616 43.3984 98.2267 43.136 98.7906 43.136C99.0944 43.136 99.3556 43.2227 99.572 43.3973C99.7458 43.5279 99.8321 43.7903 99.8321 44.0077C99.8758 44.6181 99.8321 45.1858 99.7883 45.7962C99.702 47.9339 99.5283 50.0276 99.4845 52.1653C99.4845 55.1319 99.702 57.8799 100.092 60.8038L100.57 63.901C100.613 64.1195 100.744 64.3808 100.83 64.5993L100.831 64.6028Z" fill="white"/>
<path d="M105.087 45.6688C105.087 48.6794 105.087 59.9793 105.13 62.5528C105.13 63.2071 104.87 63.5563 104.305 63.6869C103.914 63.7309 103.524 63.7736 103.133 63.7309C102.351 63.6441 102.134 63.3817 102.09 62.5967C101.96 56.8381 101.96 51.1222 101.96 45.3636C102.134 44.8838 102.915 44.5786 103.87 44.6653C104.652 44.7093 105.043 45.0145 105.087 45.6688Z" fill="white"/>
<path d="M130.275 66.567C129.406 66.8283 128.581 66.567 128.321 65.738C128.017 64.7785 127.887 63.775 127.756 62.7275C127.408 59.5863 127.148 56.4012 126.801 53.2161C126.801 52.9548 126.714 52.6924 126.671 52.3005C126.193 54.1329 125.759 55.8775 125.28 57.5793C124.715 59.6303 123.718 61.4616 122.414 63.1634C121.415 64.4721 120.198 64.9519 118.809 64.9519C116.768 64.9519 115.335 64.2097 114.944 61.9853C114.552 59.673 115.074 57.4915 115.812 55.3099C117.029 51.9074 120.112 47.0205 124.194 47.0205C124.845 47.0205 125.584 47.1072 126.278 47.2818C126.364 46.6714 126.452 46.1037 126.496 45.5372C126.582 44.9268 126.843 44.7522 127.625 44.7522C128.406 44.7522 128.754 45.0135 128.797 45.6251C128.927 47.5882 129.015 49.5512 129.189 51.4715C129.536 54.6567 129.884 57.8845 130.361 61.0696L130.795 63.6871C130.839 64.1669 130.925 64.6027 130.969 65.0397C131.099 65.8247 130.795 66.3924 130.274 66.567H130.275ZM125.02 48.2864C124.716 48.2425 124.325 48.3304 124.065 48.505C123.414 49.0287 122.632 49.5085 122.155 50.2068C119.593 53.6531 118.55 57.5365 118.637 61.8119C118.637 62.161 118.81 62.5541 118.94 63.0339C119.201 62.7287 119.374 62.5541 119.548 62.3795C120.851 60.8095 121.98 59.1077 122.761 57.2313C123.76 54.6139 124.715 51.9525 125.67 49.2911C125.888 48.5928 125.757 48.3315 125.019 48.2876L125.02 48.2864Z" fill="white"/>
<path d="M37.9912 55.0923C37.9912 55.0923 37.4537 71.9589 39.7508 72.2572C43.3045 72.7197 42.0421 70.5427 42.499 55.2623C42.499 55.2623 45.8364 55.4935 46.757 54.9154C47.1713 54.6553 47.1333 53.7559 46.4118 53.6437C45.6902 53.5316 42.499 53.4125 42.499 53.4125C42.499 53.4125 42.3839 44.5104 42.8442 42.4294C43.2769 40.4744 45.1309 41.2744 48.1208 41.0906C48.5109 41.0663 48.8446 40.8039 48.9586 40.4281C49.099 39.9645 49.2002 39.3113 48.9436 38.7298C48.4833 37.6893 40.9039 37.4824 39.737 38.4986C38.0107 40.0015 38.0107 53.1813 38.0107 53.1813C38.0107 53.1813 34.0979 53.1813 33.6376 53.5281C33.2474 53.8229 33.1772 54.7386 33.6376 54.9432C34.0979 55.1478 37.9912 55.0923 37.9912 55.0923Z" fill="white"/>
<path d="M106.903 39.6397C106.473 39.6397 105.937 39.5681 105.901 39.101C105.866 38.5981 106.438 38.5622 106.831 38.5264C108.011 38.4906 109.192 38.4906 110.371 38.5264C112.16 38.5264 113.984 38.5264 115.771 38.5622C116.165 38.5622 117.094 38.6339 117.237 39.101C117.237 39.2085 117.094 39.3889 116.986 39.4247C116.664 39.4964 116.343 39.6039 116.056 39.6039C115.055 39.6397 114.054 39.6397 113.088 39.6397H112.659C112.659 47.0042 112.659 54.4057 112.516 61.7701C112.516 62.3806 112.481 62.9921 112.409 63.6026C112.338 64.1772 111.98 64.5367 111.373 64.6084C110.979 64.6442 110.55 64.6442 110.156 64.5726C109.691 64.5367 109.369 64.2488 109.298 63.7459C109.226 63.243 109.084 62.7401 109.119 62.273C109.119 54.7282 109.226 47.1476 110.013 39.6397H106.902H106.903Z" fill="white"/>
<path d="M3.42948 76.247C4.21549 76.2135 5.53895 76.9106 5.18909 77.276C4.87607 77.6031 4.66201 76.6875 3.44329 76.6863C1.32116 76.6863 0.598438 79.5974 1.22334 81.5559C1.86895 83.5814 3.74135 83.9895 4.88067 82.8912C5.08897 82.6901 5.39279 83.008 5.18449 83.2092C3.50428 84.8312 0.565063 83.6716 0.565063 80.0842C0.565063 78.3061 1.43854 76.2933 3.43178 76.247H3.42948Z" fill="white"/>
<path d="M8.27442 83.9284C4.52963 83.9665 4.36276 76.3385 8.26061 76.2483C12.0929 76.2483 12.1205 83.8902 8.27442 83.9284ZM8.27327 76.6876C5.06476 76.6876 4.9796 83.4151 8.27327 83.4879C11.5669 83.4151 11.4818 76.6876 8.27327 76.6876Z" fill="white"/>
<path d="M12.4946 76.3777L16.0173 82.8461V76.4667C16.0173 76.1753 16.4569 76.1753 16.4569 76.4667V83.7086C16.4569 83.934 16.1473 84.0254 16.0357 83.7976L12.513 77.3291V83.7086C12.513 83.9988 12.0734 83.9988 12.0734 83.7086V76.4667C12.0734 76.2285 12.4002 76.1603 12.4946 76.3777Z" fill="white"/>
<path d="M22.0027 77.2761L18.007 81.4647C18.6296 83.5792 20.5411 84.0035 21.692 82.8925C21.9003 82.6913 22.2041 83.0093 21.9958 83.2104C20.5906 84.5666 18.2303 84.0394 17.5478 81.4531C16.9851 79.3189 17.8125 76.2726 20.2534 76.2471C21.0751 76.239 22.3491 76.9142 22.0015 77.2761H22.0027ZM17.8148 80.0843C17.8148 80.3768 17.839 80.6681 17.8885 80.9514L21.5274 77.1374C20.0279 75.9489 17.8148 77.1397 17.8148 80.0843Z" fill="white"/>
<path d="M25.149 76.247C25.935 76.2135 27.2585 76.9106 26.9086 77.276C26.5956 77.6031 26.3815 76.6875 25.1617 76.6863C23.0395 76.6863 22.3168 79.5974 22.9417 81.5559C23.5873 83.5814 25.4597 83.9895 26.5991 82.8912C26.8074 82.6901 27.1112 83.008 26.9029 83.2092C25.2227 84.8312 22.2834 83.6716 22.2834 80.0842C22.2834 78.3061 23.1569 76.2933 25.1502 76.247H25.149Z" fill="white"/>
<path d="M27.3805 76.6875C27.0916 76.6875 27.0916 76.2458 27.3805 76.2458H31.4694C31.7582 76.2458 31.7582 76.6875 31.4694 76.6875H29.6453V83.7086C29.6453 83.9988 29.2057 83.9988 29.2057 83.7086V76.6875H27.3816H27.3805Z" fill="white"/>
<path d="M36.0105 83.6752C36.0543 83.962 35.6192 84.029 35.5755 83.7411C35.4973 83.2278 35.4201 82.7422 35.343 82.2844H31.8411C31.764 82.7422 31.6869 83.2278 31.6086 83.7411C31.5649 84.029 31.131 83.962 31.1736 83.6752C31.6144 80.763 32.4407 76.2449 33.5915 76.2449C34.7423 76.2449 35.5617 80.8254 36.0094 83.6752H36.0105ZM35.2682 81.8428C34.0748 74.9766 33.1104 74.9766 31.917 81.8428H35.2682Z" fill="white"/>
<path d="M35.7125 76.6875C35.4236 76.6875 35.4236 76.2458 35.7125 76.2458H39.8014C40.0902 76.2458 40.0902 76.6875 39.8014 76.6875H37.9773V83.7086C37.9773 83.9988 37.5377 83.9988 37.5377 83.7086V76.6875H35.7136H35.7125Z" fill="white"/>
<path d="M44.4208 77.2761L40.4251 81.4647C41.0477 83.5792 42.9592 84.0035 44.1101 82.8925C44.3184 82.6913 44.6222 83.0093 44.4139 83.2104C43.0087 84.5666 40.6484 84.0394 39.9659 81.4531C39.4032 79.3189 40.2306 76.2726 42.6715 76.2471C43.4932 76.239 44.7672 76.9142 44.4196 77.2761H44.4208ZM40.2329 80.0843C40.2329 80.3768 40.2571 80.6681 40.3066 80.9514L43.9455 77.1374C42.446 75.9489 40.2329 77.1397 40.2329 80.0843Z" fill="white"/>
<path d="M50.6791 76.247C51.4651 76.2135 52.7886 76.9106 52.4387 77.276C52.1257 77.6031 51.9116 76.6875 50.6929 76.6863C48.5708 76.6863 47.8481 79.5974 48.473 81.5559C49.1186 83.5814 50.991 83.9895 52.1303 82.8912C52.3386 82.6901 52.6424 83.008 52.4341 83.2092C50.7539 84.8312 47.8147 83.6716 47.8147 80.0842C47.8147 78.3061 48.6882 76.2933 50.6814 76.247H50.6791Z" fill="white"/>
<path d="M55.523 83.9284C51.7782 83.9665 51.6113 76.3385 55.5091 76.2483C59.3414 76.2483 59.369 83.8902 55.523 83.9284ZM55.5218 76.6876C52.3133 76.6876 52.2281 83.4151 55.5218 83.4879C58.8155 83.4151 58.7303 76.6876 55.5218 76.6876Z" fill="white"/>
<path d="M59.743 76.3777L63.2657 82.8461V76.4667C63.2657 76.1753 63.7053 76.1753 63.7053 76.4667V83.7086C63.7053 83.934 63.3957 84.0254 63.2841 83.7976L59.7614 77.3291V83.7086C59.7614 83.9988 59.3218 83.9988 59.3218 83.7086V76.4667C59.3218 76.2285 59.6486 76.1603 59.743 76.3777Z" fill="white"/>
<path d="M68.1371 76.4668V83.4879H71.524C71.814 83.4879 71.814 83.9295 71.524 83.9295H67.9173C67.7953 83.9295 67.6975 83.8301 67.6975 83.7087V76.4668C67.6975 76.1755 68.1371 76.1755 68.1371 76.4668Z" fill="white"/>
<path d="M76.8271 83.6752C76.8708 83.962 76.4358 84.029 76.392 83.7411C76.3138 83.2278 76.2367 82.7422 76.1596 82.2844H72.6576C72.5805 82.7422 72.5034 83.2278 72.4251 83.7411C72.3814 84.029 71.9475 83.962 71.9901 83.6752C72.4309 80.763 73.2572 76.2449 74.408 76.2449C75.5588 76.2449 76.3782 80.8254 76.8259 83.6752H76.8271ZM76.0848 81.8428C74.8914 74.9766 73.927 74.9766 72.7336 81.8428H76.0848Z" fill="white"/>
<path d="M80.8721 76.3777L84.3948 82.8461V76.4667C84.3948 76.1753 84.8344 76.1753 84.8344 76.4667V83.7086C84.8344 83.934 84.5249 84.0254 84.4132 83.7976L80.8905 77.3291V83.7086C80.8905 83.9988 80.4509 83.9988 80.4509 83.7086V76.4667C80.4509 76.2285 80.7778 76.1603 80.8721 76.3777Z" fill="white"/>
<path d="M90.4873 83.6752C90.5311 83.962 90.096 84.029 90.0523 83.7411C89.9741 83.2278 89.897 82.7422 89.8198 82.2844H86.3179C86.2408 82.7422 86.1637 83.2278 86.0854 83.7411C86.0417 84.029 85.6078 83.962 85.6504 83.6752C86.0912 80.763 86.9163 76.2449 88.0683 76.2449C89.2203 76.2449 90.0385 80.8254 90.4862 83.6752H90.4873ZM89.745 81.8428C88.5516 74.9766 87.5872 74.9766 86.3938 81.8428H89.745Z" fill="white"/>
<path d="M90.1893 76.6875C89.9004 76.6875 89.9004 76.2458 90.1893 76.2458H94.2782C94.567 76.2458 94.567 76.6875 94.2782 76.6875H92.4541V83.7086C92.4541 83.9988 92.0145 83.9988 92.0145 83.7086V76.6875H90.1905H90.1893Z" fill="white"/>
<path d="M95.4682 76.4551V81.4021C95.4682 84.1629 99.0024 84.1618 99.0024 81.4021V76.4551C99.0024 76.1637 99.442 76.1637 99.442 76.4551V81.4021C99.442 82.8553 98.4649 83.934 97.2301 83.9271C95.9826 83.919 95.0286 82.8426 95.0286 81.4021V76.4551C95.0286 76.1649 95.4682 76.1649 95.4682 76.4551Z" fill="white"/>
<path d="M100.759 76.246C105.918 75.4356 106.342 80.4855 102.05 81.1237L104.462 83.6232C104.663 83.8313 104.348 84.1377 104.148 83.9307L101.494 81.1792C101.333 81.1873 101.167 81.1907 100.994 81.1873V83.7087C100.994 83.9989 100.555 83.9989 100.555 83.7087V76.4668C100.555 76.3501 100.645 76.2541 100.76 76.246H100.759ZM100.993 80.7468C105.667 80.8497 105.776 76.0159 100.993 76.6564V80.7468Z" fill="white"/>
<path d="M110.23 83.6752C110.273 83.962 109.838 84.029 109.795 83.7411C109.716 83.2278 109.639 82.7422 109.562 82.2844H106.06C105.983 82.7422 105.906 83.2278 105.828 83.7411C105.784 84.029 105.35 83.962 105.393 83.6752C105.834 80.763 106.66 76.2449 107.811 76.2449C108.962 76.2449 109.781 80.8254 110.229 83.6752H110.23ZM109.487 81.8428C108.294 74.9766 107.33 74.9766 106.136 81.8428H109.487Z" fill="white"/>
<path d="M111.486 76.4668V83.4879H114.873C115.163 83.4879 115.163 83.9295 114.873 83.9295H111.267C111.145 83.9295 111.047 83.8301 111.047 83.7087V76.4668C111.047 76.1755 111.486 76.1755 111.486 76.4668Z" fill="white"/>
<path d="M119.492 77.2761L115.496 81.4647C116.119 83.5792 118.03 84.0035 119.181 82.8925C119.389 82.6913 119.693 83.0093 119.485 83.2104C118.08 84.5666 115.719 84.0394 115.037 81.4531C114.474 79.3189 115.302 76.2726 117.742 76.2471C118.563 76.239 119.838 76.9142 119.491 77.2761H119.492ZM115.304 80.0843C115.304 80.3768 115.328 80.6681 115.377 80.9514L119.016 77.1374C117.517 75.9489 115.304 77.1397 115.304 80.0843Z" fill="white"/>
<path d="M120.479 81.001C120.479 80.69 120.943 80.7801 121.38 80.7801L123.418 76.6875H120.167C119.878 76.6875 119.878 76.2458 120.167 76.2458H123.774C123.948 76.2458 124.051 76.4378 123.96 76.5834L121.87 80.7801H123.241C123.531 80.7801 123.531 81.2218 123.241 81.2218H121.651L120.523 83.4866H123.774C124.064 83.4866 124.064 83.9282 123.774 83.9282H120.167C120.012 83.9282 119.885 83.7618 119.981 83.5907L121.162 81.2206C120.858 81.2206 120.481 81.29 120.481 80.9998L120.479 81.001Z" fill="white"/>
<path d="M129.274 83.6752C129.317 83.962 128.882 84.029 128.839 83.7411C128.76 83.2278 128.683 82.7422 128.606 82.2844H125.104C125.027 82.7422 124.95 83.2278 124.872 83.7411C124.828 84.029 124.394 83.962 124.437 83.6752C124.878 80.763 125.704 76.2449 126.855 76.2449C128.005 76.2449 128.825 80.8254 129.273 83.6752H129.274ZM128.531 81.8428C127.338 74.9766 126.374 74.9766 125.18 81.8428H128.531Z" fill="white"/>
</svg>
